<svg width="519" height="519" viewBox="0 0 519 519" fill="none" xmlns="http://www.w3.org/2000/svg">
<mask id="mask0_77_1912" style="mask-type:alpha" maskUnits="userSpaceOnUse" x="0" y="0" width="519" height="519">
<circle cx="259.5" cy="259.5" r="259.5" fill="#ED73AC"/>
</mask>
<g mask="url(#mask0_77_1912)">
<circle cx="259.5" cy="259.5" r="259.5" fill="#DFC5FE"/>
<circle cx="259.199" cy="494.944" r="185.228" fill="#2A1C56"/>
<path d="M259.199 680.173C234.875 680.173 210.788 675.382 188.316 666.073C165.843 656.764 145.423 643.121 128.223 625.92C111.023 608.72 97.3793 588.301 88.0707 565.828C78.7621 543.355 73.9711 519.269 73.9711 494.944C73.9711 470.62 78.7622 446.533 88.0708 424.06C97.3794 401.588 111.023 381.168 128.223 363.968C145.423 346.768 165.843 333.124 188.316 323.816C210.789 314.507 234.875 309.716 259.199 309.716L259.199 494.944L259.199 680.173Z" fill="#503C8F"/>
</g>
<circle cx="259.199" cy="166.585" r="105.243" fill="#2A1C56"/>
<path d="M259.199 61.3419C287.112 61.3419 313.881 72.43 333.618 92.1669C353.354 111.904 364.443 138.673 364.443 166.585C364.443 194.497 353.355 221.266 333.618 241.003C313.881 260.74 287.112 271.829 259.2 271.829L259.199 166.585V61.3419Z" fill="#503C8F"/>
</svg>
