<svg width="97" height="24" viewBox="0 0 97 24" fill="none" xmlns="http://www.w3.org/2000/svg">
<path d="M10.925 9.09673L8.17081 9.52516C8.08921 8.48469 7.88519 7.70943 7.55877 7.19939C7.25274 6.68936 6.6713 6.43434 5.81444 6.43434C4.97797 6.43434 4.37613 6.87297 4.0089 7.75023C3.64167 8.6071 3.45806 10.127 3.45806 12.31C3.45806 14.4725 3.64167 15.9924 4.0089 16.8697C4.37613 17.747 4.99837 18.1856 5.87564 18.1856C6.77331 18.1856 7.37515 17.8796 7.68118 17.2675C8.0076 16.6555 8.17081 15.7374 8.17081 14.5133L10.9556 14.6357C10.8332 16.3291 10.4354 17.5837 9.76213 18.3998C9.08888 19.2159 7.73218 19.6239 5.69203 19.6239C3.65187 19.6239 2.19316 19.0322 1.3159 17.849C0.438633 16.6657 0 14.8193 0 12.31C0 9.80058 0.438633 7.95425 1.3159 6.77096C2.19316 5.58768 3.75388 4.99604 5.99805 4.99604C7.71178 4.99604 8.92567 5.34286 9.63972 6.03651C10.3538 6.70976 10.7822 7.72983 10.925 9.09673Z" fill="white"/>
<path d="M22.3541 8.33168V19.3485H20.1814L19.2939 18.2468C18.4778 19.1649 17.417 19.6239 16.1113 19.6239C13.7039 19.6239 12.5002 18.461 12.5002 16.1352V8.33168H15.9277V15.6762C15.9277 16.3903 16.0297 16.9309 16.2337 17.2981C16.4377 17.6653 16.8151 17.849 17.366 17.849C17.9168 17.849 18.4472 17.5837 18.9573 17.0533V8.33168H22.3541Z" fill="white"/>
<path d="M28.1227 9.06613C29.1019 8.39288 30.071 8.05626 31.0299 8.05626C34.1717 8.05626 35.7426 9.98419 35.7426 13.8401C35.7426 17.6959 34.1819 19.6239 31.0605 19.6239C30.3872 19.6239 29.7038 19.5525 29.0101 19.4097V23.541L25.5827 24V8.33168H27.174L28.1227 9.06613ZM29.0101 17.8796C29.255 17.9204 29.6222 17.9408 30.1118 17.9408C31.6011 17.9408 32.3458 16.6147 32.3458 13.9625C32.3458 11.3103 31.5603 9.98419 29.9894 9.98419C29.7446 9.98419 29.4182 10.0454 29.0101 10.1678V17.8796Z" fill="white"/>
<path d="M41.6097 19.3485H38.1822V8.33168H41.6097V19.3485Z" fill="white"/>
<path d="M54.2863 4.5064V19.3485H51.9605L51.2261 18.308C50.3488 19.1853 49.3695 19.6239 48.2883 19.6239C45.5341 19.6239 44.157 17.7776 44.157 14.0849C44.157 10.0658 45.6973 8.05626 48.7779 8.05626C49.5328 8.05626 50.2264 8.21947 50.8589 8.54589V4.93483L54.2863 4.5064ZM49.2675 17.9408C49.9 17.9408 50.4304 17.6857 50.8589 17.1757V10.229C50.5324 10.0658 50.1856 9.98419 49.8184 9.98419C48.3087 9.98419 47.5538 11.3103 47.5538 13.9625C47.5538 16.6147 48.1251 17.9408 49.2675 17.9408Z" fill="white"/>
<path d="M66.9165 4.5064V19.3485H64.5907L63.8562 18.308C62.979 19.1853 61.9997 19.6239 60.9184 19.6239C58.1642 19.6239 56.7871 17.7776 56.7871 14.0849C56.7871 10.0658 58.3274 8.05626 61.408 8.05626C62.1629 8.05626 62.8565 8.21947 63.489 8.54589V4.93483L66.9165 4.5064ZM61.8977 17.9408C62.5301 17.9408 63.0606 17.6857 63.489 17.1757V10.229C63.1626 10.0658 62.8157 9.98419 62.4485 9.98419C60.9388 9.98419 60.1839 11.3103 60.1839 13.9625C60.1839 16.6147 60.7552 17.9408 61.8977 17.9408Z" fill="white"/>
<path d="M76.0885 18.0632C75.2317 19.1036 74.0892 19.6239 72.6611 19.6239C71.7022 19.6239 70.9269 19.3485 70.3353 18.7976C69.7641 18.2264 69.4784 17.4613 69.4784 16.5025C69.4784 15.5436 69.8151 14.8193 70.4883 14.3297C71.1616 13.8197 72.304 13.4218 73.9158 13.1362L75.8131 12.769V11.6673C75.8131 10.382 75.3541 9.73938 74.436 9.73938C73.4159 9.73938 72.8651 10.5656 72.7835 12.2182L69.9681 11.8815C70.0905 10.5758 70.4883 9.61697 71.1616 9.00492C71.8348 8.37248 72.9569 8.05626 74.5278 8.05626C77.6493 8.05626 79.21 9.33135 79.21 11.8815V19.3485H76.9454L76.0885 18.0632ZM72.5081 16.4107C72.5081 17.3695 73.0283 17.849 74.0688 17.849C74.6196 17.849 75.2011 17.5225 75.8131 16.8697V14.1461L74.436 14.4215C73.1507 14.7071 72.5081 15.3702 72.5081 16.4107Z" fill="white"/>
<path d="M83.7775 8.33168L85.1546 10.2596C85.991 8.91312 87.1539 8.23987 88.6432 8.23987V10.6574C87.5212 10.6574 86.7357 10.8105 86.2869 11.1165C85.8584 11.4225 85.6442 11.8917 85.6442 12.5242V19.3485H82.2168V8.33168H83.7775Z" fill="white"/>
<path d="M95.8974 17.4205L96.3565 18.9506C95.52 19.3995 94.5815 19.6239 93.541 19.6239C92.521 19.6239 91.7355 19.3485 91.1847 18.7976C90.695 18.308 90.4502 17.3797 90.4502 16.0128V10.076H88.7977V8.33168H90.4502V6.83217L93.8777 5.66928V8.33168H95.9586V10.076H93.8777V16.6861C93.8777 17.4001 94.1429 17.7572 94.6733 17.7572C94.9998 17.7572 95.4078 17.6449 95.8974 17.4205Z" fill="white"/>
<path d="M43.6095 1.12092C42.9934 -0.0289056 41.4616 -0.420604 40.5085 0.550248C40.5085 0.550248 40.2465 0.81718 40.1318 0.93399C40.0173 0.817267 39.7549 0.549986 39.7549 0.549986C38.8016 -0.420778 37.2699 -0.0291677 36.6539 1.12057C36.3273 1.73006 36.2866 2.48207 36.5082 3.1386C36.7612 3.88808 37.3882 4.42972 37.9474 4.94688C38.5552 5.50899 40.0579 6.44216 40.1296 6.44906V6.44941H40.1334C40.2013 6.44495 41.7073 5.51004 42.3159 4.94715C42.8751 4.42998 43.5022 3.88834 43.7552 3.13887C43.9768 2.48242 43.936 1.73033 43.6095 1.12092Z" fill="#D90368"/>
</svg>
