<svg width="41" height="40" viewBox="0 0 41 40" fill="none" xmlns="http://www.w3.org/2000/svg">
<path d="M37.9136 25.0399L38.2211 23.3762C38.2606 23.1642 38.2368 22.9485 38.1616 22.7503C37.4517 19.8996 30.2851 19.7505 28.8095 19.7505C26.9746 19.7505 25.2038 19.9119 23.7237 20.2098C23.5375 19.8468 23.4292 19.4617 23.4079 19.0774C23.3495 18.0821 23.8213 16.9335 24.6718 16.004C24.759 15.9083 24.8454 15.8246 24.9547 15.7285L25.3764 15.364L28.1217 13.096L29.0663 12.3015C29.3741 12.0365 29.7317 11.7226 30.083 11.3596C30.4806 10.9505 30.8249 10.515 31.1009 10.0733C31.2609 9.82291 31.4066 9.54821 31.5356 9.25351C31.6588 8.97055 31.7573 8.70653 31.8362 8.44863C32.1888 7.30265 32.24 6.08574 31.9837 4.92589C31.8482 4.3205 31.6343 3.74524 31.3476 3.21399L31.2577 3.04837L31.2369 3.0113C31.1964 2.94223 31.1495 2.86782 31.1033 2.79688C30.994 2.623 30.8804 2.47658 30.7889 2.36297C30.5955 2.11841 30.3694 1.88105 30.0848 1.62583C29.1845 0.840684 28.0993 0.329172 26.8541 0.104617C25.6927 -0.098603 24.5144 -0.00419741 23.4599 0.37424C22.3878 0.74441 21.4133 1.44501 20.7284 2.3307C20.6082 2.48058 20.4972 2.64219 20.3908 2.80968C20.266 2.61979 20.1313 2.43711 19.987 2.26189C19.8577 2.09388 19.7209 1.956 19.6102 1.84399C19.5747 1.80772 19.5385 1.77145 19.5033 1.73438C19.471 1.70024 19.4368 1.66797 19.4006 1.63783C19.363 1.60636 19.3259 1.57409 19.2886 1.54182C19.1677 1.43701 19.0187 1.30766 18.8408 1.18658C18.4439 0.894022 17.9807 0.64573 17.4769 0.453178C17.0038 0.26516 16.48 0.138485 15.9304 0.077946C15.3964 0.013673 14.858 0.0190017 14.3483 0.0910088C13.2669 0.225955 12.2284 0.633731 11.3392 1.27299C10.8387 1.63756 10.409 2.06774 10.0538 2.56459C9.65375 3.14038 9.43933 3.62522 9.28145 4.02606C8.48377 6.06413 8.68672 8.3753 9.82523 10.2101C10.3698 11.0846 11.0221 11.7292 11.659 12.3074L12.5231 13.0598L12.5586 13.0891C12.8885 13.3518 13.1725 13.5443 13.4469 13.7302L13.572 13.8156C14.2235 14.2519 14.8655 14.6636 15.4058 15.0077C15.569 15.112 15.7349 15.216 15.9 15.3192C16.3336 15.5909 16.7432 15.8475 17.0657 16.0862C17.4801 16.4019 17.5332 16.5529 17.5537 16.6902C17.5724 16.8012 17.5673 16.9201 17.5409 17.0399C16.1555 16.722 14.4622 16.5502 12.6618 16.5502C11.3299 16.5502 4.83114 16.6902 4.21188 19.3852C4.17641 19.4983 4.15748 19.6188 4.15748 19.7436V20.773H3.93212C1.76391 20.773 0 22.5615 0 24.7598V29.0379C0 31.2362 1.76391 33.0246 3.93212 33.0246H4.15748V33.5156C2.57759 34.3309 2.21942 35.3003 2.21942 36.0108C2.21942 39.1599 8.68805 40 12.5103 40C15.4506 40 19.9545 39.5013 21.8771 37.8382C23.3474 39.1493 27.0229 39.3197 28.8199 39.3197C31.0969 39.3197 36.3924 39.0476 36.3924 36.5266C36.3924 35.7572 35.9054 35.2337 35.3107 34.8768C35.9043 34.1002 36.331 33.2209 36.5615 32.2859C36.6335 32.2904 36.7063 32.2928 36.7785 32.2928C38.7777 32.2928 40.404 30.6241 40.404 28.573C40.404 26.9283 39.3585 25.5292 37.9136 25.0399Z" fill="white"/>
<path d="M35.1917 36.5258C35.1917 37.4057 32.3389 38.1188 28.8196 38.1188C25.3003 38.1188 22.4473 37.4057 22.4473 36.5258C22.4473 35.646 25.3003 34.9326 28.8196 34.9326C32.3389 34.9326 35.1917 35.646 35.1917 36.5258Z" fill="#F171AB"/>
<path d="M28.8441 37.3333C26.0435 37.3333 23.7734 36.9165 23.7734 36.402C23.7734 36.1604 24.2746 35.9404 25.0962 35.775C25.5758 36.0615 26.0969 36.2938 26.6487 36.4626C26.9353 36.5506 27.2308 36.6215 27.5325 36.6741C27.9437 36.7455 28.3672 36.7831 28.7993 36.7839H28.8097C30.1791 36.7839 31.4657 36.4114 32.5404 35.7646C33.3931 35.9313 33.9152 36.1556 33.9152 36.402C33.9152 36.9165 31.6446 37.3333 28.8441 37.3333Z" fill="#EF519D"/>
<path d="M21.6009 36.0108C21.6009 37.5512 17.5309 38.7996 12.5104 38.7996C7.48992 38.7996 3.41992 37.5512 3.41992 36.0108C3.41992 34.4703 7.48992 33.2217 12.5104 33.2217C17.5309 33.2217 21.6009 34.4703 21.6009 36.0108Z" fill="#A0145C"/>
<path d="M19.7786 35.7924C19.7786 36.6928 16.5399 37.4224 12.5446 37.4224C8.54927 37.4224 5.31055 36.6928 5.31055 35.7924C5.31055 34.8918 8.54927 34.1621 12.5446 34.1621C16.5399 34.1621 19.7786 34.8918 19.7786 35.7924Z" fill="#630131"/>
<path d="M28.8096 36.7835C25.513 36.7835 22.6986 34.6252 22.1537 31.6785L20.5781 23.1582H37.0411L35.4652 31.6785C34.9203 34.6252 32.1065 36.7835 28.8096 36.7835Z" fill="#F171AB"/>
<mask id="mask0_50_4890" style="mask-type:luminance" maskUnits="userSpaceOnUse" x="20" y="23" width="18" height="14">
<path d="M28.8096 36.7835C25.513 36.7835 22.6986 34.6252 22.1537 31.6785L20.5781 23.1582H37.0411L35.4652 31.6785C34.9203 34.6252 32.1065 36.7835 28.8096 36.7835Z" fill="white"/>
</mask>
<g mask="url(#mask0_50_4890)">
<mask id="mask1_50_4890" style="mask-type:luminance" maskUnits="userSpaceOnUse" x="25" y="36" width="3" height="4">
<path d="M27.7104 36.2393H25.4795V39.8761H27.7104V36.2393Z" fill="white"/>
</mask>
<g mask="url(#mask1_50_4890)">
<path d="M27.5323 36.6734C27.2306 36.6209 26.9351 36.55 26.6484 36.4619C26.7023 36.3595 26.7933 36.2793 26.9034 36.2393H27.2237C27.4018 36.3041 27.5296 36.4737 27.5323 36.6734Z" fill="#F5A0C5"/>
</g>
<mask id="mask2_50_4890" style="mask-type:luminance" maskUnits="userSpaceOnUse" x="27" y="36" width="3" height="4">
<path d="M29.9418 36.2393H27.7109V39.8761H29.9418V36.2393Z" fill="white"/>
</mask>
<g mask="url(#mask2_50_4890)">
<path d="M28.8857 36.4502C28.9401 36.3534 29.0284 36.2777 29.1343 36.2393H29.289C29.1572 36.3137 29.0228 36.3843 28.8857 36.4502Z" fill="#F5A0C5"/>
</g>
<mask id="mask3_50_4890" style="mask-type:luminance" maskUnits="userSpaceOnUse" x="21" y="32" width="3" height="5">
<path d="M23.2485 32.6025H21.0176V36.2394H23.2485V32.6025Z" fill="white"/>
</mask>
<g mask="url(#mask3_50_4890)">
<path d="M22.8066 33.4645C22.6525 33.193 22.5199 32.9092 22.4111 32.6148C22.4207 32.6103 22.4309 32.6063 22.4413 32.6025H22.7618C22.9413 32.6679 23.0701 32.8404 23.0701 33.0431C23.0701 33.2285 22.9627 33.3885 22.8066 33.4645Z" fill="#F5A0C5"/>
</g>
<path d="M24.1337 35.0782C23.9079 34.8813 23.6966 34.6701 23.502 34.4461C23.5668 34.4125 23.6401 34.3936 23.7177 34.3936C23.9767 34.3936 24.1866 34.6034 24.1866 34.8621C24.1866 34.94 24.1673 35.0136 24.1337 35.0782Z" fill="#F5A0C5"/>
<mask id="mask4_50_4890" style="mask-type:luminance" maskUnits="userSpaceOnUse" x="23" y="32" width="3" height="5">
<path d="M25.4789 32.6035H23.248V36.2404H25.4789V32.6035Z" fill="white"/>
</mask>
<g mask="url(#mask4_50_4890)">
<path d="M24.8331 33.5127C24.5742 33.5127 24.3643 33.3028 24.3643 33.0441C24.3643 32.8414 24.4928 32.6689 24.6728 32.6035H24.9934C25.1731 32.6689 25.3017 32.8414 25.3017 33.0441C25.3017 33.3028 25.0918 33.5127 24.8331 33.5127Z" fill="#F5A0C5"/>
</g>
<path d="M27.2236 36.2402H26.9033C26.9532 36.2221 27.0073 36.2119 27.0636 36.2119C27.1199 36.2119 27.1738 36.2221 27.2236 36.2402Z" fill="#F5A0C5"/>
<mask id="mask5_50_4890" style="mask-type:luminance" maskUnits="userSpaceOnUse" x="25" y="32" width="3" height="5">
<path d="M27.7104 32.6035H25.4795V36.2404H27.7104V32.6035Z" fill="white"/>
</mask>
<g mask="url(#mask5_50_4890)">
<path d="M25.9481 35.3307C25.6894 35.3307 25.4795 35.1211 25.4795 34.8621C25.4795 34.6034 25.6894 34.3936 25.9481 34.3936C26.207 34.3936 26.4167 34.6034 26.4167 34.8621C26.4167 35.1211 26.207 35.3307 25.9481 35.3307Z" fill="#F5A0C5"/>
</g>
<mask id="mask6_50_4890" style="mask-type:luminance" maskUnits="userSpaceOnUse" x="25" y="32" width="3" height="5">
<path d="M27.7104 32.6035H25.4795V36.2404H27.7104V32.6035Z" fill="white"/>
</mask>
<g mask="url(#mask6_50_4890)">
<path d="M27.0636 33.5127C26.8046 33.5127 26.5947 33.3028 26.5947 33.0441C26.5947 32.8414 26.7233 32.6689 26.903 32.6035H27.2238C27.4036 32.6689 27.5321 32.8414 27.5321 33.0441C27.5321 33.3028 27.3223 33.5127 27.0636 33.5127Z" fill="#F5A0C5"/>
</g>
<path d="M29.2894 36.2402H29.1348C29.1846 36.2221 29.2385 36.2119 29.2948 36.2119C29.3086 36.2119 29.3222 36.2127 29.3356 36.2138C29.3204 36.2226 29.3049 36.2314 29.2894 36.2402Z" fill="#F5A0C5"/>
<mask id="mask7_50_4890" style="mask-type:luminance" maskUnits="userSpaceOnUse" x="27" y="32" width="3" height="5">
<path d="M29.9418 32.6035H27.7109V36.2404H29.9418V32.6035Z" fill="white"/>
</mask>
<g mask="url(#mask7_50_4890)">
<path d="M28.1795 35.3307C27.9206 35.3307 27.7109 35.1211 27.7109 34.8621C27.7109 34.6034 27.9206 34.3936 28.1795 34.3936C28.4385 34.3936 28.6481 34.6034 28.6481 34.8621C28.6481 35.1211 28.4385 35.3307 28.1795 35.3307Z" fill="#F5A0C5"/>
</g>
<mask id="mask8_50_4890" style="mask-type:luminance" maskUnits="userSpaceOnUse" x="27" y="32" width="3" height="5">
<path d="M29.9418 32.6035H27.7109V36.2404H29.9418V32.6035Z" fill="white"/>
</mask>
<g mask="url(#mask8_50_4890)">
<path d="M29.2947 33.5127C29.0361 33.5127 28.8262 33.3028 28.8262 33.0441C28.8262 32.8414 28.9547 32.6689 29.1345 32.6035H29.4553C29.6351 32.6689 29.7636 32.8414 29.7636 33.0441C29.7636 33.3028 29.5537 33.5127 29.2947 33.5127Z" fill="#F5A0C5"/>
</g>
<mask id="mask9_50_4890" style="mask-type:luminance" maskUnits="userSpaceOnUse" x="29" y="32" width="4" height="5">
<path d="M32.172 32.6025H29.9414V36.2394H32.172V32.6025Z" fill="white"/>
</mask>
<g mask="url(#mask9_50_4890)">
<path d="M30.41 35.3297C30.151 35.3297 29.9414 35.1201 29.9414 34.8612C29.9414 34.6025 30.151 34.3926 30.41 34.3926C30.6687 34.3926 30.8786 34.6025 30.8786 34.8612C30.8786 34.9174 30.8687 34.9713 30.8506 35.0212C30.7586 35.118 30.6639 35.2121 30.566 35.3033C30.5172 35.3204 30.4647 35.3297 30.41 35.3297Z" fill="#F5A0C5"/>
</g>
<mask id="mask10_50_4890" style="mask-type:luminance" maskUnits="userSpaceOnUse" x="29" y="32" width="4" height="5">
<path d="M32.172 32.6025H29.9414V36.2394H32.172V32.6025Z" fill="white"/>
</mask>
<g mask="url(#mask10_50_4890)">
<path d="M31.5252 33.5117C31.2665 33.5117 31.0566 33.3018 31.0566 33.0431C31.0566 32.8404 31.1852 32.6679 31.3649 32.6025H31.6858C31.8655 32.6679 31.9941 32.8404 31.9941 33.0431C31.9941 33.3018 31.7842 33.5117 31.5252 33.5117Z" fill="#F5A0C5"/>
</g>
<path d="M22.762 32.6025H22.4414C22.491 32.5843 22.5454 32.5742 22.6017 32.5742C22.6577 32.5742 22.7116 32.5843 22.762 32.6025Z" fill="#F5A0C5"/>
<mask id="mask11_50_4890" style="mask-type:luminance" maskUnits="userSpaceOnUse" x="21" y="28" width="3" height="5">
<path d="M23.2485 28.9658H21.0176V32.6027H23.2485V28.9658Z" fill="white"/>
</mask>
<g mask="url(#mask11_50_4890)">
<path d="M22.6017 29.875C22.3427 29.875 22.1328 29.6651 22.1328 29.4064C22.1328 29.2037 22.2611 29.0312 22.4414 28.9658H22.7619C22.9414 29.0312 23.0702 29.2037 23.0702 29.4064C23.0702 29.6651 22.8603 29.875 22.6017 29.875Z" fill="#F5A0C5"/>
</g>
<path d="M24.9934 32.6025H24.6729C24.7227 32.5843 24.7769 32.5742 24.8331 32.5742C24.8894 32.5742 24.9433 32.5843 24.9934 32.6025Z" fill="#F5A0C5"/>
<mask id="mask12_50_4890" style="mask-type:luminance" maskUnits="userSpaceOnUse" x="23" y="28" width="3" height="5">
<path d="M25.4789 28.9658H23.248V32.6027H25.4789V28.9658Z" fill="white"/>
</mask>
<g mask="url(#mask12_50_4890)">
<path d="M23.7166 31.6943C23.4579 31.6943 23.248 31.4844 23.248 31.2254C23.248 30.9667 23.4579 30.7568 23.7166 30.7568C23.9756 30.7568 24.1855 30.9667 24.1855 31.2254C24.1855 31.4844 23.9756 31.6943 23.7166 31.6943Z" fill="#F5A0C5"/>
</g>
<mask id="mask13_50_4890" style="mask-type:luminance" maskUnits="userSpaceOnUse" x="23" y="28" width="3" height="5">
<path d="M25.4789 28.9658H23.248V32.6027H25.4789V28.9658Z" fill="white"/>
</mask>
<g mask="url(#mask13_50_4890)">
<path d="M24.8331 29.875C24.5742 29.875 24.3643 29.6651 24.3643 29.4064C24.3643 29.2037 24.4928 29.0312 24.6728 28.9658H24.9931C25.1731 29.0312 25.3017 29.2037 25.3017 29.4064C25.3017 29.6651 25.0918 29.875 24.8331 29.875Z" fill="#F5A0C5"/>
</g>
<path d="M27.2241 32.6025H26.9033C26.9535 32.5843 27.0073 32.5742 27.0639 32.5742C27.1201 32.5742 27.174 32.5843 27.2241 32.6025Z" fill="#F5A0C5"/>
<mask id="mask14_50_4890" style="mask-type:luminance" maskUnits="userSpaceOnUse" x="25" y="28" width="3" height="5">
<path d="M27.7104 28.9658H25.4795V32.6027H27.7104V28.9658Z" fill="white"/>
</mask>
<g mask="url(#mask14_50_4890)">
<path d="M25.9481 31.6943C25.6894 31.6943 25.4795 31.4844 25.4795 31.2254C25.4795 30.9667 25.6894 30.7568 25.9481 30.7568C26.207 30.7568 26.4167 30.9667 26.4167 31.2254C26.4167 31.4844 26.207 31.6943 25.9481 31.6943Z" fill="#F5A0C5"/>
</g>
<mask id="mask15_50_4890" style="mask-type:luminance" maskUnits="userSpaceOnUse" x="25" y="28" width="3" height="5">
<path d="M27.7104 28.9658H25.4795V32.6027H27.7104V28.9658Z" fill="white"/>
</mask>
<g mask="url(#mask15_50_4890)">
<path d="M27.0636 29.875C26.8046 29.875 26.5947 29.6651 26.5947 29.4064C26.5947 29.2037 26.7233 29.0312 26.9033 28.9658H27.2236C27.4036 29.0312 27.5321 29.2037 27.5321 29.4064C27.5321 29.6651 27.3223 29.875 27.0636 29.875Z" fill="#F5A0C5"/>
</g>
<path d="M29.4556 32.6025H29.1348C29.1849 32.5843 29.2388 32.5742 29.295 32.5742C29.3516 32.5742 29.4055 32.5843 29.4556 32.6025Z" fill="#F5A0C5"/>
<mask id="mask16_50_4890" style="mask-type:luminance" maskUnits="userSpaceOnUse" x="27" y="28" width="3" height="5">
<path d="M29.9418 28.9658H27.7109V32.6027H29.9418V28.9658Z" fill="white"/>
</mask>
<g mask="url(#mask16_50_4890)">
<path d="M28.1795 31.6943C27.9206 31.6943 27.7109 31.4844 27.7109 31.2254C27.7109 30.9667 27.9206 30.7568 28.1795 30.7568C28.4385 30.7568 28.6481 30.9667 28.6481 31.2254C28.6481 31.4844 28.4385 31.6943 28.1795 31.6943Z" fill="#F5A0C5"/>
</g>
<mask id="mask17_50_4890" style="mask-type:luminance" maskUnits="userSpaceOnUse" x="27" y="28" width="3" height="5">
<path d="M29.9418 28.9658H27.7109V32.6027H29.9418V28.9658Z" fill="white"/>
</mask>
<g mask="url(#mask17_50_4890)">
<path d="M29.2947 29.875C29.0361 29.875 28.8262 29.6651 28.8262 29.4064C28.8262 29.2037 28.9547 29.0312 29.1347 28.9658H29.455C29.6351 29.0312 29.7636 29.2037 29.7636 29.4064C29.7636 29.6651 29.5537 29.875 29.2947 29.875Z" fill="#F5A0C5"/>
</g>
<path d="M31.6861 32.6025H31.3652C31.4154 32.5843 31.4692 32.5742 31.5255 32.5742C31.5821 32.5742 31.6359 32.5843 31.6861 32.6025Z" fill="#F5A0C5"/>
<mask id="mask18_50_4890" style="mask-type:luminance" maskUnits="userSpaceOnUse" x="29" y="28" width="4" height="5">
<path d="M32.172 28.9658H29.9414V32.6027H32.172V28.9658Z" fill="white"/>
</mask>
<g mask="url(#mask18_50_4890)">
<path d="M30.41 31.6943C30.151 31.6943 29.9414 31.4844 29.9414 31.2254C29.9414 30.9667 30.151 30.7568 30.41 30.7568C30.6687 30.7568 30.8786 30.9667 30.8786 31.2254C30.8786 31.4844 30.6687 31.6943 30.41 31.6943Z" fill="#F5A0C5"/>
</g>
<mask id="mask19_50_4890" style="mask-type:luminance" maskUnits="userSpaceOnUse" x="29" y="28" width="4" height="5">
<path d="M32.172 28.9658H29.9414V32.6027H32.172V28.9658Z" fill="white"/>
</mask>
<g mask="url(#mask19_50_4890)">
<path d="M31.5252 29.875C31.2665 29.875 31.0566 29.6651 31.0566 29.4064C31.0566 29.2037 31.1852 29.0312 31.3652 28.9658H31.6855C31.8655 29.0312 31.9941 29.2037 31.9941 29.4064C31.9941 29.6651 31.7842 29.875 31.5252 29.875Z" fill="#F5A0C5"/>
</g>
<mask id="mask20_50_4890" style="mask-type:luminance" maskUnits="userSpaceOnUse" x="32" y="28" width="3" height="5">
<path d="M34.4028 28.9658H32.1719V32.6027H34.4028V28.9658Z" fill="white"/>
</mask>
<g mask="url(#mask20_50_4890)">
<path d="M32.5188 31.6783C32.3191 31.6247 32.1719 31.4422 32.1719 31.2254C32.1719 30.9667 32.3818 30.7568 32.6407 30.7568C32.6541 30.7568 32.6671 30.7574 32.6802 30.7584L32.5188 31.6783Z" fill="#F5A0C5"/>
</g>
<mask id="mask21_50_4890" style="mask-type:luminance" maskUnits="userSpaceOnUse" x="34" y="28" width="3" height="5">
<path d="M36.6342 28.9658H34.4033V32.6027H36.6342V28.9658Z" fill="white"/>
</mask>
<g mask="url(#mask21_50_4890)">
<path d="M35.8691 29.4941L35.9667 28.9658H35.967L35.8691 29.4941Z" fill="#F5A0C5"/>
</g>
<path d="M22.762 28.9658H22.4414C22.491 28.9476 22.5454 28.9375 22.6017 28.9375C22.6577 28.9375 22.7116 28.9476 22.762 28.9658Z" fill="#F5A0C5"/>
<path d="M21.4863 28.0566H21.4839L21.3164 27.1509C21.3689 27.1303 21.4263 27.1191 21.4863 27.1191C21.7452 27.1191 21.9551 27.329 21.9551 27.5877C21.9551 27.8467 21.7452 28.0566 21.4863 28.0566Z" fill="#F5A0C5"/>
<mask id="mask22_50_4890" style="mask-type:luminance" maskUnits="userSpaceOnUse" x="21" y="25" width="3" height="4">
<path d="M23.2485 25.3291H21.0176V28.966H23.2485V25.3291Z" fill="white"/>
</mask>
<g mask="url(#mask22_50_4890)">
<path d="M22.6017 26.2383C22.3427 26.2383 22.1328 26.0284 22.1328 25.7697C22.1328 25.567 22.2611 25.3947 22.4414 25.3291H22.7619C22.9414 25.3947 23.0702 25.567 23.0702 25.7697C23.0702 26.0284 22.8603 26.2383 22.6017 26.2383Z" fill="#F5A0C5"/>
</g>
<path d="M24.9931 28.9658H24.6729C24.7227 28.9476 24.7769 28.9375 24.8331 28.9375C24.8894 28.9375 24.9433 28.9476 24.9931 28.9658Z" fill="#F5A0C5"/>
<mask id="mask23_50_4890" style="mask-type:luminance" maskUnits="userSpaceOnUse" x="23" y="25" width="3" height="4">
<path d="M25.4789 25.3291H23.248V28.966H25.4789V25.3291Z" fill="white"/>
</mask>
<g mask="url(#mask23_50_4890)">
<path d="M23.7166 28.0566C23.4579 28.0566 23.248 27.8467 23.248 27.5877C23.248 27.329 23.4579 27.1191 23.7166 27.1191C23.9756 27.1191 24.1855 27.329 24.1855 27.5877C24.1855 27.8467 23.9756 28.0566 23.7166 28.0566Z" fill="#F5A0C5"/>
</g>
<mask id="mask24_50_4890" style="mask-type:luminance" maskUnits="userSpaceOnUse" x="23" y="25" width="3" height="4">
<path d="M25.4789 25.3291H23.248V28.966H25.4789V25.3291Z" fill="white"/>
</mask>
<g mask="url(#mask24_50_4890)">
<path d="M24.8331 26.2383C24.5742 26.2383 24.3643 26.0284 24.3643 25.7697C24.3643 25.567 24.4928 25.3947 24.6728 25.3291H24.9934C25.1731 25.3947 25.3017 25.567 25.3017 25.7697C25.3017 26.0284 25.0918 26.2383 24.8331 26.2383Z" fill="#F5A0C5"/>
</g>
<path d="M27.2236 28.9658H26.9033C26.9532 28.9476 27.0073 28.9375 27.0636 28.9375C27.1199 28.9375 27.1738 28.9476 27.2236 28.9658Z" fill="#F5A0C5"/>
<mask id="mask25_50_4890" style="mask-type:luminance" maskUnits="userSpaceOnUse" x="25" y="25" width="3" height="4">
<path d="M27.7104 25.3291H25.4795V28.966H27.7104V25.3291Z" fill="white"/>
</mask>
<g mask="url(#mask25_50_4890)">
<path d="M25.9481 28.0566C25.6894 28.0566 25.4795 27.8467 25.4795 27.5877C25.4795 27.329 25.6894 27.1191 25.9481 27.1191C26.207 27.1191 26.4167 27.329 26.4167 27.5877C26.4167 27.8467 26.207 28.0566 25.9481 28.0566Z" fill="#F5A0C5"/>
</g>
<path d="M27.0636 26.2378C26.8046 26.2378 26.5947 26.0279 26.5947 25.7692C26.5947 25.6143 26.6699 25.4769 26.7859 25.3916C26.9825 25.4052 27.1815 25.4169 27.3833 25.4265C27.4748 25.5121 27.5321 25.634 27.5321 25.7692C27.5321 26.0279 27.3223 26.2378 27.0636 26.2378Z" fill="#F5A0C5"/>
<path d="M29.4551 28.9658H29.1348C29.1846 28.9476 29.2385 28.9375 29.2948 28.9375C29.351 28.9375 29.4052 28.9476 29.4551 28.9658Z" fill="#F5A0C5"/>
<mask id="mask26_50_4890" style="mask-type:luminance" maskUnits="userSpaceOnUse" x="27" y="25" width="3" height="4">
<path d="M29.9418 25.3291H27.7109V28.966H29.9418V25.3291Z" fill="white"/>
</mask>
<g mask="url(#mask26_50_4890)">
<path d="M28.1795 28.0566C27.9206 28.0566 27.7109 27.8467 27.7109 27.5877C27.7109 27.329 27.9206 27.1191 28.1795 27.1191C28.4385 27.1191 28.6481 27.329 28.6481 27.5877C28.6481 27.8467 28.4385 28.0566 28.1795 28.0566Z" fill="#F5A0C5"/>
</g>
<path d="M29.2947 26.2378C29.0361 26.2378 28.8262 26.0279 28.8262 25.7693C28.8262 25.6508 28.8702 25.5428 28.9425 25.4601H28.9859C28.9883 25.4601 28.9907 25.4602 28.9931 25.4599H29.0321C29.0347 25.4596 29.0369 25.4596 29.0398 25.4596H29.055C29.0598 25.4596 29.0649 25.4596 29.0699 25.4594H29.0942C29.099 25.4591 29.1043 25.4591 29.1091 25.4591H29.1219C29.1249 25.4588 29.1278 25.4588 29.131 25.4588H29.1323C29.3022 25.457 29.4705 25.4538 29.6374 25.4492C29.7156 25.533 29.7636 25.6455 29.7636 25.7693C29.7636 26.0279 29.5537 26.2378 29.2947 26.2378Z" fill="#F5A0C5"/>
<path d="M31.6855 28.9658H31.3652C31.4151 28.9476 31.469 28.9375 31.5253 28.9375C31.5815 28.9375 31.6357 28.9476 31.6855 28.9658Z" fill="#F5A0C5"/>
<mask id="mask27_50_4890" style="mask-type:luminance" maskUnits="userSpaceOnUse" x="29" y="25" width="4" height="4">
<path d="M32.172 25.3291H29.9414V28.966H32.172V25.3291Z" fill="white"/>
</mask>
<g mask="url(#mask27_50_4890)">
<path d="M30.41 28.0575C30.151 28.0575 29.9414 27.8477 29.9414 27.5887C29.9414 27.33 30.151 27.1201 30.41 27.1201C30.6687 27.1201 30.8786 27.33 30.8786 27.5887C30.8786 27.8477 30.6687 28.0575 30.41 28.0575Z" fill="#F5A0C5"/>
</g>
<mask id="mask28_50_4890" style="mask-type:luminance" maskUnits="userSpaceOnUse" x="29" y="25" width="4" height="4">
<path d="M32.172 25.3291H29.9414V28.966H32.172V25.3291Z" fill="white"/>
</mask>
<g mask="url(#mask28_50_4890)">
<path d="M31.5252 26.2383C31.2665 26.2383 31.0566 26.0284 31.0566 25.7697C31.0566 25.5897 31.1583 25.4334 31.3071 25.3547C31.3999 25.3467 31.4914 25.3382 31.5828 25.3291H31.6858C31.8655 25.3947 31.9941 25.567 31.9941 25.7697C31.9941 26.0284 31.7842 26.2383 31.5252 26.2383Z" fill="#F5A0C5"/>
</g>
<mask id="mask29_50_4890" style="mask-type:luminance" maskUnits="userSpaceOnUse" x="32" y="25" width="3" height="4">
<path d="M34.4028 25.3291H32.1719V28.966H34.4028V25.3291Z" fill="white"/>
</mask>
<g mask="url(#mask29_50_4890)">
<path d="M32.6407 28.0566C32.3818 28.0566 32.1719 27.8467 32.1719 27.5877C32.1719 27.329 32.3818 27.1191 32.6407 27.1191C32.8994 27.1191 33.1093 27.329 33.1093 27.5877C33.1093 27.8467 32.8994 28.0566 32.6407 28.0566Z" fill="#F5A0C5"/>
</g>
<mask id="mask30_50_4890" style="mask-type:luminance" maskUnits="userSpaceOnUse" x="32" y="25" width="3" height="4">
<path d="M34.4028 25.3291H32.1719V28.966H34.4028V25.3291Z" fill="white"/>
</mask>
<g mask="url(#mask30_50_4890)">
<path d="M33.4877 26.1542C33.3663 26.0694 33.2871 25.9289 33.2871 25.7697C33.2871 25.567 33.4156 25.3947 33.5954 25.3291H33.6325L33.4877 26.1542Z" fill="#F5A0C5"/>
</g>
<path d="M35.9671 28.9655H35.9668L35.9721 28.9375L35.9671 28.9655Z" fill="#F5A0C5"/>
<path d="M22.762 25.3298H22.4414C22.491 25.3116 22.5454 25.3018 22.6017 25.3018C22.6577 25.3018 22.7116 25.3116 22.762 25.3298Z" fill="#F5A0C5"/>
<mask id="mask31_50_4890" style="mask-type:luminance" maskUnits="userSpaceOnUse" x="21" y="21" width="3" height="5">
<path d="M23.2485 21.6924H21.0176V25.3293H23.2485V21.6924Z" fill="white"/>
</mask>
<g mask="url(#mask31_50_4890)">
<path d="M21.4862 24.4202C21.2275 24.4202 21.0176 24.2104 21.0176 23.9514C21.0176 23.941 21.0178 23.9303 21.0186 23.9199C21.2021 24.0711 21.4424 24.2152 21.7326 24.3504C21.6611 24.3946 21.5766 24.4202 21.4862 24.4202Z" fill="#F5A0C5"/>
</g>
<path d="M24.9934 25.3298H24.6729C24.7227 25.3116 24.7769 25.3018 24.8331 25.3018C24.8894 25.3018 24.9433 25.3116 24.9934 25.3298Z" fill="#F5A0C5"/>
<path d="M31.6859 25.3293H31.583C31.6094 25.3266 31.6358 25.324 31.6622 25.3213C31.6702 25.3237 31.6779 25.3264 31.6859 25.3293Z" fill="#F5A0C5"/>
<path d="M33.6328 25.3287H33.5957C33.6085 25.3241 33.6216 25.3199 33.6349 25.3164L33.6328 25.3287Z" fill="#F5A0C5"/>
</g>
<path d="M37.0204 23.2061C37.0204 24.4513 33.3446 25.4612 28.81 25.4612C24.2754 25.4612 20.5996 24.4513 20.5996 23.2061C20.5996 21.9606 24.2754 20.9512 28.81 20.9512C33.3446 20.9512 37.0204 21.9606 37.0204 23.2061Z" fill="#F171AB"/>
<path d="M28.8095 21.9268C24.7464 21.9268 21.4269 22.8671 21.2002 24.0523C22.4198 24.878 25.3662 25.4604 28.8095 25.4604C32.2525 25.4604 35.1989 24.878 36.4188 24.0523C36.1921 22.8671 32.8725 21.9268 28.8095 21.9268Z" fill="#630131"/>
<path d="M33.8287 24.0788C33.8287 24.4847 31.5908 24.8138 28.8308 24.8138C26.0706 24.8138 23.833 24.4847 23.833 24.0788C23.833 23.6729 26.0706 23.3438 28.8308 23.3438C31.5908 23.3438 33.8287 23.6729 33.8287 24.0788Z" fill="#470021"/>
<path d="M36.7784 26.0537C36.687 26.0537 36.5971 26.0604 36.5083 26.0708L36.2685 27.3656C36.4248 27.2944 36.5968 27.2536 36.7784 27.2536C37.4801 27.2536 38.049 27.8446 38.049 28.5737C38.049 29.3026 37.4801 29.8935 36.7784 29.8935C36.424 29.8935 36.1042 29.7421 35.8738 29.4988L35.6338 30.7952C35.9752 30.9854 36.3645 31.0934 36.7784 31.0934C38.118 31.0934 39.2037 29.9653 39.2037 28.5737C39.2037 27.1821 38.118 26.0537 36.7784 26.0537Z" fill="#DD127B"/>
<path d="M36.7784 31.0934C36.3645 31.0934 35.9752 30.9854 35.6338 30.7952L35.8738 29.4988C36.1042 29.7421 36.424 29.8935 36.7784 29.8935C37.4801 29.8935 38.049 29.3026 38.049 28.5737C38.049 27.8446 37.4801 27.2536 36.7784 27.2536C36.5968 27.2536 36.4248 27.2944 36.2685 27.3656L36.5083 26.0708C36.5971 26.0604 36.687 26.0537 36.7784 26.0537C38.118 26.0537 39.2037 27.1821 39.2037 28.5737C39.2037 29.9653 38.118 31.0934 36.7784 31.0934Z" fill="#C31861"/>
<path d="M35.4649 31.6788L35.8052 29.8386L35.869 29.4943L35.8738 29.4986L35.6338 30.795L35.6292 30.7926L35.4649 31.6788ZM36.0885 28.3075L36.6672 25.1784L36.5021 26.071L36.5082 26.0705L36.2685 27.3653L36.2624 27.368L36.0885 28.3075ZM37.0408 23.1585H37.0182V23.1582H37.0408L37.0406 23.1585" fill="#F49DC3"/>
<path d="M28.8089 36.7835H28.7985C28.5798 36.783 28.3637 36.7726 28.1504 36.7537C28.4024 36.6665 28.6475 36.5651 28.8851 36.4504C28.847 36.5184 28.8251 36.5966 28.8251 36.6801C28.8251 36.7155 28.8291 36.7502 28.8366 36.7833C28.8273 36.7835 28.8182 36.7835 28.8089 36.7835ZM29.7607 36.7227C29.7617 36.7086 29.7626 36.6945 29.7626 36.6801C29.7626 36.4774 29.634 36.3048 29.454 36.2395C29.4161 36.2256 29.3761 36.2165 29.3345 36.2131C29.7804 35.956 30.1935 35.6504 30.5653 35.3037C30.6973 35.257 30.8021 35.153 30.8499 35.0215C31.6929 34.1337 32.2836 33.0149 32.5039 31.7604L32.5183 31.6774C32.5572 31.6878 32.598 31.6934 32.6402 31.6934C32.8989 31.6934 33.1087 31.4836 33.1087 31.2246C33.1087 30.9792 32.9199 30.7779 32.6796 30.7576L33.4874 26.154C33.5635 26.2068 33.6557 26.238 33.7555 26.238C34.0144 26.238 34.2243 26.0281 34.2243 25.7694C34.2243 25.5667 34.0958 25.3944 33.9158 25.3288C33.8659 25.3107 33.8117 25.3008 33.7555 25.3008C33.7136 25.3008 33.6731 25.3062 33.6344 25.3166L33.6864 25.0197C35.0623 24.7402 36.109 24.3455 36.6374 23.8873C36.6347 23.9081 36.6331 23.9295 36.6331 23.9508C36.6331 24.1058 36.7083 24.2428 36.8238 24.3282L36.6667 25.1781L36.088 28.3072L35.9714 28.9377C35.9205 28.9393 35.8717 28.9492 35.8261 28.9657C35.6463 29.031 35.5178 29.2036 35.5178 29.4063C35.5178 29.6007 35.6362 29.7674 35.8047 29.8383L35.4644 31.6785C35.19 33.1629 34.3398 34.447 33.1421 35.3562C32.685 35.7032 32.1772 35.9955 31.6315 36.2235C31.5971 36.2155 31.5614 36.2112 31.5246 36.2112C31.4683 36.2112 31.4144 36.2214 31.3646 36.2395C31.2752 36.272 31.1984 36.3307 31.144 36.4067C30.7016 36.5545 30.2386 36.6614 29.7607 36.7227ZM32.6402 34.3929C32.3812 34.3929 32.1713 34.6028 32.1713 34.8615C32.1713 35.1204 32.3812 35.3301 32.6402 35.3301C32.8989 35.3301 33.1087 35.1204 33.1087 34.8615C33.1087 34.6028 32.8989 34.3929 32.6402 34.3929ZM33.5952 32.6026C33.4154 32.6679 33.2869 32.8405 33.2869 33.0432C33.2869 33.3019 33.4968 33.5118 33.7555 33.5118C34.0144 33.5118 34.2243 33.3019 34.2243 33.0432C34.2243 32.8405 34.0958 32.6679 33.9158 32.6026C33.8659 32.5845 33.8117 32.5743 33.7555 32.5743C33.6992 32.5743 33.6453 32.5845 33.5952 32.6026ZM34.8711 30.756C34.6121 30.756 34.4022 30.9659 34.4022 31.2246C34.4022 31.4836 34.6121 31.6934 34.8711 31.6934C35.1297 31.6934 35.3396 31.4836 35.3396 31.2246C35.3396 30.9659 35.1297 30.756 34.8711 30.756ZM33.5952 28.9657C33.4154 29.031 33.2869 29.2036 33.2869 29.4063C33.2869 29.665 33.4968 29.8749 33.7555 29.8749C34.0144 29.8749 34.2243 29.665 34.2243 29.4063C34.2243 29.2036 34.0958 29.031 33.9158 28.9657C33.8659 28.9476 33.8117 28.9374 33.7555 28.9374C33.6992 28.9374 33.6453 28.9476 33.5952 28.9657ZM34.8711 27.1191C34.6121 27.1191 34.4022 27.329 34.4022 27.5877C34.4022 27.8467 34.6121 28.0566 34.8711 28.0566C35.1297 28.0566 35.3396 27.8467 35.3396 27.5877C35.3396 27.329 35.1297 27.1191 34.8711 27.1191ZM35.8261 25.3288C35.6463 25.3944 35.5178 25.5667 35.5178 25.7694C35.5178 26.0281 35.7277 26.238 35.9864 26.238C36.2453 26.238 36.4549 26.0281 36.4549 25.7694C36.4549 25.5667 36.3267 25.3944 36.1466 25.3288C36.0968 25.3107 36.0426 25.3008 35.9864 25.3008C35.9301 25.3008 35.8762 25.3107 35.8261 25.3288ZM36.9457 23.5089C36.9745 23.4505 36.995 23.391 37.0067 23.3313L37.007 23.331C37.0073 23.3297 37.0075 23.3284 37.0078 23.327V23.3267C37.0089 23.3211 37.0099 23.3156 37.0107 23.31C37.0107 23.3097 37.0107 23.3094 37.011 23.3092C37.011 23.3081 37.0113 23.3068 37.0115 23.3057V23.3049C37.0118 23.3038 37.0118 23.3028 37.0121 23.3014C37.0121 23.3012 37.0121 23.3009 37.0123 23.3006C37.0126 23.2979 37.0131 23.2953 37.0134 23.2923C37.0137 23.2913 37.0139 23.2894 37.0139 23.2884C37.0139 23.2881 37.0139 23.2878 37.0142 23.2873C37.0142 23.2865 37.0145 23.2851 37.0145 23.2843C37.0145 23.2838 37.0145 23.2836 37.0147 23.283C37.0147 23.2822 37.015 23.2811 37.015 23.2801V23.279C37.0153 23.2779 37.0153 23.2769 37.0155 23.2755V23.275C37.0158 23.2734 37.0158 23.2721 37.0161 23.2707V23.2702C37.0161 23.2692 37.0163 23.2681 37.0163 23.2668C37.0166 23.2665 37.0166 23.266 37.0166 23.2657C37.0166 23.2646 37.0166 23.2635 37.0169 23.2627V23.2614C37.0171 23.2603 37.0171 23.2595 37.0171 23.2585C37.0171 23.2582 37.0171 23.2577 37.0174 23.2571V23.2542C37.0177 23.254 37.0177 23.2534 37.0177 23.2532C37.0177 23.2518 37.0179 23.2505 37.0179 23.2491V23.2489C37.0179 23.2475 37.0182 23.2462 37.0182 23.2451V23.2438C37.0182 23.243 37.0185 23.2419 37.0185 23.2411V23.2395C37.0185 23.2387 37.0185 23.2377 37.0187 23.2369V23.2315C37.019 23.2299 37.019 23.2286 37.019 23.2273V23.227C37.019 23.2257 37.019 23.2246 37.0193 23.2233V23.2057C37.0193 23.1897 37.0187 23.1739 37.0177 23.1582H37.0403L36.9771 23.499C36.9665 23.502 36.9561 23.5052 36.9457 23.5089Z" fill="#EF519D"/>
<path d="M28.8376 36.783C28.8302 36.75 28.8262 36.7153 28.8262 36.6798C28.8262 36.5964 28.848 36.5182 28.8862 36.4502C29.0233 36.3843 29.1577 36.3137 29.2894 36.2393H29.455C29.6351 36.3046 29.7636 36.4771 29.7636 36.6798C29.7636 36.6942 29.7628 36.7084 29.7617 36.7225C29.459 36.7614 29.1505 36.782 28.8376 36.783Z" fill="#F171AB"/>
<path d="M31.1445 36.4065C31.1989 36.3305 31.2757 36.2718 31.3651 36.2393H31.5936C31.4467 36.2995 31.2968 36.3555 31.1445 36.4065Z" fill="#F171AB"/>
<path d="M29.4547 36.2393H29.2891C29.3045 36.2305 29.32 36.2217 29.3352 36.2129C29.3768 36.2164 29.4168 36.2254 29.4547 36.2393Z" fill="#F171AB"/>
<path d="M31.5938 36.2392H31.3652C31.4151 36.2211 31.469 36.2109 31.5253 36.2109C31.5621 36.2109 31.5978 36.2152 31.6322 36.2232C31.6194 36.2285 31.6069 36.2339 31.5938 36.2392Z" fill="#F171AB"/>
<path d="M30.5654 35.3036C30.6633 35.2124 30.758 35.1183 30.85 35.0215C30.8023 35.153 30.6974 35.257 30.5654 35.3036Z" fill="#F171AB"/>
<path d="M32.6407 35.3307C32.3818 35.3307 32.1719 35.1211 32.1719 34.8621C32.1719 34.6034 32.3818 34.3936 32.6407 34.3936C32.8994 34.3936 33.1093 34.6034 33.1093 34.8621C33.1093 35.1211 32.8994 35.3307 32.6407 35.3307Z" fill="#F171AB"/>
<path d="M33.7557 33.5117C33.497 33.5117 33.2871 33.3018 33.2871 33.0431C33.2871 32.8404 33.4156 32.6679 33.5954 32.6025H33.916C34.096 32.6679 34.2245 32.8404 34.2245 33.0431C34.2245 33.3018 34.0146 33.5117 33.7557 33.5117Z" fill="#F171AB"/>
<path d="M33.9163 32.6025H33.5957C33.6458 32.5843 33.6997 32.5742 33.756 32.5742C33.8123 32.5742 33.8664 32.5843 33.9163 32.6025Z" fill="#F171AB"/>
<path d="M32.6404 31.6936C32.5983 31.6936 32.5575 31.688 32.5186 31.6776L32.6799 30.7578C32.9202 30.7781 33.109 30.9794 33.109 31.2248C33.109 31.4838 32.8991 31.6936 32.6404 31.6936Z" fill="#F171AB"/>
<path d="M33.7557 29.875C33.497 29.875 33.2871 29.6651 33.2871 29.4064C33.2871 29.2037 33.4156 29.0312 33.5954 28.9658H33.916C34.096 29.0312 34.2245 29.2037 34.2245 29.4064C34.2245 29.6651 34.0146 29.875 33.7557 29.875Z" fill="#F171AB"/>
<path d="M34.8722 31.6933C34.6132 31.6933 34.4033 31.4834 34.4033 31.2244C34.4033 30.9657 34.6132 30.7559 34.8722 30.7559C35.1309 30.7559 35.3407 30.9657 35.3407 31.2244C35.3407 31.4834 35.1309 31.6933 34.8722 31.6933Z" fill="#F171AB"/>
<path d="M35.8055 29.8384C35.637 29.7675 35.5186 29.6008 35.5186 29.4064C35.5186 29.2037 35.6471 29.0312 35.8269 28.9658H35.9669L35.8693 29.4941L35.8055 29.8384Z" fill="#F171AB"/>
<path d="M33.9163 28.9658H33.5957C33.6458 28.9476 33.6997 28.9375 33.756 28.9375C33.8123 28.9375 33.8664 28.9476 33.9163 28.9658Z" fill="#F171AB"/>
<path d="M33.7563 26.2373C33.6566 26.2373 33.5643 26.2061 33.4883 26.1533L33.6331 25.3281H33.9166C34.0966 25.3937 34.2252 25.566 34.2252 25.7687C34.2252 26.0274 34.0153 26.2373 33.7563 26.2373Z" fill="#F171AB"/>
<path d="M35.9662 28.9655H35.8262C35.8718 28.949 35.9206 28.9391 35.9715 28.9375L35.9662 28.9655Z" fill="#F171AB"/>
<path d="M34.8722 28.0566C34.6132 28.0566 34.4033 27.8467 34.4033 27.5877C34.4033 27.329 34.6132 27.1191 34.8722 27.1191C35.1309 27.1191 35.3407 27.329 35.3407 27.5877C35.3407 27.8467 35.1309 28.0566 34.8722 28.0566Z" fill="#F171AB"/>
<path d="M35.9871 26.2373C35.7284 26.2373 35.5186 26.0274 35.5186 25.7687C35.5186 25.566 35.6471 25.3937 35.8269 25.3281H36.1474C36.3274 25.3937 36.4557 25.566 36.4557 25.7687C36.4557 26.0274 36.2461 26.2373 35.9871 26.2373Z" fill="#F171AB"/>
<path d="M33.9163 25.3288H33.6328L33.6349 25.3165C33.6736 25.3061 33.7142 25.3008 33.756 25.3008C33.8123 25.3008 33.8664 25.3107 33.9163 25.3288Z" fill="#F171AB"/>
<path d="M36.1467 25.3288H35.8262C35.8763 25.3107 35.9302 25.3008 35.9864 25.3008C36.0427 25.3008 36.0969 25.3107 36.1467 25.3288Z" fill="#F171AB"/>
<path d="M36.8245 24.3282C36.709 24.2428 36.6338 24.1057 36.6338 23.9508C36.6338 23.9295 36.6354 23.9081 36.6381 23.8873C36.7789 23.7654 36.8829 23.6388 36.9464 23.5089C36.9568 23.5052 36.9672 23.502 36.9778 23.499L36.8245 24.3282Z" fill="#F171AB"/>
<path d="M33.6875 25.02V25.0197C35.5946 24.6322 36.8694 24.0236 37.0078 23.3316C36.9961 23.3913 36.9756 23.4508 36.9468 23.5092C36.8833 23.6391 36.7793 23.7657 36.6385 23.8876C36.1101 24.3458 35.0634 24.7405 33.6875 25.02ZM37.0145 23.2926C37.0148 23.2913 37.0148 23.29 37.015 23.2886C37.015 23.2897 37.0148 23.2915 37.0145 23.2926ZM37.0153 23.2876C37.0153 23.2865 37.0156 23.2857 37.0156 23.2846C37.0156 23.2854 37.0153 23.2868 37.0153 23.2876ZM37.0158 23.2833C37.0158 23.2822 37.0161 23.2814 37.0161 23.2804C37.0161 23.2814 37.0158 23.2825 37.0158 23.2833ZM37.0166 23.2753C37.0169 23.274 37.0169 23.2723 37.0172 23.271C37.0169 23.2723 37.0169 23.2737 37.0166 23.2753ZM37.0188 23.2534C37.0188 23.2521 37.0188 23.2507 37.019 23.2494C37.019 23.2507 37.0188 23.2521 37.0188 23.2534ZM37.0204 23.2059L37.0161 23.1582H37.0188V23.1585C37.0198 23.1742 37.0204 23.1899 37.0204 23.2059Z" fill="#EF519D"/>
<path d="M3.9322 23.6966C3.35774 23.6966 2.89076 24.1731 2.89076 24.7593V29.0373C2.89076 29.6233 3.35774 30.0999 3.9322 30.0999H6.0436V23.6966H3.9322ZM7.73417 31.824H3.9322C2.42592 31.824 1.2002 30.5738 1.2002 29.0373V24.7593C1.2002 23.2226 2.42592 21.9727 3.9322 21.9727H7.73417V31.824Z" fill="#C61470"/>
<path d="M19.9498 19.9041C19.9565 19.8678 19.9602 19.8315 19.9602 19.7947C19.9602 18.6656 16.6924 17.75 12.6616 17.75C8.69188 17.75 5.4649 18.6383 5.36755 19.7435H5.35742V34.6277H5.36675C5.45103 35.7363 8.68362 36.6281 12.6616 36.6281C16.6924 36.6281 19.9602 35.7126 19.9602 34.5834C19.9602 34.5466 19.9565 34.5103 19.9498 34.4743V19.9041Z" fill="#DD127B"/>
<path d="M19.9498 19.9041C19.9565 19.8678 19.9602 19.8315 19.9602 19.7947C19.9602 18.6656 16.6924 17.75 12.6616 17.75C8.69188 17.75 5.4649 18.6383 5.36755 19.7435H5.35742V34.6277H5.36675C5.45103 35.7363 8.68362 36.6281 12.6616 36.6281C16.6924 36.6281 19.9602 35.7126 19.9602 34.5834C19.9602 34.5466 19.9565 34.5103 19.9498 34.4743V19.9041Z" fill="#DD127B"/>
<path d="M30.4724 29.1557C30.0396 28.3436 28.9898 28.0812 28.3503 28.7823C28.3503 28.7823 28.1746 28.9746 28.0972 29.0591C28.018 28.9773 27.8359 28.7898 27.8359 28.7898C27.175 28.1089 26.1341 28.4039 25.7263 29.2287C25.5103 29.6659 25.4906 30.2014 25.6492 30.6665C25.8301 31.1972 26.2637 31.5759 26.6512 31.9383C27.0721 32.3317 28.1076 32.9803 28.1564 32.9846V32.9849H28.1591C28.2055 32.9809 29.2227 32.2995 29.6318 31.8925C30.0078 31.5186 30.4297 31.1265 30.594 30.5902C30.738 30.1206 30.7018 29.5859 30.4724 29.1557Z" fill="#630131"/>
<mask id="mask32_50_4890" style="mask-type:luminance" maskUnits="userSpaceOnUse" x="5" y="17" width="15" height="20">
<path d="M19.9498 19.9041C19.9565 19.8678 19.9602 19.8315 19.9602 19.7947C19.9602 18.6656 16.6924 17.75 12.6616 17.75C8.69188 17.75 5.4649 18.6383 5.36755 19.7435H5.35742V34.6277H5.36675C5.45103 35.7363 8.68362 36.6281 12.6616 36.6281C16.6924 36.6281 19.9602 35.7126 19.9602 34.5834C19.9602 34.5466 19.9565 34.5103 19.9498 34.4743V19.9041Z" fill="white"/>
</mask>
<g mask="url(#mask32_50_4890)">
<path d="M9.01885 22.3822C7.76886 22.3822 6.54047 22.2409 5.35742 21.9603V21.092C6.53407 21.3883 7.76352 21.5384 9.01885 21.5384H9.02045C11.7877 21.5384 14.6831 20.8261 17.4189 19.3907V20.338C14.6829 21.7008 11.7983 22.382 9.01885 22.3822ZM19.5492 19.1168C19.3407 18.9507 19.0574 18.7941 18.711 18.6509L18.7115 18.6504C19.058 18.7941 19.3409 18.9504 19.5495 19.1168H19.5492Z" fill="#F066A6"/>
<path d="M9.05218 24.4911C7.79126 24.4911 6.55141 24.3511 5.35742 24.069V23.2006C6.54421 23.4988 7.78459 23.6473 9.05218 23.6473H9.05352C11.8101 23.6473 14.6938 22.9326 17.4189 21.501V22.4488C14.6941 23.8076 11.8218 24.4909 9.05218 24.4911Z" fill="#F066A6"/>
<path d="M9.04045 26.5998C7.78326 26.5998 6.54767 26.4595 5.35742 26.1779V25.3095C6.54047 25.6069 7.77713 25.7563 9.04045 25.7563H9.04178C11.8023 25.7563 14.6898 25.0426 17.4189 23.6094V24.5569C14.6903 25.9171 11.8133 26.5995 9.04045 26.5998Z" fill="#F066A6"/>
<path d="M9.04045 28.7092C7.78326 28.7092 6.54767 28.5689 5.35742 28.2873V27.4189C6.54047 27.7165 7.77713 27.8656 9.04045 27.8656H9.04178C11.8023 27.8656 14.6898 27.152 17.4189 25.7188V26.6666C14.6903 28.0264 11.8133 28.7089 9.04045 28.7092Z" fill="#F066A6"/>
<path d="M9.01885 30.8174C7.76886 30.8174 6.54047 30.6763 5.35742 30.3958V29.5274C6.53407 29.8237 7.76352 29.9739 9.01885 29.9739H9.02018C11.7874 29.9739 14.6831 29.2615 17.4189 27.8262V28.7735C14.6829 30.1363 11.7983 30.8174 9.01885 30.8174Z" fill="#F066A6"/>
<path d="M9.01884 32.927C7.76886 32.927 6.54047 32.7857 5.35742 32.5051V31.6368C6.53407 31.9331 7.76352 32.0832 9.01884 32.0835H9.02018C11.7874 32.0835 14.6831 31.3709 17.4189 29.9355V30.8698C17.4191 30.8706 17.4191 30.8751 17.4191 30.8828C14.6831 32.2454 11.7983 32.9268 9.01884 32.927Z" fill="#F066A6"/>
<path d="M9.05218 35.0362C7.79126 35.0362 6.55141 34.8961 5.35742 34.614V33.7456C6.54421 34.0438 7.78459 34.1923 9.05218 34.1923H9.05352C11.7263 34.1923 14.5183 33.5205 17.1695 32.1748C17.0436 32.5492 16.8545 32.9706 16.5713 33.3925C14.1025 34.4862 11.5362 35.0359 9.05218 35.0362Z" fill="#F066A6"/>
<path d="M12.628 36.6278C12.6232 36.6278 12.6186 36.6275 12.6136 36.6275C12.6184 36.6275 12.6232 36.6278 12.628 36.6278ZM12.5146 36.6272C11.1038 36.6195 9.7917 36.4995 8.68652 36.2979H8.68919C9.79356 36.4995 11.1046 36.6195 12.5146 36.6272Z" fill="#F066A6"/>
</g>
<path d="M13.2918 36.6206C15.5712 36.063 17.8352 35.0602 19.9498 33.6126V34.4745C19.9564 34.5106 19.9602 34.5468 19.9602 34.5836C19.9602 35.6533 17.0276 36.5313 13.2918 36.6206ZM9.02016 36.3019H9.01883C8.90868 36.3019 8.79881 36.3009 8.68893 36.2985C7.66243 36.1112 6.81461 35.8536 6.23242 35.5501C7.36027 35.7477 8.69667 35.8774 10.1307 35.9251C10.2936 35.9304 10.4518 35.9331 10.6075 35.9331C14.0148 35.9328 15.7198 34.6618 16.5713 33.3931C17.725 32.8821 18.8574 32.2522 19.9498 31.5039V32.5808C16.5217 35.0695 12.66 36.3019 9.02016 36.3019ZM17.1695 32.1754C17.3978 31.4961 17.4189 30.9721 17.4191 30.8835C18.28 30.4547 19.1262 29.9584 19.9498 29.3946V30.4718C19.0489 31.126 18.1181 31.6937 17.1695 32.1754ZM17.4189 29.9362V28.7745C18.2797 28.3457 19.1262 27.8494 19.9498 27.2856V28.3625C19.1278 28.9593 18.2813 29.4837 17.4189 29.9362ZM17.4189 27.8272V26.6668C18.28 26.2375 19.1262 25.7409 19.9498 25.1768V26.2535C19.1278 26.8501 18.2813 27.3746 17.4189 27.8272ZM17.4189 25.719V24.5576C18.28 24.1285 19.1262 23.6319 19.9498 23.0678V24.1447C19.1281 24.7416 18.2813 25.2662 17.4189 25.719ZM17.4189 23.61V22.4494C18.2797 22.02 19.1262 21.5229 19.9498 20.9588V22.0357C19.1281 22.6323 18.2813 23.1572 17.4189 23.61ZM17.4189 21.5015V20.3385C18.1408 19.979 18.8526 19.5717 19.5492 19.1173C19.7972 19.3149 19.9399 19.5267 19.958 19.747C19.9583 19.7483 19.9583 19.7499 19.9586 19.7512V19.7515C19.9586 19.7542 19.9588 19.7571 19.9591 19.7598V19.7606C19.9591 19.7616 19.9591 19.763 19.9594 19.764V19.7648C19.9594 19.7675 19.9596 19.7702 19.9596 19.7728V19.7739C19.9596 19.775 19.9599 19.7758 19.9599 19.7768V19.7859C19.9599 19.7862 19.9599 19.7867 19.9602 19.787V19.795C19.9602 19.8318 19.9564 19.868 19.9498 19.9043V19.9267C19.1278 20.5236 18.2813 21.0484 17.4189 21.5015ZM17.4189 19.3912V19.2011C17.4255 19.165 17.4293 19.1285 17.4293 19.0922C17.4293 18.7055 17.0463 18.3442 16.3812 18.0361C17.3103 18.1905 18.1069 18.4012 18.711 18.6514C18.2851 18.9162 17.8538 19.1629 17.4189 19.3912Z" fill="#B31A51"/>
<path d="M17.4189 20.3385V19.3912C17.8539 19.1629 18.2852 18.9162 18.7111 18.6514C19.0575 18.7946 19.3407 18.9511 19.5493 19.1173C18.8527 19.5717 18.1409 19.979 17.4189 20.3385Z" fill="#D42674"/>
<path d="M17.4189 22.4494V21.5016C18.2814 21.0485 19.1279 20.5236 19.9499 19.9268V20.9589C19.1263 21.5229 18.2798 22.02 17.4189 22.4494Z" fill="#D42674"/>
<path d="M17.4189 24.557V23.6094C18.2814 23.1566 19.1282 22.6317 19.9499 22.0352V23.0673C19.1263 23.6313 18.2801 24.1279 17.4189 24.557Z" fill="#D42674"/>
<path d="M17.4189 26.6666V25.7188C18.2814 25.266 19.1282 24.7414 19.9499 24.1445V25.1766C19.1263 25.7407 18.2801 26.2373 17.4189 26.6666Z" fill="#D42674"/>
<path d="M17.4189 28.7749V27.8277C18.2814 27.3751 19.1279 26.8505 19.9499 26.2539V27.286C19.1263 27.8498 18.2798 28.3461 17.4189 28.7749Z" fill="#D42674"/>
<path d="M17.4192 30.8834C17.4192 30.8756 17.4192 30.8711 17.4189 30.8703V29.9361C18.2814 29.4835 19.1279 28.9592 19.9499 28.3623V29.3944C19.1263 29.9582 18.2801 30.4545 17.4192 30.8834Z" fill="#D42674"/>
<path d="M16.5713 33.393C16.8545 32.9711 17.0436 32.5498 17.1695 32.1753C18.1181 31.6937 19.0489 31.1259 19.9498 30.4717V31.5038C18.8574 32.2521 17.725 32.8821 16.5713 33.393Z" fill="#D42674"/>
<path d="M12.6621 36.6287H12.6282C12.6234 36.6287 12.6186 36.6284 12.6138 36.6284H12.5477C12.5426 36.6284 12.5373 36.6284 12.5322 36.6281H12.5149C11.1049 36.6204 9.79383 36.5004 8.68945 36.2988C8.79933 36.3012 8.90921 36.3022 9.01935 36.3022H9.02069C12.6605 36.3022 16.5222 35.0698 19.9503 32.5811V33.6129C17.8357 35.0605 15.5717 36.0633 13.2923 36.6209C13.0846 36.626 12.8744 36.6287 12.6621 36.6287Z" fill="#D42674"/>
<path d="M7.77148 29.0424C7.77148 26.6611 9.70181 24.7305 12.0834 24.7305C14.4644 24.7305 16.395 26.6611 16.395 29.0424C16.395 31.4237 14.4644 33.354 12.0834 33.354C9.70181 33.354 7.77148 31.4237 7.77148 29.0424Z" fill="white"/>
<path d="M14.4869 27.8431C14.0541 27.0313 13.0046 26.7686 12.3648 27.4697C12.3648 27.4697 12.1891 27.6623 12.112 27.7468C12.0325 27.6649 11.8506 27.4775 11.8506 27.4775C11.1898 26.7963 10.1489 27.0916 9.74111 27.9164C9.52482 28.3533 9.50535 28.8891 9.66376 29.3539C9.84458 29.8849 10.2785 30.2636 10.6657 30.6258C11.0866 31.0194 12.1221 31.6677 12.1712 31.672V31.6723H12.1736C12.22 31.6683 13.2374 30.9869 13.6466 30.5799C14.0223 30.206 14.4442 29.814 14.6085 29.2779C14.7525 28.8083 14.7165 28.2735 14.4869 27.8431Z" fill="#DD127B"/>
<path d="M19.9597 19.7945C19.9597 20.9239 16.692 21.8392 12.6612 21.8392C8.6301 21.8392 5.3623 20.9239 5.3623 19.7945C5.3623 18.6653 8.6301 17.75 12.6612 17.75C16.692 17.75 19.9597 18.6653 19.9597 19.7945Z" fill="#BC166A"/>
<path d="M12.6619 18.6357C9.05004 18.6357 6.09908 19.4884 5.89746 20.5631C6.98157 21.3117 9.60102 21.8395 12.6619 21.8395C15.7227 21.8395 18.3416 21.3117 19.426 20.5631C19.2244 19.4884 16.2737 18.6357 12.6619 18.6357Z" fill="#630131"/>
<path d="M16.9557 20.3742C16.9557 20.7425 14.9667 21.0407 12.5129 21.0407C10.0593 21.0407 8.07031 20.7425 8.07031 20.3742C8.07031 20.0062 10.0593 19.708 12.5129 19.708C14.9667 19.708 16.9557 20.0062 16.9557 20.3742Z" fill="#470021"/>
<path d="M20.6709 5.37407C20.7448 4.97643 20.8453 4.57106 21.0173 4.18889C21.18 3.80219 21.3904 3.42268 21.6643 3.08078C22.1999 2.38845 22.9655 1.81399 23.8512 1.50836C24.7326 1.19206 25.7061 1.12139 26.6462 1.28647C27.5854 1.45582 28.5087 1.84387 29.2955 2.5298C29.4896 2.70422 29.6774 2.89276 29.8475 3.10745C29.9331 3.21413 30.0169 3.32294 30.0918 3.44322C30.13 3.50136 30.1689 3.56296 30.2025 3.62004L30.2924 3.78565C30.5311 4.2281 30.7034 4.70334 30.8122 5.18792C31.0266 6.15948 30.9738 7.16892 30.6887 8.09514C30.6177 8.32716 30.5305 8.55359 30.4343 8.77468C30.3353 9.00056 30.219 9.22352 30.0884 9.42754C29.8302 9.84065 29.5315 10.2039 29.2216 10.5226C28.9117 10.8434 28.5919 11.125 28.2823 11.3923L27.3486 12.1771L25.5103 13.688L24.607 14.4424L24.1699 14.8198C24.0296 14.9425 23.908 15.0593 23.7845 15.1948C22.8124 16.2573 22.1241 17.6948 22.2092 19.1474C22.2497 19.871 22.5015 20.5817 22.9183 21.2028C23.1269 21.5133 23.3666 21.8082 23.6405 22.0749C23.9171 22.3451 24.1942 22.5942 24.5257 22.7739C25.1865 23.1412 25.9642 23.3006 26.7416 23.3521C27.5228 23.4049 28.3133 23.3513 29.0989 23.2774C28.3207 23.4097 27.535 23.5225 26.7366 23.5287C25.9418 23.5343 25.1212 23.4361 24.3659 23.0889C24.1782 23.0022 23.9963 22.9001 23.8232 22.7825C23.6504 22.6619 23.496 22.5384 23.3368 22.4078C23.0218 22.1477 22.7343 21.8501 22.4751 21.5253C21.9561 20.8772 21.5883 20.0763 21.4702 19.2264C21.3464 18.3764 21.4576 17.5051 21.7198 16.6992C21.987 15.8922 22.3908 15.1388 22.9183 14.4622C23.0471 14.2944 23.1973 14.124 23.3408 13.9723L23.7632 13.5354L24.6065 12.6908C25.1665 12.1326 25.7389 11.5803 26.2763 11.0192C26.5259 10.7575 26.7942 10.4418 27.0398 10.1529C27.2878 9.86198 27.5132 9.57129 27.7025 9.28032C27.8945 8.99016 28.0471 8.70054 28.1559 8.41438C28.2111 8.27036 28.2527 8.13061 28.2914 7.98633C28.3285 7.83645 28.3602 7.68577 28.3802 7.53349C28.4666 6.9265 28.4431 6.31683 28.3141 5.74664C28.2492 5.46102 28.1554 5.18686 28.0378 4.92523L27.9927 4.82709L27.9513 4.75028C27.9289 4.69854 27.8961 4.64814 27.8633 4.59667C27.7993 4.49319 27.7169 4.39238 27.6276 4.2929C27.2641 3.8926 26.728 3.5507 26.1378 3.34108C25.5458 3.12826 24.8953 3.03785 24.2433 3.09999C23.9179 3.13226 23.5899 3.20133 23.2674 3.31361C22.9458 3.42802 22.6327 3.58697 22.3271 3.78139C21.7126 4.17049 21.1731 4.73321 20.6709 5.37407Z" fill="#CEB7B7"/>
<path d="M20.3584 7.27323C20.1136 6.5905 19.8269 5.93871 19.4716 5.35385C19.1191 4.76739 18.6756 4.26547 18.1825 3.88543C17.1936 3.11789 15.9542 2.93761 14.8685 3.25017C14.3282 3.40246 13.8282 3.67342 13.4572 4.01959C13.2686 4.1884 13.1156 4.37749 13.0105 4.57004C12.9177 4.73379 12.8049 5.02262 12.7299 5.27944C12.4243 6.32595 12.4528 7.47779 12.8811 8.45095C13.1001 8.94967 13.4751 9.44972 13.9183 9.96097L14.2631 10.3501L14.5928 10.7138C14.7901 10.9147 15.0707 11.155 15.3304 11.3774C15.8633 11.8308 16.4148 12.2796 16.9663 12.7292C17.5168 13.1893 18.0707 13.6096 18.646 14.1574C18.9295 14.4339 19.2092 14.758 19.414 15.1505C19.6231 15.5421 19.7338 15.9936 19.7365 16.42C19.7538 17.2772 19.3882 18.0927 18.8327 18.6573C18.2758 19.2405 17.5157 19.5531 16.7837 19.6515C16.0454 19.7566 15.3144 19.6862 14.6173 19.5291C15.3307 19.5536 16.0476 19.5 16.7036 19.2949C17.3613 19.0952 17.931 18.713 18.3009 18.2031C18.6769 17.6905 18.8319 17.0643 18.7372 16.4947C18.6521 15.9197 18.3014 15.5199 17.7931 15.1324C17.2832 14.7548 16.65 14.3798 16.0516 13.9971C15.4475 13.6125 14.8448 13.2248 14.2397 12.8191C13.9327 12.61 13.6439 12.4201 13.3054 12.1508L12.8659 11.7726L12.4523 11.4078C11.8989 10.9056 11.3132 10.3306 10.8433 9.5764C9.89151 8.04211 9.75763 6.10139 10.3985 4.46389C10.5617 4.04972 10.7393 3.68195 11.0391 3.25017C11.3268 2.84774 11.673 2.5149 12.0448 2.24421C12.7929 1.70602 13.6369 1.38999 14.4968 1.28252C14.9256 1.22224 15.3603 1.21904 15.7876 1.27024C16.214 1.31718 16.6362 1.41133 17.0333 1.56921C17.4309 1.72122 17.8115 1.91645 18.1472 2.16767C18.3219 2.28315 18.4734 2.42796 18.631 2.55997C18.7729 2.70985 18.9249 2.848 19.0473 3.01015C19.5671 3.63475 19.9085 4.35482 20.1056 5.08262C20.3085 5.81016 20.3779 6.5497 20.3584 7.27323Z" fill="#CEB7B7"/>
</svg>
