<svg width="45" height="40" viewBox="0 0 45 40" fill="none" xmlns="http://www.w3.org/2000/svg">
<path d="M44.2079 22.5212C44.4079 22.1962 44.5623 21.8877 44.6502 21.6304L44.6984 21.473C44.7437 21.2946 44.7452 21.1477 44.7461 21.0688C44.7569 20.4245 44.4424 19.7967 44.118 19.2585C43.8463 18.8084 43.5687 18.3896 43.3525 17.9063C43.1144 17.3738 42.9034 16.8278 42.6008 16.3274C42.0602 15.4339 41.3733 14.6285 40.5737 13.9563C38.1223 11.8953 34.3879 11.0273 31.3789 12.3163C31.5968 9.79441 31.4034 7.15952 30.172 4.90301C28.7524 2.3026 26.1876 0.503034 23.3105 0.0889717C20.6726 -0.289411 18.0791 0.572895 16.1953 2.45672L15.711 2.94094L15.2259 2.45582C13.3415 0.571399 10.7483 -0.292407 8.11009 0.088075C5.23324 0.502138 2.66821 2.302 1.24913 4.90271C0.31666 6.61173 -0.106697 8.5918 0.0228292 10.6354C-0.0713168 12.0977 0.128367 13.5947 0.601495 14.9709C1.61791 17.9279 3.97306 20.056 6.05087 21.9339L6.46463 22.3083C8.17066 23.8575 11.4889 26.019 13.3253 27.1449C14.4191 29.8628 16.6351 31.8654 18.6029 33.6433L19.0148 34.0163C20.4588 35.3278 24.708 38.2436 26.9033 39.4522L28.2768 39.9997L28.29 40L28.3533 39.9961C28.6756 39.9754 28.8528 39.9643 30.9177 38.6868C31.3006 38.4499 31.876 38.0886 32.5521 37.6478L37.8863 33.6733C38.3097 33.2904 38.7432 32.8989 39.1732 32.4941C39.9324 32.7058 40.7092 32.7424 41.4927 32.6032L41.5601 32.5891C42.6755 32.3313 44.6409 29.7099 44.6525 28.4452C44.6528 28.4083 44.6531 28.3505 44.6475 28.2776L44.6471 28.0033L44.5422 27.815C44.4262 27.4885 44.2085 27.0591 43.8982 26.5929H44.2079V22.5212Z" fill="white"/>
<path d="M29.088 7.26875C26.7362 2.95932 20.888 1.49136 17.2493 5.12977C17.2493 5.12977 16.2491 6.13 15.8113 6.56805C15.3739 6.1306 14.3725 5.12887 14.3725 5.12887C10.7337 1.49016 4.88589 2.95812 2.53373 7.26755C1.28735 9.55194 1.13144 12.3706 1.97785 14.8313C2.9433 17.6404 5.33743 19.6702 7.4719 21.6086C9.79257 23.7158 15.5292 27.2133 15.8029 27.2391V27.2403L15.8176 27.2406C16.077 27.2241 21.8262 23.7194 24.1498 21.6095C26.2843 19.6714 28.6782 17.6416 29.6439 14.8325C30.49 12.3715 30.3344 9.55284 29.088 7.26875Z" fill="#E84F9C"/>
<path d="M29.088 5.84979C26.7362 1.54035 20.888 0.072097 17.2493 3.71111C17.2493 3.71111 16.2491 4.71104 15.8113 5.14909C15.3739 4.71164 14.3725 3.70991 14.3725 3.70991C10.7337 0.0711983 4.88589 1.53915 2.53373 5.84888C1.28735 8.13297 1.13144 10.9514 1.97785 13.412C2.9433 16.2214 5.33743 18.2513 7.4719 20.1897C9.79257 22.2966 15.5292 25.7944 15.8029 25.8201V25.8213L15.8176 25.8216C16.077 25.8048 21.8262 22.3005 24.1498 20.1906C26.2843 18.2525 28.6782 16.2223 29.6439 13.4132C30.49 10.9526 30.3344 8.13388 29.088 5.84979Z" fill="#F17BB0"/>
<path d="M15.8116 23.5921C14.1862 22.6279 10.4842 20.2685 8.79352 18.7334L8.37465 18.3544C6.50702 16.6664 4.57554 14.9208 3.83706 12.7725C3.14926 10.7724 3.30726 8.53594 4.25981 6.79004C5.31281 4.86095 7.34835 3.61426 9.44535 3.61426C10.3808 3.61426 11.754 3.87182 12.9818 5.09991L15.8107 7.92969L18.6396 5.10081C19.8677 3.87331 21.2409 3.61516 22.1763 3.61516C24.2736 3.61516 26.3089 4.86215 27.3622 6.79124C28.3147 8.53654 28.4724 10.7733 27.7846 12.7734C27.0456 14.9226 25.1144 16.6682 23.2467 18.3559L22.8282 18.7343C21.138 20.2688 17.4382 22.6273 15.8116 23.5921Z" fill="#630131"/>
<path d="M18.8298 19.0376C18.8298 20.5535 17.6011 21.7819 16.0854 21.7819C14.5695 21.7819 13.3408 20.5535 13.3408 19.0376C13.3408 17.5217 14.5695 16.293 16.0854 16.293C17.6011 16.293 18.8298 17.5217 18.8298 19.0376Z" fill="#DD127B"/>
<path d="M18.6384 11.3781C18.6384 12.894 17.4097 14.123 15.894 14.123C14.3781 14.123 13.1494 12.894 13.1494 11.3781C13.1494 9.86248 14.3781 8.63379 15.894 8.63379C17.4097 8.63379 18.6384 9.86248 18.6384 11.3781Z" fill="#470021"/>
<path d="M17.4228 11.3775C17.4228 12.2224 16.7383 12.9069 15.8937 12.9069C15.0488 12.9069 14.3643 12.2224 14.3643 11.3775C14.3643 10.5331 15.0488 9.84863 15.8937 9.84863C16.7383 9.84863 17.4228 10.5331 17.4228 11.3775Z" fill="#641340"/>
<path d="M11.237 8.98877C11.237 10.5044 10.0083 11.7334 8.49267 11.7334C6.97704 11.7334 5.74805 10.5044 5.74805 8.98877C5.74805 7.47313 6.97704 6.24414 8.49267 6.24414C10.0083 6.24414 11.237 7.47313 11.237 8.98877Z" fill="#ECEFD5"/>
<path d="M9.88599 8.9884C9.88599 9.75776 9.26264 10.3811 8.49328 10.3811C7.72423 10.3811 7.10059 9.75776 7.10059 8.9884C7.10059 8.21934 7.72423 7.5957 8.49328 7.5957C9.26264 7.5957 9.88599 8.21934 9.88599 8.9884Z" fill="#EBF1BC"/>
<path d="M5.73382 7.94363C5.81268 8.13253 5.97279 8.26655 6.15119 8.3616C6.33108 8.45604 6.53436 8.51121 6.72745 8.51211C6.78112 8.51211 6.83389 8.50762 6.88576 8.49742C7.26264 8.42156 7.55737 8.19459 7.82512 7.99731C8.09137 7.79852 8.35672 7.61802 8.63406 7.57845C8.68144 7.57125 8.7285 7.56795 8.77647 7.56795C9.11228 7.56525 9.47808 7.74096 9.87025 7.87198C10.0639 7.93554 10.2789 7.97811 10.4939 7.97841C10.6438 7.97841 10.7943 7.95743 10.9358 7.90376C11.0771 7.85039 11.2093 7.76254 11.3115 7.63511C11.3685 7.56465 11.3574 7.46151 11.2869 7.40454C11.2162 7.34787 11.113 7.35897 11.0564 7.42943C10.9931 7.50768 10.9149 7.56105 10.8195 7.59733C10.7248 7.63361 10.6129 7.6507 10.4939 7.6507C10.3233 7.651 10.1383 7.61532 9.97249 7.56075C9.6103 7.44412 9.21932 7.24323 8.77647 7.24023C8.71351 7.24023 8.64995 7.24474 8.58579 7.25433C8.20351 7.3125 7.90008 7.53527 7.62994 7.73405C7.36189 7.93464 7.10074 8.12264 6.8228 8.17571C6.79491 8.1814 6.76253 8.1844 6.72745 8.1844C6.60003 8.185 6.43751 8.14302 6.30409 8.07196C6.16917 8.0021 6.06873 7.90256 6.03725 7.82011C6.00337 7.73646 5.90772 7.69597 5.82377 7.73015C5.74012 7.76404 5.69964 7.85968 5.73382 7.94363Z" fill="#F17BB0"/>
<path d="M5.55581 9.28347C5.64665 9.49425 5.83704 9.61898 6.03733 9.69844C6.24031 9.77759 6.46428 9.81237 6.66427 9.81267C6.72034 9.81267 6.77431 9.80997 6.82588 9.80397C7.23814 9.7563 7.58324 9.54552 7.89806 9.35602C8.21108 9.16503 8.51901 8.98574 8.83682 8.94737C8.88749 8.94107 8.93846 8.93807 8.99003 8.93807C9.34953 8.93627 9.73511 9.08768 10.1489 9.18722C10.3174 9.2271 10.4985 9.25259 10.6802 9.25259C11.0184 9.25289 11.3743 9.16234 11.6168 8.8811C11.6756 8.81244 11.6678 8.709 11.5991 8.65024C11.5305 8.59117 11.427 8.59926 11.368 8.66792C11.2139 8.84872 10.9662 8.92457 10.6802 8.92487C10.5294 8.92487 10.3719 8.90329 10.2241 8.86821C9.84275 8.78006 9.43678 8.61245 8.99003 8.61035C8.92617 8.61035 8.86141 8.61395 8.79634 8.62205C8.38558 8.67452 8.04228 8.88649 7.72806 9.07569C7.41504 9.26668 7.10681 9.44388 6.78929 9.47836C6.75122 9.48256 6.70894 9.48496 6.66427 9.48496C6.50386 9.48526 6.31167 9.45437 6.15696 9.39321C5.99985 9.33264 5.89191 9.2433 5.85803 9.15664C5.82295 9.07329 5.72701 9.03402 5.64366 9.0691C5.56 9.10418 5.52073 9.20012 5.55581 9.28347Z" fill="#F17BB0"/>
<path d="M6.03721 10.9011C6.13046 11.0025 6.25099 11.0636 6.37602 11.1014C6.50165 11.1389 6.63417 11.1536 6.7637 11.1536C6.91151 11.1536 7.05453 11.1344 7.17836 11.1017C7.51297 11.0118 7.78491 10.8214 8.04276 10.6625C8.29971 10.5023 8.55997 10.3671 8.81842 10.3536L8.87119 10.3521C9.17641 10.3491 9.50412 10.5104 9.87321 10.6178C10.0174 10.6586 10.1739 10.684 10.3313 10.684C10.4741 10.684 10.6183 10.6634 10.7532 10.6103C10.8878 10.5575 11.0135 10.4697 11.1058 10.3419C11.1589 10.2685 11.1427 10.1662 11.0692 10.1129C10.9961 10.0598 10.8935 10.0763 10.8405 10.1494C10.788 10.2214 10.7196 10.2709 10.633 10.3054C10.5466 10.3395 10.442 10.3563 10.3313 10.3563C10.2093 10.3563 10.0804 10.3362 9.96256 10.3027C9.63484 10.2127 9.28375 10.0274 8.87119 10.0244L8.79952 10.0265C8.44213 10.0481 8.1378 10.219 7.87005 10.3839C7.60381 10.55 7.35585 10.7164 7.0941 10.7851C7.00146 10.8097 6.88213 10.8262 6.7637 10.8259C6.65966 10.8262 6.55591 10.8136 6.47016 10.7875C6.38381 10.7617 6.31845 10.7233 6.27887 10.6798C6.21771 10.613 6.11397 10.6085 6.04741 10.6696C5.98054 10.7308 5.97605 10.8346 6.03721 10.9011Z" fill="#F17BB0"/>
<path d="M13.4909 15.4601C13.4909 16.9761 12.2622 18.2048 10.7463 18.2048C9.23034 18.2048 8.00195 16.9761 8.00195 15.4601C8.00195 13.9445 9.23034 12.7158 10.7463 12.7158C12.2622 12.7158 13.4909 13.9445 13.4909 15.4601Z" fill="#E84F9C"/>
<path d="M12.1798 15.4601C12.1798 16.252 11.5375 16.8939 10.746 16.8939C9.95413 16.8939 9.3125 16.252 9.3125 15.4601C9.3125 14.6686 9.95413 14.0264 10.746 14.0264C11.5375 14.0264 12.1798 14.6686 12.1798 15.4601Z" fill="#ED3795"/>
<path d="M11.7443 13.3315C11.5144 13.2212 11.2652 13.1735 11.0172 13.1738C10.7528 13.1738 10.4892 13.2275 10.2458 13.3201C9.43895 13.6275 8.81172 14.3672 8.68159 15.2271C8.6657 15.3329 8.6582 15.439 8.6582 15.5455C8.6591 16.3055 9.04648 17.0602 9.7031 17.4629C10.0284 17.6611 10.4056 17.7579 10.7816 17.7579C11.2739 17.7576 11.7677 17.5918 12.1404 17.2554C12.547 16.8869 12.7631 16.346 12.7637 15.8084C12.7637 15.4744 12.6795 15.1398 12.4981 14.8496C12.2759 14.4955 11.9059 14.2025 11.4586 14.1723L11.3905 14.1702C10.9174 14.1729 10.5084 14.4676 10.2563 14.8319C10.0884 15.0768 9.97234 15.3728 9.97174 15.6828C9.97174 15.7628 9.97985 15.8441 9.99724 15.9248C10.0404 16.125 10.1454 16.3088 10.292 16.4495C10.4383 16.5898 10.6308 16.6881 10.8466 16.6983L10.879 16.6992C11.0793 16.6986 11.2634 16.6138 11.4013 16.4851C11.5389 16.3562 11.6358 16.1769 11.6367 15.9745C11.6367 15.9364 11.6331 15.8978 11.6256 15.8594C11.6085 15.7703 11.5228 15.7122 11.4337 15.7293C11.345 15.7464 11.2868 15.8324 11.3039 15.9212L11.309 15.9745C11.3096 16.0666 11.2613 16.1676 11.1777 16.2459C11.0946 16.3238 10.9822 16.3721 10.879 16.3715L10.8622 16.3712C10.7384 16.3652 10.6179 16.3076 10.5183 16.2129C10.4194 16.1184 10.3456 15.988 10.3175 15.8558C10.3055 15.7991 10.2995 15.7413 10.2995 15.6828C10.2989 15.4576 10.3879 15.2181 10.5261 15.0178C10.7306 14.7189 11.0649 14.4949 11.3905 14.4979L11.4379 14.4994C11.7449 14.5165 12.0418 14.7365 12.2202 15.0232C12.3653 15.2552 12.436 15.5293 12.436 15.8084C12.4366 16.2582 12.2507 16.7151 11.9209 17.0122C11.6169 17.2872 11.2007 17.4305 10.7816 17.4302C10.4617 17.4302 10.1426 17.3471 9.8737 17.1831C9.32562 16.8506 8.98471 16.1946 8.98591 15.5455C8.98591 15.4549 8.99221 15.3647 9.0057 15.2756C9.11274 14.5452 9.66532 13.8892 10.3621 13.6263C10.5714 13.5468 10.7978 13.5012 11.0172 13.5015C11.2235 13.5015 11.4232 13.5411 11.6025 13.6272C11.6841 13.6662 11.7821 13.6317 11.8211 13.5501C11.8604 13.4686 11.8259 13.3708 11.7443 13.3315Z" fill="#ECEFD5"/>
<path d="M25.5752 8.41425C25.5752 9.93018 24.3462 11.1589 22.8309 11.1589C21.3149 11.1589 20.0859 9.93018 20.0859 8.41425C20.0859 6.89862 21.3149 5.66992 22.8309 5.66992C24.3462 5.66992 25.5752 6.89862 25.5752 8.41425Z" fill="#DD127B"/>
<path d="M23.646 5.83576C22.9483 5.9398 22.3738 6.10291 21.8716 6.36526C21.3694 6.62731 20.9437 6.9877 20.544 7.47192C20.3476 7.71059 20.1515 7.98433 20.0748 8.31984C20.0565 8.40199 20.0469 8.48655 20.0469 8.5714C20.0472 8.83944 20.1407 9.12008 20.3662 9.30567C20.5362 9.44449 20.7416 9.49727 20.9404 9.49667C21.2294 9.49577 21.5148 9.39382 21.7562 9.27269C22.0692 9.11378 22.4371 8.82775 22.7939 8.51233C23.1501 8.19691 23.4904 7.85331 23.7315 7.58106C23.8517 7.44434 24.0484 7.28573 24.2547 7.1673C24.4604 7.04737 24.6798 6.97061 24.8252 6.97241C24.8855 6.97241 24.9308 6.9838 24.9635 7.00179C25.2273 7.14751 25.3904 7.39367 25.3907 7.6773L25.3904 7.6947V7.69409C25.385 8.00232 25.2312 8.33393 25.0621 8.64366C24.5971 9.51046 23.4679 10.2555 22.3804 10.5293C22.2926 10.5515 22.2395 10.6408 22.262 10.7284C22.2842 10.8162 22.3735 10.869 22.4611 10.8468C23.6262 10.5473 24.8132 9.7818 25.3502 8.79987C25.5223 8.47965 25.7073 8.10966 25.7181 7.7016L25.7184 7.6773C25.7187 7.26144 25.4738 6.90615 25.1209 6.71426C25.0282 6.66389 24.9263 6.6447 24.8252 6.6447C24.5812 6.64649 24.3284 6.74814 24.091 6.88336C23.8547 7.01979 23.6376 7.19309 23.4859 7.36399C23.2556 7.62424 22.9216 7.96154 22.5768 8.26707C22.2326 8.57259 21.8728 8.84724 21.6084 8.98036C21.3967 9.088 21.1487 9.17015 20.9404 9.16895C20.7955 9.16865 20.6747 9.13387 20.5734 9.05172C20.4445 8.94798 20.3746 8.76599 20.3746 8.5714C20.3746 8.51083 20.3815 8.44997 20.3947 8.3918C20.4501 8.14115 20.6103 7.90548 20.7967 7.68091C21.1754 7.22247 21.5634 6.89626 22.0233 6.65579C22.4833 6.41563 23.0194 6.26062 23.6943 6.15988C23.7836 6.14669 23.8454 6.06334 23.8322 5.97369C23.8187 5.88434 23.7354 5.82257 23.646 5.83576Z" fill="#ECEFD5"/>
<path d="M28.3613 16.8017C28.2524 16.6928 28.1085 16.5492 27.9541 16.3948C28.4263 15.7985 28.8473 15.1676 29.1876 14.4912C29.1867 14.5086 29.1861 14.526 29.1852 14.5434C29.1606 15.0597 29.1249 15.5811 29.0647 16.098C28.8071 16.3558 28.5382 16.6248 28.3613 16.8017Z" fill="#AA2569"/>
<path d="M27.9544 16.3947C27.4876 15.9279 26.9224 15.3627 26.9224 15.3627C26.7977 15.2383 26.6705 15.1196 26.541 15.0068C26.7872 14.6839 27.0126 14.3529 27.2105 14.0123C27.534 14.3358 27.9538 14.7553 28.1976 14.9993C28.4461 14.7508 28.8758 14.3214 29.2011 13.9961C29.1999 14.1616 29.1954 14.3271 29.1879 14.4911C28.8476 15.1675 28.4266 15.7984 27.9544 16.3947Z" fill="#D74A8C"/>
<path d="M13.998 21.8698C13.9225 21.4602 13.8727 21.0459 13.8496 20.63C13.9114 20.7169 13.9785 20.8003 14.0499 20.8791C14.0157 21.2081 13.9986 21.5388 13.998 21.8698ZM14.3872 16.8809C14.5347 16.475 14.7119 16.0798 14.9197 15.6993C15.2363 15.1188 15.6168 14.5897 16.0464 14.118C17.1759 14.056 18.1234 13.3112 18.4831 12.2891C19.5349 11.7749 20.6821 11.499 21.8313 11.499C23.5838 11.499 25.3393 12.1416 26.7581 13.5603C26.7581 13.5603 26.9542 13.7564 27.2103 14.0125C27.0124 14.3531 26.7869 14.6841 26.5407 15.007C25.1948 13.8359 23.5937 13.3013 21.995 13.3013C19.7014 13.3013 17.4122 14.4011 15.8851 16.3002C15.3218 16.3406 14.8055 16.5514 14.3872 16.8809Z" fill="#42001E"/>
<path d="M14.0497 20.8788C13.9783 20.7999 13.9112 20.7166 13.8494 20.6296C13.7781 19.3575 13.9538 18.0727 14.387 16.8806C14.8053 16.5511 15.3216 16.3403 15.8849 16.2998C15.6283 16.6188 15.3932 16.9603 15.1833 17.3234L15.183 17.324C15.1767 17.3348 15.1704 17.3456 15.1642 17.3564C15.1636 17.3576 15.163 17.3588 15.1624 17.3597C15.1609 17.3627 15.1591 17.3654 15.1576 17.3684C15.1567 17.3702 15.1555 17.372 15.1546 17.3735C15.1531 17.3762 15.1516 17.3789 15.1501 17.3816C15.1489 17.3837 15.148 17.3852 15.1468 17.3873C15.1444 17.3915 15.142 17.3957 15.1396 17.3999C15.1384 17.4023 15.1369 17.4047 15.1357 17.4071C15.1342 17.4095 15.1333 17.4113 15.1318 17.4137C15.1306 17.4161 15.1291 17.4185 15.1276 17.4209C15.1267 17.423 15.1255 17.4254 15.1243 17.4275C15.1225 17.4305 15.121 17.4332 15.1195 17.4359C15.1186 17.4377 15.1177 17.4392 15.1168 17.441C15.1141 17.4451 15.1117 17.4496 15.1093 17.4541C15.1084 17.4556 15.1078 17.4568 15.1069 17.4586C15.1051 17.4619 15.1033 17.4649 15.1015 17.4682C15.1006 17.4697 15.0997 17.4715 15.0988 17.4733C15.097 17.4763 15.0952 17.4796 15.0934 17.4826C15.0928 17.4841 15.0916 17.4859 15.091 17.4874C15.0883 17.4919 15.0859 17.4967 15.0835 17.5012C14.5144 18.544 14.1726 19.6984 14.0497 20.8788Z" fill="#9C1451"/>
<path d="M16.0459 14.118C16.7469 13.3484 17.5792 12.7307 18.4826 12.2891C18.1228 13.3112 17.1754 14.056 16.0459 14.118Z" fill="#2E0114"/>
<path d="M41.6377 17.5033C39.2855 13.1938 33.438 11.7256 29.7993 15.3643C29.7993 15.3643 28.799 16.3645 28.3613 16.8023C27.9238 16.3651 26.9221 15.3634 26.9221 15.3634C23.2831 11.7244 17.4352 13.1926 15.0837 17.5021C13.837 19.7865 13.6814 22.6048 14.5275 25.0655C15.4933 27.8749 17.8871 29.9048 20.0216 31.8431C22.3425 33.95 28.0788 37.4478 28.3529 37.4736V37.4748L28.367 37.4751C28.6269 37.4586 34.3758 33.9539 36.6992 31.844C38.8343 29.9059 41.2281 27.8758 42.1939 25.0667C43.04 22.6057 42.8841 19.7873 41.6377 17.5033Z" fill="#E84F9C"/>
<path d="M17.8997 27.8441C17.8592 26.8406 17.8469 25.8364 17.8283 24.8323C17.8106 23.8935 17.8151 22.9539 17.8619 22.0157C17.95 20.2581 18.2274 18.532 18.7404 16.8473C19.0909 15.6965 19.5511 14.5692 20.1673 13.5342C18.0931 14.0607 16.1967 15.4624 15.0837 17.5018C13.837 19.7862 13.6814 22.6046 14.5275 25.0653C15.2009 27.0246 16.5696 28.6041 18.0598 30.0385C17.9752 29.3123 17.9291 28.579 17.8997 27.8441Z" fill="#C73D88"/>
<path d="M41.6376 17.5029C40.8544 16.0677 39.6821 14.9496 38.3341 14.2285C38.2456 14.8405 38.1137 15.4461 37.9884 16.0518C37.7965 16.9794 37.6519 17.917 37.4831 18.8489C37.1782 20.5318 36.8583 22.2123 36.5633 23.8971C36.2721 25.5623 36.0287 27.2387 35.7942 28.9129C35.6059 30.2585 35.4413 31.6093 35.3301 32.9639C35.8512 32.5678 36.3213 32.187 36.6991 31.8437C38.8342 29.9056 41.228 27.8755 42.1937 25.0664C43.0399 22.6054 42.8839 19.787 41.6376 17.5029Z" fill="#C73D88"/>
<path d="M41.6377 18.9777C39.2855 14.6683 33.438 13.2 29.7993 16.839C29.7993 16.839 28.799 17.839 28.3613 18.277C27.9238 17.8396 26.9221 16.8378 26.9221 16.8378C23.2831 13.1991 17.4352 14.6671 15.0837 18.9768C13.837 21.2609 13.6814 24.0793 14.5275 26.5403C15.4933 29.3494 17.8871 31.3795 20.0216 33.3176C22.3425 35.4245 28.0788 38.9223 28.3529 38.9481V38.9493L28.367 38.9496C28.6269 38.9328 34.3758 35.4284 36.6992 33.3188C38.8343 31.3804 41.2281 29.3506 42.1939 26.5412C43.04 24.0805 42.8841 21.2621 41.6377 18.9777Z" fill="#F287B7"/>
<mask id="mask0_50_4889" style="mask-type:luminance" maskUnits="userSpaceOnUse" x="15" y="16" width="26" height="21">
<path d="M28.3613 36.7203C26.7359 35.7558 23.034 33.3961 21.3435 31.8613L20.9244 31.482C19.0567 29.7943 17.1253 28.049 16.3868 25.9001C15.699 23.8997 15.8573 21.6636 16.8095 19.918C17.8622 17.9886 19.8978 16.7422 21.9948 16.7422C22.9305 16.7422 24.304 16.9997 25.5312 18.2278L28.3391 21.0348L29.751 19.6673L31.1893 18.2287C32.4174 17.0006 33.7906 16.7431 34.7258 16.7431C36.8234 16.7431 38.8589 17.9898 39.9119 19.9192C40.8644 21.6645 41.0222 23.9009 40.3343 25.9013C39.5956 28.0505 37.6638 29.7961 35.7955 31.4844L35.3779 31.8622C33.6878 33.3967 29.9882 35.7549 28.3613 36.7203Z" fill="white"/>
</mask>
<g mask="url(#mask0_50_4889)">
<path d="M28.3613 36.7203C26.7359 35.7558 23.034 33.3961 21.3435 31.8613L20.9244 31.482C19.0567 29.7943 17.1253 28.049 16.3868 25.9001C15.699 23.8997 15.8573 21.6636 16.8095 19.918C17.8622 17.9886 19.8978 16.7422 21.9948 16.7422C22.9305 16.7422 24.304 16.9997 25.5312 18.2278L28.3391 21.0348L29.751 19.6673L31.1893 18.2287C32.4174 17.0006 33.7906 16.7431 34.7258 16.7431C36.8234 16.7431 38.8589 17.9898 39.9119 19.9192C40.8644 21.6645 41.0222 23.9009 40.3343 25.9013C39.5956 28.0505 37.6638 29.7961 35.7955 31.4844L35.3779 31.8622C33.6878 33.3967 29.9882 35.7549 28.3613 36.7203Z" fill="#BA3980"/>
<mask id="mask1_50_4889" style="mask-type:luminance" maskUnits="userSpaceOnUse" x="15" y="16" width="26" height="21">
<path d="M28.3613 36.7203C26.7359 35.7558 23.034 33.3961 21.3435 31.8613L20.9244 31.482C19.0567 29.7943 17.1253 28.049 16.3868 25.9001C15.699 23.8997 15.8573 21.6636 16.8095 19.918C17.8622 17.9886 19.8978 16.7422 21.9948 16.7422C22.9305 16.7422 24.304 16.9997 25.5312 18.2278L28.3391 21.0348L29.751 19.6673L31.1893 18.2287C32.4174 17.0006 33.7906 16.7431 34.7258 16.7431C36.8234 16.7431 38.8589 17.9898 39.9119 19.9192C40.8644 21.6645 41.0222 23.9009 40.3343 25.9013C39.5956 28.0505 37.6638 29.7961 35.7955 31.4844L35.3779 31.8622C33.6878 33.3967 29.9882 35.7549 28.3613 36.7203Z" fill="white"/>
</mask>
<g mask="url(#mask1_50_4889)">
<path d="M28.3613 37.4847C26.7359 36.5204 23.034 34.1608 21.3435 32.626L20.9244 32.247C19.0567 30.559 17.1253 28.8134 16.3868 26.6648C15.699 24.6646 15.8573 22.4282 16.8095 20.6826C17.8622 18.7535 19.8978 17.5068 21.9948 17.5068C22.9305 17.5068 24.304 17.7644 25.5312 18.9925L28.3391 21.7998L29.751 20.4317L31.1893 18.9934C32.4174 17.7656 33.7906 17.5077 34.7258 17.5077C36.8234 17.5077 38.8589 18.7547 39.9119 20.6838C40.8644 22.4291 41.0222 24.6655 40.3343 26.6657C39.5956 28.8152 37.6638 30.5611 35.7955 32.2491L35.3779 32.6269C33.6878 34.1614 29.9882 36.5198 28.3613 37.4847Z" fill="#E84F9C"/>
<mask id="mask2_50_4889" style="mask-type:luminance" maskUnits="userSpaceOnUse" x="15" y="17" width="26" height="21">
<path d="M28.3613 37.4847C26.7359 36.5204 23.034 34.1608 21.3435 32.626L20.9244 32.247C19.0567 30.559 17.1253 28.8134 16.3868 26.6648C15.699 24.6646 15.8573 22.4282 16.8095 20.6826C17.8622 18.7535 19.8978 17.5068 21.9948 17.5068C22.9305 17.5068 24.304 17.7644 25.5312 18.9925L28.3391 21.7998L29.751 20.4317L31.1893 18.9934C32.4174 17.7656 33.7906 17.5077 34.7258 17.5077C36.8234 17.5077 38.8589 18.7547 39.9119 20.6838C40.8644 22.4291 41.0222 24.6655 40.3343 26.6657C39.5956 28.8152 37.6638 30.5611 35.7955 32.2491L35.3779 32.6269C33.6878 34.1614 29.9882 36.5198 28.3613 37.4847Z" fill="white"/>
</mask>
<g mask="url(#mask2_50_4889)">
<mask id="mask3_50_4889" style="mask-type:luminance" maskUnits="userSpaceOnUse" x="23" y="34" width="4" height="6">
<path d="M26.5046 34.2588H23.0781V39.8449H26.5046V34.2588Z" fill="white"/>
</mask>
<g mask="url(#mask3_50_4889)">
<path d="M26.1183 35.3235C25.7283 35.0713 25.3226 34.8048 24.916 34.5313C25.0003 34.4072 25.1223 34.311 25.2656 34.2588H25.7579C26.0344 34.3595 26.2317 34.6246 26.2317 34.9355C26.2317 35.0785 26.19 35.2117 26.1183 35.3235Z" fill="#ED73AC"/>
</g>
</g>
<mask id="mask4_50_4889" style="mask-type:luminance" maskUnits="userSpaceOnUse" x="15" y="17" width="26" height="21">
<path d="M28.3613 37.4847C26.7359 36.5204 23.034 34.1608 21.3435 32.626L20.9244 32.247C19.0567 30.559 17.1253 28.8134 16.3868 26.6648C15.699 24.6646 15.8573 22.4282 16.8095 20.6826C17.8622 18.7535 19.8978 17.5068 21.9948 17.5068C22.9305 17.5068 24.304 17.7644 25.5312 18.9925L28.3391 21.7998L29.751 20.4317L31.1893 18.9934C32.4174 17.7656 33.7906 17.5077 34.7258 17.5077C36.8234 17.5077 38.8589 18.7547 39.9119 20.6838C40.8644 22.4291 41.0222 24.6655 40.3343 26.6657C39.5956 28.8152 37.6638 30.5611 35.7955 32.2491L35.3779 32.6269C33.6878 34.1614 29.9882 36.5198 28.3613 37.4847Z" fill="white"/>
</mask>
<g mask="url(#mask4_50_4889)">
<mask id="mask5_50_4889" style="mask-type:luminance" maskUnits="userSpaceOnUse" x="26" y="34" width="4" height="6">
<path d="M29.9313 34.2588H26.5049V39.8449H29.9313V34.2588Z" fill="white"/>
</mask>
<g mask="url(#mask5_50_4889)">
<path d="M28.9377 35.6554C28.5401 35.6554 28.2178 35.3331 28.2178 34.9355C28.2178 34.6246 28.4151 34.3595 28.6915 34.2588H29.1838C29.4603 34.3595 29.6575 34.6246 29.6575 34.9355C29.6575 35.3331 29.3352 35.6554 28.9377 35.6554Z" fill="#ED73AC"/>
</g>
</g>
<mask id="mask6_50_4889" style="mask-type:luminance" maskUnits="userSpaceOnUse" x="15" y="17" width="26" height="21">
<path d="M28.3613 37.4847C26.7359 36.5204 23.034 34.1608 21.3435 32.626L20.9244 32.247C19.0567 30.559 17.1253 28.8134 16.3868 26.6648C15.699 24.6646 15.8573 22.4282 16.8095 20.6826C17.8622 18.7535 19.8978 17.5068 21.9948 17.5068C22.9305 17.5068 24.304 17.7644 25.5312 18.9925L28.3391 21.7998L29.751 20.4317L31.1893 18.9934C32.4174 17.7656 33.7906 17.5077 34.7258 17.5077C36.8234 17.5077 38.8589 18.7547 39.9119 20.6838C40.8644 22.4291 41.0222 24.6655 40.3343 26.6657C39.5956 28.8152 37.6638 30.5611 35.7955 32.2491L35.3779 32.6269C33.6878 34.1614 29.9882 36.5198 28.3613 37.4847Z" fill="white"/>
</mask>
<g mask="url(#mask6_50_4889)">
<mask id="mask7_50_4889" style="mask-type:luminance" maskUnits="userSpaceOnUse" x="29" y="34" width="5" height="6">
<path d="M33.3574 34.2588H29.9307V39.8449H33.3574V34.2588Z" fill="white"/>
</mask>
<g mask="url(#mask7_50_4889)">
<path d="M31.7402 34.5763C31.8242 34.4306 31.9576 34.3173 32.1177 34.2588H32.2092C32.053 34.3655 31.8964 34.4714 31.7402 34.5763Z" fill="#ED73AC"/>
</g>
</g>
<mask id="mask8_50_4889" style="mask-type:luminance" maskUnits="userSpaceOnUse" x="15" y="17" width="26" height="21">
<path d="M28.3613 37.4847C26.7359 36.5204 23.034 34.1608 21.3435 32.626L20.9244 32.247C19.0567 30.559 17.1253 28.8134 16.3868 26.6648C15.699 24.6646 15.8573 22.4282 16.8095 20.6826C17.8622 18.7535 19.8978 17.5068 21.9948 17.5068C22.9305 17.5068 24.304 17.7644 25.5312 18.9925L28.3391 21.7998L29.751 20.4317L31.1893 18.9934C32.4174 17.7656 33.7906 17.5077 34.7258 17.5077C36.8234 17.5077 38.8589 18.7547 39.9119 20.6838C40.8644 22.4291 41.0222 24.6655 40.3343 26.6657C39.5956 28.8152 37.6638 30.5611 35.7955 32.2491L35.3779 32.6269C33.6878 34.1614 29.9882 36.5198 28.3613 37.4847Z" fill="white"/>
</mask>
<g mask="url(#mask8_50_4889)">
<mask id="mask9_50_4889" style="mask-type:luminance" maskUnits="userSpaceOnUse" x="16" y="28" width="4" height="7">
<path d="M19.6513 28.6719H16.2246V34.258H19.6513V28.6719Z" fill="white"/>
</mask>
<g mask="url(#mask9_50_4889)">
<path d="M19.1723 29.852C18.8266 29.5111 18.4938 29.1639 18.1826 28.808C18.2492 28.7492 18.3265 28.7031 18.4114 28.6719H18.9037C19.1801 28.7726 19.3774 29.0377 19.3774 29.3486C19.3774 29.5447 19.2992 29.7222 19.1723 29.852Z" fill="#ED73AC"/>
</g>
</g>
<mask id="mask10_50_4889" style="mask-type:luminance" maskUnits="userSpaceOnUse" x="15" y="17" width="26" height="21">
<path d="M28.3613 37.4847C26.7359 36.5204 23.034 34.1608 21.3435 32.626L20.9244 32.247C19.0567 30.559 17.1253 28.8134 16.3868 26.6648C15.699 24.6646 15.8573 22.4282 16.8095 20.6826C17.8622 18.7535 19.8978 17.5068 21.9948 17.5068C22.9305 17.5068 24.304 17.7644 25.5312 18.9925L28.3391 21.7998L29.751 20.4317L31.1893 18.9934C32.4174 17.7656 33.7906 17.5077 34.7258 17.5077C36.8234 17.5077 38.8589 18.7547 39.9119 20.6838C40.8644 22.4291 41.0222 24.6655 40.3343 26.6657C39.5956 28.8152 37.6638 30.5611 35.7955 32.2491L35.3779 32.6269C33.6878 34.1614 29.9882 36.5198 28.3613 37.4847Z" fill="white"/>
</mask>
<g mask="url(#mask10_50_4889)">
<mask id="mask11_50_4889" style="mask-type:luminance" maskUnits="userSpaceOnUse" x="19" y="28" width="5" height="7">
<path d="M23.0788 28.6719H19.6523V34.258H23.0788V28.6719Z" fill="white"/>
</mask>
<g mask="url(#mask11_50_4889)">
<path d="M22.0851 30.0685C21.6875 30.0685 21.3652 29.7462 21.3652 29.3486C21.3652 29.0377 21.5625 28.7726 21.839 28.6719H22.3313C22.6074 28.7726 22.805 29.0377 22.805 29.3486C22.805 29.7462 22.4827 30.0685 22.0851 30.0685Z" fill="#ED73AC"/>
</g>
</g>
<mask id="mask12_50_4889" style="mask-type:luminance" maskUnits="userSpaceOnUse" x="15" y="17" width="26" height="21">
<path d="M28.3613 37.4847C26.7359 36.5204 23.034 34.1608 21.3435 32.626L20.9244 32.247C19.0567 30.559 17.1253 28.8134 16.3868 26.6648C15.699 24.6646 15.8573 22.4282 16.8095 20.6826C17.8622 18.7535 19.8978 17.5068 21.9948 17.5068C22.9305 17.5068 24.304 17.7644 25.5312 18.9925L28.3391 21.7998L29.751 20.4317L31.1893 18.9934C32.4174 17.7656 33.7906 17.5077 34.7258 17.5077C36.8234 17.5077 38.8589 18.7547 39.9119 20.6838C40.8644 22.4291 41.0222 24.6655 40.3343 26.6657C39.5956 28.8152 37.6638 30.5611 35.7955 32.2491L35.3779 32.6269C33.6878 34.1614 29.9882 36.5198 28.3613 37.4847Z" fill="white"/>
</mask>
<g mask="url(#mask12_50_4889)">
<path d="M25.757 34.258H25.2646C25.3414 34.2301 25.4245 34.2148 25.5108 34.2148C25.5972 34.2148 25.6802 34.2301 25.757 34.258Z" fill="#ED73AC"/>
</g>
<mask id="mask13_50_4889" style="mask-type:luminance" maskUnits="userSpaceOnUse" x="15" y="17" width="26" height="21">
<path d="M28.3613 37.4847C26.7359 36.5204 23.034 34.1608 21.3435 32.626L20.9244 32.247C19.0567 30.559 17.1253 28.8134 16.3868 26.6648C15.699 24.6646 15.8573 22.4282 16.8095 20.6826C17.8622 18.7535 19.8978 17.5068 21.9948 17.5068C22.9305 17.5068 24.304 17.7644 25.5312 18.9925L28.3391 21.7998L29.751 20.4317L31.1893 18.9934C32.4174 17.7656 33.7906 17.5077 34.7258 17.5077C36.8234 17.5077 38.8589 18.7547 39.9119 20.6838C40.8644 22.4291 41.0222 24.6655 40.3343 26.6657C39.5956 28.8152 37.6638 30.5611 35.7955 32.2491L35.3779 32.6269C33.6878 34.1614 29.9882 36.5198 28.3613 37.4847Z" fill="white"/>
</mask>
<g mask="url(#mask13_50_4889)">
<mask id="mask14_50_4889" style="mask-type:luminance" maskUnits="userSpaceOnUse" x="23" y="28" width="4" height="7">
<path d="M26.5046 28.6719H23.0781V34.258H26.5046V28.6719Z" fill="white"/>
</mask>
<g mask="url(#mask14_50_4889)">
<path d="M23.798 32.8617C23.4004 32.8617 23.0781 32.5393 23.0781 32.1418C23.0781 31.7442 23.4004 31.4219 23.798 31.4219C24.1956 31.4219 24.5179 31.7442 24.5179 32.1418C24.5179 32.5393 24.1956 32.8617 23.798 32.8617Z" fill="#ED73AC"/>
</g>
</g>
<mask id="mask15_50_4889" style="mask-type:luminance" maskUnits="userSpaceOnUse" x="15" y="17" width="26" height="21">
<path d="M28.3613 37.4847C26.7359 36.5204 23.034 34.1608 21.3435 32.626L20.9244 32.247C19.0567 30.559 17.1253 28.8134 16.3868 26.6648C15.699 24.6646 15.8573 22.4282 16.8095 20.6826C17.8622 18.7535 19.8978 17.5068 21.9948 17.5068C22.9305 17.5068 24.304 17.7644 25.5312 18.9925L28.3391 21.7998L29.751 20.4317L31.1893 18.9934C32.4174 17.7656 33.7906 17.5077 34.7258 17.5077C36.8234 17.5077 38.8589 18.7547 39.9119 20.6838C40.8644 22.4291 41.0222 24.6655 40.3343 26.6657C39.5956 28.8152 37.6638 30.5611 35.7955 32.2491L35.3779 32.6269C33.6878 34.1614 29.9882 36.5198 28.3613 37.4847Z" fill="white"/>
</mask>
<g mask="url(#mask15_50_4889)">
<mask id="mask16_50_4889" style="mask-type:luminance" maskUnits="userSpaceOnUse" x="23" y="28" width="4" height="7">
<path d="M26.5046 28.6719H23.0781V34.258H26.5046V28.6719Z" fill="white"/>
</mask>
<g mask="url(#mask16_50_4889)">
<path d="M25.5109 30.0685C25.1133 30.0685 24.791 29.7462 24.791 29.3486C24.791 29.0377 24.9883 28.7726 25.2647 28.6719H25.7571C26.0335 28.7726 26.2308 29.0377 26.2308 29.3486C26.2308 29.7462 25.9085 30.0685 25.5109 30.0685Z" fill="#ED73AC"/>
</g>
</g>
<mask id="mask17_50_4889" style="mask-type:luminance" maskUnits="userSpaceOnUse" x="15" y="17" width="26" height="21">
<path d="M28.3613 37.4847C26.7359 36.5204 23.034 34.1608 21.3435 32.626L20.9244 32.247C19.0567 30.559 17.1253 28.8134 16.3868 26.6648C15.699 24.6646 15.8573 22.4282 16.8095 20.6826C17.8622 18.7535 19.8978 17.5068 21.9948 17.5068C22.9305 17.5068 24.304 17.7644 25.5312 18.9925L28.3391 21.7998L29.751 20.4317L31.1893 18.9934C32.4174 17.7656 33.7906 17.5077 34.7258 17.5077C36.8234 17.5077 38.8589 18.7547 39.9119 20.6838C40.8644 22.4291 41.0222 24.6655 40.3343 26.6657C39.5956 28.8152 37.6638 30.5611 35.7955 32.2491L35.3779 32.6269C33.6878 34.1614 29.9882 36.5198 28.3613 37.4847Z" fill="white"/>
</mask>
<g mask="url(#mask17_50_4889)">
<path d="M29.1837 34.258H28.6914C28.7682 34.2301 28.8512 34.2148 28.9376 34.2148C29.0242 34.2148 29.107 34.2301 29.1837 34.258Z" fill="#ED73AC"/>
</g>
<mask id="mask18_50_4889" style="mask-type:luminance" maskUnits="userSpaceOnUse" x="15" y="17" width="26" height="21">
<path d="M28.3613 37.4847C26.7359 36.5204 23.034 34.1608 21.3435 32.626L20.9244 32.247C19.0567 30.559 17.1253 28.8134 16.3868 26.6648C15.699 24.6646 15.8573 22.4282 16.8095 20.6826C17.8622 18.7535 19.8978 17.5068 21.9948 17.5068C22.9305 17.5068 24.304 17.7644 25.5312 18.9925L28.3391 21.7998L29.751 20.4317L31.1893 18.9934C32.4174 17.7656 33.7906 17.5077 34.7258 17.5077C36.8234 17.5077 38.8589 18.7547 39.9119 20.6838C40.8644 22.4291 41.0222 24.6655 40.3343 26.6657C39.5956 28.8152 37.6638 30.5611 35.7955 32.2491L35.3779 32.6269C33.6878 34.1614 29.9882 36.5198 28.3613 37.4847Z" fill="white"/>
</mask>
<g mask="url(#mask18_50_4889)">
<mask id="mask19_50_4889" style="mask-type:luminance" maskUnits="userSpaceOnUse" x="26" y="28" width="4" height="7">
<path d="M29.9313 28.6719H26.5049V34.258H29.9313V28.6719Z" fill="white"/>
</mask>
<g mask="url(#mask19_50_4889)">
<path d="M27.2248 32.8617C26.8272 32.8617 26.5049 32.5393 26.5049 32.1418C26.5049 31.7442 26.8272 31.4219 27.2248 31.4219C27.6223 31.4219 27.9447 31.7442 27.9447 32.1418C27.9447 32.5393 27.6223 32.8617 27.2248 32.8617Z" fill="#ED73AC"/>
</g>
</g>
<mask id="mask20_50_4889" style="mask-type:luminance" maskUnits="userSpaceOnUse" x="15" y="17" width="26" height="21">
<path d="M28.3613 37.4847C26.7359 36.5204 23.034 34.1608 21.3435 32.626L20.9244 32.247C19.0567 30.559 17.1253 28.8134 16.3868 26.6648C15.699 24.6646 15.8573 22.4282 16.8095 20.6826C17.8622 18.7535 19.8978 17.5068 21.9948 17.5068C22.9305 17.5068 24.304 17.7644 25.5312 18.9925L28.3391 21.7998L29.751 20.4317L31.1893 18.9934C32.4174 17.7656 33.7906 17.5077 34.7258 17.5077C36.8234 17.5077 38.8589 18.7547 39.9119 20.6838C40.8644 22.4291 41.0222 24.6655 40.3343 26.6657C39.5956 28.8152 37.6638 30.5611 35.7955 32.2491L35.3779 32.6269C33.6878 34.1614 29.9882 36.5198 28.3613 37.4847Z" fill="white"/>
</mask>
<g mask="url(#mask20_50_4889)">
<mask id="mask21_50_4889" style="mask-type:luminance" maskUnits="userSpaceOnUse" x="26" y="28" width="4" height="7">
<path d="M29.9313 28.6719H26.5049V34.258H29.9313V28.6719Z" fill="white"/>
</mask>
<g mask="url(#mask21_50_4889)">
<path d="M28.9377 30.0685C28.5401 30.0685 28.2178 29.7462 28.2178 29.3486C28.2178 29.0377 28.4151 28.7726 28.6915 28.6719H29.1838C29.4603 28.7726 29.6575 29.0377 29.6575 29.3486C29.6575 29.7462 29.3352 30.0685 28.9377 30.0685Z" fill="#ED73AC"/>
</g>
</g>
<mask id="mask22_50_4889" style="mask-type:luminance" maskUnits="userSpaceOnUse" x="15" y="17" width="26" height="21">
<path d="M28.3613 37.4847C26.7359 36.5204 23.034 34.1608 21.3435 32.626L20.9244 32.247C19.0567 30.559 17.1253 28.8134 16.3868 26.6648C15.699 24.6646 15.8573 22.4282 16.8095 20.6826C17.8622 18.7535 19.8978 17.5068 21.9948 17.5068C22.9305 17.5068 24.304 17.7644 25.5312 18.9925L28.3391 21.7998L29.751 20.4317L31.1893 18.9934C32.4174 17.7656 33.7906 17.5077 34.7258 17.5077C36.8234 17.5077 38.8589 18.7547 39.9119 20.6838C40.8644 22.4291 41.0222 24.6655 40.3343 26.6657C39.5956 28.8152 37.6638 30.5611 35.7955 32.2491L35.3779 32.6269C33.6878 34.1614 29.9882 36.5198 28.3613 37.4847Z" fill="white"/>
</mask>
<g mask="url(#mask22_50_4889)">
<path d="M32.2096 34.2586H32.1182C32.1643 34.2421 32.2123 34.2299 32.2621 34.2227C32.2447 34.2349 32.227 34.2466 32.2096 34.2586Z" fill="#ED73AC"/>
</g>
<mask id="mask23_50_4889" style="mask-type:luminance" maskUnits="userSpaceOnUse" x="15" y="17" width="26" height="21">
<path d="M28.3613 37.4847C26.7359 36.5204 23.034 34.1608 21.3435 32.626L20.9244 32.247C19.0567 30.559 17.1253 28.8134 16.3868 26.6648C15.699 24.6646 15.8573 22.4282 16.8095 20.6826C17.8622 18.7535 19.8978 17.5068 21.9948 17.5068C22.9305 17.5068 24.304 17.7644 25.5312 18.9925L28.3391 21.7998L29.751 20.4317L31.1893 18.9934C32.4174 17.7656 33.7906 17.5077 34.7258 17.5077C36.8234 17.5077 38.8589 18.7547 39.9119 20.6838C40.8644 22.4291 41.0222 24.6655 40.3343 26.6657C39.5956 28.8152 37.6638 30.5611 35.7955 32.2491L35.3779 32.6269C33.6878 34.1614 29.9882 36.5198 28.3613 37.4847Z" fill="white"/>
</mask>
<g mask="url(#mask23_50_4889)">
<mask id="mask24_50_4889" style="mask-type:luminance" maskUnits="userSpaceOnUse" x="29" y="28" width="5" height="7">
<path d="M33.3574 28.6719H29.9307V34.258H33.3574V28.6719Z" fill="white"/>
</mask>
<g mask="url(#mask24_50_4889)">
<path d="M30.6506 32.8617C30.253 32.8617 29.9307 32.5393 29.9307 32.1418C29.9307 31.7442 30.253 31.4219 30.6506 31.4219C31.0481 31.4219 31.3704 31.7442 31.3704 32.1418C31.3704 32.5393 31.0481 32.8617 30.6506 32.8617Z" fill="#ED73AC"/>
</g>
</g>
<mask id="mask25_50_4889" style="mask-type:luminance" maskUnits="userSpaceOnUse" x="15" y="17" width="26" height="21">
<path d="M28.3613 37.4847C26.7359 36.5204 23.034 34.1608 21.3435 32.626L20.9244 32.247C19.0567 30.559 17.1253 28.8134 16.3868 26.6648C15.699 24.6646 15.8573 22.4282 16.8095 20.6826C17.8622 18.7535 19.8978 17.5068 21.9948 17.5068C22.9305 17.5068 24.304 17.7644 25.5312 18.9925L28.3391 21.7998L29.751 20.4317L31.1893 18.9934C32.4174 17.7656 33.7906 17.5077 34.7258 17.5077C36.8234 17.5077 38.8589 18.7547 39.9119 20.6838C40.8644 22.4291 41.0222 24.6655 40.3343 26.6657C39.5956 28.8152 37.6638 30.5611 35.7955 32.2491L35.3779 32.6269C33.6878 34.1614 29.9882 36.5198 28.3613 37.4847Z" fill="white"/>
</mask>
<g mask="url(#mask25_50_4889)">
<mask id="mask26_50_4889" style="mask-type:luminance" maskUnits="userSpaceOnUse" x="29" y="28" width="5" height="7">
<path d="M33.3574 28.6719H29.9307V34.258H33.3574V28.6719Z" fill="white"/>
</mask>
<g mask="url(#mask26_50_4889)">
<path d="M32.3641 30.0685C31.9666 30.0685 31.6445 29.7462 31.6445 29.3486C31.6445 29.0377 31.8418 28.7726 32.118 28.6719H32.6103C32.8867 28.7726 33.084 29.0377 33.084 29.3486C33.084 29.7462 32.7617 30.0685 32.3641 30.0685Z" fill="#ED73AC"/>
</g>
</g>
<mask id="mask27_50_4889" style="mask-type:luminance" maskUnits="userSpaceOnUse" x="15" y="17" width="26" height="21">
<path d="M28.3613 37.4847C26.7359 36.5204 23.034 34.1608 21.3435 32.626L20.9244 32.247C19.0567 30.559 17.1253 28.8134 16.3868 26.6648C15.699 24.6646 15.8573 22.4282 16.8095 20.6826C17.8622 18.7535 19.8978 17.5068 21.9948 17.5068C22.9305 17.5068 24.304 17.7644 25.5312 18.9925L28.3391 21.7998L29.751 20.4317L31.1893 18.9934C32.4174 17.7656 33.7906 17.5077 34.7258 17.5077C36.8234 17.5077 38.8589 18.7547 39.9119 20.6838C40.8644 22.4291 41.0222 24.6655 40.3343 26.6657C39.5956 28.8152 37.6638 30.5611 35.7955 32.2491L35.3779 32.6269C33.6878 34.1614 29.9882 36.5198 28.3613 37.4847Z" fill="white"/>
</mask>
<g mask="url(#mask27_50_4889)">
<mask id="mask28_50_4889" style="mask-type:luminance" maskUnits="userSpaceOnUse" x="33" y="28" width="4" height="7">
<path d="M36.7848 28.6719H33.3584V34.258H36.7848V28.6719Z" fill="white"/>
</mask>
<g mask="url(#mask28_50_4889)">
<path d="M34.0783 32.8617C33.6807 32.8617 33.3584 32.5393 33.3584 32.1418C33.3584 31.7442 33.6807 31.4219 34.0783 31.4219C34.4759 31.4219 34.7979 31.7442 34.7979 32.1418C34.7979 32.2317 34.7814 32.3178 34.7514 32.3972C34.5676 32.5459 34.3715 32.6997 34.1661 32.8563C34.1374 32.8599 34.108 32.8617 34.0783 32.8617Z" fill="#ED73AC"/>
</g>
</g>
<mask id="mask29_50_4889" style="mask-type:luminance" maskUnits="userSpaceOnUse" x="15" y="17" width="26" height="21">
<path d="M28.3613 37.4847C26.7359 36.5204 23.034 34.1608 21.3435 32.626L20.9244 32.247C19.0567 30.559 17.1253 28.8134 16.3868 26.6648C15.699 24.6646 15.8573 22.4282 16.8095 20.6826C17.8622 18.7535 19.8978 17.5068 21.9948 17.5068C22.9305 17.5068 24.304 17.7644 25.5312 18.9925L28.3391 21.7998L29.751 20.4317L31.1893 18.9934C32.4174 17.7656 33.7906 17.5077 34.7258 17.5077C36.8234 17.5077 38.8589 18.7547 39.9119 20.6838C40.8644 22.4291 41.0222 24.6655 40.3343 26.6657C39.5956 28.8152 37.6638 30.5611 35.7955 32.2491L35.3779 32.6269C33.6878 34.1614 29.9882 36.5198 28.3613 37.4847Z" fill="white"/>
</mask>
<g mask="url(#mask29_50_4889)">
<mask id="mask30_50_4889" style="mask-type:luminance" maskUnits="userSpaceOnUse" x="33" y="28" width="4" height="7">
<path d="M36.7848 28.6719H33.3584V34.258H36.7848V28.6719Z" fill="white"/>
</mask>
<g mask="url(#mask30_50_4889)">
<path d="M35.7912 30.0685C35.3936 30.0685 35.0713 29.7462 35.0713 29.3486C35.0713 29.0377 35.2686 28.7726 35.545 28.6719H36.0373C36.3135 28.7726 36.5111 29.0377 36.5111 29.3486C36.5111 29.7462 36.1887 30.0685 35.7912 30.0685Z" fill="#ED73AC"/>
</g>
</g>
<mask id="mask31_50_4889" style="mask-type:luminance" maskUnits="userSpaceOnUse" x="15" y="17" width="26" height="21">
<path d="M28.3613 37.4847C26.7359 36.5204 23.034 34.1608 21.3435 32.626L20.9244 32.247C19.0567 30.559 17.1253 28.8134 16.3868 26.6648C15.699 24.6646 15.8573 22.4282 16.8095 20.6826C17.8622 18.7535 19.8978 17.5068 21.9948 17.5068C22.9305 17.5068 24.304 17.7644 25.5312 18.9925L28.3391 21.7998L29.751 20.4317L31.1893 18.9934C32.4174 17.7656 33.7906 17.5077 34.7258 17.5077C36.8234 17.5077 38.8589 18.7547 39.9119 20.6838C40.8644 22.4291 41.0222 24.6655 40.3343 26.6657C39.5956 28.8152 37.6638 30.5611 35.7955 32.2491L35.3779 32.6269C33.6878 34.1614 29.9882 36.5198 28.3613 37.4847Z" fill="white"/>
</mask>
<g mask="url(#mask31_50_4889)">
<path d="M18.9044 28.6721H18.4121C18.4892 28.6442 18.5719 28.6289 18.6583 28.6289C18.7449 28.6289 18.8277 28.6442 18.9044 28.6721Z" fill="#ED73AC"/>
</g>
<mask id="mask32_50_4889" style="mask-type:luminance" maskUnits="userSpaceOnUse" x="15" y="17" width="26" height="21">
<path d="M28.3613 37.4847C26.7359 36.5204 23.034 34.1608 21.3435 32.626L20.9244 32.247C19.0567 30.559 17.1253 28.8134 16.3868 26.6648C15.699 24.6646 15.8573 22.4282 16.8095 20.6826C17.8622 18.7535 19.8978 17.5068 21.9948 17.5068C22.9305 17.5068 24.304 17.7644 25.5312 18.9925L28.3391 21.7998L29.751 20.4317L31.1893 18.9934C32.4174 17.7656 33.7906 17.5077 34.7258 17.5077C36.8234 17.5077 38.8589 18.7547 39.9119 20.6838C40.8644 22.4291 41.0222 24.6655 40.3343 26.6657C39.5956 28.8152 37.6638 30.5611 35.7955 32.2491L35.3779 32.6269C33.6878 34.1614 29.9882 36.5198 28.3613 37.4847Z" fill="white"/>
</mask>
<g mask="url(#mask32_50_4889)">
<path d="M17.0381 27.2697C16.7989 26.8748 16.5956 26.4674 16.4385 26.0443C16.5686 25.9154 16.7476 25.8359 16.9449 25.8359C17.3425 25.8359 17.6648 26.1583 17.6648 26.5558C17.6648 26.9219 17.3916 27.2241 17.0381 27.2697Z" fill="#ED73AC"/>
</g>
<mask id="mask33_50_4889" style="mask-type:luminance" maskUnits="userSpaceOnUse" x="15" y="17" width="26" height="21">
<path d="M28.3613 37.4847C26.7359 36.5204 23.034 34.1608 21.3435 32.626L20.9244 32.247C19.0567 30.559 17.1253 28.8134 16.3868 26.6648C15.699 24.6646 15.8573 22.4282 16.8095 20.6826C17.8622 18.7535 19.8978 17.5068 21.9948 17.5068C22.9305 17.5068 24.304 17.7644 25.5312 18.9925L28.3391 21.7998L29.751 20.4317L31.1893 18.9934C32.4174 17.7656 33.7906 17.5077 34.7258 17.5077C36.8234 17.5077 38.8589 18.7547 39.9119 20.6838C40.8644 22.4291 41.0222 24.6655 40.3343 26.6657C39.5956 28.8152 37.6638 30.5611 35.7955 32.2491L35.3779 32.6269C33.6878 34.1614 29.9882 36.5198 28.3613 37.4847Z" fill="white"/>
</mask>
<g mask="url(#mask33_50_4889)">
<mask id="mask34_50_4889" style="mask-type:luminance" maskUnits="userSpaceOnUse" x="16" y="23" width="4" height="6">
<path d="M19.6513 23.0869H16.2246V28.6727H19.6513V23.0869Z" fill="white"/>
</mask>
<g mask="url(#mask34_50_4889)">
<path d="M18.6581 24.4832C18.2605 24.4832 17.9385 24.1609 17.9385 23.7633C17.9385 23.4524 18.1358 23.1874 18.4119 23.0869H18.9042C19.1807 23.1874 19.378 23.4524 19.378 23.7633C19.378 24.1609 19.0556 24.4832 18.6581 24.4832Z" fill="#ED73AC"/>
</g>
</g>
<mask id="mask35_50_4889" style="mask-type:luminance" maskUnits="userSpaceOnUse" x="15" y="17" width="26" height="21">
<path d="M28.3613 37.4847C26.7359 36.5204 23.034 34.1608 21.3435 32.626L20.9244 32.247C19.0567 30.559 17.1253 28.8134 16.3868 26.6648C15.699 24.6646 15.8573 22.4282 16.8095 20.6826C17.8622 18.7535 19.8978 17.5068 21.9948 17.5068C22.9305 17.5068 24.304 17.7644 25.5312 18.9925L28.3391 21.7998L29.751 20.4317L31.1893 18.9934C32.4174 17.7656 33.7906 17.5077 34.7258 17.5077C36.8234 17.5077 38.8589 18.7547 39.9119 20.6838C40.8644 22.4291 41.0222 24.6655 40.3343 26.6657C39.5956 28.8152 37.6638 30.5611 35.7955 32.2491L35.3779 32.6269C33.6878 34.1614 29.9882 36.5198 28.3613 37.4847Z" fill="white"/>
</mask>
<g mask="url(#mask35_50_4889)">
<path d="M22.3312 28.6721H21.8389C21.9156 28.6442 21.9984 28.6289 22.085 28.6289C22.1714 28.6289 22.2544 28.6442 22.3312 28.6721Z" fill="#ED73AC"/>
</g>
<mask id="mask36_50_4889" style="mask-type:luminance" maskUnits="userSpaceOnUse" x="15" y="17" width="26" height="21">
<path d="M28.3613 37.4847C26.7359 36.5204 23.034 34.1608 21.3435 32.626L20.9244 32.247C19.0567 30.559 17.1253 28.8134 16.3868 26.6648C15.699 24.6646 15.8573 22.4282 16.8095 20.6826C17.8622 18.7535 19.8978 17.5068 21.9948 17.5068C22.9305 17.5068 24.304 17.7644 25.5312 18.9925L28.3391 21.7998L29.751 20.4317L31.1893 18.9934C32.4174 17.7656 33.7906 17.5077 34.7258 17.5077C36.8234 17.5077 38.8589 18.7547 39.9119 20.6838C40.8644 22.4291 41.0222 24.6655 40.3343 26.6657C39.5956 28.8152 37.6638 30.5611 35.7955 32.2491L35.3779 32.6269C33.6878 34.1614 29.9882 36.5198 28.3613 37.4847Z" fill="white"/>
</mask>
<g mask="url(#mask36_50_4889)">
<mask id="mask37_50_4889" style="mask-type:luminance" maskUnits="userSpaceOnUse" x="19" y="23" width="5" height="6">
<path d="M23.0788 23.0859H19.6523V28.6717H23.0788V23.0859Z" fill="white"/>
</mask>
<g mask="url(#mask37_50_4889)">
<path d="M20.3722 27.2757C19.9747 27.2757 19.6523 26.9534 19.6523 26.5558C19.6523 26.1583 19.9747 25.8359 20.3722 25.8359C20.7698 25.8359 21.0918 26.1583 21.0918 26.5558C21.0918 26.9534 20.7698 27.2757 20.3722 27.2757Z" fill="#ED73AC"/>
</g>
</g>
<mask id="mask38_50_4889" style="mask-type:luminance" maskUnits="userSpaceOnUse" x="15" y="17" width="26" height="21">
<path d="M28.3613 37.4847C26.7359 36.5204 23.034 34.1608 21.3435 32.626L20.9244 32.247C19.0567 30.559 17.1253 28.8134 16.3868 26.6648C15.699 24.6646 15.8573 22.4282 16.8095 20.6826C17.8622 18.7535 19.8978 17.5068 21.9948 17.5068C22.9305 17.5068 24.304 17.7644 25.5312 18.9925L28.3391 21.7998L29.751 20.4317L31.1893 18.9934C32.4174 17.7656 33.7906 17.5077 34.7258 17.5077C36.8234 17.5077 38.8589 18.7547 39.9119 20.6838C40.8644 22.4291 41.0222 24.6655 40.3343 26.6657C39.5956 28.8152 37.6638 30.5611 35.7955 32.2491L35.3779 32.6269C33.6878 34.1614 29.9882 36.5198 28.3613 37.4847Z" fill="white"/>
</mask>
<g mask="url(#mask38_50_4889)">
<mask id="mask39_50_4889" style="mask-type:luminance" maskUnits="userSpaceOnUse" x="19" y="23" width="5" height="6">
<path d="M23.0788 23.0859H19.6523V28.6717H23.0788V23.0859Z" fill="white"/>
</mask>
<g mask="url(#mask39_50_4889)">
<path d="M22.0851 24.4822C21.6875 24.4822 21.3652 24.1599 21.3652 23.7624C21.3652 23.4514 21.5625 23.1864 21.839 23.0859H22.3313C22.6074 23.1864 22.805 23.4514 22.805 23.7624C22.805 24.1599 22.4827 24.4822 22.0851 24.4822Z" fill="#ED73AC"/>
</g>
</g>
<mask id="mask40_50_4889" style="mask-type:luminance" maskUnits="userSpaceOnUse" x="15" y="17" width="26" height="21">
<path d="M28.3613 37.4847C26.7359 36.5204 23.034 34.1608 21.3435 32.626L20.9244 32.247C19.0567 30.559 17.1253 28.8134 16.3868 26.6648C15.699 24.6646 15.8573 22.4282 16.8095 20.6826C17.8622 18.7535 19.8978 17.5068 21.9948 17.5068C22.9305 17.5068 24.304 17.7644 25.5312 18.9925L28.3391 21.7998L29.751 20.4317L31.1893 18.9934C32.4174 17.7656 33.7906 17.5077 34.7258 17.5077C36.8234 17.5077 38.8589 18.7547 39.9119 20.6838C40.8644 22.4291 41.0222 24.6655 40.3343 26.6657C39.5956 28.8152 37.6638 30.5611 35.7955 32.2491L35.3779 32.6269C33.6878 34.1614 29.9882 36.5198 28.3613 37.4847Z" fill="white"/>
</mask>
<g mask="url(#mask40_50_4889)">
<path d="M25.757 28.6721H25.2646C25.3414 28.6442 25.4245 28.6289 25.5108 28.6289C25.5972 28.6289 25.6802 28.6442 25.757 28.6721Z" fill="#ED73AC"/>
</g>
<mask id="mask41_50_4889" style="mask-type:luminance" maskUnits="userSpaceOnUse" x="15" y="17" width="26" height="21">
<path d="M28.3613 37.4847C26.7359 36.5204 23.034 34.1608 21.3435 32.626L20.9244 32.247C19.0567 30.559 17.1253 28.8134 16.3868 26.6648C15.699 24.6646 15.8573 22.4282 16.8095 20.6826C17.8622 18.7535 19.8978 17.5068 21.9948 17.5068C22.9305 17.5068 24.304 17.7644 25.5312 18.9925L28.3391 21.7998L29.751 20.4317L31.1893 18.9934C32.4174 17.7656 33.7906 17.5077 34.7258 17.5077C36.8234 17.5077 38.8589 18.7547 39.9119 20.6838C40.8644 22.4291 41.0222 24.6655 40.3343 26.6657C39.5956 28.8152 37.6638 30.5611 35.7955 32.2491L35.3779 32.6269C33.6878 34.1614 29.9882 36.5198 28.3613 37.4847Z" fill="white"/>
</mask>
<g mask="url(#mask41_50_4889)">
<mask id="mask42_50_4889" style="mask-type:luminance" maskUnits="userSpaceOnUse" x="23" y="23" width="4" height="6">
<path d="M26.5046 23.0869H23.0781V28.6727H26.5046V23.0869Z" fill="white"/>
</mask>
<g mask="url(#mask42_50_4889)">
<path d="M23.798 27.2757C23.4004 27.2757 23.0781 26.9534 23.0781 26.5558C23.0781 26.1583 23.4004 25.8359 23.798 25.8359C24.1956 25.8359 24.5179 26.1583 24.5179 26.5558C24.5179 26.9534 24.1956 27.2757 23.798 27.2757Z" fill="#ED73AC"/>
</g>
</g>
<mask id="mask43_50_4889" style="mask-type:luminance" maskUnits="userSpaceOnUse" x="15" y="17" width="26" height="21">
<path d="M28.3613 37.4847C26.7359 36.5204 23.034 34.1608 21.3435 32.626L20.9244 32.247C19.0567 30.559 17.1253 28.8134 16.3868 26.6648C15.699 24.6646 15.8573 22.4282 16.8095 20.6826C17.8622 18.7535 19.8978 17.5068 21.9948 17.5068C22.9305 17.5068 24.304 17.7644 25.5312 18.9925L28.3391 21.7998L29.751 20.4317L31.1893 18.9934C32.4174 17.7656 33.7906 17.5077 34.7258 17.5077C36.8234 17.5077 38.8589 18.7547 39.9119 20.6838C40.8644 22.4291 41.0222 24.6655 40.3343 26.6657C39.5956 28.8152 37.6638 30.5611 35.7955 32.2491L35.3779 32.6269C33.6878 34.1614 29.9882 36.5198 28.3613 37.4847Z" fill="white"/>
</mask>
<g mask="url(#mask43_50_4889)">
<mask id="mask44_50_4889" style="mask-type:luminance" maskUnits="userSpaceOnUse" x="23" y="23" width="4" height="6">
<path d="M26.5046 23.0869H23.0781V28.6727H26.5046V23.0869Z" fill="white"/>
</mask>
<g mask="url(#mask44_50_4889)">
<path d="M25.5109 24.4832C25.1133 24.4832 24.791 24.1609 24.791 23.7633C24.791 23.4524 24.9883 23.1874 25.2647 23.0869H25.7571C26.0335 23.1874 26.2308 23.4524 26.2308 23.7633C26.2308 24.1609 25.9085 24.4832 25.5109 24.4832Z" fill="#ED73AC"/>
</g>
</g>
<mask id="mask45_50_4889" style="mask-type:luminance" maskUnits="userSpaceOnUse" x="15" y="17" width="26" height="21">
<path d="M28.3613 37.4847C26.7359 36.5204 23.034 34.1608 21.3435 32.626L20.9244 32.247C19.0567 30.559 17.1253 28.8134 16.3868 26.6648C15.699 24.6646 15.8573 22.4282 16.8095 20.6826C17.8622 18.7535 19.8978 17.5068 21.9948 17.5068C22.9305 17.5068 24.304 17.7644 25.5312 18.9925L28.3391 21.7998L29.751 20.4317L31.1893 18.9934C32.4174 17.7656 33.7906 17.5077 34.7258 17.5077C36.8234 17.5077 38.8589 18.7547 39.9119 20.6838C40.8644 22.4291 41.0222 24.6655 40.3343 26.6657C39.5956 28.8152 37.6638 30.5611 35.7955 32.2491L35.3779 32.6269C33.6878 34.1614 29.9882 36.5198 28.3613 37.4847Z" fill="white"/>
</mask>
<g mask="url(#mask45_50_4889)">
<path d="M29.1837 28.6721H28.6914C28.7682 28.6442 28.8512 28.6289 28.9376 28.6289C29.0242 28.6289 29.107 28.6442 29.1837 28.6721Z" fill="#ED73AC"/>
</g>
<mask id="mask46_50_4889" style="mask-type:luminance" maskUnits="userSpaceOnUse" x="15" y="17" width="26" height="21">
<path d="M28.3613 37.4847C26.7359 36.5204 23.034 34.1608 21.3435 32.626L20.9244 32.247C19.0567 30.559 17.1253 28.8134 16.3868 26.6648C15.699 24.6646 15.8573 22.4282 16.8095 20.6826C17.8622 18.7535 19.8978 17.5068 21.9948 17.5068C22.9305 17.5068 24.304 17.7644 25.5312 18.9925L28.3391 21.7998L29.751 20.4317L31.1893 18.9934C32.4174 17.7656 33.7906 17.5077 34.7258 17.5077C36.8234 17.5077 38.8589 18.7547 39.9119 20.6838C40.8644 22.4291 41.0222 24.6655 40.3343 26.6657C39.5956 28.8152 37.6638 30.5611 35.7955 32.2491L35.3779 32.6269C33.6878 34.1614 29.9882 36.5198 28.3613 37.4847Z" fill="white"/>
</mask>
<g mask="url(#mask46_50_4889)">
<mask id="mask47_50_4889" style="mask-type:luminance" maskUnits="userSpaceOnUse" x="26" y="23" width="4" height="6">
<path d="M29.9313 23.0869H26.5049V28.6727H29.9313V23.0869Z" fill="white"/>
</mask>
<g mask="url(#mask47_50_4889)">
<path d="M27.2248 27.2757C26.8272 27.2757 26.5049 26.9534 26.5049 26.5558C26.5049 26.1583 26.8272 25.8359 27.2248 25.8359C27.6223 25.8359 27.9447 26.1583 27.9447 26.5558C27.9447 26.9534 27.6223 27.2757 27.2248 27.2757Z" fill="#ED73AC"/>
</g>
</g>
<mask id="mask48_50_4889" style="mask-type:luminance" maskUnits="userSpaceOnUse" x="15" y="17" width="26" height="21">
<path d="M28.3613 37.4847C26.7359 36.5204 23.034 34.1608 21.3435 32.626L20.9244 32.247C19.0567 30.559 17.1253 28.8134 16.3868 26.6648C15.699 24.6646 15.8573 22.4282 16.8095 20.6826C17.8622 18.7535 19.8978 17.5068 21.9948 17.5068C22.9305 17.5068 24.304 17.7644 25.5312 18.9925L28.3391 21.7998L29.751 20.4317L31.1893 18.9934C32.4174 17.7656 33.7906 17.5077 34.7258 17.5077C36.8234 17.5077 38.8589 18.7547 39.9119 20.6838C40.8644 22.4291 41.0222 24.6655 40.3343 26.6657C39.5956 28.8152 37.6638 30.5611 35.7955 32.2491L35.3779 32.6269C33.6878 34.1614 29.9882 36.5198 28.3613 37.4847Z" fill="white"/>
</mask>
<g mask="url(#mask48_50_4889)">
<mask id="mask49_50_4889" style="mask-type:luminance" maskUnits="userSpaceOnUse" x="26" y="23" width="4" height="6">
<path d="M29.9313 23.0869H26.5049V28.6727H29.9313V23.0869Z" fill="white"/>
</mask>
<g mask="url(#mask49_50_4889)">
<path d="M28.9377 24.4832C28.5401 24.4832 28.2178 24.1609 28.2178 23.7633C28.2178 23.4524 28.4151 23.1874 28.6915 23.0869H29.1838C29.4603 23.1874 29.6575 23.4524 29.6575 23.7633C29.6575 24.1609 29.3352 24.4832 28.9377 24.4832Z" fill="#ED73AC"/>
</g>
</g>
<mask id="mask50_50_4889" style="mask-type:luminance" maskUnits="userSpaceOnUse" x="15" y="17" width="26" height="21">
<path d="M28.3613 37.4847C26.7359 36.5204 23.034 34.1608 21.3435 32.626L20.9244 32.247C19.0567 30.559 17.1253 28.8134 16.3868 26.6648C15.699 24.6646 15.8573 22.4282 16.8095 20.6826C17.8622 18.7535 19.8978 17.5068 21.9948 17.5068C22.9305 17.5068 24.304 17.7644 25.5312 18.9925L28.3391 21.7998L29.751 20.4317L31.1893 18.9934C32.4174 17.7656 33.7906 17.5077 34.7258 17.5077C36.8234 17.5077 38.8589 18.7547 39.9119 20.6838C40.8644 22.4291 41.0222 24.6655 40.3343 26.6657C39.5956 28.8152 37.6638 30.5611 35.7955 32.2491L35.3779 32.6269C33.6878 34.1614 29.9882 36.5198 28.3613 37.4847Z" fill="white"/>
</mask>
<g mask="url(#mask50_50_4889)">
<path d="M32.6105 28.6721H32.1182C32.1952 28.6442 32.278 28.6289 32.3643 28.6289C32.451 28.6289 32.5337 28.6442 32.6105 28.6721Z" fill="#ED73AC"/>
</g>
<mask id="mask51_50_4889" style="mask-type:luminance" maskUnits="userSpaceOnUse" x="15" y="17" width="26" height="21">
<path d="M28.3613 37.4847C26.7359 36.5204 23.034 34.1608 21.3435 32.626L20.9244 32.247C19.0567 30.559 17.1253 28.8134 16.3868 26.6648C15.699 24.6646 15.8573 22.4282 16.8095 20.6826C17.8622 18.7535 19.8978 17.5068 21.9948 17.5068C22.9305 17.5068 24.304 17.7644 25.5312 18.9925L28.3391 21.7998L29.751 20.4317L31.1893 18.9934C32.4174 17.7656 33.7906 17.5077 34.7258 17.5077C36.8234 17.5077 38.8589 18.7547 39.9119 20.6838C40.8644 22.4291 41.0222 24.6655 40.3343 26.6657C39.5956 28.8152 37.6638 30.5611 35.7955 32.2491L35.3779 32.6269C33.6878 34.1614 29.9882 36.5198 28.3613 37.4847Z" fill="white"/>
</mask>
<g mask="url(#mask51_50_4889)">
<mask id="mask52_50_4889" style="mask-type:luminance" maskUnits="userSpaceOnUse" x="29" y="23" width="5" height="6">
<path d="M33.3574 23.0869H29.9307V28.6727H33.3574V23.0869Z" fill="white"/>
</mask>
<g mask="url(#mask52_50_4889)">
<path d="M30.6506 27.2757C30.253 27.2757 29.9307 26.9534 29.9307 26.5558C29.9307 26.1583 30.253 25.8359 30.6506 25.8359C31.0481 25.8359 31.3704 26.1583 31.3704 26.5558C31.3704 26.9534 31.0481 27.2757 30.6506 27.2757Z" fill="#ED73AC"/>
</g>
</g>
<mask id="mask53_50_4889" style="mask-type:luminance" maskUnits="userSpaceOnUse" x="15" y="17" width="26" height="21">
<path d="M28.3613 37.4847C26.7359 36.5204 23.034 34.1608 21.3435 32.626L20.9244 32.247C19.0567 30.559 17.1253 28.8134 16.3868 26.6648C15.699 24.6646 15.8573 22.4282 16.8095 20.6826C17.8622 18.7535 19.8978 17.5068 21.9948 17.5068C22.9305 17.5068 24.304 17.7644 25.5312 18.9925L28.3391 21.7998L29.751 20.4317L31.1893 18.9934C32.4174 17.7656 33.7906 17.5077 34.7258 17.5077C36.8234 17.5077 38.8589 18.7547 39.9119 20.6838C40.8644 22.4291 41.0222 24.6655 40.3343 26.6657C39.5956 28.8152 37.6638 30.5611 35.7955 32.2491L35.3779 32.6269C33.6878 34.1614 29.9882 36.5198 28.3613 37.4847Z" fill="white"/>
</mask>
<g mask="url(#mask53_50_4889)">
<mask id="mask54_50_4889" style="mask-type:luminance" maskUnits="userSpaceOnUse" x="29" y="23" width="5" height="6">
<path d="M33.3574 23.0869H29.9307V28.6727H33.3574V23.0869Z" fill="white"/>
</mask>
<g mask="url(#mask54_50_4889)">
<path d="M32.3641 24.4832C31.9666 24.4832 31.6445 24.1609 31.6445 23.7633C31.6445 23.4524 31.8418 23.1874 32.118 23.0869H32.6103C32.8867 23.1874 33.084 23.4524 33.084 23.7633C33.084 24.1609 32.7617 24.4832 32.3641 24.4832Z" fill="#ED73AC"/>
</g>
</g>
<mask id="mask55_50_4889" style="mask-type:luminance" maskUnits="userSpaceOnUse" x="15" y="17" width="26" height="21">
<path d="M28.3613 37.4847C26.7359 36.5204 23.034 34.1608 21.3435 32.626L20.9244 32.247C19.0567 30.559 17.1253 28.8134 16.3868 26.6648C15.699 24.6646 15.8573 22.4282 16.8095 20.6826C17.8622 18.7535 19.8978 17.5068 21.9948 17.5068C22.9305 17.5068 24.304 17.7644 25.5312 18.9925L28.3391 21.7998L29.751 20.4317L31.1893 18.9934C32.4174 17.7656 33.7906 17.5077 34.7258 17.5077C36.8234 17.5077 38.8589 18.7547 39.9119 20.6838C40.8644 22.4291 41.0222 24.6655 40.3343 26.6657C39.5956 28.8152 37.6638 30.5611 35.7955 32.2491L35.3779 32.6269C33.6878 34.1614 29.9882 36.5198 28.3613 37.4847Z" fill="white"/>
</mask>
<g mask="url(#mask55_50_4889)">
<path d="M36.0372 28.6721H35.5449C35.6217 28.6442 35.7044 28.6289 35.7911 28.6289C35.8774 28.6289 35.9605 28.6442 36.0372 28.6721Z" fill="#ED73AC"/>
</g>
<mask id="mask56_50_4889" style="mask-type:luminance" maskUnits="userSpaceOnUse" x="15" y="17" width="26" height="21">
<path d="M28.3613 37.4847C26.7359 36.5204 23.034 34.1608 21.3435 32.626L20.9244 32.247C19.0567 30.559 17.1253 28.8134 16.3868 26.6648C15.699 24.6646 15.8573 22.4282 16.8095 20.6826C17.8622 18.7535 19.8978 17.5068 21.9948 17.5068C22.9305 17.5068 24.304 17.7644 25.5312 18.9925L28.3391 21.7998L29.751 20.4317L31.1893 18.9934C32.4174 17.7656 33.7906 17.5077 34.7258 17.5077C36.8234 17.5077 38.8589 18.7547 39.9119 20.6838C40.8644 22.4291 41.0222 24.6655 40.3343 26.6657C39.5956 28.8152 37.6638 30.5611 35.7955 32.2491L35.3779 32.6269C33.6878 34.1614 29.9882 36.5198 28.3613 37.4847Z" fill="white"/>
</mask>
<g mask="url(#mask56_50_4889)">
<mask id="mask57_50_4889" style="mask-type:luminance" maskUnits="userSpaceOnUse" x="33" y="23" width="4" height="6">
<path d="M36.7848 23.0859H33.3584V28.6717H36.7848V23.0859Z" fill="white"/>
</mask>
<g mask="url(#mask57_50_4889)">
<path d="M34.0783 27.2757C33.6807 27.2757 33.3584 26.9534 33.3584 26.5558C33.3584 26.1583 33.6807 25.8359 34.0783 25.8359C34.4759 25.8359 34.7979 26.1583 34.7979 26.5558C34.7979 26.9534 34.4759 27.2757 34.0783 27.2757Z" fill="#ED73AC"/>
</g>
</g>
<mask id="mask58_50_4889" style="mask-type:luminance" maskUnits="userSpaceOnUse" x="15" y="17" width="26" height="21">
<path d="M28.3613 37.4847C26.7359 36.5204 23.034 34.1608 21.3435 32.626L20.9244 32.247C19.0567 30.559 17.1253 28.8134 16.3868 26.6648C15.699 24.6646 15.8573 22.4282 16.8095 20.6826C17.8622 18.7535 19.8978 17.5068 21.9948 17.5068C22.9305 17.5068 24.304 17.7644 25.5312 18.9925L28.3391 21.7998L29.751 20.4317L31.1893 18.9934C32.4174 17.7656 33.7906 17.5077 34.7258 17.5077C36.8234 17.5077 38.8589 18.7547 39.9119 20.6838C40.8644 22.4291 41.0222 24.6655 40.3343 26.6657C39.5956 28.8152 37.6638 30.5611 35.7955 32.2491L35.3779 32.6269C33.6878 34.1614 29.9882 36.5198 28.3613 37.4847Z" fill="white"/>
</mask>
<g mask="url(#mask58_50_4889)">
<mask id="mask59_50_4889" style="mask-type:luminance" maskUnits="userSpaceOnUse" x="33" y="23" width="4" height="6">
<path d="M36.7848 23.0859H33.3584V28.6717H36.7848V23.0859Z" fill="white"/>
</mask>
<g mask="url(#mask59_50_4889)">
<path d="M35.7912 24.4822C35.3936 24.4822 35.0713 24.1599 35.0713 23.7624C35.0713 23.4514 35.2686 23.1864 35.545 23.0859H36.0373C36.3135 23.1864 36.5111 23.4514 36.5111 23.7624C36.5111 24.1599 36.1887 24.4822 35.7912 24.4822Z" fill="#ED73AC"/>
</g>
</g>
<mask id="mask60_50_4889" style="mask-type:luminance" maskUnits="userSpaceOnUse" x="15" y="17" width="26" height="21">
<path d="M28.3613 37.4847C26.7359 36.5204 23.034 34.1608 21.3435 32.626L20.9244 32.247C19.0567 30.559 17.1253 28.8134 16.3868 26.6648C15.699 24.6646 15.8573 22.4282 16.8095 20.6826C17.8622 18.7535 19.8978 17.5068 21.9948 17.5068C22.9305 17.5068 24.304 17.7644 25.5312 18.9925L28.3391 21.7998L29.751 20.4317L31.1893 18.9934C32.4174 17.7656 33.7906 17.5077 34.7258 17.5077C36.8234 17.5077 38.8589 18.7547 39.9119 20.6838C40.8644 22.4291 41.0222 24.6655 40.3343 26.6657C39.5956 28.8152 37.6638 30.5611 35.7955 32.2491L35.3779 32.6269C33.6878 34.1614 29.9882 36.5198 28.3613 37.4847Z" fill="white"/>
</mask>
<g mask="url(#mask60_50_4889)">
<mask id="mask61_50_4889" style="mask-type:luminance" maskUnits="userSpaceOnUse" x="36" y="23" width="5" height="6">
<path d="M40.2106 23.0869H36.7842V28.6727H40.2106V23.0869Z" fill="white"/>
</mask>
<g mask="url(#mask61_50_4889)">
<path d="M37.5041 27.2757C37.1065 27.2757 36.7842 26.9534 36.7842 26.5558C36.7842 26.1583 37.1065 25.8359 37.5041 25.8359C37.9016 25.8359 38.2239 26.1583 38.2239 26.5558C38.2239 26.9534 37.9016 27.2757 37.5041 27.2757Z" fill="#ED73AC"/>
</g>
</g>
<mask id="mask62_50_4889" style="mask-type:luminance" maskUnits="userSpaceOnUse" x="15" y="17" width="26" height="21">
<path d="M28.3613 37.4847C26.7359 36.5204 23.034 34.1608 21.3435 32.626L20.9244 32.247C19.0567 30.559 17.1253 28.8134 16.3868 26.6648C15.699 24.6646 15.8573 22.4282 16.8095 20.6826C17.8622 18.7535 19.8978 17.5068 21.9948 17.5068C22.9305 17.5068 24.304 17.7644 25.5312 18.9925L28.3391 21.7998L29.751 20.4317L31.1893 18.9934C32.4174 17.7656 33.7906 17.5077 34.7258 17.5077C36.8234 17.5077 38.8589 18.7547 39.9119 20.6838C40.8644 22.4291 41.0222 24.6655 40.3343 26.6657C39.5956 28.8152 37.6638 30.5611 35.7955 32.2491L35.3779 32.6269C33.6878 34.1614 29.9882 36.5198 28.3613 37.4847Z" fill="white"/>
</mask>
<g mask="url(#mask62_50_4889)">
<mask id="mask63_50_4889" style="mask-type:luminance" maskUnits="userSpaceOnUse" x="36" y="23" width="5" height="6">
<path d="M40.2106 23.0869H36.7842V28.6727H40.2106V23.0869Z" fill="white"/>
</mask>
<g mask="url(#mask63_50_4889)">
<path d="M39.217 24.4832C38.8194 24.4832 38.4971 24.1609 38.4971 23.7633C38.4971 23.4524 38.6944 23.1874 38.9708 23.0869H39.4631C39.7396 23.1874 39.9368 23.4524 39.9368 23.7633C39.9368 24.1609 39.6145 24.4832 39.217 24.4832Z" fill="#ED73AC"/>
</g>
</g>
<mask id="mask64_50_4889" style="mask-type:luminance" maskUnits="userSpaceOnUse" x="15" y="17" width="26" height="21">
<path d="M28.3613 37.4847C26.7359 36.5204 23.034 34.1608 21.3435 32.626L20.9244 32.247C19.0567 30.559 17.1253 28.8134 16.3868 26.6648C15.699 24.6646 15.8573 22.4282 16.8095 20.6826C17.8622 18.7535 19.8978 17.5068 21.9948 17.5068C22.9305 17.5068 24.304 17.7644 25.5312 18.9925L28.3391 21.7998L29.751 20.4317L31.1893 18.9934C32.4174 17.7656 33.7906 17.5077 34.7258 17.5077C36.8234 17.5077 38.8589 18.7547 39.9119 20.6838C40.8644 22.4291 41.0222 24.6655 40.3343 26.6657C39.5956 28.8152 37.6638 30.5611 35.7955 32.2491L35.3779 32.6269C33.6878 34.1614 29.9882 36.5198 28.3613 37.4847Z" fill="white"/>
</mask>
<g mask="url(#mask64_50_4889)">
<path d="M18.9044 23.0864H18.4121C18.4889 23.0583 18.5719 23.043 18.6583 23.043C18.7449 23.043 18.8277 23.0583 18.9044 23.0864Z" fill="#ED73AC"/>
</g>
<mask id="mask65_50_4889" style="mask-type:luminance" maskUnits="userSpaceOnUse" x="15" y="17" width="26" height="21">
<path d="M28.3613 37.4847C26.7359 36.5204 23.034 34.1608 21.3435 32.626L20.9244 32.247C19.0567 30.559 17.1253 28.8134 16.3868 26.6648C15.699 24.6646 15.8573 22.4282 16.8095 20.6826C17.8622 18.7535 19.8978 17.5068 21.9948 17.5068C22.9305 17.5068 24.304 17.7644 25.5312 18.9925L28.3391 21.7998L29.751 20.4317L31.1893 18.9934C32.4174 17.7656 33.7906 17.5077 34.7258 17.5077C36.8234 17.5077 38.8589 18.7547 39.9119 20.6838C40.8644 22.4291 41.0222 24.6655 40.3343 26.6657C39.5956 28.8152 37.6638 30.5611 35.7955 32.2491L35.3779 32.6269C33.6878 34.1614 29.9882 36.5198 28.3613 37.4847Z" fill="white"/>
</mask>
<g mask="url(#mask65_50_4889)">
<path d="M16.9454 21.69C16.749 21.69 16.5712 21.6114 16.4414 21.4837C16.5469 21.2078 16.6702 20.9401 16.8102 20.6828C16.8893 20.538 16.9739 20.3968 17.0638 20.2598C17.4051 20.3161 17.6653 20.6127 17.6653 20.9701C17.6653 21.3676 17.343 21.69 16.9454 21.69Z" fill="#ED73AC"/>
</g>
<mask id="mask66_50_4889" style="mask-type:luminance" maskUnits="userSpaceOnUse" x="15" y="17" width="26" height="21">
<path d="M28.3613 37.4847C26.7359 36.5204 23.034 34.1608 21.3435 32.626L20.9244 32.247C19.0567 30.559 17.1253 28.8134 16.3868 26.6648C15.699 24.6646 15.8573 22.4282 16.8095 20.6826C17.8622 18.7535 19.8978 17.5068 21.9948 17.5068C22.9305 17.5068 24.304 17.7644 25.5312 18.9925L28.3391 21.7998L29.751 20.4317L31.1893 18.9934C32.4174 17.7656 33.7906 17.5077 34.7258 17.5077C36.8234 17.5077 38.8589 18.7547 39.9119 20.6838C40.8644 22.4291 41.0222 24.6655 40.3343 26.6657C39.5956 28.8152 37.6638 30.5611 35.7955 32.2491L35.3779 32.6269C33.6878 34.1614 29.9882 36.5198 28.3613 37.4847Z" fill="white"/>
</mask>
<g mask="url(#mask66_50_4889)">
<path d="M18.6582 18.8962C18.5512 18.8962 18.4498 18.8728 18.3584 18.8311C18.6771 18.5741 19.0189 18.3502 19.3781 18.1631V18.1763C19.3781 18.5739 19.0558 18.8962 18.6582 18.8962Z" fill="#ED73AC"/>
</g>
<mask id="mask67_50_4889" style="mask-type:luminance" maskUnits="userSpaceOnUse" x="15" y="17" width="26" height="21">
<path d="M28.3613 37.4847C26.7359 36.5204 23.034 34.1608 21.3435 32.626L20.9244 32.247C19.0567 30.559 17.1253 28.8134 16.3868 26.6648C15.699 24.6646 15.8573 22.4282 16.8095 20.6826C17.8622 18.7535 19.8978 17.5068 21.9948 17.5068C22.9305 17.5068 24.304 17.7644 25.5312 18.9925L28.3391 21.7998L29.751 20.4317L31.1893 18.9934C32.4174 17.7656 33.7906 17.5077 34.7258 17.5077C36.8234 17.5077 38.8589 18.7547 39.9119 20.6838C40.8644 22.4291 41.0222 24.6655 40.3343 26.6657C39.5956 28.8152 37.6638 30.5611 35.7955 32.2491L35.3779 32.6269C33.6878 34.1614 29.9882 36.5198 28.3613 37.4847Z" fill="white"/>
</mask>
<g mask="url(#mask67_50_4889)">
<path d="M22.3312 23.0864H21.8389C21.9156 23.0583 21.9984 23.043 22.085 23.043C22.1714 23.043 22.2544 23.0583 22.3312 23.0864Z" fill="#ED73AC"/>
</g>
<mask id="mask68_50_4889" style="mask-type:luminance" maskUnits="userSpaceOnUse" x="15" y="17" width="26" height="21">
<path d="M28.3613 37.4847C26.7359 36.5204 23.034 34.1608 21.3435 32.626L20.9244 32.247C19.0567 30.559 17.1253 28.8134 16.3868 26.6648C15.699 24.6646 15.8573 22.4282 16.8095 20.6826C17.8622 18.7535 19.8978 17.5068 21.9948 17.5068C22.9305 17.5068 24.304 17.7644 25.5312 18.9925L28.3391 21.7998L29.751 20.4317L31.1893 18.9934C32.4174 17.7656 33.7906 17.5077 34.7258 17.5077C36.8234 17.5077 38.8589 18.7547 39.9119 20.6838C40.8644 22.4291 41.0222 24.6655 40.3343 26.6657C39.5956 28.8152 37.6638 30.5611 35.7955 32.2491L35.3779 32.6269C33.6878 34.1614 29.9882 36.5198 28.3613 37.4847Z" fill="white"/>
</mask>
<g mask="url(#mask68_50_4889)">
<mask id="mask69_50_4889" style="mask-type:luminance" maskUnits="userSpaceOnUse" x="19" y="17" width="5" height="7">
<path d="M23.0788 17.5H19.6523V23.0861H23.0788V17.5Z" fill="white"/>
</mask>
<g mask="url(#mask69_50_4889)">
<path d="M20.3722 21.6898C19.9747 21.6898 19.6523 21.3675 19.6523 20.9699C19.6523 20.5723 19.9747 20.25 20.3722 20.25C20.7698 20.25 21.0918 20.5723 21.0918 20.9699C21.0918 21.3675 20.7698 21.6898 20.3722 21.6898Z" fill="#ED73AC"/>
</g>
</g>
<mask id="mask70_50_4889" style="mask-type:luminance" maskUnits="userSpaceOnUse" x="15" y="17" width="26" height="21">
<path d="M28.3613 37.4847C26.7359 36.5204 23.034 34.1608 21.3435 32.626L20.9244 32.247C19.0567 30.559 17.1253 28.8134 16.3868 26.6648C15.699 24.6646 15.8573 22.4282 16.8095 20.6826C17.8622 18.7535 19.8978 17.5068 21.9948 17.5068C22.9305 17.5068 24.304 17.7644 25.5312 18.9925L28.3391 21.7998L29.751 20.4317L31.1893 18.9934C32.4174 17.7656 33.7906 17.5077 34.7258 17.5077C36.8234 17.5077 38.8589 18.7547 39.9119 20.6838C40.8644 22.4291 41.0222 24.6655 40.3343 26.6657C39.5956 28.8152 37.6638 30.5611 35.7955 32.2491L35.3779 32.6269C33.6878 34.1614 29.9882 36.5198 28.3613 37.4847Z" fill="white"/>
</mask>
<g mask="url(#mask70_50_4889)">
<path d="M22.0851 18.8965C21.6875 18.8965 21.3652 18.5742 21.3652 18.1767C21.3652 17.8753 21.5505 17.6169 21.8138 17.5098C21.874 17.5077 21.9346 17.5068 21.9952 17.5068C22.1175 17.5068 22.2473 17.511 22.3834 17.5215C22.632 17.6349 22.805 17.8855 22.805 18.1767C22.805 18.5742 22.4827 18.8965 22.0851 18.8965Z" fill="#ED73AC"/>
</g>
<mask id="mask71_50_4889" style="mask-type:luminance" maskUnits="userSpaceOnUse" x="15" y="17" width="26" height="21">
<path d="M28.3613 37.4847C26.7359 36.5204 23.034 34.1608 21.3435 32.626L20.9244 32.247C19.0567 30.559 17.1253 28.8134 16.3868 26.6648C15.699 24.6646 15.8573 22.4282 16.8095 20.6826C17.8622 18.7535 19.8978 17.5068 21.9948 17.5068C22.9305 17.5068 24.304 17.7644 25.5312 18.9925L28.3391 21.7998L29.751 20.4317L31.1893 18.9934C32.4174 17.7656 33.7906 17.5077 34.7258 17.5077C36.8234 17.5077 38.8589 18.7547 39.9119 20.6838C40.8644 22.4291 41.0222 24.6655 40.3343 26.6657C39.5956 28.8152 37.6638 30.5611 35.7955 32.2491L35.3779 32.6269C33.6878 34.1614 29.9882 36.5198 28.3613 37.4847Z" fill="white"/>
</mask>
<g mask="url(#mask71_50_4889)">
<path d="M25.757 23.0864H25.2646C25.3414 23.0583 25.4245 23.043 25.5108 23.043C25.5972 23.043 25.6802 23.0583 25.757 23.0864Z" fill="#ED73AC"/>
</g>
<mask id="mask72_50_4889" style="mask-type:luminance" maskUnits="userSpaceOnUse" x="15" y="17" width="26" height="21">
<path d="M28.3613 37.4847C26.7359 36.5204 23.034 34.1608 21.3435 32.626L20.9244 32.247C19.0567 30.559 17.1253 28.8134 16.3868 26.6648C15.699 24.6646 15.8573 22.4282 16.8095 20.6826C17.8622 18.7535 19.8978 17.5068 21.9948 17.5068C22.9305 17.5068 24.304 17.7644 25.5312 18.9925L28.3391 21.7998L29.751 20.4317L31.1893 18.9934C32.4174 17.7656 33.7906 17.5077 34.7258 17.5077C36.8234 17.5077 38.8589 18.7547 39.9119 20.6838C40.8644 22.4291 41.0222 24.6655 40.3343 26.6657C39.5956 28.8152 37.6638 30.5611 35.7955 32.2491L35.3779 32.6269C33.6878 34.1614 29.9882 36.5198 28.3613 37.4847Z" fill="white"/>
</mask>
<g mask="url(#mask72_50_4889)">
<mask id="mask73_50_4889" style="mask-type:luminance" maskUnits="userSpaceOnUse" x="23" y="17" width="4" height="7">
<path d="M26.5046 17.5H23.0781V23.0861H26.5046V17.5Z" fill="white"/>
</mask>
<g mask="url(#mask73_50_4889)">
<path d="M23.798 21.6898C23.4004 21.6898 23.0781 21.3675 23.0781 20.9699C23.0781 20.5723 23.4004 20.25 23.798 20.25C24.1956 20.25 24.5179 20.5723 24.5179 20.9699C24.5179 21.3675 24.1956 21.6898 23.798 21.6898Z" fill="#ED73AC"/>
</g>
</g>
<mask id="mask74_50_4889" style="mask-type:luminance" maskUnits="userSpaceOnUse" x="15" y="17" width="26" height="21">
<path d="M28.3613 37.4847C26.7359 36.5204 23.034 34.1608 21.3435 32.626L20.9244 32.247C19.0567 30.559 17.1253 28.8134 16.3868 26.6648C15.699 24.6646 15.8573 22.4282 16.8095 20.6826C17.8622 18.7535 19.8978 17.5068 21.9948 17.5068C22.9305 17.5068 24.304 17.7644 25.5312 18.9925L28.3391 21.7998L29.751 20.4317L31.1893 18.9934C32.4174 17.7656 33.7906 17.5077 34.7258 17.5077C36.8234 17.5077 38.8589 18.7547 39.9119 20.6838C40.8644 22.4291 41.0222 24.6655 40.3343 26.6657C39.5956 28.8152 37.6638 30.5611 35.7955 32.2491L35.3779 32.6269C33.6878 34.1614 29.9882 36.5198 28.3613 37.4847Z" fill="white"/>
</mask>
<g mask="url(#mask74_50_4889)">
<path d="M25.4281 18.8921C25.1439 18.8594 24.91 18.6612 24.8252 18.3965C25.0279 18.5392 25.2297 18.7032 25.4281 18.8921Z" fill="#ED73AC"/>
</g>
<mask id="mask75_50_4889" style="mask-type:luminance" maskUnits="userSpaceOnUse" x="15" y="17" width="26" height="21">
<path d="M28.3613 37.4847C26.7359 36.5204 23.034 34.1608 21.3435 32.626L20.9244 32.247C19.0567 30.559 17.1253 28.8134 16.3868 26.6648C15.699 24.6646 15.8573 22.4282 16.8095 20.6826C17.8622 18.7535 19.8978 17.5068 21.9948 17.5068C22.9305 17.5068 24.304 17.7644 25.5312 18.9925L28.3391 21.7998L29.751 20.4317L31.1893 18.9934C32.4174 17.7656 33.7906 17.5077 34.7258 17.5077C36.8234 17.5077 38.8589 18.7547 39.9119 20.6838C40.8644 22.4291 41.0222 24.6655 40.3343 26.6657C39.5956 28.8152 37.6638 30.5611 35.7955 32.2491L35.3779 32.6269C33.6878 34.1614 29.9882 36.5198 28.3613 37.4847Z" fill="white"/>
</mask>
<g mask="url(#mask75_50_4889)">
<path d="M29.1837 23.0864H28.6914C28.7682 23.0583 28.8512 23.043 28.9376 23.043C29.0242 23.043 29.107 23.0583 29.1837 23.0864Z" fill="#ED73AC"/>
</g>
<mask id="mask76_50_4889" style="mask-type:luminance" maskUnits="userSpaceOnUse" x="15" y="17" width="26" height="21">
<path d="M28.3613 37.4847C26.7359 36.5204 23.034 34.1608 21.3435 32.626L20.9244 32.247C19.0567 30.559 17.1253 28.8134 16.3868 26.6648C15.699 24.6646 15.8573 22.4282 16.8095 20.6826C17.8622 18.7535 19.8978 17.5068 21.9948 17.5068C22.9305 17.5068 24.304 17.7644 25.5312 18.9925L28.3391 21.7998L29.751 20.4317L31.1893 18.9934C32.4174 17.7656 33.7906 17.5077 34.7258 17.5077C36.8234 17.5077 38.8589 18.7547 39.9119 20.6838C40.8644 22.4291 41.0222 24.6655 40.3343 26.6657C39.5956 28.8152 37.6638 30.5611 35.7955 32.2491L35.3779 32.6269C33.6878 34.1614 29.9882 36.5198 28.3613 37.4847Z" fill="white"/>
</mask>
<g mask="url(#mask76_50_4889)">
<mask id="mask77_50_4889" style="mask-type:luminance" maskUnits="userSpaceOnUse" x="26" y="17" width="4" height="7">
<path d="M29.9313 17.5H26.5049V23.0861H29.9313V17.5Z" fill="white"/>
</mask>
<g mask="url(#mask77_50_4889)">
<path d="M27.2248 21.6889C26.8272 21.6889 26.5049 21.3666 26.5049 20.969C26.5049 20.6971 26.6557 20.4602 26.8782 20.3379L27.8559 21.3153C27.7336 21.5381 27.4967 21.6889 27.2248 21.6889Z" fill="#ED73AC"/>
</g>
</g>
<mask id="mask78_50_4889" style="mask-type:luminance" maskUnits="userSpaceOnUse" x="15" y="17" width="26" height="21">
<path d="M28.3613 37.4847C26.7359 36.5204 23.034 34.1608 21.3435 32.626L20.9244 32.247C19.0567 30.559 17.1253 28.8134 16.3868 26.6648C15.699 24.6646 15.8573 22.4282 16.8095 20.6826C17.8622 18.7535 19.8978 17.5068 21.9948 17.5068C22.9305 17.5068 24.304 17.7644 25.5312 18.9925L28.3391 21.7998L29.751 20.4317L31.1893 18.9934C32.4174 17.7656 33.7906 17.5077 34.7258 17.5077C36.8234 17.5077 38.8589 18.7547 39.9119 20.6838C40.8644 22.4291 41.0222 24.6655 40.3343 26.6657C39.5956 28.8152 37.6638 30.5611 35.7955 32.2491L35.3779 32.6269C33.6878 34.1614 29.9882 36.5198 28.3613 37.4847Z" fill="white"/>
</mask>
<g mask="url(#mask78_50_4889)">
<path d="M32.6108 23.0864H32.1182C32.1949 23.0583 32.278 23.043 32.3643 23.043C32.451 23.043 32.5337 23.0583 32.6108 23.0864Z" fill="#ED73AC"/>
</g>
<mask id="mask79_50_4889" style="mask-type:luminance" maskUnits="userSpaceOnUse" x="15" y="17" width="26" height="21">
<path d="M28.3613 37.4847C26.7359 36.5204 23.034 34.1608 21.3435 32.626L20.9244 32.247C19.0567 30.559 17.1253 28.8134 16.3868 26.6648C15.699 24.6646 15.8573 22.4282 16.8095 20.6826C17.8622 18.7535 19.8978 17.5068 21.9948 17.5068C22.9305 17.5068 24.304 17.7644 25.5312 18.9925L28.3391 21.7998L29.751 20.4317L31.1893 18.9934C32.4174 17.7656 33.7906 17.5077 34.7258 17.5077C36.8234 17.5077 38.8589 18.7547 39.9119 20.6838C40.8644 22.4291 41.0222 24.6655 40.3343 26.6657C39.5956 28.8152 37.6638 30.5611 35.7955 32.2491L35.3779 32.6269C33.6878 34.1614 29.9882 36.5198 28.3613 37.4847Z" fill="white"/>
</mask>
<g mask="url(#mask79_50_4889)">
<mask id="mask80_50_4889" style="mask-type:luminance" maskUnits="userSpaceOnUse" x="29" y="17" width="5" height="7">
<path d="M33.3574 17.5H29.9307V23.0861H33.3574V17.5Z" fill="white"/>
</mask>
<g mask="url(#mask80_50_4889)">
<path d="M30.6506 21.6898C30.253 21.6898 29.9307 21.3675 29.9307 20.9699C29.9307 20.5723 30.253 20.25 30.6506 20.25C31.0481 20.25 31.3704 20.5723 31.3704 20.9699C31.3704 21.3675 31.0481 21.6898 30.6506 21.6898Z" fill="#ED73AC"/>
</g>
</g>
<mask id="mask81_50_4889" style="mask-type:luminance" maskUnits="userSpaceOnUse" x="15" y="17" width="26" height="21">
<path d="M28.3613 37.4847C26.7359 36.5204 23.034 34.1608 21.3435 32.626L20.9244 32.247C19.0567 30.559 17.1253 28.8134 16.3868 26.6648C15.699 24.6646 15.8573 22.4282 16.8095 20.6826C17.8622 18.7535 19.8978 17.5068 21.9948 17.5068C22.9305 17.5068 24.304 17.7644 25.5312 18.9925L28.3391 21.7998L29.751 20.4317L31.1893 18.9934C32.4174 17.7656 33.7906 17.5077 34.7258 17.5077C36.8234 17.5077 38.8589 18.7547 39.9119 20.6838C40.8644 22.4291 41.0222 24.6655 40.3343 26.6657C39.5956 28.8152 37.6638 30.5611 35.7955 32.2491L35.3779 32.6269C33.6878 34.1614 29.9882 36.5198 28.3613 37.4847Z" fill="white"/>
</mask>
<g mask="url(#mask81_50_4889)">
<path d="M32.364 18.8959C32.0903 18.8959 31.8522 18.743 31.7305 18.5182C32.1505 18.197 32.5772 17.9725 32.9888 17.8184C33.0494 17.9236 33.0839 18.0459 33.0839 18.1761C33.0839 18.5736 32.7616 18.8959 32.364 18.8959Z" fill="#ED73AC"/>
</g>
<mask id="mask82_50_4889" style="mask-type:luminance" maskUnits="userSpaceOnUse" x="15" y="17" width="26" height="21">
<path d="M28.3613 37.4847C26.7359 36.5204 23.034 34.1608 21.3435 32.626L20.9244 32.247C19.0567 30.559 17.1253 28.8134 16.3868 26.6648C15.699 24.6646 15.8573 22.4282 16.8095 20.6826C17.8622 18.7535 19.8978 17.5068 21.9948 17.5068C22.9305 17.5068 24.304 17.7644 25.5312 18.9925L28.3391 21.7998L29.751 20.4317L31.1893 18.9934C32.4174 17.7656 33.7906 17.5077 34.7258 17.5077C36.8234 17.5077 38.8589 18.7547 39.9119 20.6838C40.8644 22.4291 41.0222 24.6655 40.3343 26.6657C39.5956 28.8152 37.6638 30.5611 35.7955 32.2491L35.3779 32.6269C33.6878 34.1614 29.9882 36.5198 28.3613 37.4847Z" fill="white"/>
</mask>
<g mask="url(#mask82_50_4889)">
<path d="M36.0372 23.0864H35.5449C35.6217 23.0583 35.7044 23.043 35.7911 23.043C35.8774 23.043 35.9605 23.0583 36.0372 23.0864Z" fill="#ED73AC"/>
</g>
<mask id="mask83_50_4889" style="mask-type:luminance" maskUnits="userSpaceOnUse" x="15" y="17" width="26" height="21">
<path d="M28.3613 37.4847C26.7359 36.5204 23.034 34.1608 21.3435 32.626L20.9244 32.247C19.0567 30.559 17.1253 28.8134 16.3868 26.6648C15.699 24.6646 15.8573 22.4282 16.8095 20.6826C17.8622 18.7535 19.8978 17.5068 21.9948 17.5068C22.9305 17.5068 24.304 17.7644 25.5312 18.9925L28.3391 21.7998L29.751 20.4317L31.1893 18.9934C32.4174 17.7656 33.7906 17.5077 34.7258 17.5077C36.8234 17.5077 38.8589 18.7547 39.9119 20.6838C40.8644 22.4291 41.0222 24.6655 40.3343 26.6657C39.5956 28.8152 37.6638 30.5611 35.7955 32.2491L35.3779 32.6269C33.6878 34.1614 29.9882 36.5198 28.3613 37.4847Z" fill="white"/>
</mask>
<g mask="url(#mask83_50_4889)">
<mask id="mask84_50_4889" style="mask-type:luminance" maskUnits="userSpaceOnUse" x="33" y="17" width="4" height="7">
<path d="M36.7848 17.5H33.3584V23.0861H36.7848V17.5Z" fill="white"/>
</mask>
<g mask="url(#mask84_50_4889)">
<path d="M34.0783 21.6898C33.6807 21.6898 33.3584 21.3675 33.3584 20.9699C33.3584 20.5723 33.6807 20.25 34.0783 20.25C34.4759 20.25 34.7979 20.5723 34.7979 20.9699C34.7979 21.3675 34.4759 21.6898 34.0783 21.6898Z" fill="#ED73AC"/>
</g>
</g>
<mask id="mask85_50_4889" style="mask-type:luminance" maskUnits="userSpaceOnUse" x="15" y="17" width="26" height="21">
<path d="M28.3613 37.4847C26.7359 36.5204 23.034 34.1608 21.3435 32.626L20.9244 32.247C19.0567 30.559 17.1253 28.8134 16.3868 26.6648C15.699 24.6646 15.8573 22.4282 16.8095 20.6826C17.8622 18.7535 19.8978 17.5068 21.9948 17.5068C22.9305 17.5068 24.304 17.7644 25.5312 18.9925L28.3391 21.7998L29.751 20.4317L31.1893 18.9934C32.4174 17.7656 33.7906 17.5077 34.7258 17.5077C36.8234 17.5077 38.8589 18.7547 39.9119 20.6838C40.8644 22.4291 41.0222 24.6655 40.3343 26.6657C39.5956 28.8152 37.6638 30.5611 35.7955 32.2491L35.3779 32.6269C33.6878 34.1614 29.9882 36.5198 28.3613 37.4847Z" fill="white"/>
</mask>
<g mask="url(#mask85_50_4889)">
<path d="M35.7912 18.897C35.3936 18.897 35.0713 18.5747 35.0713 18.1771C35.0713 17.9115 35.2152 17.6794 35.4293 17.5547C35.7522 17.5973 36.0709 17.6686 36.3821 17.7664C36.4634 17.8827 36.5111 18.0245 36.5111 18.1771C36.5111 18.5747 36.1887 18.897 35.7912 18.897Z" fill="#ED73AC"/>
</g>
<mask id="mask86_50_4889" style="mask-type:luminance" maskUnits="userSpaceOnUse" x="15" y="17" width="26" height="21">
<path d="M28.3613 37.4847C26.7359 36.5204 23.034 34.1608 21.3435 32.626L20.9244 32.247C19.0567 30.559 17.1253 28.8134 16.3868 26.6648C15.699 24.6646 15.8573 22.4282 16.8095 20.6826C17.8622 18.7535 19.8978 17.5068 21.9948 17.5068C22.9305 17.5068 24.304 17.7644 25.5312 18.9925L28.3391 21.7998L29.751 20.4317L31.1893 18.9934C32.4174 17.7656 33.7906 17.5077 34.7258 17.5077C36.8234 17.5077 38.8589 18.7547 39.9119 20.6838C40.8644 22.4291 41.0222 24.6655 40.3343 26.6657C39.5956 28.8152 37.6638 30.5611 35.7955 32.2491L35.3779 32.6269C33.6878 34.1614 29.9882 36.5198 28.3613 37.4847Z" fill="white"/>
</mask>
<g mask="url(#mask86_50_4889)">
<path d="M39.463 23.0864H38.9707C39.0475 23.0583 39.1305 23.043 39.2169 23.043C39.3032 23.043 39.3863 23.0583 39.463 23.0864Z" fill="#ED73AC"/>
</g>
<mask id="mask87_50_4889" style="mask-type:luminance" maskUnits="userSpaceOnUse" x="15" y="17" width="26" height="21">
<path d="M28.3613 37.4847C26.7359 36.5204 23.034 34.1608 21.3435 32.626L20.9244 32.247C19.0567 30.559 17.1253 28.8134 16.3868 26.6648C15.699 24.6646 15.8573 22.4282 16.8095 20.6826C17.8622 18.7535 19.8978 17.5068 21.9948 17.5068C22.9305 17.5068 24.304 17.7644 25.5312 18.9925L28.3391 21.7998L29.751 20.4317L31.1893 18.9934C32.4174 17.7656 33.7906 17.5077 34.7258 17.5077C36.8234 17.5077 38.8589 18.7547 39.9119 20.6838C40.8644 22.4291 41.0222 24.6655 40.3343 26.6657C39.5956 28.8152 37.6638 30.5611 35.7955 32.2491L35.3779 32.6269C33.6878 34.1614 29.9882 36.5198 28.3613 37.4847Z" fill="white"/>
</mask>
<g mask="url(#mask87_50_4889)">
<mask id="mask88_50_4889" style="mask-type:luminance" maskUnits="userSpaceOnUse" x="36" y="17" width="5" height="7">
<path d="M40.2106 17.5H36.7842V23.0861H40.2106V17.5Z" fill="white"/>
</mask>
<g mask="url(#mask88_50_4889)">
<path d="M37.5041 21.6898C37.1065 21.6898 36.7842 21.3675 36.7842 20.9699C36.7842 20.5723 37.1065 20.25 37.5041 20.25C37.9016 20.25 38.2239 20.5723 38.2239 20.9699C38.2239 21.3675 37.9016 21.6898 37.5041 21.6898Z" fill="#ED73AC"/>
</g>
</g>
</g>
</g>
<path d="M42.9587 23.7412H13.9023V25.5435H42.9587V23.7412Z" fill="#720542"/>
<path d="M34.001 35.5186V14.7705L35.2162 13.2959L36.7933 13.5211L35.8032 14.8934V34.2077L34.001 35.5186Z" fill="#720542"/>
<path d="M40.3624 21.4243C40.4586 21.4177 40.512 21.418 40.512 21.418C40.6221 23.685 36.3663 24.1762 36.3663 24.1762C36.3663 24.1762 35.933 24.2151 35.474 24.2913H35.4731L35.4719 24.2919C35.1478 24.6286 34.9223 24.8184 34.7673 24.9074L34.7451 24.9281C35.0503 25.0418 35.5861 25.1671 36.4454 25.3047C40.9795 26.0309 43.3187 22.1001 43.4893 21.4435L43.4902 21.4423C43.4971 21.4144 43.4968 21.38 43.4974 21.3461C42.0495 21.18 40.3672 21.4234 40.3624 21.4243Z" fill="#3E011E"/>
<path d="M41.5232 18.4726C37.3664 17.6211 34.7822 23.7658 34.7822 23.7658C34.7822 23.7658 34.5828 24.2113 34.5045 24.5609C34.4856 24.6445 34.4743 24.7219 34.4737 24.787C34.4722 24.9474 34.5384 25.0301 34.7381 24.9249L34.7678 24.9075C34.9228 24.8184 35.1483 24.6287 35.4724 24.2919L35.4733 24.2913C35.5851 24.175 35.7078 24.0431 35.8439 23.8911C37.7547 21.7548 39.8025 21.464 40.3629 21.4244C40.3677 21.4235 42.05 21.18 43.4979 21.3461C43.5102 20.5999 41.925 18.576 41.5232 18.4726Z" fill="#971359"/>
<path d="M40.8689 20.8844C40.7333 20.4839 40.6014 20.0662 40.3816 19.7028C40.2038 19.4084 40.0069 19.1265 39.8195 18.8387C39.7583 18.7445 39.6998 18.6483 39.6429 18.5518C38.8528 18.7829 38.1449 19.245 37.5303 19.8041C38.1356 20.3109 38.6336 20.9927 38.9479 21.7407C39.6072 21.5054 40.122 21.4412 40.3625 21.4241C40.3643 21.4238 40.6191 21.3872 41.0128 21.3518C40.9657 21.1956 40.9207 21.0388 40.8689 20.8844Z" fill="#C0176F"/>
<path d="M28.8991 21.2764C28.8028 21.2671 28.7491 21.2659 28.7491 21.2659C28.5806 23.5293 32.822 24.1298 32.822 24.1298C32.822 24.1298 33.2544 24.1802 33.7116 24.2683H33.7125L33.7131 24.2698C34.0288 24.6143 34.2495 24.8098 34.4015 24.9031L34.4234 24.9238C34.1152 25.0293 33.5767 25.1414 32.7141 25.2566C28.1624 25.8649 25.926 21.8748 25.7721 21.2146L25.7716 21.2134C25.7653 21.1849 25.7668 21.1507 25.7668 21.1171C27.2179 20.9885 28.8937 21.2755 28.8991 21.2764Z" fill="#3E011E"/>
<path d="M27.8147 18.2951C31.9925 17.5522 34.4166 23.7607 34.4166 23.7607C34.4166 23.7607 34.6043 24.2116 34.6739 24.563C34.6907 24.6473 34.7 24.7249 34.6991 24.79C34.6964 24.9504 34.6274 25.0314 34.4304 24.921L34.4013 24.903C34.2493 24.8098 34.0287 24.6143 33.7129 24.2698L33.7123 24.2686C33.6035 24.1496 33.4845 24.0144 33.3523 23.8584C31.4969 21.6736 29.4578 21.3303 28.8989 21.2763C28.8935 21.2754 27.2178 20.9885 25.7666 21.1171C25.7738 20.3705 27.4109 18.3881 27.8147 18.2951Z" fill="#971359"/>
<path d="M29.335 21.0928C29.4621 20.8898 29.576 20.6797 29.7026 20.4764C29.9433 20.0908 30.2006 19.7145 30.486 19.3601C30.594 19.2261 30.7103 19.1005 30.8263 18.9745C30.4 18.6963 29.9385 18.4792 29.4438 18.3545C29.0843 18.6879 28.7467 19.045 28.4394 19.4267C28.1779 19.7505 27.9276 20.0893 27.6862 20.4281C27.5468 20.6236 27.3888 20.8587 27.3066 21.106C28.1935 21.1561 28.8954 21.2757 28.899 21.2763C28.9734 21.2835 29.0759 21.2964 29.1989 21.3177C29.2423 21.2418 29.2882 21.1672 29.335 21.0928Z" fill="#C0176F"/>
<path d="M40.2716 28.594C40.3675 28.603 40.4215 28.6042 40.4215 28.6042C40.5888 26.3408 36.3474 25.7415 36.3474 25.7415C36.3474 25.7415 35.9147 25.6911 35.4578 25.6038L35.4569 25.6035L35.4557 25.6026C35.14 25.2578 34.9193 25.0623 34.7673 24.9691L34.7451 24.9487C35.0533 24.8429 35.5921 24.7301 36.4547 24.615C41.0061 24.0049 43.244 27.9941 43.3982 28.6546L43.3988 28.6561C43.4054 28.6843 43.4039 28.7185 43.4039 28.7517C41.9524 28.8813 40.2763 28.5949 40.2716 28.594Z" fill="#3E011E"/>
<path d="M41.3559 31.575C37.1784 32.3195 34.7513 26.1113 34.7513 26.1113C34.7513 26.1113 34.5633 25.6606 34.4937 25.3092C34.4772 25.2253 34.4677 25.1476 34.4689 25.082C34.4712 24.9218 34.5399 24.8409 34.7369 24.9512L34.7663 24.9689C34.9183 25.0622 35.139 25.2577 35.4547 25.6025L35.4556 25.6034C35.5644 25.7221 35.6841 25.8576 35.8163 26.0129C37.6719 28.1981 39.711 28.5399 40.2705 28.5938C40.2753 28.5947 41.9514 28.8811 43.4028 28.7516C43.3959 29.4984 41.7592 31.4815 41.3559 31.575Z" fill="#971359"/>
<path d="M39.04 30.5753C39.3887 30.2779 39.6672 29.9453 39.8966 29.5475C40.0708 29.2461 40.2087 28.9283 40.3256 28.6027C40.2933 28.5976 40.2711 28.5937 40.2711 28.5937C39.9443 28.5625 39.1107 28.4291 38.1051 27.8906C38.0107 28.1806 37.8829 28.4603 37.7147 28.7244C37.4959 29.0696 37.2281 29.3778 36.9424 29.6695C37.4005 30.1816 37.927 30.652 38.5162 31.0055C38.6907 30.8625 38.8679 30.7219 39.04 30.5753Z" fill="#C0176F"/>
<path d="M28.8079 28.4503C28.7116 28.4569 28.6579 28.4566 28.6579 28.4566C28.5473 26.1896 32.8025 25.697 32.8025 25.697C32.8025 25.697 33.2366 25.658 33.6954 25.5815L33.696 25.5809L33.6972 25.58C34.0213 25.2439 34.247 25.0538 34.4014 24.9648L34.4239 24.9444C34.1184 24.8308 33.5829 24.7048 32.7236 24.5681C28.189 23.844 25.8515 27.7757 25.6806 28.432L25.68 28.4332C25.6728 28.4617 25.6735 28.4959 25.6729 28.5291C27.1204 28.6949 28.8028 28.4512 28.8079 28.4503Z" fill="#3E011E"/>
<path d="M27.6485 31.4012C31.8059 32.2509 34.3877 26.1059 34.3877 26.1059C34.3877 26.1059 34.5865 25.6601 34.6651 25.3105C34.6843 25.2272 34.6953 25.1495 34.6959 25.0844C34.6977 24.924 34.6303 24.841 34.4312 24.9465L34.4015 24.9639C34.2471 25.053 34.0213 25.243 33.6972 25.5792L33.6963 25.5804C33.5845 25.6964 33.4619 25.8286 33.3257 25.9809C31.4155 28.1184 29.3683 28.4098 28.8079 28.4494C28.8028 28.4503 27.1205 28.6941 25.6729 28.5283C25.6609 29.2751 27.247 31.2984 27.6485 31.4012Z" fill="#971359"/>
<path d="M29.9276 30.0101C29.6743 29.4995 29.4467 28.946 29.3397 28.377C29.1085 28.4213 28.9238 28.442 28.8069 28.4504C28.8036 28.451 28.1428 28.5467 27.2939 28.5772C27.4157 29.227 27.759 29.8401 28.1164 30.3807C28.3622 30.7519 28.6333 31.1054 28.9175 31.4481C29.4647 31.3779 29.9768 31.1911 30.452 30.9291C30.2607 30.6314 30.0838 30.3243 29.9276 30.0101Z" fill="#C0176F"/>
</svg>
