<svg width="46" height="40" viewBox="0 0 46 40" fill="none" xmlns="http://www.w3.org/2000/svg">
<path d="M43.6379 5.42147C39.7431 2.02801 30.6764 0 24.1612 0C21.5314 0 19.3713 0.316538 17.7405 0.940038C14.9697 1.99979 14.1124 3.75461 13.8946 5.09359C13.7878 5.51119 13.6829 5.9608 13.5811 6.4409C12.9064 6.11226 12.2114 5.87385 11.5065 5.73221C10.9805 5.62662 10.4432 5.57294 9.90915 5.57294C7.79319 5.57294 5.67899 6.39528 3.62552 8.01679C-1.04443 11.7033 -0.750323 18.7854 1.95386 23.876C3.71549 27.1925 7.13768 30.7221 11.6347 31.1654C11.6511 31.74 11.6768 32.2274 11.7114 32.6233C12.0103 36.0511 16.8717 37.9491 20.8975 38.9382C23.6861 39.6227 26.6491 40 29.2402 40C33.6226 40 36.5039 38.9682 37.8048 36.9332C38.2781 36.1927 39.7182 33.9394 42.813 22.1781C44.3329 16.4018 45.5527 10.9725 45.6538 10.5206L45.6558 10.5118C45.9492 9.24715 45.8373 7.33734 43.6379 5.42147Z" fill="white"/>
<path d="M4.20525 22.6801C5.94092 25.9483 9.40571 29.252 13.7412 28.5668C13.75 27.604 13.7735 26.5337 13.8123 25.389C13.1908 25.4825 12.3901 25.4856 11.5197 25.1907C9.93722 24.6544 8.62116 23.3068 7.60804 21.1851C6.43312 18.7246 5.84036 15.407 7.70002 13.4752C8.61915 12.5201 9.92159 12.2411 11.1005 12.7502C12.5378 13.3702 13.6449 14.8011 14.3909 16.067C14.56 14.2147 14.7629 12.3918 15.0016 10.7018C14.0941 9.70476 12.7306 8.57672 11.0018 8.23019C10.6424 8.15811 10.2797 8.12207 9.91453 8.12207C8.38098 8.12207 6.80182 8.75666 5.20502 10.017C1.63136 12.8381 1.99679 18.5227 4.20525 22.6801Z" fill="#F3859B"/>
<path d="M13.8272 24.9533C13.2486 25.0503 12.484 25.0694 11.6553 24.7887C10.1855 24.2907 8.95241 23.0167 7.9907 21.0023C6.29258 17.4455 6.88482 14.9342 8.00531 13.7701C8.79918 12.9455 9.92017 12.704 10.9315 13.1403C12.4583 13.7988 13.6181 15.5088 14.323 16.8276C14.0831 19.6207 13.9192 22.4467 13.8272 24.9533ZM16.4722 7.61698C16.4878 7.64193 16.5037 7.66689 16.5198 7.69184C16.6305 7.86119 16.7555 8.02727 16.8948 8.18932C16.9281 8.22814 16.9621 8.26695 16.9969 8.30551C17.0317 8.34381 17.066 8.38212 17.1023 8.41992C17.1764 8.49755 17.2537 8.57466 17.3346 8.65128L17.3686 8.68228C19.0385 10.2433 22.117 11.5813 26.1793 12.4709C26.231 12.4822 26.2834 12.4916 26.3353 12.5027C26.6289 12.5662 26.9223 12.6269 27.2138 12.6829L27.2385 12.6871C27.4001 12.7181 27.5616 12.7481 27.7222 12.7769C27.8361 12.797 27.9513 12.8147 28.0657 12.8341C28.1803 12.8535 28.2948 12.8729 28.4094 12.8913C28.6221 12.9253 28.8351 12.9568 29.0483 12.9876C29.1655 13.0044 29.2822 13.0226 29.3994 13.0385C29.7003 13.0793 30.0014 13.1168 30.3026 13.1509C30.4483 13.1672 30.5934 13.1806 30.7389 13.1955C30.9128 13.2134 31.0866 13.231 31.2603 13.2466C31.4135 13.2602 31.5657 13.2718 31.7182 13.2837C31.8893 13.2968 32.06 13.3091 32.2306 13.3202C32.3735 13.3293 32.5159 13.3379 32.658 13.3454C32.8531 13.3555 33.0469 13.3636 33.2404 13.3706C33.3546 13.3749 33.469 13.3799 33.5824 13.383C33.8939 13.3915 34.2034 13.3968 34.5088 13.3968C34.908 13.3968 35.3007 13.389 35.6868 13.3741L35.7054 13.3736L35.7311 13.3726C35.8267 13.3686 35.9214 13.3641 36.0162 13.3593C36.0663 13.3568 36.1157 13.3545 36.1666 13.3517C36.2536 13.3467 36.3395 13.3409 36.4255 13.3353C36.4864 13.3313 36.5467 13.3278 36.6084 13.3232C36.6699 13.3187 36.7307 13.3134 36.7916 13.3084C37.1256 13.2817 37.4671 13.2474 37.8118 13.2038L37.8148 13.2035C39.1863 13.0304 40.5946 12.7106 41.6922 12.1398L41.7171 12.1266C41.8333 12.0657 41.9455 12.0016 42.0541 11.9346C42.1037 11.9044 42.1531 11.8741 42.2008 11.8429C42.2418 11.8154 42.2822 11.7872 42.3222 11.7589C42.4006 11.7035 42.4765 11.6468 42.5486 11.5886L42.579 11.5656L42.5811 11.5634C42.6809 11.481 42.7726 11.3948 42.8595 11.3063C41.7547 16.0841 37.9756 31.9327 35.6568 35.5606C34.1429 37.9291 27.2723 37.8786 21.5051 36.4628C17.2215 35.4106 14.3736 33.8166 14.2501 32.4017C13.9258 28.6852 14.4598 14.419 16.102 6.83698C16.1892 7.10488 16.3149 7.36471 16.4722 7.61698ZM26.2703 12.0558C21.3385 10.9759 17.7958 9.17447 16.728 7.21476C18.6081 5.71171 23.2564 5.29033 28.947 6.11822C35.2415 7.03381 40.6108 9.1712 42.1582 11.3565C39.3514 13.4568 31.938 13.2965 26.2703 12.0558ZM18.6504 3.32053C20.0653 2.7797 22.0184 2.53498 24.2128 2.53498C30.4944 2.53498 38.7473 4.54082 41.9634 7.34329C42.9629 8.21402 43.3699 9.08652 43.1726 9.93608C43.0725 10.368 42.8333 10.7488 42.4838 11.084C40.5936 8.44462 34.4148 6.4844 29.0082 5.6981C24.5013 5.04183 18.9455 5.00907 16.5508 6.8148C16.4019 6.41963 16.3442 6.01111 16.3966 5.58998C16.5183 4.60962 17.2767 3.846 18.6504 3.32053ZM11.0011 8.2304C12.73 8.57693 14.0934 9.70498 15.0009 10.702C14.7622 12.392 14.5594 14.2149 14.3903 16.0672C13.6443 14.8013 12.5372 13.3704 11.0999 12.7504C9.92093 12.2413 8.61848 12.5203 7.69936 13.4755C5.8397 15.4072 6.43245 18.7248 7.60737 21.1853C8.6205 23.307 9.93655 24.6546 11.519 25.1909C12.3895 25.4858 13.1901 25.4827 13.8116 25.3892C13.7728 26.5339 13.7494 27.6043 13.7406 28.567C9.40504 29.2522 5.94025 25.9485 4.20458 22.6803C1.99612 18.5229 1.6307 12.8384 5.20435 10.0172C6.80116 8.75687 8.38032 8.12229 9.91386 8.12229C10.279 8.12229 10.6417 8.15833 11.0011 8.2304ZM12.5838 29.0879C12.9608 29.0879 13.3456 29.0587 13.7373 28.9999C13.7305 30.4856 13.761 31.6809 13.827 32.4385C13.9706 34.0867 16.8034 35.7453 21.4037 36.8754C23.96 37.5029 26.7595 37.8759 29.2401 37.8759C32.4186 37.8759 35.0729 37.2632 36.0149 35.7891C38.7766 31.4682 43.3797 10.9575 43.5859 10.0349L43.5866 10.0321C43.8218 9.01746 43.3696 8.00485 42.2423 7.02272C37.8214 3.17108 24.0631 0.795787 18.499 2.92385C16.976 3.50627 16.1287 4.37877 15.9785 5.51715C15.6383 6.82085 15.3399 8.40707 15.0805 10.1526C14.1385 9.17977 12.7912 8.15681 11.0875 7.81457C9.08825 7.4126 7.02092 8.04164 4.94124 9.68381C1.18462 12.6491 1.53821 18.5668 3.82933 22.8796C5.47049 25.9694 8.6084 29.0882 12.5838 29.0879Z" fill="#441A45"/>
<path d="M20.8312 17.7265C21.7556 16.7411 22.7456 16.3099 23.771 16.4412C25.6819 16.6882 27.1128 18.8165 27.534 19.5138C28.2406 18.9815 30.6842 17.3056 32.7856 17.8603C33.8685 18.1461 34.6815 18.9775 35.2022 20.3324C36.0487 22.5353 34.6967 25.0081 31.2919 27.4842C28.7658 29.321 25.9593 30.541 25.9314 30.5531C25.9042 30.5649 25.8757 30.5705 25.8472 30.5705C25.795 30.5705 25.7434 30.5513 25.7033 30.5143C25.6887 30.5009 24.2368 29.1556 22.7864 27.2997C20.8254 24.7901 19.7974 22.589 19.7312 20.7568C19.6881 19.5703 20.0583 18.5508 20.8312 17.7265ZM14.2505 32.4017C14.3739 33.8165 17.2218 35.4105 21.5054 36.4627C27.2726 37.8786 34.1432 37.929 35.6571 35.5605C37.976 31.9326 41.755 16.0841 42.8599 11.3063C42.7729 11.3947 42.6812 11.4809 42.5814 11.5633L42.5794 11.5656L42.5489 11.5885C42.4768 11.6467 42.4009 11.7034 42.3226 11.7589C42.2825 11.7871 42.2422 11.8153 42.2011 11.8428C42.1534 11.8741 42.1041 11.9043 42.0544 11.9345C41.9458 12.0016 41.8336 12.0656 41.7175 12.1266L41.6925 12.1397C40.595 12.7105 39.1867 13.0303 37.8152 13.2035L37.8121 13.2037C37.4674 13.2473 37.1259 13.2816 36.792 13.3083C36.731 13.3133 36.6702 13.3186 36.6087 13.3232C36.547 13.3277 36.4868 13.3312 36.4258 13.3353C36.3398 13.3408 36.2539 13.3466 36.1669 13.3517C36.116 13.3544 36.0666 13.3567 36.0165 13.3592C35.9217 13.364 35.827 13.3685 35.7315 13.3726L35.7058 13.3736L35.6871 13.3741C35.301 13.389 34.9084 13.3968 34.5092 13.3968C34.2037 13.3968 33.8942 13.3915 33.5827 13.3829C33.4693 13.3799 33.3549 13.3748 33.2407 13.3706C33.0472 13.3635 32.8534 13.3554 32.6583 13.3454C32.5162 13.3378 32.3738 13.3292 32.2309 13.3202C32.0603 13.3091 31.8896 13.2967 31.7185 13.2836C31.5661 13.2718 31.4138 13.2602 31.2606 13.2466C31.087 13.2309 30.9131 13.2133 30.7392 13.1954C30.5938 13.1805 30.4486 13.1672 30.3029 13.1508C30.0018 13.1168 29.7006 13.0792 29.3997 13.0384C29.2825 13.0225 29.1658 13.0044 29.0486 12.9875C28.8354 12.9567 28.6224 12.9252 28.4097 12.8912C28.2951 12.8728 28.1807 12.8534 28.066 12.834C27.9516 12.8146 27.8364 12.797 27.7225 12.7768C27.5619 12.7481 27.4004 12.7181 27.2389 12.6871L27.2142 12.6828C26.9226 12.6268 26.6292 12.5661 26.3356 12.5026C26.2837 12.4915 26.2313 12.4822 26.1796 12.4708C22.1173 11.5812 19.0389 10.2432 17.369 8.68221L17.3349 8.65121C17.254 8.5746 17.1767 8.49748 17.1026 8.41986C17.0663 8.38205 17.032 8.34375 16.9972 8.30544C16.9625 8.26688 16.9284 8.22807 16.8952 8.18926C16.7558 8.02721 16.6308 7.86113 16.5202 7.69177C16.504 7.66682 16.4881 7.64187 16.4725 7.61692C16.3153 7.36464 16.1895 7.10481 16.1023 6.83691C14.4601 14.419 13.9261 28.6851 14.2505 32.4017Z" fill="#F3859B"/>
<path d="M21.1408 18.0172C20.4482 18.7554 20.1168 19.672 20.1554 20.7408C20.2947 24.599 25.1252 29.3738 25.8898 30.1061C27.1084 29.5545 36.5755 25.0899 34.8053 20.4845C34.3366 19.2649 33.6208 18.5202 32.6778 18.2712C30.4565 17.6838 27.6351 19.9721 27.6069 19.9953C27.558 20.0354 27.4947 20.0513 27.4312 20.0397C27.3692 20.0273 27.3155 19.988 27.2855 19.9323C27.2702 19.9041 25.7404 17.1233 23.7157 16.8622C23.6153 16.8493 23.5153 16.8428 23.4157 16.8428C22.6365 16.8428 21.8726 17.2367 21.1408 18.0172Z" fill="#F04A56"/>
<path d="M27.2855 19.9322C27.3155 19.9879 27.3692 20.0272 27.4312 20.0396C27.4947 20.0512 27.5579 20.0353 27.6068 19.9952C27.635 19.972 30.4564 17.6837 32.6777 18.2711C33.6208 18.5201 34.3365 19.2649 34.8053 20.4844C36.5755 25.0898 27.1083 29.5544 25.8898 30.106C25.1252 29.3737 20.2947 24.5989 20.1553 20.7407C20.1168 19.6719 20.4482 18.7553 21.1407 18.0171C21.8726 17.2366 22.6365 16.8427 23.4157 16.8427C23.5153 16.8427 23.6153 16.8492 23.7156 16.8621C25.7404 17.1232 27.2701 19.904 27.2855 19.9322ZM25.7031 30.5141C25.7431 30.5511 25.7948 30.5703 25.847 30.5703C25.8754 30.5703 25.9039 30.5647 25.9311 30.5529C25.9591 30.5408 28.7656 29.3208 31.2916 27.484C34.6964 25.0079 36.0485 22.5351 35.202 20.3322C34.6813 18.9773 33.8683 18.1459 32.7853 17.8601C30.684 17.3054 28.2404 18.9813 27.5337 19.5136C27.1126 18.8163 25.6816 16.6879 23.7708 16.441C22.7453 16.3097 21.7554 16.7409 20.831 17.7263C20.058 18.5506 19.6878 19.5701 19.7309 20.7566C19.7972 22.5888 20.8252 24.7899 22.7862 27.2995C24.2365 29.1554 25.6884 30.5007 25.7031 30.5141Z" fill="#441A45"/>
<path d="M16.3969 5.59015C16.3445 6.01128 16.4022 6.41981 16.5511 6.81497C18.9458 5.00924 24.5016 5.04201 29.0085 5.69827C34.4151 6.48457 40.5939 8.44479 42.4841 11.0842C42.8336 10.749 43.0728 10.3682 43.1729 9.93625C43.3702 9.08669 42.9632 8.21419 41.9637 7.34346C38.7476 4.54099 30.4947 2.53516 24.2131 2.53516C22.0187 2.53516 20.0656 2.77987 18.6507 3.32071C17.277 3.84617 16.5186 4.60979 16.3969 5.59015Z" fill="#F04A56"/>
<path d="M42.1587 11.3562C40.6113 9.17097 35.242 7.03358 28.9475 6.11799C23.2569 5.2901 18.6086 5.71148 16.7285 7.21453C17.7963 9.17424 21.339 10.9757 26.2708 12.0556C31.9385 13.2963 39.3519 13.4566 42.1587 11.3562Z" fill="#C46955"/>
<path d="M28.5153 34.1443C26.4286 33.5107 24.427 32.5601 22.6919 31.239C19.1175 28.5176 16.8475 24.3414 15.7489 19.9852C15.3314 18.3292 15.071 16.6442 14.9223 14.9453C14.2179 21.9888 14.0229 29.7934 14.2504 32.4018C14.3739 33.8166 17.2218 35.4107 21.5054 36.4629C27.2726 37.8787 34.1432 37.9291 35.6571 35.5606C35.7501 35.4152 35.8458 35.2479 35.9431 35.0646C33.4385 35.1773 30.9148 34.8731 28.5153 34.1443Z" fill="#F16B84"/>
<path d="M6.74143 18.7298C6.3004 16.8102 6.41305 14.8116 7.69911 13.4757C8.61823 12.5205 9.92068 12.2415 11.0996 12.7506C12.5369 13.3706 13.644 14.8016 14.39 16.0675C14.5591 14.2151 14.762 12.3922 15.0007 10.7022C14.7615 10.4396 14.4901 10.1684 14.1894 9.9043C13.9477 10.4257 13.6224 10.8897 13.1203 11.148C12.0679 11.6891 10.8138 11.0664 9.6306 11.0439C8.07437 11.0142 6.62298 12.1233 6.0272 13.5616C5.4967 14.8426 5.58087 16.3351 6.12171 17.6121C6.28855 18.006 6.5005 18.3775 6.74143 18.7298Z" fill="#F16B84"/>
<path d="M5.89746 25.168C7.80425 27.3973 10.5336 29.0735 13.7406 28.5667C13.7429 28.3031 13.7467 28.0297 13.7514 27.7507C10.95 27.7409 8.17094 26.8021 5.89746 25.168Z" fill="#F16B84"/>
<path d="M9.91437 8.12207C8.38082 8.12207 6.80167 8.75666 5.20486 10.017C2.77412 11.9359 2.16725 15.1789 2.72145 18.3655C2.69297 15.5544 3.37317 12.4052 6.05946 10.4959C8.49676 8.76346 10.6551 8.4565 12.327 8.6687C11.9129 8.47767 11.4714 8.32444 11.0016 8.23019C10.6422 8.15811 10.2795 8.12207 9.91437 8.12207Z" fill="white"/>
<path d="M42.8595 11.3061C42.7725 11.3945 42.6808 11.4807 42.581 11.5631L42.579 11.5654L42.5485 11.5883C42.4764 11.6466 42.4005 11.7033 42.3222 11.7587C42.2821 11.7869 42.2418 11.8152 42.2007 11.8426C42.153 11.8739 42.1036 11.9041 42.054 11.9344C41.9454 12.0014 41.8332 12.0654 41.717 12.1264L41.6921 12.1395C40.5945 12.7103 39.1863 13.0301 37.8148 13.2033L37.8117 13.2035C37.467 13.2471 37.1255 13.2814 36.7916 13.3081C36.7306 13.3132 36.6698 13.3185 36.6083 13.323C36.5466 13.3275 36.4864 13.3311 36.4254 13.3351C36.3394 13.3406 36.2535 13.3464 36.1665 13.3515C36.1156 13.3542 36.0662 13.3565 36.0161 13.359C35.9213 13.3638 35.8266 13.3684 35.731 13.3724L35.7053 13.3734L35.6867 13.3739C35.3006 13.3888 34.9079 13.3966 34.5087 13.3966C34.2033 13.3966 33.8938 13.3913 33.5823 13.3827C33.4689 13.3797 33.3545 13.3747 33.2403 13.3704C33.0468 13.3633 32.853 13.3553 32.6579 13.3452C32.5158 13.3376 32.3734 13.329 32.2305 13.32C32.0599 13.3089 31.8892 13.2965 31.7181 13.2834C31.5656 13.2716 31.4134 13.26 31.2602 13.2464C31.0866 13.2308 30.9127 13.2131 30.7388 13.1952C30.5934 13.1804 30.4482 13.167 30.3025 13.1506C30.0013 13.1166 29.7002 13.079 29.3993 13.0382C29.2821 13.0223 29.1654 13.0042 29.0482 12.9873C28.835 12.9566 28.622 12.9251 28.4093 12.891C28.2947 12.8726 28.1803 12.8532 28.0656 12.8338C27.9512 12.8144 27.836 12.7968 27.7221 12.7766C27.5615 12.7479 27.4 12.7179 27.2384 12.6869L27.2137 12.6826C26.9222 12.6267 26.6288 12.5659 26.3352 12.5024C26.2833 12.4913 26.2309 12.482 26.1792 12.4707C24.5607 12.1163 23.1015 11.6897 21.8223 11.207C23.8445 12.5501 27.9343 14.603 33.9069 14.4642C37.5884 14.3785 40.4338 13.6499 42.5036 12.8298C42.6412 12.2456 42.7612 11.7312 42.8595 11.3061Z" fill="white"/>
<path d="M41.9635 7.34346C38.7474 4.54099 30.4945 2.53516 24.2129 2.53516C23.4566 2.53516 22.7297 2.56489 22.043 2.62513C27.375 2.87916 39.8651 4.10625 43.1535 10.0058C43.1598 9.98263 43.1674 9.95994 43.1727 9.93625C43.37 9.08669 42.963 8.21419 41.9635 7.34346Z" fill="white"/>
<path d="M42.1587 11.3566C42.0982 11.2711 42.0299 11.186 41.9581 11.1008C35.3342 12.9776 23.3292 10.1892 22.6177 7.75924C22.3524 6.85247 22.5814 6.1899 23.0114 5.70703C20.1268 5.76676 17.8949 6.2824 16.7285 7.21487C17.7963 9.17459 21.339 10.976 26.2708 12.0559C31.9385 13.2966 39.3519 13.4569 42.1587 11.3566Z" fill="#A44A35"/>
<path d="M33.7182 8.96325C33.6081 8.61873 33.2752 8.4335 32.9649 8.28455C32.6643 8.1404 32.3545 8.01136 32.0425 7.89367C31.4316 7.66332 30.7915 7.47305 30.1458 7.37173C29.5011 7.27067 28.8416 7.21624 28.1901 7.26084C27.8527 7.28403 27.5187 7.32461 27.1866 7.38837C26.8902 7.44507 26.5928 7.50304 26.3589 7.7044C26.2972 7.75758 26.3085 7.88535 26.3867 7.91963C26.6415 8.03127 26.9091 8.02774 27.1836 8.03732C27.4885 8.04765 27.7945 8.06681 28.0986 8.09226C28.7128 8.14393 29.3194 8.22609 29.9228 8.3526C30.5223 8.47836 31.1108 8.62957 31.6862 8.84253C31.9606 8.94434 32.227 9.06027 32.4914 9.18527C32.792 9.32741 33.1189 9.5066 33.4574 9.42243C33.6474 9.3753 33.7784 9.15226 33.7182 8.96325Z" fill="#A44A35"/>
<path d="M32.2613 9.51658C32.2215 9.48029 32.1807 9.4445 32.1389 9.41048C32.0557 9.34218 31.9808 9.30665 31.8815 9.26657C31.7712 9.22197 31.6595 9.18063 31.5421 9.16047C31.2807 9.11561 30.9649 9.0574 30.7328 9.21894C30.6335 9.28825 30.5879 9.44299 30.692 9.53498L30.7472 9.58437C30.7966 9.62671 30.849 9.64612 30.908 9.66905L30.9533 9.6872L30.9498 9.68568C30.9995 9.70635 31.0408 9.72223 31.0915 9.73533C31.2109 9.76633 31.3248 9.80968 31.4415 9.84849C31.5038 9.8689 31.567 9.88554 31.6288 9.90721C31.6822 9.92586 31.7349 9.95232 31.7901 9.96467C31.8526 9.97878 31.9188 9.98559 31.9821 9.99617C32.1315 10.0209 32.2971 9.95762 32.3352 9.79582C32.3579 9.69879 32.338 9.58664 32.2613 9.51658Z" fill="#A44A35"/>
<path d="M27.1008 11.0768C26.9799 11.001 26.8685 10.9214 26.7326 10.8735C26.6064 10.8286 26.4791 10.7855 26.3518 10.7432C26.0973 10.6585 25.8523 10.5516 25.6018 10.4564C25.3684 10.3672 25.1406 10.2648 24.9178 10.1519C24.7958 10.0902 24.3246 9.82632 24.2459 10.0736C24.1648 10.3283 24.5317 10.5426 24.7054 10.6557C24.9292 10.8016 25.16 10.939 25.3987 11.0592C25.6401 11.1807 25.9015 11.2737 26.1575 11.3596C26.2848 11.4025 26.4133 11.438 26.5449 11.4662C26.6978 11.4995 26.84 11.4869 26.994 11.471C27.1968 11.4503 27.2896 11.195 27.1008 11.0768Z" fill="#C46955"/>
<path d="M17.3567 12.1703C17.3447 12.1274 17.323 12.0904 17.2915 12.0586L17.2403 12.019C17.201 11.9961 17.1584 11.9848 17.1125 11.9845C17.0778 11.9833 17.0452 11.9906 17.0153 12.0064C16.9838 12.0165 16.9565 12.0339 16.9336 12.0586C16.9089 12.0815 16.8915 12.1088 16.8814 12.1403C16.8656 12.1703 16.8583 12.2028 16.8595 12.2375L16.8686 12.3048C16.8807 12.3477 16.9024 12.385 16.9336 12.4165L16.985 12.456C17.0243 12.479 17.0669 12.4906 17.1125 12.4906C17.1476 12.4921 17.1801 12.4848 17.2101 12.4689C17.2416 12.4586 17.2685 12.4412 17.2915 12.4165C17.3162 12.3935 17.3338 12.3666 17.3439 12.3351C17.3598 12.3048 17.3671 12.2726 17.3656 12.2375L17.3567 12.1703Z" fill="white"/>
<path d="M24.1945 14.5251C24.1809 14.4767 24.1564 14.4344 24.1209 14.3989L24.0906 14.3605C24.0677 14.3429 24.0448 14.3253 24.0218 14.3074C23.9946 14.296 23.9676 14.2847 23.9404 14.2731C23.8953 14.259 23.85 14.257 23.8048 14.267C23.7741 14.2673 23.7456 14.2749 23.7189 14.2905C23.6902 14.2983 23.6652 14.3129 23.6438 14.3341C23.6183 14.3492 23.5979 14.3696 23.5828 14.3951C23.5619 14.4162 23.5473 14.4414 23.5392 14.4702C23.5178 14.5107 23.5082 14.5543 23.51 14.6012C23.514 14.6312 23.518 14.6615 23.5221 14.6917C23.5334 14.7187 23.545 14.7459 23.5563 14.7728C23.574 14.7958 23.5919 14.8187 23.6095 14.8416C23.6325 14.8595 23.6554 14.8772 23.6783 14.8948C23.7055 14.9064 23.7325 14.9178 23.7597 14.9291C23.8048 14.9435 23.85 14.9455 23.8953 14.9352C23.9261 14.9352 23.9545 14.9273 23.981 14.912C24.0233 14.8984 24.0599 14.8749 24.0906 14.8416L24.1209 14.8036C24.1488 14.7776 24.1685 14.7469 24.1801 14.7114C24.198 14.6773 24.2063 14.6405 24.2048 14.6012C24.2013 14.5758 24.198 14.5506 24.1945 14.5251Z" fill="white"/>
<path d="M32.2633 15.5838C32.2482 15.5304 32.2212 15.484 32.1822 15.4445C32.1605 15.4266 32.1346 15.4014 32.1063 15.3878C32.0363 15.3537 32.0347 15.354 31.9702 15.3452L31.9092 15.3389L31.8601 15.3454L31.8097 15.3522L31.8057 15.353L31.7613 15.3714L31.7167 15.3905C31.663 15.422 31.6204 15.4649 31.5889 15.5183C31.5567 15.574 31.5403 15.634 31.54 15.6982C31.5438 15.733 31.5458 15.7683 31.5544 15.8021L31.5748 15.8525L31.5967 15.9014L31.599 15.9044L31.6494 15.9697L31.6537 15.9745C31.6824 16.0052 31.7162 16.0269 31.7555 16.0397C31.7931 16.0594 31.8336 16.0685 31.8772 16.067C31.9052 16.0632 31.9332 16.0594 31.9612 16.0556L32.0103 16.0349C32.0484 16.0231 32.0831 16.0052 32.1126 15.9782C32.1393 15.9624 32.1608 15.9409 32.1766 15.9142C32.1973 15.8915 32.2122 15.8651 32.224 15.8369L32.2316 15.8273C32.2545 15.791 32.2671 15.7519 32.2689 15.7098C32.2785 15.6678 32.2764 15.6259 32.2633 15.5838Z" fill="white"/>
<path d="M41.0242 15.6973L41.0237 15.6945C41.0204 15.668 41.0159 15.628 41.0113 15.6015L41.0101 15.596L41.0088 15.5909L41.0081 15.5884L40.9733 15.5062C40.9433 15.4558 40.9032 15.4158 40.8528 15.386C40.8143 15.3613 40.7727 15.348 40.7281 15.346C40.6832 15.3361 40.6386 15.3381 40.594 15.352C40.5504 15.3644 40.5126 15.3865 40.4776 15.414L40.4758 15.415L40.4765 15.4148C40.4516 15.4274 40.4292 15.4432 40.3992 15.473C40.3793 15.4974 40.3599 15.5224 40.3415 15.5481C40.3084 15.605 40.2918 15.6663 40.2916 15.7321V15.7331C40.2898 15.7691 40.2921 15.8051 40.3019 15.8414C40.3127 15.8865 40.3334 15.9261 40.3644 15.9599C40.3888 15.9977 40.4214 16.0277 40.4619 16.0496C40.5164 16.0811 40.5751 16.097 40.6378 16.0972L40.7046 16.0902C40.7376 16.0899 40.7681 16.0816 40.7966 16.0652C40.8276 16.0567 40.8543 16.041 40.877 16.0184C40.9259 15.9805 40.9057 16.001 40.9435 15.9518C40.9662 15.9291 40.9818 15.9024 40.9904 15.8714L41.0091 15.8273L41.0106 15.819L41.0174 15.7691L41.0242 15.7187V15.6973Z" fill="white"/>
<path d="M17.9648 19.8008C17.5538 19.8008 17.553 20.4394 17.9648 20.4394C18.3759 20.4394 18.3766 19.8008 17.9648 19.8008Z" fill="white"/>
<path d="M15.3648 27.0029C15.0336 27.0029 15.0331 27.5173 15.3648 27.5173C15.6957 27.5173 15.6962 27.0029 15.3648 27.0029Z" fill="white"/>
<path d="M18.5405 32.8699L18.514 32.8074L18.4729 32.754L18.42 32.7132L18.4147 32.7109L18.4034 32.7059L18.3807 32.6955C18.3366 32.6701 18.2892 32.6572 18.2383 32.6572C18.1874 32.6572 18.1398 32.6701 18.0959 32.6955C18.0536 32.7207 18.0198 32.7545 17.9946 32.7968C17.9692 32.8407 17.9563 32.8883 17.9561 32.9392C17.9563 32.9901 17.9692 33.0375 17.9946 33.0816C18.0198 33.124 18.0536 33.1577 18.0959 33.1827C18.1398 33.2084 18.1874 33.2213 18.2383 33.2213C18.2892 33.2213 18.3366 33.2084 18.3807 33.1827L18.4029 33.1729L18.4142 33.1678L18.4195 33.1656L18.4729 33.1242L18.5138 33.0713L18.5274 33.0395C18.5435 33.0085 18.5511 32.975 18.5498 32.9392C18.5468 32.9161 18.5435 32.8929 18.5405 32.8699Z" fill="white"/>
<path d="M22.9774 28.8402C22.9545 28.8017 22.9237 28.7709 22.8852 28.748L22.8332 28.7193C22.7881 28.693 22.7392 28.6797 22.6868 28.6797C22.6344 28.6797 22.5855 28.693 22.5401 28.7193C22.4965 28.745 22.4618 28.7797 22.4361 28.8236C22.4098 28.8687 22.3965 28.9176 22.3965 28.97C22.3965 29.0224 22.4098 29.0713 22.4361 29.1164C22.4618 29.1603 22.4965 29.1951 22.5401 29.2208C22.5855 29.247 22.6344 29.2603 22.6868 29.2603C22.7392 29.2603 22.7881 29.247 22.8332 29.2208L22.8852 29.192C22.9237 29.1694 22.9545 29.1386 22.9774 29.0998C23.0006 29.0597 23.0122 29.0164 23.0124 28.97C23.0122 28.9236 23.0006 28.8803 22.9774 28.8402Z" fill="white"/>
<path d="M29.0399 34.7627C29.0235 34.7045 28.994 34.6539 28.9514 34.611C28.928 34.5929 28.9048 34.575 28.8816 34.5571C28.828 34.5258 28.77 34.5102 28.708 34.51C28.6604 34.5082 28.6163 34.5183 28.5752 34.5397C28.5326 34.5536 28.4955 34.5775 28.4645 34.611C28.4308 34.642 28.4071 34.6791 28.3932 34.7217C28.3718 34.7627 28.3617 34.8071 28.3635 34.8545C28.3678 34.885 28.3718 34.9155 28.3758 34.946C28.3922 35.0042 28.4217 35.0548 28.4645 35.0979C28.4877 35.1158 28.5109 35.1337 28.5341 35.1516C28.5878 35.1829 28.6457 35.1985 28.708 35.1987C28.7554 35.2005 28.7995 35.1907 28.8406 35.169C28.8831 35.1551 28.9202 35.1314 28.9514 35.0979C28.985 35.0667 29.0087 35.0296 29.0225 34.987C29.0442 34.946 29.054 34.9019 29.0523 34.8545C29.048 34.824 29.0439 34.7935 29.0399 34.7627Z" fill="white"/>
<path d="M35.0327 29.7074C35.0176 29.654 34.9906 29.6076 34.9516 29.568L34.8878 29.5189C34.8384 29.4904 34.7855 29.4761 34.7285 29.4758C34.6852 29.474 34.6446 29.4831 34.607 29.503C34.568 29.5156 34.5342 29.5373 34.5057 29.568C34.475 29.5968 34.4531 29.6305 34.4405 29.6696C34.4208 29.7072 34.4117 29.7477 34.4132 29.7911C34.417 29.8191 34.4208 29.847 34.4246 29.8748C34.4395 29.9282 34.4667 29.9746 34.5057 30.0141L34.5695 30.0633C34.6186 30.0917 34.6716 30.1061 34.7285 30.1064C34.7719 30.1081 34.8124 30.099 34.85 30.0791C34.8891 30.0665 34.9231 30.0446 34.9516 30.0141C34.9823 29.9854 35.004 29.9516 35.0166 29.9126C35.0365 29.875 35.0456 29.8344 35.0438 29.7911C35.04 29.7631 35.0362 29.7351 35.0327 29.7074Z" fill="white"/>
<path d="M37.2305 22.5892C37.2151 22.5345 37.1874 22.4869 37.1473 22.4463L37.0818 22.3959C37.0314 22.3666 36.977 22.3518 36.9185 22.3518C36.8739 22.35 36.8323 22.3593 36.7937 22.3795C36.7537 22.3926 36.7191 22.4148 36.6896 22.4463C36.6581 22.4758 36.636 22.5105 36.6229 22.5506C36.6024 22.5892 36.5934 22.6308 36.5949 22.6751C36.5989 22.7038 36.6027 22.7326 36.6065 22.7613C36.6219 22.816 36.6496 22.8636 36.6896 22.904L36.7552 22.9546C36.8056 22.9838 36.86 22.9987 36.9185 22.9987C36.9631 23.0005 37.0047 22.9912 37.0432 22.971C37.0833 22.9579 37.1181 22.9357 37.1473 22.904C37.1788 22.8747 37.2013 22.8399 37.2141 22.7999C37.2345 22.7613 37.2438 22.7197 37.2421 22.6751L37.2305 22.5892Z" fill="white"/>
<path d="M32.6782 18.2712C31.4874 17.9562 30.1245 18.4681 29.1113 19.0139C30.4473 18.6087 32.5093 18.3536 33.7707 20.0064C35.2448 21.9379 32.7916 25.4541 29.8903 27.9206C32.7596 26.072 35.8897 23.3048 34.8057 20.4845C34.337 19.2649 33.6212 18.5202 32.6782 18.2712Z" fill="white"/>
</svg>
