<svg width="55" height="40" viewBox="0 0 55 40" fill="none" xmlns="http://www.w3.org/2000/svg">
<path d="M49.7841 5.14492L51.0386 0L47.6315 2.07053L47.6343 2.05989L41.5902 5.73336L41.0093 8.11494L40.6609 8.33088L40.6337 8.30994C40.4291 8.15579 40.2169 8.00817 40.0024 7.87118L39.9481 7.83651C39.498 7.55259 39.0226 7.303 38.5333 7.09495C35.5187 5.65337 32.1065 6.01419 29.6075 8.03975C29.4372 8.16575 29.2738 8.29518 29.1323 8.41568L29.0798 8.45962C28.8858 8.62648 28.7173 8.782 28.5645 8.93477L28.1505 9.34881L27.7354 8.93374C25.6968 6.89548 22.8909 5.98501 20.0331 6.43853L19.9233 6.45741C19.7646 6.48488 19.6064 6.51577 19.4488 6.55114L19.3101 6.58341C19.1563 6.62014 19.0032 6.661 18.8336 6.71078L18.7251 6.74271C18.5545 6.79489 18.3855 6.85188 18.2293 6.90956L18.159 6.93496C17.7844 7.07538 17.4116 7.24292 17.0573 7.42865L16.921 7.50178C16.7898 7.57318 16.66 7.647 16.5344 7.72253C16.4801 7.75514 16.4266 7.78879 16.3747 7.8214C16.2553 7.89624 16.1375 7.97383 16.0187 8.05554L15.9892 8.07545C15.9466 8.10464 15.9041 8.13416 15.8677 8.1606C15.7437 8.24883 15.6222 8.34118 15.4794 8.4531C15.4468 8.47782 15.4142 8.50322 15.3857 8.52623C15.2274 8.65428 15.0726 8.7868 14.9009 8.94438L14.8848 8.96018C14.7495 9.08514 14.618 9.21457 14.4906 9.34641C14.4563 9.38142 14.4227 9.41782 14.3894 9.45421L14.3581 9.48785C14.2634 9.58947 14.1703 9.69247 14.0769 9.8013C14.0278 9.85898 13.9798 9.917 13.9352 9.97227C13.851 10.0749 13.7683 10.1793 13.6698 10.3104C13.6303 10.3633 13.5905 10.4155 13.551 10.4704C13.4693 10.5841 13.3907 10.7004 13.3117 10.8206L13.2846 10.8615C13.2574 10.9016 13.2307 10.9421 13.2022 10.9871C13.1057 11.1402 13.0123 11.2961 12.9234 11.4561L12.8702 11.5522C12.7881 11.7033 12.7102 11.8571 12.6354 12.0133C12.1053 11.842 11.557 11.7276 11.0008 11.6593C11.1323 11.35 11.2408 11.0513 11.3459 10.7506C11.4351 10.4797 11.5381 10.1566 11.6216 9.82121C11.6339 9.77212 11.6452 9.74122 11.6542 9.71444C11.7112 9.54828 11.7692 9.3598 11.8025 9.03742C11.9158 7.93538 11.177 6.64349 9.78619 6.47664C8.93992 6.37536 8.22205 6.78356 7.7675 7.37681C7.5083 6.95556 7.1485 6.54461 6.64177 6.29537C6.04063 5.99977 5.35983 5.98741 4.72401 6.26172C4.10914 6.52779 3.65081 7.01083 3.43384 7.62159C3.28484 8.04181 3.2687 8.47095 3.32226 8.88087C2.72077 8.87915 2.11448 9.09682 1.66679 9.61213C0.748427 10.6706 1.07011 12.1242 1.8951 12.864C2.13645 13.0803 2.30639 13.1816 2.46019 13.266C2.48423 13.2794 2.51238 13.2945 2.55358 13.3213C2.84299 13.5146 3.1355 13.6842 3.40877 13.8387C3.47915 13.8771 3.55537 13.9166 3.62884 13.9554C3.54061 14.0306 3.45443 14.1061 3.37341 14.1806L3.32501 14.2256C3.19008 14.3502 3.05894 14.4797 2.93431 14.6084C2.89998 14.6438 2.86634 14.6801 2.83269 14.7165L2.80076 14.7512C2.70566 14.8532 2.61228 14.9562 2.51993 15.064C2.47049 15.122 2.42174 15.1814 2.37746 15.2353C2.293 15.3383 2.2106 15.443 2.13027 15.5501C2.08392 15.6112 2.03792 15.6723 1.99603 15.7303C1.91261 15.846 1.83193 15.9648 1.7564 16.0805L1.73271 16.1152C1.7025 16.1609 1.67194 16.2069 1.64448 16.2508C1.53359 16.4266 1.42716 16.6051 1.3252 16.7919C1.13534 17.1407 0.962998 17.5043 0.814342 17.8716C0.7395 18.0553 0.670151 18.2417 0.605951 18.4288C0.478924 18.7992 0.370093 19.1827 0.282891 19.5686C0.153805 20.1378 0.0676325 20.7266 0.0271213 21.3181C-0.0799929 22.8789 0.131489 24.4828 0.638222 25.957C1.04436 27.138 1.67126 28.2662 2.55461 29.4056C2.7012 29.5948 2.85157 29.7798 3.00401 29.9604L0.555483 36.0258L9.05013 35.4761C9.13355 35.5365 9.21766 35.5973 9.30212 35.6584C9.53557 35.8263 9.77418 35.9949 10.0166 36.1638C10.2562 36.331 10.4989 36.4975 10.7423 36.6626C11.3133 37.0502 11.9147 37.4474 12.5307 37.8429L12.8705 38.0599C13.8572 38.6875 14.5459 39.108 15.0382 39.3909C15.0382 39.3909 16.1722 39.9979 16.6154 40C17.0583 40.002 17.1544 39.9052 17.3357 39.8245L17.438 39.7761C17.4946 39.748 17.5619 39.713 17.6303 39.6762L17.7562 39.6079C17.8716 39.544 18.0065 39.4678 18.1607 39.3782L18.6279 39.1025C18.7642 39.0212 18.9067 38.9357 19.0574 38.8433L19.3485 38.6648C19.6829 38.4588 20.0468 38.2305 20.4276 37.9875L20.7812 37.7609C20.9673 37.6407 21.1561 37.5181 21.3484 37.3922L21.7075 37.1556C21.9488 36.9956 22.1922 36.8329 22.436 36.6671C22.679 36.5019 22.9221 36.3351 23.1641 36.1665L23.5222 35.9149C24.0266 35.5578 24.4893 35.2186 24.8975 34.9069C25.1166 34.7394 25.3274 34.5746 25.5255 34.4146C25.7603 34.2254 25.9769 34.0441 26.1719 33.8732C26.3288 33.9666 26.4699 34.0496 26.5966 34.1234L28.2473 34.7332C28.5357 34.7163 28.7588 34.6264 28.9353 34.5419C29.0929 34.4671 29.3181 34.3452 29.6257 34.1684C29.8303 34.0507 30.0716 33.9085 30.3405 33.7461C30.782 33.4804 31.3017 33.1587 31.8624 32.8024L32.2029 32.5847C33.4495 31.7844 35.7793 30.2423 37.3781 28.9095C37.5748 28.7458 37.7581 28.5868 37.9243 28.4357L38.7719 27.6684C40.6639 25.9515 42.4557 24.2216 43.5807 21.9426C43.7833 21.5331 43.9591 21.1128 44.1029 20.694C45.1318 17.701 44.8974 14.33 43.4788 11.6456L45.5201 12.1434L48.9131 10.0808L48.9244 10.0835L54.9685 6.40935L49.7841 5.14492Z" fill="white"/>
<path d="M32.7911 16.2332L32.249 15.3574L47.3497 6.00586L47.8918 6.88166L32.7911 16.2332Z" fill="#630131"/>
<path d="M50.9786 7.02643L47.9166 6.27972L48.6537 3.25684L46.3435 4.66099L45.6064 7.68388L48.6685 8.43094L50.9786 7.02643Z" fill="#630131"/>
<path d="M47.5743 9.086L44.5123 8.33929L45.2494 5.31641L42.9392 6.72056L42.2021 9.74345L45.2642 10.4905L47.5743 9.086Z" fill="#630131"/>
<path d="M42.059 12.2676C39.595 7.75301 33.4686 6.21496 29.6564 10.0271C29.6564 10.0271 28.6086 11.0749 28.1499 11.5339C27.692 11.0756 26.6421 10.0261 26.6421 10.0261C22.8303 6.21358 16.7035 7.75198 14.2395 12.2666C12.9339 14.6598 12.7708 17.6127 13.6572 20.1903C14.669 23.1335 17.1769 25.2604 19.4129 27.2907C21.8443 29.4979 27.8544 33.1624 28.141 33.1896V33.1909H28.1565C28.4284 33.1734 34.4511 29.502 36.8856 27.2917C39.1219 25.2614 41.6299 23.1349 42.6416 20.1917C43.5281 17.6137 43.365 14.6608 42.059 12.2676Z" fill="#DD127B"/>
<path d="M30.0048 9.75678C30.1823 9.57791 30.3663 9.41552 30.5538 9.26172C30.2441 9.48865 29.9434 9.74099 29.6571 10.0273C29.6571 10.0273 29.0679 10.6164 28.5801 11.1046L28.624 11.1493C29.0446 10.7249 30.0048 9.75678 30.0048 9.75678Z" fill="#DD127B"/>
<path d="M42.0588 12.2675C42.056 12.263 42.0533 12.2579 42.0509 12.2531C42.0533 12.2579 42.056 12.2627 42.0588 12.2675ZM42.0399 12.2335C42.0378 12.2294 42.0358 12.2256 42.0334 12.2215C42.0354 12.2256 42.0378 12.2297 42.0399 12.2335ZM42.0134 12.1861C42.0114 12.182 42.0093 12.1782 42.0069 12.1741C42.009 12.1782 42.0114 12.182 42.0134 12.1861ZM42.0031 12.1676C42.0018 12.1652 42.0007 12.1631 41.9994 12.1607C42.0007 12.1631 42.0021 12.1655 42.0031 12.1676ZM14.6258 11.6265C14.6289 11.6217 14.6324 11.6169 14.6354 11.6124C14.6324 11.6172 14.6289 11.6217 14.6258 11.6265ZM14.6361 11.6114C14.6389 11.6069 14.6416 11.6028 14.6447 11.5987C14.6416 11.6032 14.6392 11.6069 14.6361 11.6114ZM14.6464 11.5963C14.6492 11.5918 14.6519 11.5877 14.655 11.5836C14.6523 11.5877 14.6492 11.5922 14.6464 11.5963ZM14.6564 11.5812C14.6584 11.5784 14.6605 11.5754 14.6626 11.5723C14.6602 11.5754 14.6584 11.5781 14.6564 11.5812Z" fill="#F49DC3"/>
<path d="M28.1573 33.1913H28.1419V33.1899C28.0371 33.18 27.1706 32.686 25.993 31.9543C26.5321 32.2891 27.0058 32.574 27.3711 32.7859C27.5943 32.6022 27.803 32.4247 27.9887 32.2561C28.6664 31.6406 29.3692 31.0164 30.0476 30.3634C31.8963 29.2315 35.0689 27.1407 36.6303 25.7112C38.6796 23.8346 40.9781 21.8695 41.9054 19.1501C42.7176 16.7678 42.5683 14.0391 41.3715 11.8275C40.5616 10.331 39.3185 9.19085 37.8975 8.50388C39.5619 9.20458 41.0347 10.4591 41.9912 12.1447C41.9919 12.1461 41.9926 12.1475 41.9936 12.1489C41.996 12.153 41.998 12.1571 42.0005 12.1612C42.0018 12.1636 42.0029 12.1657 42.0042 12.1681C42.0056 12.1705 42.0066 12.1725 42.008 12.1746C42.0104 12.1787 42.0125 12.1825 42.0145 12.1866C42.0156 12.188 42.0162 12.1894 42.0173 12.1911C42.019 12.1942 42.0207 12.1976 42.0228 12.201C42.0235 12.2024 42.0245 12.2038 42.0252 12.2055C42.0276 12.2096 42.03 12.2141 42.0324 12.2185C42.0331 12.2196 42.0338 12.2209 42.0344 12.222C42.0368 12.2261 42.0389 12.2299 42.041 12.234C42.0416 12.2347 42.042 12.2357 42.0423 12.2364C42.0451 12.2412 42.0475 12.2457 42.0502 12.2505C42.0506 12.2515 42.0513 12.2525 42.052 12.2536C42.0544 12.2584 42.0571 12.2635 42.0598 12.268C42.8251 13.6704 43.1979 15.2648 43.1969 16.8633C43.1966 17.9928 43.0095 19.1247 42.6424 20.192C41.6307 23.1353 39.1228 25.2618 36.8864 27.2921C34.452 29.5024 28.4292 33.1738 28.1573 33.1913ZM13.5002 14.0735C13.4991 14.0728 13.4981 14.0724 13.4971 14.0718C13.6801 13.4466 13.9276 12.841 14.2403 12.267C14.355 12.0575 14.4772 11.8539 14.607 11.6576C14.6139 11.6476 14.6204 11.6373 14.6269 11.627C14.63 11.6222 14.6334 11.6177 14.6365 11.6129C14.6369 11.6126 14.6372 11.6119 14.6372 11.6119C14.6403 11.6074 14.6427 11.6037 14.6458 11.5992C14.6461 11.5985 14.6468 11.5975 14.6475 11.5968C14.6503 11.5927 14.6534 11.5882 14.6561 11.5841C14.6564 11.5831 14.6568 11.5827 14.6575 11.5817C14.6595 11.5786 14.6613 11.5759 14.6637 11.5728C16.2062 9.29316 18.7381 7.93226 21.2982 7.87012C19.0989 8.25738 17.0408 9.67492 15.8762 11.8265C15.6157 12.3075 15.4049 12.8132 15.2428 13.3343C14.8065 13.1623 14.3595 13.036 13.9077 12.9532C13.7477 13.3178 13.6117 13.6921 13.5002 14.0735Z" fill="#C31861"/>
<path d="M33.7347 25.1842C33.7378 25.1746 33.7412 25.1647 33.7447 25.155C34.6311 22.5774 34.468 19.6242 33.1621 17.2313C32.3319 15.7101 31.0857 14.5267 29.6523 13.7721C30.075 13.2321 30.592 12.7628 31.1928 12.394C32.049 11.8684 33.0738 11.4805 34.2329 11.4805C34.4244 11.4805 34.6198 11.4911 34.8185 11.5134C36.4335 11.6947 38.0299 12.495 38.859 14.0138C39.6473 15.4581 39.7726 17.3244 39.1944 19.0059C38.5535 20.8701 36.7679 22.4841 34.8769 24.1924L34.4358 24.592C34.2332 24.776 33.9967 24.9748 33.7347 25.1842Z" fill="#E63193"/>
<path d="M40.1857 13.4175C40.163 13.4175 40.1397 13.4151 40.1163 13.4099L40.07 13.3965L40.0559 13.391C39.6971 13.2537 37.8405 11.2824 37.7577 10.878L37.755 10.8635C37.7162 10.6744 37.7886 10.4825 38.0279 10.4505L38.029 10.4502C39.5756 10.7382 40.5908 12.7659 40.506 13.1586C40.473 13.3124 40.3371 13.4175 40.1857 13.4175Z" fill="#F49AC1"/>
<path d="M38.7224 22.1223C38.6174 22.1223 38.5123 22.066 38.4588 21.9712C38.4241 21.9101 38.4169 21.8442 38.433 21.7855L38.434 21.7817C39.2628 20.6827 40.6948 19.1797 40.0219 14.7637L40.025 14.7537C40.0586 14.6404 40.1674 14.5693 40.29 14.5693C40.3226 14.5693 40.3563 14.5741 40.3896 14.5848C40.4325 14.5985 40.472 14.6212 40.5035 14.648C41.1603 15.2058 41.5098 15.9344 41.6818 16.6704C41.8583 17.412 41.7906 18.1676 41.6011 18.8762C41.4144 19.5869 41.0525 20.2694 40.578 20.8129C40.0998 21.3608 39.5189 21.8006 38.834 22.0993C38.7983 22.1147 38.7602 22.1223 38.7224 22.1223Z" fill="#F49AC1"/>
<path d="M28.6299 31.1624H28.6158V31.161C28.5478 31.1545 28.1286 30.9231 27.5059 30.5478C28.3271 29.7496 29.1081 28.9068 29.7608 27.9836C31.1254 27.0965 32.6491 26.0514 33.7343 25.1846C33.0257 27.2221 31.5999 28.8683 30.0471 30.3631C29.254 30.8486 28.7044 31.1576 28.6299 31.1624Z" fill="#C31861"/>
<path d="M27.3703 32.7857C27.005 32.5739 26.5312 32.2889 25.9922 31.9542C26.4982 31.4966 27.0094 31.0303 27.5055 30.548C28.1283 30.9232 28.5475 31.1546 28.6155 31.1611V31.1625H28.6295C28.704 31.1577 29.2537 30.8487 30.0467 30.3633C29.3683 31.0163 28.6656 31.6404 27.9879 32.256C27.8021 32.4245 27.5934 32.602 27.3703 32.7857Z" fill="#B01A4F"/>
<path d="M16.5925 16.798C16.1345 16.3397 15.085 15.2902 15.085 15.2902C15.0184 15.2239 14.9514 15.1594 14.8838 15.0962C14.9456 14.4978 15.0647 13.9066 15.2429 13.334C16.1372 13.6866 16.9873 14.2314 17.7457 14.9898C17.7457 14.9898 17.8796 15.124 18.0732 15.3173C17.9087 15.4818 17.0082 16.3819 16.5925 16.798Z" fill="#C31861"/>
<path d="M14.8836 15.0964C14.4472 14.6896 13.9834 14.3501 13.5 14.0734C13.6116 13.6919 13.7475 13.3177 13.9075 12.9531C14.3593 13.0359 14.8063 13.1622 15.2427 13.3342C15.0645 13.9069 14.9454 14.498 14.8836 15.0964Z" fill="#B01A4F"/>
<path d="M28.7699 15.3235C27.3712 14.0447 25.5946 13.2746 23.7822 13.1496C24.4812 12.9344 25.2011 12.8311 25.9207 12.8311C27.2061 12.8311 28.4904 13.161 29.6519 13.7724C29.2838 14.2424 28.9876 14.766 28.7699 15.3235Z" fill="#C31861"/>
<path d="M29.7613 27.9836C30.3113 27.2053 30.77 26.3701 31.0841 25.4558C31.9136 23.0444 31.8243 20.304 30.7398 18.0018C30.6653 17.8431 30.5856 17.6866 30.5015 17.5321C30.4991 17.5276 30.4964 17.5228 30.4939 17.5184C30.4933 17.517 30.4926 17.5156 30.4915 17.5143C30.4895 17.5101 30.4871 17.5057 30.4847 17.5015C30.4836 17.4998 30.4826 17.4974 30.4816 17.4954C30.4802 17.4933 30.4788 17.4909 30.4775 17.4885C30.4723 17.4792 30.4675 17.4703 30.4624 17.461L30.462 17.4607C30.0064 16.6446 29.4304 15.9271 28.7705 15.3236C28.9882 14.766 29.2845 14.2425 29.6525 13.7725C31.0858 14.5271 32.3321 15.7105 33.1622 17.2317C34.4682 19.6246 34.6312 22.5778 33.7448 25.1554C33.7414 25.165 33.7379 25.175 33.7348 25.1846C32.6496 26.0515 31.126 27.0965 29.7613 27.9836Z" fill="#CF1B74"/>
<path d="M30.5004 17.5323C28.0364 13.0174 21.91 11.4793 18.0978 15.2915C18.0978 15.2915 17.05 16.3396 16.5913 16.7983C16.1333 16.34 15.0838 15.2904 15.0838 15.2904C11.2713 11.4786 5.14521 13.0163 2.68124 17.5309C1.37527 19.9242 1.21219 22.877 2.09863 25.455C3.11038 28.3979 5.6183 30.5247 7.85465 32.5554C10.2857 34.7626 16.2957 38.4268 16.5824 38.4539V38.4553H16.5975C16.8694 38.4378 22.8925 34.7667 25.3266 32.5564C27.5633 30.5257 30.0712 28.3989 31.083 25.456C31.9694 22.8784 31.8064 19.9252 30.5004 17.5323Z" fill="#F17BB0"/>
<path d="M30.5014 17.5323C30.499 17.5279 30.4966 17.5231 30.4938 17.5186C30.4962 17.5231 30.499 17.5279 30.5014 17.5323ZM30.4815 17.4956C30.4801 17.4932 30.4787 17.4911 30.4774 17.4887C30.4787 17.4911 30.4801 17.4936 30.4815 17.4956Z" fill="#BA195C"/>
<path d="M16.5975 38.4546H16.5824V38.4533C16.2957 38.4261 10.2857 34.7619 7.85465 32.5548C5.6183 30.5241 3.11038 28.3972 2.09863 25.4543C1.21219 22.8764 1.37527 19.9235 2.68124 17.5303C4.15234 14.8353 6.92873 13.2018 9.73876 13.1338C7.53949 13.521 5.48166 14.9383 4.31679 17.0902C3.11999 19.3018 2.97065 22.0301 3.78293 24.4124C4.71023 27.1321 7.00872 29.0972 9.05797 30.9735C11.2861 33.0138 16.7939 36.3999 17.0569 36.425V36.426H17.0706C17.3198 36.4099 22.8397 33.0172 25.0705 30.9745C27.1205 29.0983 29.4186 27.1331 30.3462 24.4134C31.1585 22.0311 31.0088 19.3028 29.812 17.0912C29.0022 15.5947 27.759 14.4542 26.338 13.7669C28.0196 14.4751 29.5055 15.7485 30.4609 17.4602L30.4613 17.4606C30.4664 17.4695 30.4712 17.4788 30.4764 17.4881C30.4777 17.4905 30.4791 17.4925 30.4805 17.4949C30.4815 17.497 30.4825 17.499 30.4836 17.5011C30.486 17.5052 30.4884 17.5097 30.4904 17.5138C30.4915 17.5152 30.4921 17.5165 30.4928 17.5179C30.4956 17.5224 30.498 17.5272 30.5004 17.5317C30.5845 17.6861 30.6642 17.8427 30.7386 18.0013C31.8228 20.3036 31.9124 23.0439 31.083 25.4554C30.7689 26.3696 30.3102 27.2049 29.7602 27.9832C29.1076 28.9064 28.3265 29.7492 27.5053 30.5474C27.0092 31.0298 26.498 31.496 25.992 31.9536C25.7688 32.1558 25.5464 32.356 25.3266 32.5558C22.8925 34.7661 16.8694 38.4371 16.5975 38.4546Z" fill="#EF5BA1"/>
<path d="M16.7412 34.176L16.7762 22.8888C16.7828 20.774 17.8319 18.7642 19.6343 17.6577C20.4906 17.1321 21.515 16.7441 22.6744 16.7441C22.8659 16.7441 23.0613 16.7548 23.2601 16.7771C24.8757 16.9587 26.4718 17.7586 27.3009 19.2778C28.0888 20.7218 28.2145 22.588 27.636 24.2696C26.995 26.1338 25.2094 27.7477 23.3181 29.4564L22.8773 29.8557C21.5153 31.092 18.6181 33.0111 16.7412 34.176Z" fill="#F38AB8"/>
<path d="M28.6284 18.6811C28.6054 18.6811 28.582 18.6787 28.5587 18.6736L28.5123 18.6602L28.4983 18.655C28.1395 18.5174 26.2829 16.5461 26.2001 16.142L26.1974 16.1276C26.1586 15.9381 26.231 15.7461 26.4703 15.7142L26.4713 15.7139C28.018 16.0023 29.0332 18.0299 28.9484 18.4226C28.9154 18.5764 28.7794 18.6811 28.6284 18.6811Z" fill="#F8C0D8"/>
<path d="M27.1646 27.3856C27.0595 27.3856 26.9545 27.3296 26.9009 27.2349C26.8666 27.1738 26.8594 27.1079 26.8752 27.0488L26.8762 27.0454C27.7053 25.9464 29.1373 24.4437 28.464 20.0277L28.4671 20.0177C28.5011 19.9041 28.6099 19.833 28.7322 19.833C28.7648 19.833 28.7984 19.8378 28.8317 19.8485C28.8746 19.8622 28.9141 19.8848 28.946 19.912C29.6025 20.4699 29.9523 21.1984 30.1243 21.9341C30.3008 22.6757 30.2324 23.4309 30.0433 24.1399C29.8569 24.8502 29.4947 25.5327 29.0202 26.0769C28.5423 26.6241 27.9614 27.0643 27.2762 27.3629C27.2404 27.3784 27.2027 27.3856 27.1646 27.3856Z" fill="#F8C0D8"/>
<path d="M15.3856 25.7275L5.00684 32.1551L5.54893 33.0305L15.6997 26.7448C15.5875 26.408 15.4724 26.0719 15.3856 25.7275Z" fill="#630131"/>
<path d="M7.17114 34.0492L2.9082 34.3253L4.5544 30.248L7.17114 34.0492Z" fill="#630131"/>
<path d="M14.0098 23.9893L16.1836 28.4359C16.1836 28.4359 16.8799 25.5352 14.0098 23.9893Z" fill="#DD127B"/>
<path fill-rule="evenodd" clip-rule="evenodd" d="M7.2283 12.3435C7.24032 11.9535 7.21663 11.5776 7.18058 11.2061C7.14694 10.834 7.09235 10.4694 7.0333 10.1068C6.96807 9.74671 6.89769 9.38863 6.80637 9.0381C6.71745 8.68689 6.26153 7.28033 5.3363 7.68029C4.41141 8.07991 5.01736 9.33645 5.18489 9.65779C5.35003 9.97982 5.53611 10.294 5.72733 10.606C5.92474 10.9157 6.12661 11.2236 6.34942 11.5237C6.56983 11.8248 6.80259 12.1211 7.07107 12.4036C7.09819 12.4325 7.15209 12.4335 7.19123 12.4053L7.2283 12.3435Z" fill="url(#paint0_linear_50_4883)"/>
<path fill-rule="evenodd" clip-rule="evenodd" d="M5.77445 13.2163C5.47645 13.1208 5.19974 13.0034 4.93023 12.8788C4.65936 12.7552 4.40119 12.6193 4.14542 12.4802C3.89342 12.3374 3.64452 12.1918 3.40798 12.0336C3.17006 11.8763 3.13504 11.9003 2.92631 11.7132C2.69251 11.5035 2.51055 10.9964 2.83361 10.6239C3.12508 10.2885 3.68023 10.4358 3.91814 10.6239C4.13855 10.799 4.1825 10.8388 4.37372 11.0441C4.56632 11.2477 4.74622 11.4637 4.92337 11.6834C5.0964 11.9069 5.26737 12.1328 5.42564 12.3714C5.58528 12.6086 5.73737 12.8534 5.86817 13.1201C5.88156 13.1473 5.86577 13.1857 5.83247 13.2067L5.77445 13.2163Z" fill="url(#paint1_linear_50_4883)"/>
<path fill-rule="evenodd" clip-rule="evenodd" d="M9.16782 11.9067C9.32403 11.6359 9.45002 11.3629 9.56572 11.0893C9.68348 10.816 9.78304 10.5414 9.87917 10.2667C9.9698 9.99138 10.0563 9.71638 10.1246 9.44001C10.1954 9.16365 10.2372 9.15815 10.2657 8.87938C10.298 8.56662 10.092 8.0695 9.60246 8.01079C9.16095 7.95827 8.84922 8.44062 8.79944 8.73965C8.75412 9.01739 8.74829 9.07644 8.74451 9.35693C8.73902 9.63673 8.75103 9.91825 8.76751 10.1998C8.78949 10.4813 8.81489 10.7635 8.85815 11.0467C8.89935 11.3296 8.95153 11.6132 9.03358 11.8985C9.04182 11.9277 9.07993 11.9455 9.11804 11.9383L9.16782 11.9067Z" fill="url(#paint2_linear_50_4883)"/>
<defs>
<linearGradient id="paint0_linear_50_4883" x1="5.05117" y1="6.71218" x2="7.11106" y2="12.5485" gradientUnits="userSpaceOnUse">
<stop stop-color="#FAAB53"/>
<stop offset="1" stop-color="#F8992C"/>
</linearGradient>
<linearGradient id="paint1_linear_50_4883" x1="2.63617" y1="7.56405" x2="4.69606" y2="13.4004" gradientUnits="userSpaceOnUse">
<stop stop-color="#FAAB53"/>
<stop offset="1" stop-color="#F8992C"/>
</linearGradient>
<linearGradient id="paint2_linear_50_4883" x1="8.02008" y1="5.66486" x2="10.08" y2="11.5012" gradientUnits="userSpaceOnUse">
<stop stop-color="#FAAB53"/>
<stop offset="1" stop-color="#F8992C"/>
</linearGradient>
</defs>
</svg>
