<svg width="31" height="40" viewBox="0 0 31 40" fill="none" xmlns="http://www.w3.org/2000/svg">
<path d="M28.8484 0.561439L28.7497 0.501635C27.9519 0.0210268 27.0147 -0.120343 26.1116 0.103978C25.2077 0.328298 24.4455 0.891027 23.9651 1.68828L20.0348 8.21094C19.8127 8.16216 19.5906 8.11449 19.3679 8.06681C19.027 7.99323 18.6859 7.91993 18.3458 7.84415C18.0915 7.78738 17.8272 7.74576 17.5475 7.70112C16.8395 7.58923 15.8703 7.43629 15.7951 7.0604C15.7496 6.83305 16.0199 6.66577 16.0745 6.63408C16.2081 6.55775 16.4771 6.4657 16.6367 6.6079C17.3179 7.21583 18.3979 7.19819 19.1483 6.56877C19.6402 6.1554 19.9147 5.54031 19.883 4.92246C19.8535 4.34843 19.5677 3.83724 19.099 3.52005C17.815 2.64977 16.2035 2.26065 14.5624 2.42435C13.5218 2.52824 12.4636 2.86059 11.4847 3.38253C11.1742 2.97881 10.801 2.63103 10.3813 2.35959C9.28121 1.64804 7.90195 1.49069 6.69271 1.9374C5.71165 2.30006 4.94582 3.02704 4.53631 3.96786C3.52356 3.79783 2.4962 4.04337 1.65707 4.66838C0.622821 5.43835 0.00332118 6.6801 1.4238e-05 7.98993C-0.0032927 9.2507 0.569634 10.531 1.53223 11.4148C2.51108 12.3132 3.73079 12.6086 4.80692 12.8693L4.99956 12.9162C5.11833 12.9457 5.25088 12.9735 5.39721 13.0008C4.25577 14.6694 3.77737 16.8101 4.14223 18.738C4.36545 19.9167 4.74051 21.3993 5.67224 22.6391L6.63319 27.8803C6.77401 28.6459 7.27638 29.2676 7.96533 29.5672L9.49038 37.0067C9.67529 37.9103 10.3295 38.6656 11.1973 38.9773C13.0878 39.6564 15.0538 40 17.0473 40C17.1928 40 17.3388 39.9981 17.4846 39.9945C19.3305 39.9476 21.1509 39.6062 22.8959 38.9793C23.7673 38.6659 24.4226 37.9073 24.6061 36.9987C25.095 34.5741 25.5927 32.1716 26.0741 29.8485L26.1259 29.5975C26.8521 29.3109 27.3856 28.6723 27.5306 27.8801L28.2374 24.0272L28.3063 24.0823L29.0319 22.8486C30.8251 19.8009 29.9659 16.785 28.3193 15.1492L28.2793 15.1098C28.3821 13.5031 27.8199 12.0941 26.6415 10.9764L30.0345 5.34603C31.0263 3.7 30.4941 1.5538 28.8484 0.561439Z" fill="white"/>
<path fill-rule="evenodd" clip-rule="evenodd" d="M25.0191 11.267C24.1775 10.7076 23.1694 10.311 22.1873 10.0187C21.6753 9.86598 21.1577 9.73453 20.6377 9.61355L25.0277 2.32809C25.4493 1.62867 26.1917 1.24121 26.9529 1.24121C27.3475 1.24121 27.7471 1.34538 28.1097 1.56391L28.2084 1.62344C29.2707 2.2636 29.6127 3.6437 28.9728 4.70578L25.0191 11.267ZM26.3722 4.25163H26.3717C26.2162 4.25328 26.0823 4.33375 25.9762 4.41312C25.6042 4.69724 25.3884 5.11639 25.1478 5.47134C24.8846 5.86294 24.6264 6.26114 24.4024 6.68195C23.9973 7.44255 23.6148 8.21003 23.2934 9.01445C23.2121 9.21893 23.1435 9.46143 23.1433 9.6943C23.1433 9.80921 23.1603 9.92248 23.205 10.0264C23.2491 10.13 23.3229 10.2234 23.4276 10.2907C23.5277 10.3554 23.6379 10.3843 23.7459 10.3843H23.7476C24.091 10.3797 24.4076 10.1278 24.6366 9.89189C26.0368 8.42637 27.1141 6.65467 27.7702 4.73692C27.8755 4.428 27.9752 4.09978 27.9755 3.75807C27.9755 3.71012 27.9736 3.66161 27.9692 3.61311C27.9336 3.21793 27.7212 2.80897 27.3329 2.64749C27.2193 2.60091 27.1039 2.57969 26.9903 2.57969H26.9898C26.7203 2.58024 26.4659 2.69544 26.2377 2.85637C26.0093 3.01786 25.8048 3.22731 25.6356 3.43123C24.0907 5.29304 22.9162 7.4205 21.7535 9.5284C21.7271 9.57608 21.7444 9.63643 21.7924 9.66288C21.8075 9.67115 21.8241 9.67501 21.84 9.67501C21.875 9.67501 21.9089 9.65655 21.9269 9.62403C23.0895 7.51613 24.2588 5.40024 25.788 3.55772C25.9495 3.36289 26.144 3.16475 26.3521 3.01787C26.5596 2.87098 26.7781 2.77784 26.9881 2.77784H26.9898C27.0791 2.77784 27.1681 2.7941 27.2576 2.83075C27.5536 2.94925 27.7427 3.28986 27.7721 3.63047C27.7757 3.67291 27.7777 3.71535 27.7777 3.75807C27.7779 4.06038 27.687 4.36875 27.5828 4.67271C26.936 6.5629 25.8737 8.31062 24.4936 9.75493C24.2869 9.97484 23.9898 10.1862 23.7548 10.1862H23.7476C23.6724 10.1859 23.6035 10.168 23.5349 10.1242C23.464 10.0782 23.418 10.02 23.3869 9.94811C23.3557 9.87618 23.3411 9.78965 23.3411 9.6943C23.3408 9.50139 23.4017 9.27652 23.4775 9.08775C23.7947 8.29354 24.1736 7.53239 24.5771 6.7751C24.7959 6.36421 25.0503 5.97151 25.3123 5.58185C25.5593 5.21285 25.7703 4.81656 26.0961 4.57075C26.1832 4.50323 26.2901 4.44949 26.3678 4.44949H26.3717C26.3987 4.44977 26.4221 4.45445 26.4455 4.46575C26.505 4.49248 26.5519 4.57488 26.5596 4.66306C26.5626 4.69503 26.5643 4.72755 26.5643 4.76062C26.5662 5.19218 26.3033 5.7166 26.0696 6.08257C25.7221 6.62959 25.317 7.05536 24.727 7.25323C24.6752 7.27059 24.6474 7.32653 24.6647 7.37834C24.6785 7.41995 24.7171 7.44613 24.7584 7.44613C24.7689 7.44613 24.7796 7.44448 24.7901 7.44089C25.4388 7.22374 25.8786 6.75388 26.2366 6.18867C26.4772 5.80699 26.7602 5.26741 26.7621 4.76062C26.7621 4.72149 26.7605 4.68263 26.7569 4.64433C26.7431 4.50736 26.6764 4.35993 26.532 4.28773C26.48 4.26237 26.4248 4.25163 26.3722 4.25163Z" fill="url(#paint0_linear_50_4888)"/>
<path fill-rule="evenodd" clip-rule="evenodd" d="M23.745 10.3838C23.637 10.3838 23.5268 10.3548 23.4267 10.2901C23.322 10.2228 23.2482 10.1294 23.2041 10.0258C23.1594 9.92189 23.1423 9.80862 23.1423 9.69371C23.1426 9.46084 23.2112 9.21834 23.2925 9.01386C23.6139 8.20944 23.9964 7.44196 24.4015 6.68136C24.6255 6.26055 24.8837 5.86234 25.1469 5.47075C25.3875 5.1158 25.6033 4.69665 25.9753 4.41252C26.0814 4.33316 26.2153 4.25269 26.3707 4.25104H26.3713C26.4239 4.25104 26.479 4.26178 26.5311 4.28714C26.6755 4.35934 26.7422 4.50677 26.756 4.64374C26.7596 4.68204 26.7612 4.7209 26.7612 4.76003C26.7593 5.26682 26.4763 5.8064 26.2357 6.18808C25.8777 6.75329 25.4379 7.22315 24.7892 7.4403C24.7787 7.44389 24.768 7.44554 24.7575 7.44554C24.7162 7.44554 24.6776 7.41936 24.6638 7.37775C24.6465 7.32594 24.6743 7.27 24.7261 7.25263C25.3161 7.05477 25.7212 6.629 26.0687 6.08198C26.3024 5.71601 26.5653 5.19158 26.5634 4.76003C26.5634 4.72696 26.5617 4.69444 26.5587 4.66247C26.551 4.57429 26.5041 4.49189 26.4446 4.46516C26.4212 4.45386 26.3978 4.44918 26.3707 4.4489H26.3669C26.2892 4.4489 26.1823 4.50264 26.0952 4.57016C25.7694 4.81597 25.5583 5.21226 25.3114 5.58126C25.0493 5.97092 24.795 6.36362 24.5762 6.77451C24.1727 7.53179 23.7938 8.29295 23.4766 9.08716C23.4008 9.27593 23.3399 9.5008 23.3402 9.69371C23.3402 9.78906 23.3548 9.87559 23.386 9.94752C23.4171 10.0194 23.4631 10.0776 23.5339 10.1236C23.6026 10.1674 23.6715 10.1853 23.7467 10.1856H23.7539C23.9889 10.1856 24.286 9.97425 24.4927 9.75433C25.8728 8.31003 26.9351 6.56231 27.5819 4.67212C27.6861 4.36816 27.777 4.05978 27.7767 3.75747C27.7767 3.71476 27.7748 3.67232 27.7712 3.62988C27.7417 3.28927 27.5527 2.94866 27.2567 2.83016C27.1672 2.7935 27.0782 2.77724 26.9889 2.77724H26.9872C26.7772 2.77724 26.5587 2.87039 26.3512 3.01727C26.1431 3.16416 25.9486 3.3623 25.7871 3.55713C24.2579 5.39965 23.0886 7.51554 21.9259 9.62344C21.908 9.65596 21.8741 9.67442 21.8391 9.67442C21.8232 9.67442 21.8066 9.67056 21.7915 9.66229C21.7435 9.63584 21.7262 9.57549 21.7526 9.52781C22.9153 7.41991 24.0898 5.29245 25.6347 3.43064C25.8039 3.22671 26.0084 3.01727 26.2368 2.85578C26.465 2.69484 26.7194 2.57965 26.9889 2.5791H26.9894C27.103 2.5791 27.2184 2.60032 27.332 2.64689C27.7203 2.80838 27.9327 3.21734 27.9683 3.61252C27.9727 3.66102 27.9746 3.70952 27.9746 3.75747C27.9743 4.09919 27.8746 4.42741 27.7693 4.73633C27.1132 6.65408 26.0359 8.42577 24.6357 9.8913C24.4067 10.1272 24.0901 10.3791 23.7467 10.3838H23.745Z" fill="url(#paint1_linear_50_4888)"/>
<path d="M28.0545 21.7548C28.1342 24.2664 18.2114 25.227 13.4709 24.5601C11.6174 24.2997 9.25456 23.9335 7.77168 22.9464C6.28906 21.9592 5.70263 20.3187 5.36009 18.5073C5.01727 16.6962 5.55437 14.5583 6.95127 13.0264C6.95127 13.0264 5.6048 18.6168 18.8813 18.894C26.7441 19.2404 28.0545 21.7548 28.0545 21.7548Z" fill="#DD127B"/>
<path d="M6.83823 22.122C5.99992 21.1654 5.62514 19.9041 5.36086 18.5069C5.36003 18.5036 5.35947 18.5 5.35892 18.4964C5.35947 18.5 5.36003 18.5033 5.36086 18.5069C5.62018 19.8785 6.01949 21.1522 6.84181 22.1184C6.84043 22.1175 6.83851 22.1167 6.83713 22.1159C6.83768 22.1178 6.83795 22.12 6.83823 22.122Z" fill="#E7E7E9"/>
<path d="M17.5067 24.179C12.8398 24.179 8.88411 23.2037 6.8418 22.1193C6.01948 21.1532 5.62017 19.8794 5.36085 18.5079C5.36002 18.5043 5.35946 18.501 5.35891 18.4974L5.35864 18.4971C5.34156 18.4054 5.32667 18.3131 5.314 18.2199C5.314 18.2194 5.31373 18.2183 5.31373 18.2183C5.31345 18.2155 5.31317 18.2127 5.31262 18.21C5.31262 18.2089 5.31235 18.2083 5.31235 18.2075C5.31207 18.2053 5.31179 18.2031 5.31152 18.2012C5.11696 16.7312 5.48238 15.0882 6.39344 13.7412C5.92165 14.8807 5.77862 16.0958 6.13494 17.1217C6.32482 17.6685 6.55328 18.1725 6.81618 18.6377C6.60013 18.6854 6.43836 18.878 6.43836 19.1087C6.43836 19.3751 6.65441 19.5909 6.92062 19.5909C7.07632 19.5909 7.21466 19.5171 7.30285 19.4027C8.00943 20.3926 8.88908 21.1736 9.88337 21.7853C9.86821 21.8319 9.86021 21.8818 9.86021 21.9333C9.86021 22.1998 10.076 22.4156 10.3425 22.4156C10.4905 22.4156 10.6227 22.3489 10.7112 22.2442C13.0726 23.4192 15.9265 23.7896 18.5914 23.7896C20.8619 23.7896 22.9948 23.5209 24.5692 23.2522C25.8179 23.0389 26.7151 22.8259 27.0508 22.7468C23.7871 23.778 20.5008 24.1793 17.5067 24.179Z" fill="#C91472"/>
<path d="M26.5383 15.4517C24.7302 14.1444 22.5722 13.763 20.2389 13.4419C17.9056 13.1206 15.5031 13.0385 13.1998 12.6215C12.0969 12.4218 10.9982 12.136 10.1251 11.5192C9.25184 10.9025 8.62683 9.90462 8.69903 8.76207C8.76324 7.74574 9.36537 6.73713 10.1318 5.93823C11.3531 4.66478 13.0336 3.82371 14.6857 3.65919C16.0448 3.52361 17.3707 3.84741 18.4035 4.54738C18.7469 4.78025 18.7204 5.30936 18.3509 5.61993C18.0753 5.85142 17.6912 5.88752 17.4616 5.68276C16.3251 4.67029 14.2762 5.79079 14.579 7.30427C14.8794 8.80589 16.9124 8.79542 18.0759 9.05529C19.4496 9.36174 20.8363 9.61747 22.1869 10.0195C24.6437 10.7509 27.262 12.1343 27.0379 15.0888C27.0217 15.3038 26.9903 15.5179 26.9498 15.7292L26.5383 15.4517Z" fill="#EF61A4"/>
<path d="M26.6442 15.0412C26.7999 12.8793 25.3046 11.3603 22.074 10.3988C21.0886 10.105 20.059 9.88569 19.0633 9.67349C18.7051 9.59716 18.3468 9.52082 17.9897 9.44118C17.7858 9.39571 17.546 9.35768 17.2922 9.31772C16.1094 9.1306 14.4896 8.87432 14.1908 7.38123C14.0759 6.80693 14.225 6.23152 14.6106 5.7611C15.0471 5.22896 15.741 4.89827 16.4216 4.89827C16.9158 4.89827 17.3666 5.0672 17.7251 5.3866C17.7563 5.4147 17.8023 5.42049 17.8354 5.42049C17.9211 5.42049 18.0183 5.38136 18.0963 5.31605C18.2154 5.21601 18.2534 5.09118 18.249 5.00768C18.2446 4.91756 18.1972 4.88532 18.1815 4.87485C17.3724 4.32617 16.3461 4.02441 15.2926 4.02441C15.1044 4.02441 14.9134 4.03406 14.7249 4.05252C13.1764 4.20712 11.566 5.01429 10.4176 6.21195C9.61625 7.04751 9.14611 7.96187 9.09458 8.78668C9.03698 9.69747 9.50767 10.5975 10.3537 11.1952C11.2058 11.7971 12.3064 12.0567 13.2707 12.2314C14.5982 12.4717 15.9912 12.6026 17.3388 12.7288C18.3094 12.82 19.3133 12.914 20.2927 13.049C22.5833 13.364 24.7926 13.7551 26.6442 15.0412Z" fill="#F17BB0"/>
<path d="M23.8323 13.914C22.8322 13.5632 21.782 13.3124 20.7599 13.1142C21.7224 13.2534 22.6674 13.416 23.5735 13.664C23.6631 13.7442 23.7493 13.8274 23.8323 13.914ZM12.8835 12.1569C12.8632 12.153 12.8425 12.1492 12.8221 12.145C11.8545 11.9596 10.9327 11.6586 10.2005 11.1579C10.0713 11.0022 9.90895 10.8719 9.72321 10.776C9.71577 10.7688 9.70834 10.7619 9.70117 10.7547C9.71936 10.7211 9.73727 10.6875 9.75574 10.6533C9.92577 10.8517 10.1258 11.0342 10.3532 11.1946C11.0931 11.7173 12.0207 11.9819 12.8835 12.1569Z" fill="#EF5CA1"/>
<path d="M23.5736 13.6643C22.6675 13.4163 21.7226 13.2537 20.76 13.1145C20.7426 13.1109 20.725 13.1076 20.7076 13.1043C18.1494 12.6116 15.4424 12.6391 12.8837 12.1571C12.0208 11.9821 11.0932 11.7176 10.3533 11.1948C10.126 11.0344 9.92589 10.852 9.75586 10.6536C10.0505 10.1035 10.3547 9.49312 10.541 9.02051C11.7736 10.459 14.409 10.8779 17.1 11.3618C17.0959 11.3866 17.094 11.412 17.094 11.4379C17.094 11.7041 17.3097 11.9201 17.5762 11.9201C17.8088 11.9201 18.0025 11.7556 18.0483 11.5368C20.1777 11.9444 22.2431 12.4732 23.5736 13.6643Z" fill="#F175AD"/>
<path d="M8.65954 8.62402C8.93429 10.8435 10.7763 11.7529 12.8219 12.1448C15.3988 12.6389 18.1287 12.6072 20.7073 13.1038C23.139 13.572 25.7388 14.3329 27.4443 16.0277C28.7517 17.3268 29.4346 19.7172 27.9624 22.2191C27.4617 21.8468 26.6361 21.1744 25.5679 20.6594C22.8708 19.3581 19.6408 19.2371 16.5835 18.8747C13.4979 18.509 8.95276 18.2971 7.29433 15.5187C6.26008 13.7851 6.68723 10.1645 8.65954 8.62402Z" fill="#ECEFD5"/>
<path d="M27.937 22.2453C27.7542 22.237 27.4048 21.8019 27.1268 21.6007C26.6379 21.2463 26.1162 20.9319 25.5684 20.6602C26.5935 21.1545 27.3952 21.7939 27.9009 22.1736C27.913 22.1971 27.9251 22.2213 27.937 22.2453Z" fill="#C91472"/>
<path d="M27.9012 22.1734C27.3955 21.7937 26.5938 21.1544 25.5687 20.66C22.8862 19.3289 19.6415 19.2377 16.5843 18.8753C16.5573 18.8723 16.53 18.869 16.5027 18.8657C13.419 18.5058 8.93892 18.2729 7.29509 15.5193C6.77149 14.6411 6.62626 13.2797 6.86326 11.9492C6.88778 11.9517 6.91204 11.9542 6.93657 11.9564C7.85562 14.7033 10.7991 15.7778 14.2347 16.5155C14.1986 16.5833 14.1779 16.6605 14.1779 16.7429C14.1779 17.0091 14.3937 17.2252 14.6602 17.2252C14.9267 17.2252 15.1425 17.0091 15.1425 16.7429C15.1425 16.7289 15.1419 16.7148 15.1405 16.701C17.3545 17.1359 19.7118 17.4828 21.8266 18.0767C21.782 18.1497 21.7563 18.2357 21.7563 18.3275C21.7563 18.5937 21.9721 18.8097 22.2386 18.8097C22.4979 18.8097 22.7096 18.605 22.7203 18.3484C24.9977 19.0991 26.903 20.2177 27.9012 22.1734Z" fill="#D9DCC8"/>
<path fill-rule="evenodd" clip-rule="evenodd" d="M20.1014 38.2991C19.4064 38.2966 18.7616 38.2625 18.1663 38.2049L19.0868 37.2844L20.1014 38.2991ZM21.586 38.1032L19.9267 36.4442L21.7764 34.5945L23.4817 36.2998C23.4514 36.4508 23.4205 36.6021 23.3902 36.7534C23.2915 37.2423 22.9449 37.6438 22.4758 37.8125C22.2027 37.9106 21.9056 38.0089 21.586 38.1032ZM16.6901 38.0012C16.5087 37.9684 16.3337 37.9334 16.1648 37.8968L14.7122 36.4445L16.4798 34.6772L18.2468 36.4442L16.6901 38.0012ZM19.0868 35.6042L17.3195 33.837L19.1692 31.9873L20.9364 33.7546L19.0868 35.6042ZM13.8725 35.6042L12.2331 33.9651C12.2282 33.9342 12.2235 33.9037 12.2191 33.8725L12.1794 33.598L13.7899 31.9873L15.6395 33.837L13.8725 35.6042ZM10.4339 35.4342C10.1134 33.8717 9.79288 32.3086 9.47266 30.7458C9.79315 32.3086 10.1134 33.8714 10.4339 35.4342ZM23.7655 34.904L22.6164 33.7546L24.3599 32.011C24.1618 32.9703 23.9637 33.9334 23.7655 34.904ZM16.4798 32.997L14.6301 31.1473L16.4798 29.2979L18.3292 31.1473L16.4798 32.997ZM21.7764 32.9149L20.0094 31.1473L21.8423 29.3142L23.6098 31.0815L21.7764 32.9149ZM11.9675 32.1298L11.6365 29.8339L12.9499 31.1473L11.9675 32.1298ZM19.1692 30.3076L18.1484 29.2866C18.8867 29.269 19.6021 29.2334 20.2935 29.1833L19.1692 30.3076ZM13.7899 30.3076L12.5506 29.0681C13.2875 29.1436 14.0555 29.2037 14.8536 29.2436L13.7899 30.3076ZM24.4495 30.2412L23.0989 28.8906C23.7898 28.7964 24.4479 28.69 25.0712 28.5762C24.9803 29.0152 24.8893 29.4539 24.7984 29.8926L24.4495 30.2412Z" fill="url(#paint2_linear_50_4888)"/>
<mask id="mask0_50_4888" style="mask-type:luminance" maskUnits="userSpaceOnUse" x="9" y="28" width="17" height="11">
<path d="M25.0712 28.5762C24.511 31.2818 23.9507 33.9764 23.3902 36.7537C23.2915 37.2425 22.9448 37.6441 22.4758 37.8127C21.2454 38.255 19.5282 38.7026 17.4531 38.7549C14.9917 38.8169 12.975 38.2986 11.6164 37.8102C11.1493 37.6427 10.8048 37.2445 10.705 36.7583C10.1451 34.0268 9.58537 31.2953 9.02539 28.5635C11.2978 28.9821 14.0417 29.3048 17.1563 29.2995C20.1767 29.2946 22.8465 28.9824 25.0712 28.5762Z" fill="white"/>
</mask>
<g mask="url(#mask0_50_4888)">
<path d="M23.4814 36.3001C23.5762 35.8327 23.6708 35.3675 23.7653 34.9042C23.6708 35.3678 23.5762 35.8327 23.4814 36.3001ZM24.3597 32.0112C24.5058 31.3038 24.6521 30.5983 24.7982 29.8929L24.7984 29.8926C24.6521 30.5981 24.5061 31.3035 24.36 32.0112H24.3597Z" fill="#FBCC9A"/>
<path fill-rule="evenodd" clip-rule="evenodd" d="M20.2405 38.438C20.4703 38.3912 20.6922 38.3408 20.906 38.2878C20.6577 38.2956 20.4155 38.2991 20.1788 38.2991H20.1016L19.0869 37.2845L18.1665 38.2049C17.6352 38.1536 17.143 38.0836 16.6902 38.0013L18.247 36.4442L16.4799 34.6772L14.7124 36.4445L16.165 37.8968C16.0228 37.8659 15.8847 37.834 15.751 37.8012C13.9143 37.349 12.5389 35.8267 12.2333 33.9651L13.8727 35.6043L15.6397 33.837L13.79 31.9873L12.1795 33.5981L11.9676 32.1298L12.9501 31.1473L11.6367 29.8339L11.5088 28.949C11.8486 28.9918 12.1961 29.0317 12.5508 29.0681L13.79 30.3077L14.8538 29.2436C15.5736 29.2797 16.3171 29.2996 17.0832 29.2996H17.119C17.1311 29.2996 17.1441 29.2996 17.1565 29.2993C17.4913 29.2988 17.8223 29.2946 18.1486 29.2866L19.1693 30.3077L20.2937 29.1833C21.2794 29.1119 22.2161 29.0111 23.0991 28.8906L24.4497 30.2412L24.7986 29.8926C24.6525 30.5981 24.5062 31.3036 24.3601 32.011L22.6165 33.7546L23.7657 34.904C23.6712 35.3673 23.5766 35.8324 23.4818 36.2998L21.7766 34.5946L19.9269 36.4442L21.5861 38.1032C21.1741 38.225 20.7247 38.3397 20.2405 38.438ZM19.1693 31.9873L17.3196 33.837L19.0869 35.6043L20.9366 33.7546L19.1693 31.9873ZM16.4799 29.2979L14.6303 31.1473L16.4799 32.997L18.3294 31.1473L16.4799 29.2979ZM21.8424 29.3142L20.0096 31.1473L21.7766 32.9149L23.61 31.0815L21.8424 29.3142Z" fill="url(#paint3_linear_50_4888)"/>
</g>
<path d="M17.0516 38.7591C14.772 38.7591 12.9003 38.271 11.6164 37.8094C11.1493 37.6419 10.8048 37.2436 10.705 36.7575C10.6147 36.316 10.5243 35.8751 10.4339 35.4337C10.5243 35.8751 10.6147 36.3163 10.705 36.7575C10.8048 37.2436 11.1493 37.6419 11.6164 37.8094C11.6288 37.8138 11.6412 37.8182 11.6533 37.8226C12.0322 37.9579 12.461 38.0946 12.9356 38.2206C13.6162 38.4013 14.3903 38.5593 15.2452 38.6565C15.8129 38.7213 16.4164 38.7591 17.0516 38.7591ZM17.4531 38.7541C17.5096 38.7527 17.5656 38.7511 17.6215 38.7489C18.4758 38.7183 19.2675 38.6213 19.9879 38.4868C19.2207 38.6304 18.3719 38.7309 17.4531 38.7541ZM19.992 38.486C19.9929 38.486 19.994 38.4857 19.9948 38.4854C19.9937 38.4857 19.9929 38.486 19.992 38.486ZM9.47265 30.7452C9.32356 30.018 9.17448 29.2905 9.02539 28.5635C9.09125 28.8848 9.15711 29.2059 9.22297 29.5272C9.3062 29.9331 9.38943 30.3393 9.47265 30.7452Z" fill="#E0E0DF"/>
<path fill-rule="evenodd" clip-rule="evenodd" d="M17.6215 38.7489L18.1663 38.2043C18.7616 38.2619 19.4064 38.2961 20.1014 38.2986L20.2403 38.4375C20.1596 38.454 20.0775 38.47 19.9948 38.4854C19.994 38.4857 19.9929 38.486 19.992 38.486C19.9906 38.4862 19.9893 38.4865 19.9879 38.4868C19.2675 38.6213 18.4758 38.7183 17.6215 38.7489ZM15.2452 38.6565C14.3903 38.5593 13.6162 38.4013 12.9356 38.2206L13.8725 37.2839L15.2452 38.6565ZM16.4798 38.2109L16.1648 37.8962C16.3337 37.9329 16.5087 37.9679 16.69 38.0007L16.4798 38.2109ZM11.6533 37.8226C11.6412 37.8182 11.6288 37.8138 11.6164 37.8094C11.1493 37.6419 10.8048 37.2436 10.705 36.7575C10.6147 36.3163 10.5243 35.8751 10.4339 35.4337C10.1134 33.8708 9.79315 32.308 9.47265 30.7452C9.48478 30.8039 9.49663 30.8626 9.50875 30.9213L11.1168 29.3136L11.6365 29.8333L11.9675 32.1292L11.1826 32.9143L9.59115 31.3228C9.73555 32.0272 9.87968 32.7313 10.0241 33.4357L10.3427 33.754L10.1324 33.9643C10.2277 34.4292 10.3231 34.8938 10.4184 35.3584L11.1826 34.5942L13.0323 36.4439L11.6533 37.8226ZM12.2331 33.9645L12.0229 33.754L12.1794 33.5975L12.2191 33.8719C12.2235 33.9031 12.2282 33.9337 12.2331 33.9645ZM9.22297 29.5272C9.15711 29.2059 9.09125 28.8848 9.02539 28.5635C9.34644 28.6227 9.67686 28.6798 10.0161 28.7341L9.22297 29.5272Z" fill="url(#paint4_linear_50_4888)"/>
<path d="M17.0513 38.7592C16.4161 38.7592 15.8126 38.7215 15.2449 38.6567C15.8128 38.7215 16.4161 38.7592 17.0513 38.7592Z" fill="#DDB68B"/>
<path fill-rule="evenodd" clip-rule="evenodd" d="M17.0513 38.7594C16.4161 38.7594 15.8128 38.7216 15.2449 38.6568L13.8722 37.2842L12.9353 38.2209C12.4607 38.0949 12.0319 37.958 11.653 37.8229L13.032 36.4442L11.1823 34.5945L10.4181 35.3587C10.3228 34.8941 10.2274 34.4295 10.1321 33.9646L10.3423 33.7543L10.0238 33.436C9.87936 32.7316 9.73523 32.0275 9.59083 31.3232L11.1823 32.9146L11.9671 32.1295L12.1791 33.5978L12.0225 33.7543L12.2328 33.9648C12.5384 35.8264 13.9138 37.3487 15.7506 37.8009C15.8842 37.8337 16.0223 37.8657 16.1645 37.8965L16.4795 38.2112L16.6897 38.001C17.1425 38.0834 17.6347 38.1534 18.166 38.2046L17.6212 38.7492C17.5652 38.7514 17.5093 38.753 17.4528 38.7544C17.436 38.7549 17.4189 38.7552 17.4021 38.7555C17.2841 38.7583 17.167 38.7594 17.0513 38.7594ZM20.24 38.4378L20.1011 38.2989H20.1783C20.415 38.2989 20.6572 38.2953 20.9055 38.2876C20.6917 38.3405 20.4698 38.3909 20.24 38.4378ZM9.50844 30.9216C9.49631 30.8629 9.48446 30.8042 9.47233 30.7455C9.38911 30.3393 9.30588 29.9337 9.22266 29.5275L10.0158 28.7344C10.4956 28.8115 10.9932 28.8837 11.5083 28.9488L11.6362 29.8337L11.1164 29.3139L9.50844 30.9216Z" fill="url(#paint5_linear_50_4888)"/>
<path fill-rule="evenodd" clip-rule="evenodd" d="M17.0829 29.2994C16.3168 29.2994 15.5733 29.2796 14.8535 29.2435C14.0554 29.2035 13.2874 29.1435 12.5505 29.0679C12.1958 29.0316 11.8483 28.9916 11.5085 28.9489C10.9935 28.8839 10.4958 28.8117 10.016 28.7345C9.67675 28.6802 9.34633 28.6232 9.02528 28.5639C8.92993 28.5463 8.83568 28.5284 8.74199 28.5107C8.72352 28.5071 8.70506 28.5036 8.6866 28.5C8.26083 28.4181 7.93096 28.0822 7.8527 27.6564C7.51456 25.8114 7.17643 23.9667 6.83802 22.1223C6.83774 22.1203 6.83747 22.1181 6.83691 22.1162C6.83829 22.117 6.84022 22.1179 6.8416 22.1187C8.88391 23.2031 12.8396 24.1784 17.5065 24.1784C20.5006 24.1786 23.7869 23.7774 27.0506 22.7462C27.1074 22.728 27.1641 22.7101 27.2212 22.6916C27.203 22.7911 27.1848 22.8906 27.1663 22.9903C26.8811 24.5454 26.5962 26.1008 26.3107 27.6564C26.2327 28.0822 25.9025 28.4181 25.477 28.5C25.3434 28.5259 25.2081 28.551 25.0711 28.576C24.4477 28.6899 23.7897 28.7962 23.0988 28.8905C22.2158 29.0109 21.2791 29.1118 20.2934 29.1831C19.602 29.2333 18.8866 29.2688 18.1483 29.2865C17.822 29.2945 17.4911 29.2986 17.1562 29.2992C17.1438 29.2994 17.1309 29.2994 17.1187 29.2994H17.0829ZM7.78987 27.3111C10.83 27.9891 13.9496 28.3313 17.0895 28.3313H17.2306C20.3168 28.3211 23.3837 27.9797 26.3732 27.315C26.4297 27.0039 26.481 26.7208 26.5284 26.456C23.4918 27.1574 20.3697 27.5178 17.2279 27.528H17.1146C13.9143 27.528 10.7328 27.1684 7.63885 26.453C7.68625 26.7275 7.73613 27.0119 7.78987 27.3111ZM7.35362 24.7496C10.5305 25.5579 13.7983 25.9669 17.0884 25.9669C17.1356 25.9669 17.1824 25.9669 17.2295 25.9666C20.475 25.955 23.6985 25.5458 26.831 24.7485C26.8811 24.4647 26.9329 24.172 26.99 23.8532C23.8095 24.6959 20.5298 25.1286 17.2265 25.1401H17.0992C13.7534 25.1401 10.4294 24.71 7.20509 23.8573C7.25634 24.1613 7.30512 24.4561 7.35362 24.7496Z" fill="url(#paint6_linear_50_4888)"/>
<mask id="mask1_50_4888" style="mask-type:luminance" maskUnits="userSpaceOnUse" x="6" y="22" width="22" height="8">
<path d="M7.85304 27.6568C7.9313 28.0826 8.26117 28.4185 8.68694 28.5004C11.023 28.9493 13.886 29.3051 17.1566 29.2996C20.3626 29.2943 23.1744 28.9427 25.4774 28.5004C25.9029 28.4185 26.233 28.0826 26.311 27.6568C26.6918 25.5803 26.8252 24.742 27.2055 22.6661C24.2353 23.6563 21.0083 24.1195 16.8592 24.1016C12.9066 24.0851 9.63189 23.3096 6.90918 22.1709C7.28975 24.2468 7.47247 25.5803 7.85304 27.6568Z" fill="white"/>
</mask>
<g mask="url(#mask1_50_4888)">
<path fill-rule="evenodd" clip-rule="evenodd" d="M17.0894 25.9672C13.7993 25.9672 10.5315 25.5582 7.35459 24.75C7.30609 24.4565 7.25731 24.1616 7.20605 23.8576C10.4303 24.7103 13.7544 25.1405 17.1001 25.1405H17.2275C20.5308 25.1289 23.8105 24.6962 26.9909 23.8535C26.9339 24.1724 26.8821 24.465 26.8319 24.7489C23.6994 25.5461 20.476 25.9554 17.2305 25.9669C17.1834 25.9672 17.1365 25.9672 17.0894 25.9672Z" fill="url(#paint7_linear_50_4888)"/>
<path fill-rule="evenodd" clip-rule="evenodd" d="M17.2305 28.3315H17.0894C13.9494 28.3315 10.8299 27.9892 7.78969 27.3113C7.73595 27.012 7.68607 26.7276 7.63867 26.4531C10.7326 27.1685 13.9141 27.5282 17.1144 27.5282H17.2277C20.3696 27.518 23.4916 27.1575 26.5282 26.4562C26.4808 26.721 26.4295 27.004 26.373 27.3151C23.3836 27.9798 20.3167 28.3213 17.2305 28.3315Z" fill="url(#paint8_linear_50_4888)"/>
</g>
<path fill-rule="evenodd" clip-rule="evenodd" d="M18.8438 32.8037C19.1106 32.8037 19.3115 33.0616 19.231 33.3163C18.9221 34.2935 18.0091 35.0023 16.9297 35.0023C15.8502 35.0023 14.9372 34.2935 14.6283 33.3163C14.5478 33.0616 14.7485 32.8037 15.0155 32.8037C15.5262 32.9156 16.1823 33.0126 16.9479 33.0109C17.6966 33.0096 18.3401 32.9142 18.8438 32.8037Z" fill="#410F06"/>
<path d="M19.6438 31.6693C19.8077 31.6693 19.9406 31.5365 19.9406 31.3725C19.9406 31.0476 20.2048 30.7833 20.5297 30.7833C20.8544 30.7833 21.1187 31.0476 21.1187 31.3725C21.1187 31.5365 21.2518 31.6693 21.416 31.6693C21.5797 31.6693 21.7128 31.5365 21.7128 31.3725C21.7128 30.7202 21.182 30.1895 20.5297 30.1895C19.8777 30.1895 19.3467 30.7202 19.3467 31.3725C19.3467 31.5365 19.4795 31.6693 19.6438 31.6693Z" fill="#410F06"/>
<path d="M12.5874 31.6693C12.7511 31.6693 12.8845 31.5365 12.8845 31.3725C12.8845 31.0476 13.1485 30.7833 13.4731 30.7833C13.798 30.7833 14.0623 31.0476 14.0623 31.3725C14.0623 31.5365 14.1951 31.6693 14.3594 31.6693C14.5233 31.6693 14.6562 31.5365 14.6562 31.3725C14.6562 30.7202 14.1257 30.1895 13.4731 30.1895C12.8211 30.1895 12.29 30.7202 12.29 31.3725C12.29 31.5365 12.4234 31.6693 12.5874 31.6693Z" fill="#410F06"/>
<path fill-rule="evenodd" clip-rule="evenodd" d="M19.7695 33.7142C19.7695 34.0813 20.3292 34.3786 21.0196 34.3786C21.7099 34.3786 22.2693 34.0813 22.2693 33.7142C22.2693 33.3472 21.7099 33.0498 21.0196 33.0498C20.3292 33.0498 19.7695 33.3472 19.7695 33.7142Z" fill="#DD127B"/>
<path fill-rule="evenodd" clip-rule="evenodd" d="M11.415 33.7142C11.415 34.0813 11.9745 34.3786 12.6648 34.3786C13.3551 34.3786 13.9148 34.0813 13.9148 33.7142C13.9148 33.3472 13.3551 33.0498 12.6648 33.0498C11.9745 33.0498 11.415 33.3472 11.415 33.7142Z" fill="#DD127B"/>
<path fill-rule="evenodd" clip-rule="evenodd" d="M15.7471 34.225C16.0342 33.9351 16.4324 33.7549 16.8728 33.7549C17.3369 33.7549 17.753 33.9558 18.0424 34.2735C17.7208 34.4857 17.338 34.6072 16.9301 34.6072C16.492 34.6072 16.0813 34.4678 15.7471 34.225Z" fill="#DD127B"/>
<path d="M9.70767 3.40149C8.2121 2.43394 6.09373 2.97737 5.56269 4.76698C5.56269 4.76698 5.41691 5.25861 5.35298 5.47411C5.13775 5.41018 4.64502 5.26412 4.64502 5.26412C2.85569 4.73336 1.24465 6.21266 1.24024 7.99373C1.23776 8.93758 1.67566 9.86325 2.37094 10.5018C3.16488 11.2304 4.27932 11.4638 5.29538 11.7124C6.39935 11.983 8.83353 12.1062 8.92529 12.067L8.92557 12.0673L8.93026 12.0648C9.01017 12.0147 10.2373 9.90293 10.6132 8.82818C10.9588 7.84106 11.3708 6.7798 11.193 5.7169C11.0373 4.78572 10.5002 3.91407 9.70767 3.40149Z" fill="#DD127B"/>
<path d="M8.25765 10.2451C8.03691 10.2451 7.81645 10.1335 7.6952 9.90997L5.8254 6.46331C5.74438 6.31395 5.72619 6.13868 5.77469 5.97581L5.95299 5.37423C6.08775 4.92145 6.37352 4.5654 6.77973 4.34466C7.06192 4.19172 7.38076 4.11621 7.70318 4.11621C8.09643 4.11621 8.49492 4.22865 8.83802 4.45049C9.39551 4.81122 9.79786 5.44092 9.91387 6.1351C10.0379 6.87392 9.76175 7.65767 9.49444 8.41523L9.4363 8.58086C9.31118 8.93883 9.0706 9.43542 8.82561 9.9017C8.70546 10.1304 8.48169 10.2451 8.25765 10.2451Z" fill="#E63193"/>
<path d="M1.30086 7.40524C1.30141 7.40304 1.30169 7.40083 1.30224 7.3989C1.30169 7.40111 1.30141 7.40304 1.30086 7.40524Z" fill="#F49DC3"/>
<path d="M7.41539 11.9999C6.68511 11.9407 5.85314 11.8461 5.31824 11.718C5.31053 11.7164 5.30281 11.7144 5.29537 11.7125C4.27931 11.4639 3.16487 11.2305 2.37093 10.5019C1.67703 9.86474 1.23941 8.94128 1.24024 7.99935V7.96656C1.24244 7.78164 1.262 7.60031 1.297 7.42394L1.29728 7.42339C1.29838 7.41816 1.29948 7.41292 1.30031 7.40768C1.30058 7.40686 1.30059 7.40631 1.30086 7.40576C1.30141 7.40355 1.30169 7.40162 1.30224 7.39942C1.30224 7.39886 1.30224 7.39831 1.30252 7.39776C1.30307 7.39556 1.30334 7.39308 1.30389 7.39088C1.30417 7.38977 1.30445 7.38867 1.30472 7.38757C1.305 7.38619 1.3061 7.38123 1.30637 7.37985C1.30692 7.37627 1.30775 7.37268 1.30858 7.3691C1.30885 7.36855 1.30885 7.368 1.30913 7.36745C1.4855 6.56469 1.98816 5.87767 2.6625 5.49048C2.05705 5.97137 1.66463 6.74244 1.66545 7.58957C1.66628 8.46039 2.0711 9.31551 2.71182 9.90635C3.44293 10.5812 4.46698 10.8001 5.40037 11.0326C5.95814 11.1718 6.88435 11.271 7.61959 11.3264C7.49696 11.5259 7.42366 11.7552 7.41539 11.9999ZM9.69718 10.7634C9.54451 10.6882 9.37641 10.6355 9.19866 10.6113C9.57152 9.94493 10.0667 8.99116 10.2745 8.38957C10.5884 7.48016 10.9635 6.50241 10.7967 5.52135C10.6507 4.66238 10.1546 3.85631 9.42546 3.38121C8.9691 3.08359 8.45019 2.93973 7.94313 2.93973C7.90179 2.93973 7.86045 2.94083 7.81939 2.94276C7.91419 2.93339 8.00982 2.92871 8.10599 2.92871C8.56345 2.92871 9.02918 3.03591 9.45688 3.25637C9.54203 3.30019 9.62581 3.34869 9.70766 3.4016C10.5002 3.91418 11.0373 4.78583 11.193 5.71701C11.2225 5.89366 11.2357 6.07003 11.2357 6.24585C11.236 7.13018 10.9015 8.00514 10.6132 8.82829C10.592 8.88947 10.5677 8.95396 10.5413 9.0212C10.355 9.49381 10.0508 10.1042 9.75616 10.6543C9.73632 10.6909 9.71674 10.7273 9.69718 10.7634Z" fill="#C31861"/>
<path d="M9.26954 4.07387C9.10089 4.07387 8.25761 3.79388 8.16805 3.68751L8.16502 3.68365C8.12176 3.63239 8.11238 3.56212 8.17962 3.51279L8.18018 3.51251C8.25982 3.48689 8.34249 3.47559 8.42544 3.47559C8.88207 3.47559 9.34808 3.8151 9.38143 3.92809C9.39879 3.98817 9.36434 4.05127 9.30399 4.06891L9.28772 4.07222L9.28249 4.07304C9.27891 4.07359 9.2745 4.07387 9.26954 4.07387Z" fill="#F49AC1"/>
<path d="M10.2681 6.964C10.2493 6.964 10.2303 6.95905 10.2138 6.94885L10.1755 6.89649L10.1752 6.89539C10.2457 6.42415 10.4337 5.73024 9.49975 4.4973L9.49892 4.49372C9.48817 4.44274 9.52538 4.39286 9.58214 4.38184L9.62734 4.38211C9.91918 4.44384 10.146 4.60781 10.3199 4.80347C10.496 4.99996 10.6001 5.24109 10.6591 5.48801C10.7197 5.7352 10.7222 6.00251 10.6679 6.2464C10.6125 6.49221 10.5086 6.72205 10.3491 6.92597C10.3298 6.95078 10.2989 6.964 10.2681 6.964Z" fill="#F49AC1"/>
<path d="M10.5259 12.0462C10.5259 12.8476 9.82923 13.4977 8.9697 13.4977C8.11072 13.4977 7.41406 12.8476 7.41406 12.0462C7.41406 11.2448 8.11072 10.5947 8.9697 10.5947C9.82923 10.5947 10.5259 11.2448 10.5259 12.0462Z" fill="#ECEFD5"/>
<path d="M13.5575 10.0602C13.291 10.0602 13.0752 9.84417 13.0752 9.57797C13.0752 9.31148 13.291 9.0957 13.5575 9.0957C13.8239 9.0957 14.0397 9.31148 14.0397 9.57797C14.0397 9.84417 13.8239 10.0602 13.5575 10.0602Z" fill="#D85EA3"/>
<path d="M14.0397 9.3016C14.0397 9.56781 13.8239 9.78386 13.5575 9.78386C13.291 9.78386 13.0752 9.56781 13.0752 9.3016C13.0752 9.03511 13.291 8.81934 13.5575 8.81934C13.8239 8.81934 14.0397 9.03511 14.0397 9.3016Z" fill="#ECEFD5"/>
<path d="M18.0489 11.5372C17.733 11.4769 17.4167 11.419 17.1006 11.3623C17.137 11.1319 17.3362 10.9561 17.5768 10.9561C17.8433 10.9561 18.059 11.1718 18.059 11.4383C18.059 11.4722 18.0555 11.5053 18.0489 11.5372Z" fill="#D85EA3"/>
<path d="M17.576 11.9197C17.3095 11.9197 17.0938 11.7036 17.0938 11.4374C17.0938 11.4115 17.0957 11.3861 17.0998 11.3613C17.4159 11.4181 17.7323 11.476 18.0481 11.5363C18.0023 11.7551 17.8086 11.9197 17.576 11.9197Z" fill="#CB589B"/>
<path d="M18.0583 11.1619C18.0583 11.4282 17.8425 11.6442 17.576 11.6442C17.3095 11.6442 17.0938 11.4282 17.0938 11.1619C17.0938 10.8955 17.3095 10.6797 17.576 10.6797C17.8425 10.6797 18.0583 10.8955 18.0583 11.1619Z" fill="#ECEFD5"/>
<path d="M13.7411 6.08757C13.4748 6.08757 13.2588 5.87179 13.2588 5.60531C13.2588 5.33882 13.4748 5.12305 13.7411 5.12305C14.0075 5.12305 14.2233 5.33882 14.2233 5.60531C14.2233 5.87179 14.0075 6.08757 13.7411 6.08757Z" fill="#D85EA3"/>
<path d="M14.2233 5.32992C14.2233 5.5964 14.0075 5.81218 13.7411 5.81218C13.4748 5.81218 13.2588 5.5964 13.2588 5.32992C13.2588 5.06343 13.4748 4.84766 13.7411 4.84766C14.0075 4.84766 14.2233 5.06343 14.2233 5.32992Z" fill="#ECEFD5"/>
<path d="M7.30308 19.4023C7.13029 19.16 6.96742 18.9049 6.81641 18.6373C6.85003 18.6298 6.88502 18.626 6.92085 18.626C7.18733 18.626 7.40311 18.8418 7.40311 19.1082C7.40311 19.219 7.36591 19.321 7.30308 19.4023Z" fill="#A21560"/>
<path d="M6.92074 19.5899C6.65453 19.5899 6.43848 19.3742 6.43848 19.1077C6.43848 18.877 6.60024 18.6844 6.8163 18.6367C6.96731 18.9043 7.13018 19.1595 7.30296 19.4017C7.21478 19.5161 7.07644 19.5899 6.92074 19.5899Z" fill="#961259"/>
<path d="M7.403 18.8328C7.403 19.0993 7.18722 19.3151 6.92074 19.3151C6.65453 19.3151 6.43848 19.0993 6.43848 18.8328C6.43848 18.5664 6.65453 18.3506 6.92074 18.3506C7.18722 18.3506 7.403 18.5664 7.403 18.8328Z" fill="#ECEFD5"/>
<path d="M10.7116 22.2443C10.4283 22.1032 10.1517 21.9505 9.88379 21.7854C9.94607 21.5914 10.1279 21.4512 10.3429 21.4512C10.6094 21.4512 10.8252 21.6669 10.8252 21.9334C10.8252 22.0519 10.7824 22.1602 10.7116 22.2443Z" fill="#A21560"/>
<path d="M10.3426 22.4144C10.0761 22.4144 9.86035 22.1987 9.86035 21.9322C9.86035 21.8806 9.86835 21.8308 9.8835 21.7842C10.1514 21.9493 10.428 22.1019 10.7113 22.243C10.6229 22.3477 10.4906 22.4144 10.3426 22.4144Z" fill="#961259"/>
<path d="M10.8249 21.6571C10.8249 21.9236 10.6091 22.1393 10.3426 22.1393C10.0761 22.1393 9.86035 21.9236 9.86035 21.6571C9.86035 21.3906 10.0761 21.1748 10.3426 21.1748C10.6091 21.1748 10.8249 21.3906 10.8249 21.6571Z" fill="#ECEFD5"/>
<path d="M17.9666 20.8766C17.7002 20.8766 17.4844 20.6606 17.4844 20.3944C17.4844 20.1279 17.7002 19.9121 17.9666 19.9121C18.2331 19.9121 18.4489 20.1279 18.4489 20.3944C18.4489 20.6606 18.2331 20.8766 17.9666 20.8766Z" fill="#A21560"/>
<path d="M18.4489 20.119C18.4489 20.3852 18.2331 20.6012 17.9666 20.6012C17.7002 20.6012 17.4844 20.3852 17.4844 20.119C17.4844 19.8525 17.7002 19.6367 17.9666 19.6367C18.2331 19.6367 18.4489 19.8525 18.4489 20.119Z" fill="#ECEFD5"/>
<path d="M16.0145 23.0583C15.7483 23.0583 15.5322 22.8425 15.5322 22.576C15.5322 22.3098 15.7483 22.0938 16.0145 22.0938C16.281 22.0938 16.4968 22.3098 16.4968 22.576C16.4968 22.8425 16.281 23.0583 16.0145 23.0583Z" fill="#A21560"/>
<path d="M16.4968 22.2996C16.4968 22.5661 16.281 22.7819 16.0145 22.7819C15.7483 22.7819 15.5322 22.5661 15.5322 22.2996C15.5322 22.0334 15.7483 21.8174 16.0145 21.8174C16.281 21.8174 16.4968 22.0334 16.4968 22.2996Z" fill="#ECEFD5"/>
<path d="M9.97543 14.2858C9.70894 14.2858 9.49316 14.07 9.49316 13.8036C9.49316 13.5371 9.70894 13.3213 9.97543 13.3213C10.2419 13.3213 10.4577 13.5371 10.4577 13.8036C10.4577 14.07 10.2419 14.2858 9.97543 14.2858Z" fill="#ADB2A7"/>
<path d="M10.4577 13.5282C10.4577 13.7946 10.2419 14.0104 9.97543 14.0104C9.70894 14.0104 9.49316 13.7946 9.49316 13.5282C9.49316 13.2617 9.70894 13.0459 9.97543 13.0459C10.2419 13.0459 10.4577 13.2617 10.4577 13.5282Z" fill="#DD127B"/>
<path d="M15.1402 16.7011C14.8351 16.6413 14.5331 16.5799 14.2344 16.5156C14.3157 16.3638 14.4758 16.2607 14.6599 16.2607C14.9123 16.2607 15.1193 16.4545 15.1402 16.7011Z" fill="#ADB2A7"/>
<path d="M14.66 17.2252C14.3935 17.2252 14.1777 17.0092 14.1777 16.743C14.1777 16.6606 14.1984 16.5834 14.2345 16.5156C14.5332 16.5798 14.8353 16.6413 15.1403 16.7011C15.1417 16.7149 15.1423 16.7289 15.1423 16.743C15.1423 17.0092 14.9265 17.2252 14.66 17.2252Z" fill="#9FA59C"/>
<path d="M15.1423 16.4676C15.1423 16.7338 14.9265 16.9499 14.66 16.9499C14.3935 16.9499 14.1777 16.7338 14.1777 16.4676C14.1777 16.2011 14.3935 15.9854 14.66 15.9854C14.9265 15.9854 15.1423 16.2011 15.1423 16.4676Z" fill="#F17BB0"/>
<path d="M16.7957 14.5612C16.5293 14.5612 16.3135 14.3454 16.3135 14.0789C16.3135 13.8125 16.5293 13.5967 16.7957 13.5967C17.0622 13.5967 17.278 13.8125 17.278 14.0789C17.278 14.3454 17.0622 14.5612 16.7957 14.5612Z" fill="#ADB2A7"/>
<path d="M17.278 13.8036C17.278 14.07 17.0622 14.2858 16.7957 14.2858C16.5293 14.2858 16.3135 14.07 16.3135 13.8036C16.3135 13.5371 16.5293 13.3213 16.7957 13.3213C17.0622 13.3213 17.278 13.5371 17.278 13.8036Z" fill="#DD127B"/>
<path d="M26.3377 18.695C26.0712 18.695 25.8555 18.4792 25.8555 18.2127C25.8555 17.9462 26.0712 17.7305 26.3377 17.7305C26.6042 17.7305 26.82 17.9462 26.82 18.2127C26.82 18.4792 26.6042 18.695 26.3377 18.695Z" fill="#ADB2A7"/>
<path d="M26.82 17.9373C26.82 18.2038 26.6042 18.4196 26.3377 18.4196C26.0712 18.4196 25.8555 18.2038 25.8555 17.9373C25.8555 17.6709 26.0712 17.4551 26.3377 17.4551C26.6042 17.4551 26.82 17.6709 26.82 17.9373Z" fill="#DD127B"/>
<path d="M22.7199 18.3489C22.428 18.2527 22.129 18.1623 21.8262 18.0772C21.9108 17.9383 22.0637 17.8457 22.2382 17.8457C22.5046 17.8457 22.7204 18.0615 22.7204 18.328C22.7204 18.3349 22.7202 18.342 22.7199 18.3489Z" fill="#ADB2A7"/>
<path d="M22.2391 18.8092C21.9726 18.8092 21.7568 18.5932 21.7568 18.3269C21.7568 18.2352 21.7825 18.1492 21.8271 18.0762C22.13 18.1613 22.429 18.2517 22.7208 18.3479C22.7101 18.6045 22.4984 18.8092 22.2391 18.8092Z" fill="#9FA59C"/>
<path d="M22.7214 18.0516C22.7214 18.3178 22.5056 18.5339 22.2391 18.5339C21.9726 18.5339 21.7568 18.3178 21.7568 18.0516C21.7568 17.7851 21.9726 17.5693 22.2391 17.5693C22.5056 17.5693 22.7214 17.7851 22.7214 18.0516Z" fill="#F17BB0"/>
<path d="M22.4217 15.9391C22.1555 15.9391 21.9395 15.7234 21.9395 15.4569C21.9395 15.1904 22.1555 14.9746 22.4217 14.9746C22.6882 14.9746 22.904 15.1904 22.904 15.4569C22.904 15.7234 22.6882 15.9391 22.4217 15.9391Z" fill="#ADB2A7"/>
<path d="M22.904 15.1805C22.904 15.447 22.6882 15.6628 22.4217 15.6628C22.1555 15.6628 21.9395 15.447 21.9395 15.1805C21.9395 14.914 22.1555 14.6982 22.4217 14.6982C22.6882 14.6982 22.904 14.914 22.904 15.1805Z" fill="#F17BB0"/>
<path d="M11.9959 19.9352C11.7294 19.9352 11.5137 19.7194 11.5137 19.453C11.5137 19.1865 11.7294 18.9707 11.9959 18.9707C12.2624 18.9707 12.4782 19.1865 12.4782 19.453C12.4782 19.7194 12.2624 19.9352 11.9959 19.9352Z" fill="#A21560"/>
<path d="M12.4782 19.1776C12.4782 19.4441 12.2624 19.6598 11.9959 19.6598C11.7294 19.6598 11.5137 19.4441 11.5137 19.1776C11.5137 18.9111 11.7294 18.6953 11.9959 18.6953C12.2624 18.6953 12.4782 18.9111 12.4782 19.1776Z" fill="#ECEFD5"/>
<path d="M23.3641 22.6676C23.0976 22.6676 22.8818 22.4516 22.8818 22.1854C22.8818 21.9189 23.0976 21.7031 23.3641 21.7031C23.6306 21.7031 23.8464 21.9189 23.8464 22.1854C23.8464 22.4516 23.6306 22.6676 23.3641 22.6676Z" fill="#A21560"/>
<path d="M23.8464 21.909C23.8464 22.1752 23.6306 22.3913 23.3641 22.3913C23.0976 22.3913 22.8818 22.1752 22.8818 21.909C22.8818 21.6425 23.0976 21.4268 23.3641 21.4268C23.6306 21.4268 23.8464 21.6425 23.8464 21.909Z" fill="#ECEFD5"/>
<defs>
<linearGradient id="paint0_linear_50_4888" x1="22.5579" y1="10.8889" x2="27.2188" y2="18.6239" gradientUnits="userSpaceOnUse">
<stop stop-color="#FAAB53"/>
<stop offset="1" stop-color="#F8992C"/>
</linearGradient>
<linearGradient id="paint1_linear_50_4888" x1="22.557" y1="10.8883" x2="27.2179" y2="18.6234" gradientUnits="userSpaceOnUse">
<stop stop-color="#F58030"/>
<stop offset="1" stop-color="#F37422"/>
</linearGradient>
<linearGradient id="paint2_linear_50_4888" x1="17.0519" y1="38.9525" x2="17.0519" y2="51.0316" gradientUnits="userSpaceOnUse">
<stop stop-color="#FAAB53"/>
<stop offset="1" stop-color="#F8992C"/>
</linearGradient>
<linearGradient id="paint3_linear_50_4888" x1="17.052" y1="38.9525" x2="17.052" y2="51.0316" gradientUnits="userSpaceOnUse">
<stop stop-color="#F79238"/>
<stop offset="1" stop-color="#EB8022"/>
</linearGradient>
<linearGradient id="paint4_linear_50_4888" x1="17.0519" y1="38.952" x2="17.0519" y2="51.0311" gradientUnits="userSpaceOnUse">
<stop stop-color="#F9A245"/>
<stop offset="1" stop-color="#DB8A2B"/>
</linearGradient>
<linearGradient id="paint5_linear_50_4888" x1="17.0516" y1="38.9523" x2="17.0516" y2="51.0314" gradientUnits="userSpaceOnUse">
<stop stop-color="#EE882A"/>
<stop offset="1" stop-color="#D27427"/>
</linearGradient>
<linearGradient id="paint6_linear_50_4888" x1="17.0289" y1="28.3255" x2="17.0289" y2="34.4001" gradientUnits="userSpaceOnUse">
<stop stop-color="#FAAB53"/>
<stop offset="1" stop-color="#F8992C"/>
</linearGradient>
<linearGradient id="paint7_linear_50_4888" x1="17.0299" y1="28.3259" x2="17.0299" y2="34.4004" gradientUnits="userSpaceOnUse">
<stop stop-color="#F7943D"/>
<stop offset="1" stop-color="#F68524"/>
</linearGradient>
<linearGradient id="paint8_linear_50_4888" x1="17.0287" y1="28.3257" x2="17.0287" y2="34.4002" gradientUnits="userSpaceOnUse">
<stop stop-color="#F7943D"/>
<stop offset="1" stop-color="#F68524"/>
</linearGradient>
</defs>
</svg>
