<svg width="47" height="40" viewBox="0 0 47 40" fill="none" xmlns="http://www.w3.org/2000/svg">
<path d="M46.0589 36.0968L36.4297 4.95696C36.1031 3.90017 35.2848 2.97456 34.2338 2.46867C33.754 2.2113 33.2151 2.07588 32.6707 2.07588H31.088C30.349 0.817889 28.9875 0 27.451 0C26.4877 0 25.5932 0.322001 24.8781 0.872518C24.1621 0.322001 23.2673 0 22.3036 0C21.3403 0 20.4458 0.322001 19.7307 0.872518C19.0147 0.322001 18.1199 0 17.1558 0C16.1925 0 15.2981 0.322001 14.5829 0.872518C13.8673 0.322001 12.9721 0 12.0084 0C10.4727 0 9.11196 0.817889 8.37332 2.07588H6.85833C6.39053 2.07588 5.94658 2.17206 5.53879 2.36211L5.53071 2.36595C4.33389 2.87492 3.50792 3.95672 3.36827 5.20279L0.0201541 34.998C-0.0806394 35.8944 0.199815 36.7873 0.789957 37.4478C1.3951 38.1242 2.28147 38.5123 3.22285 38.5123H14.4636C15.228 39.4233 16.3622 40 17.5155 40H43.2582C44.008 40 44.6874 39.7588 45.2237 39.3014C46.1151 38.5393 46.4352 37.3117 46.0589 36.0968Z" fill="white"/>
<path d="M3.22252 36.7817L28.9649 36.7813C29.8816 36.7813 30.7053 36.07 30.8041 35.1921L34.1523 5.39646C34.2507 4.51894 33.5871 3.80762 32.67 3.80762L6.92724 3.808C6.01049 3.808 5.18684 4.51894 5.08797 5.39646L1.74023 35.1925C1.64136 36.07 2.30499 36.7817 3.22252 36.7817Z" fill="#890F53"/>
<path d="M7.91274 36.7813C7.00406 36.7732 6.34814 36.0646 6.44624 35.1921L8.70025 15.1338L15.3411 36.6082C15.3592 36.6667 15.3799 36.7244 15.4034 36.7813H7.91274Z" fill="#680132"/>
<mask id="mask0_50_4885" style="mask-type:luminance" maskUnits="userSpaceOnUse" x="5" y="3" width="40" height="36">
<path d="M43.2579 38.2694H17.5152C16.5981 38.2694 15.6244 37.5257 15.3408 36.6086L5.71082 5.4684C5.42729 4.55087 5.94088 3.80762 6.85841 3.80762H32.6011C33.5183 3.80762 34.492 4.55087 34.7755 5.4684L44.4051 36.6086C44.689 37.5257 44.1755 38.2694 43.2579 38.2694Z" fill="white"/>
</mask>
<g mask="url(#mask0_50_4885)">
<path d="M43.2579 38.2694H17.5152C16.5981 38.2694 15.6244 37.5257 15.3408 36.6086L5.71082 5.4684C5.42729 4.55087 5.94088 3.80762 6.85841 3.80762H32.6011C33.5183 3.80762 34.492 4.55087 34.7755 5.4684L44.4051 36.6086C44.689 37.5257 44.1755 38.2694 43.2579 38.2694Z" fill="white"/>
<mask id="mask1_50_4885" style="mask-type:luminance" maskUnits="userSpaceOnUse" x="5" y="3" width="40" height="36">
<path d="M43.2579 38.2694H17.5152C16.5981 38.2694 15.6244 37.5257 15.3408 36.6086L5.71082 5.4684C5.42729 4.55087 5.94088 3.80762 6.85841 3.80762H32.6011C33.5183 3.80762 34.492 4.55087 34.7755 5.4684L44.4051 36.6086C44.689 37.5257 44.1755 38.2694 43.2579 38.2694Z" fill="white"/>
</mask>
<g mask="url(#mask1_50_4885)">
<path d="M36.1478 10.053H7.08308L5.71082 5.4684C5.42729 4.55087 5.94088 3.80762 6.85841 3.80762H32.6011C33.5183 3.80762 34.492 4.55087 34.7755 5.4684L36.1478 10.053Z" fill="#DD127B"/>
<path d="M33.646 8.07943H8.45682L8.39258 7.87207H33.5817L33.646 8.07943Z" fill="#9E1938"/>
<path d="M24.5296 27.1431H21.4542L19.3503 20.3403H17.7868L17.0693 18.0205H21.7085L24.5296 27.1431Z" fill="#D0D1CF"/>
<path d="M33.2873 27.1431H30.3027L29.8191 25.5792H25.0884L24.4844 23.6245L26.6218 18.0205H29.7756L27.9352 23.1944H29.1732L28.7419 21.7999H31.6349L32.0662 23.1944H33.2784L34.0159 25.5792H32.8037L33.2873 27.1431Z" fill="#D0D1CF"/>
<path d="M21.3247 17.6357L24.1458 26.7583H21.0705L18.9665 19.9555H17.403L16.6855 17.6357H21.3247Z" fill="#4C0037"/>
<path d="M33.6311 25.1945H32.4189L32.9025 26.7583H29.9179L29.4343 25.1945H24.704L24.0996 23.2398L26.237 17.6357H29.3909L27.5504 22.8097H28.7884L28.3572 21.4151H31.2502L31.6814 22.8097H32.8936L33.6311 25.1945Z" fill="#4C0037"/>
<path d="M24.0366 33.2646H22.2769L20.6631 28.0449H24.906L25.3161 29.3722H22.8328L23.1098 30.267H25.2869L25.6974 31.5946H23.5199L24.0366 33.2646Z" fill="#D0D1CF"/>
<path d="M31.419 33.2646H27.0791L25.4648 28.0449H29.7078L30.1187 29.3722H27.6054L27.7946 29.9838H30.0017L30.3937 31.2515H28.1863L28.3986 31.9374H31.0085L31.419 33.2646Z" fill="#D0D1CF"/>
<path d="M35.0347 33.2646H32.0963L30.4824 28.0449H33.2712C34.7104 28.0449 35.559 28.6193 35.8037 29.4095C35.9537 29.8942 35.8318 30.2974 35.4282 30.5355C36.1092 30.7594 36.605 31.2068 36.7966 31.8254C37.0779 32.7353 36.4735 33.2646 35.0347 33.2646ZM33.1927 31.2141L33.4462 32.0343H34.5049C34.8927 32.0343 35.0428 31.8928 34.96 31.6242C34.8769 31.3561 34.6392 31.2141 34.2514 31.2141H33.1927ZM32.5929 29.2752L32.8326 30.0508H33.6528C34.0483 30.0508 34.1856 29.9165 34.1071 29.6634C34.0287 29.4095 33.8082 29.2752 33.4131 29.2752H32.5929Z" fill="#D0D1CF"/>
<path d="M22.4481 28.9874L22.7251 29.8822H24.9021L25.313 31.2099H23.1352L23.6518 32.8799H21.8922L20.2783 27.6602H24.5213L24.9314 28.9874H22.4481Z" fill="#B4166C"/>
<path d="M30.6237 31.5526L31.0342 32.8799H26.6943L25.0801 27.6602H29.323L29.7339 28.9874H27.221L27.4099 29.5991H29.6169L30.009 30.8667H27.8015L28.0139 31.5526H30.6237Z" fill="#B4166C"/>
<path d="M34.5763 31.2395C34.4932 30.9713 34.2554 30.8294 33.8676 30.8294H32.8089L33.0624 31.6496H34.1211C34.5089 31.6496 34.659 31.508 34.5763 31.2395ZM32.2091 28.8905L32.4488 29.666H33.269C33.6645 29.666 33.8018 29.5318 33.7233 29.2786C33.6449 29.0247 33.4248 28.8905 33.0293 28.8905H32.2091ZM36.4128 31.4407C36.6944 32.3505 36.0897 32.8799 34.6509 32.8799H31.7125L30.0986 27.6602H32.8874C34.3266 27.6602 35.1752 28.2345 35.4199 29.0247C35.5699 29.5094 35.448 29.9126 35.0444 30.1508C35.7254 30.3747 36.2213 30.8221 36.4128 31.4407Z" fill="#B4166C"/>
<path d="M43.258 38.2687H17.5153C16.6566 38.2687 15.7483 37.6167 15.4032 36.7811C15.3797 36.7241 15.359 36.6664 15.3409 36.6079L8.70006 15.1336L7.12891 10.0523H9.06668L16.7493 34.8968C17.0063 35.7274 17.8876 36.4002 18.7178 36.4002H40.8997C41.7303 36.4002 42.195 35.7274 41.9384 34.8968L34.2554 10.0523H36.1478L35.5573 8.07994H35.5834L44.4052 36.6079C44.4579 36.778 44.4833 36.9423 44.4833 37.0969C44.4844 37.7755 44.0051 38.2687 43.258 38.2687ZM35.5192 7.87258H35.4953L34.7756 5.46777L35.5192 7.87258Z" fill="#F49DC3"/>
<path d="M36.1478 10.053H34.2555L33.6457 8.08057H35.5573L36.1478 10.053ZM9.06671 10.053H7.12895L6.5188 8.08057H8.45657L9.06671 10.053ZM35.4954 7.87321H33.5815L32.3242 3.80762H32.6012C33.5184 3.80762 34.4921 4.55087 34.7756 5.4684L35.4954 7.87321ZM8.39232 7.87321H6.45456L5.71091 5.4684C5.65859 5.29836 5.6332 5.13409 5.63281 4.97944C5.63204 4.30081 6.11139 3.80762 6.85849 3.80762H7.13548L8.39232 7.87321Z" fill="#C31861"/>
<path d="M35.5832 8.07943H35.557L35.4951 7.87207H35.519L35.5832 8.07943Z" fill="#C31861"/>
<path d="M35.5569 8.07943H33.6453L33.581 7.87207H35.4949L35.5569 8.07943ZM8.45611 8.07943H6.51834L6.4541 7.87207H8.39187L8.45611 8.07943Z" fill="#8C162B"/>
</g>
</g>
<path d="M14.5549 5.64368C14.5549 6.053 14.2225 6.38501 13.8136 6.38501C13.4039 6.38501 13.0723 6.053 13.0723 5.64368C13.0723 5.23435 13.4039 4.90234 13.8136 4.90234C14.2225 4.90234 14.5549 5.23435 14.5549 5.64368Z" fill="#4C0037"/>
<path d="M12.0086 1.73145C10.7794 1.73145 9.72497 2.64243 9.54492 3.85426H10.047C10.222 2.91981 11.048 2.22541 12.0086 2.22541C13.1096 2.22541 14.0056 3.12139 14.0056 4.22281C14.0056 4.89836 13.6698 5.51697 13.1069 5.8886C13.1923 6.08595 13.2751 6.16828 13.4224 6.27292C14.0987 5.80666 14.5 5.04801 14.5 4.22281C14.5 2.84864 13.3824 1.73145 12.0086 1.73145Z" fill="#F495BF"/>
<path d="M19.7024 5.64368C19.7024 6.053 19.3704 6.38501 18.9611 6.38501C18.5517 6.38501 18.2197 6.053 18.2197 5.64368C18.2197 5.23435 18.5517 4.90234 18.9611 4.90234C19.3704 4.90234 19.7024 5.23435 19.7024 5.64368Z" fill="#4C0037"/>
<path d="M17.1557 1.73145C15.9265 1.73145 14.8724 2.64243 14.6924 3.85426H15.1944C15.3695 2.91981 16.195 2.22541 17.1557 2.22541C18.2571 2.22541 19.1531 3.12139 19.1531 4.22281C19.1531 4.89836 18.8168 5.51697 18.254 5.8886C18.3398 6.08595 18.4217 6.16828 18.5698 6.27292C19.2458 5.80666 19.647 5.04801 19.647 4.22281C19.647 2.84864 18.5295 1.73145 17.1557 1.73145Z" fill="#F495BF"/>
<path d="M24.8495 5.64368C24.8495 6.053 24.5178 6.38501 24.1085 6.38501C23.6988 6.38501 23.3672 6.053 23.3672 5.64368C23.3672 5.23435 23.6988 4.90234 24.1085 4.90234C24.5178 4.90234 24.8495 5.23435 24.8495 5.64368Z" fill="#4C0037"/>
<path d="M22.3031 1.73145C21.0744 1.73145 20.0203 2.64243 19.8398 3.85426H20.3423C20.5169 2.91981 21.3429 2.22541 22.3031 2.22541C23.4045 2.22541 24.3005 3.12139 24.3005 4.22281C24.3005 4.89836 23.9647 5.51697 23.4018 5.8886C23.4872 6.08595 23.5696 6.16828 23.7177 6.27292C24.3936 5.80666 24.7949 5.04801 24.7949 4.22281C24.7949 2.84864 23.6773 1.73145 22.3031 1.73145Z" fill="#F495BF"/>
<path d="M29.9973 5.64368C29.9973 6.053 29.6653 6.38501 29.256 6.38501C28.8467 6.38501 28.5146 6.053 28.5146 5.64368C28.5146 5.23435 28.8467 4.90234 29.256 4.90234C29.6653 4.90234 29.9973 5.23435 29.9973 5.64368Z" fill="#4C0037"/>
<path d="M27.4506 1.73145C26.2218 1.73145 25.1673 2.64243 24.9873 3.85426H25.4893C25.6644 2.91981 26.49 2.22541 27.4506 2.22541C28.5516 2.22541 29.448 3.12139 29.448 4.22281C29.448 4.89836 29.1118 5.51697 28.5489 5.8886C28.6343 6.08595 28.7167 6.16828 28.8648 6.27292C29.5407 5.80666 29.942 5.04801 29.942 4.22281C29.942 2.84864 28.824 1.73145 27.4506 1.73145Z" fill="#F495BF"/>
<path d="M34.2819 16.2582C33.6814 15.5696 32.6681 15.3349 32.2726 15.9166C32.2726 15.9166 32.1641 16.0762 32.1168 16.1462C32.0241 16.0762 31.8114 15.9162 31.8114 15.9162C31.0396 15.3349 30.1783 15.5696 30.0244 16.2582C29.9424 16.6229 30.0632 17.0734 30.3268 17.4665C30.6268 17.9155 31.1154 18.2394 31.5586 18.5491C32.0395 18.8857 33.1405 19.4447 33.1855 19.4489H33.1878C33.229 19.4463 33.9692 18.8865 34.2323 18.5495C34.4743 18.2398 34.7532 17.9155 34.7624 17.4669C34.7705 17.0734 34.5997 16.6229 34.2819 16.2582Z" fill="#DD127B"/>
<path d="M26.1788 12.6204C25.4605 11.7967 24.2483 11.5163 23.7755 12.2114C23.7755 12.2114 23.6459 12.4026 23.5889 12.4861C23.4781 12.4026 23.2238 12.211 23.2238 12.211C22.3005 11.5163 21.2703 11.7963 21.0856 12.62C20.9883 13.0566 21.133 13.5952 21.4476 14.0657C21.8066 14.6024 22.3917 14.9902 22.9211 15.3606C23.4966 15.7634 24.8135 16.4317 24.8673 16.4367L24.8704 16.4371C24.9189 16.4336 25.8048 15.7642 26.1195 15.361C26.4088 14.9906 26.742 14.6024 26.7535 14.0657C26.7635 13.5952 26.5593 13.057 26.1788 12.6204Z" fill="#DD127B"/>
</svg>
