<svg width="28" height="40" viewBox="0 0 28 40" fill="none" xmlns="http://www.w3.org/2000/svg">
<path d="M7.40772 16.145L7.37923 16.1496C6.22593 16.3364 4.66115 17.0639 3.75416 19.4693C2.58526 22.5709 4.14192 24.3128 4.86564 24.9177C5.20161 25.1989 5.57335 25.4282 5.96673 25.6146C5.5151 26.2426 5.28274 27.0317 5.36844 27.8596C5.48702 29.0042 6.1785 29.9561 7.14166 30.4435L9.115 37.6645C9.52606 39.1683 10.9502 40.1433 12.5012 39.9827L23.0821 38.8869C24.6458 38.7248 25.8403 37.4677 25.9227 35.8973L26.3109 28.4392C27.1384 27.7625 27.6108 26.6974 27.4939 25.568C27.3891 24.5559 26.8311 23.6984 26.0425 23.1763C26.1677 23.0519 26.2859 22.92 26.3962 22.7804C26.937 22.0952 28.0186 20.2248 26.3843 17.6574C25.8128 16.7597 24.5466 15.268 22.484 15.3626C22.4095 15.366 22.3349 15.3718 22.2604 15.3795C22.0139 15.4051 21.7669 15.4535 21.5194 15.5251C21.5119 15.5024 21.5044 15.4797 21.4963 15.4569C23.3611 14.6194 28.5324 12.2202 27.4053 8.33051C27.0539 7.11896 26.3023 6.22362 25.2314 5.74141C24.5042 5.41398 23.6621 5.29686 22.7284 5.39359C22.5583 5.41127 22.3914 5.4354 22.23 5.46432C21.7012 4.57834 20.8907 3.62849 19.7031 3.15315C19.1833 2.94513 18.6384 2.8461 18.0793 2.85754C17.6251 1.82968 16.931 1.19937 16.3239 0.82055C15.2988 0.180453 14.2306 -0.0872791 13.1495 0.0248471C12.8362 0.0572992 12.5223 0.122625 12.2146 0.220189C10.6586 0.713835 9.51025 1.94452 8.75324 3.0456C7.72767 2.6541 6.41502 2.32833 5.07429 2.46708C4.6104 2.51513 4.16231 2.61707 3.74251 2.76996C2.58921 3.18997 1.04961 4.22261 0.263478 6.75637C-0.187107 8.20902 -0.281551 10.4099 1.82804 12.6446C3.05353 13.9426 4.92763 15.1178 7.40772 16.145Z" fill="white"/>
<path d="M12.2354 14.8906C13.05 17.1623 14.8688 22.8566 15.0391 28.8253L16.3582 28.7697C16.2742 27.5563 15.7 20.9596 12.8906 14.5898C12.6805 14.7074 12.4617 14.8083 12.2354 14.8906Z" fill="#39A65F"/>
<path d="M14.4031 12.3859C16.0184 8.75875 17.4598 4.13267 15.1547 2.69271C14.3875 2.21362 13.6238 2.08985 12.8832 2.32388C10.9646 2.93173 9.76763 5.72885 9.75556 5.75673C9.73331 5.81019 9.68817 5.85096 9.63283 5.86823C9.57729 5.88466 9.51717 5.87738 9.46849 5.84597C9.44394 5.83016 7.2761 4.45947 5.29236 4.66479C5.02172 4.69288 4.75482 4.75008 4.49687 4.84432C3.5025 5.20712 2.78752 6.07043 2.37188 7.41033C1.328 10.7752 5.56196 13.1308 9.2977 14.5148C11.2987 15.2562 13.5416 14.321 14.4031 12.3859Z" fill="#F04A56"/>
<path d="M9.29838 14.5154C5.56264 13.1314 1.32868 10.7757 2.37256 7.4109C2.78819 6.071 3.50318 5.20769 4.49755 4.84489C4.7555 4.75066 5.0224 4.69345 5.29304 4.66536C7.27678 4.46004 9.44462 5.83073 9.46917 5.84654C9.51784 5.87795 9.57796 5.88523 9.63351 5.8688C9.68884 5.85153 9.73398 5.81076 9.75624 5.7573C9.76831 5.72942 10.9653 2.9323 12.8839 2.32445C13.6245 2.09042 14.3882 2.21419 15.1554 2.69328C17.4605 4.13324 16.0191 8.75933 14.4038 12.3865C13.5423 14.3215 11.2994 15.2568 9.29838 14.5154ZM16.3584 28.7702L15.0393 28.8257C14.8689 22.8571 13.0501 17.1628 12.2355 14.8911C12.4618 14.8087 12.6807 14.7078 12.8908 14.5903C15.7002 20.9601 16.2743 27.5568 16.3584 28.7702ZM12.7643 1.95021C10.9717 2.51896 9.81428 4.70739 9.48726 5.39866C8.78996 4.99363 6.37894 3.74153 4.3642 4.47523C3.24772 4.88213 2.4514 5.83073 1.99728 7.2942C1.09902 10.1903 3.57661 12.8148 9.16191 14.8836C9.82239 15.1285 10.5072 15.2065 11.1675 15.138C11.4026 15.1137 11.6339 15.0688 11.8604 15.008C12.6721 17.2678 14.5175 23.0293 14.6515 29.0346C14.6528 29.0874 14.675 29.1376 14.7135 29.1736C14.7522 29.2098 14.8036 29.2287 14.8562 29.2266L16.5749 29.1542L16.587 29.1534C16.6346 29.1484 16.6791 29.1261 16.7118 29.0906C16.747 29.0519 16.7655 29.0009 16.7628 28.9487C16.7592 28.8707 16.3733 21.4793 13.229 14.381C13.8814 13.9352 14.4212 13.313 14.7628 12.5462C17.204 7.06328 17.4062 3.63605 15.3634 2.36023C14.4934 1.81707 13.6193 1.67936 12.7643 1.95021Z" fill="#441A45"/>
<path d="M14.403 12.3861C15.2919 10.3903 16.1265 8.09289 16.3147 6.18945C15.7703 7.41306 15.0722 8.56803 14.2345 9.61315C13.4084 10.6439 12.4024 11.5994 11.1436 11.9996C10.1788 12.3065 9.13554 12.2634 8.1368 12.0986C6.07963 11.7598 4.11253 10.9042 2.4502 9.64644C3.32266 11.8436 6.45325 13.4612 9.29759 14.5151C11.2986 15.2565 13.5415 14.3212 14.403 12.3861Z" fill="#E22334"/>
<path d="M15.1544 2.69291C14.3872 2.21362 13.6235 2.08984 12.8829 2.32387C10.9643 2.93172 9.76732 5.72884 9.75526 5.75672C9.733 5.81018 9.68786 5.85095 9.63252 5.86822C9.57698 5.88465 9.51686 5.87737 9.46818 5.84596C9.44364 5.83015 7.27579 4.45946 5.29205 4.66479C5.02141 4.69287 4.75452 4.75008 4.49656 4.84431C3.5022 5.20711 2.78721 6.07042 2.37178 7.41032C2.23344 7.85571 2.19018 8.2832 2.22367 8.69343C2.3982 8.1717 2.60997 7.66411 2.91078 7.20541C3.34784 6.53931 3.99543 5.97826 4.77199 5.80019C5.17452 5.70783 5.59328 5.72094 6.00475 5.75547C7.38709 5.87217 8.74883 6.23122 10.0091 6.81141C10.4178 5.72218 11.0831 4.73011 11.9352 3.93794C12.2834 3.61426 12.6743 3.3174 13.1309 3.18427C13.5711 3.05612 14.0433 3.0892 14.4931 3.17761C15.0327 3.28349 15.5542 3.47197 16.0406 3.72763C15.8475 3.29993 15.56 2.94608 15.1544 2.69291Z" fill="white"/>
<path d="M17.8692 13.7109C16.1443 20.1872 16.4557 26.4345 16.5352 27.6104L17.8493 27.4862C17.2626 22.0728 18.0646 16.7019 18.5882 14.0065C18.3375 13.9387 18.0964 13.8387 17.8692 13.7109Z" fill="#39A65F"/>
<path d="M20.4924 13.4875C22.9588 12.3818 25.7923 10.6962 25.2849 8.9452C25.117 8.36647 24.7944 7.96603 24.3257 7.75467C23.0921 7.19882 21.2222 8.06858 21.2034 8.07753C21.1512 8.10249 21.0905 8.1027 21.0376 8.07857C20.985 8.05423 20.9457 8.00825 20.9301 7.95229C20.9243 7.93066 20.3112 5.77384 18.8815 5.20239C18.5852 5.08382 18.2711 5.0418 17.9414 5.07591C17.5407 5.11752 17.1168 5.27146 16.673 5.53732C14.6381 6.75615 15.719 9.86863 16.984 12.2649C17.6531 13.5322 19.1933 14.0699 20.4924 13.4875Z" fill="#F3859B"/>
<path d="M16.9841 12.2655C15.7191 9.86927 14.6382 6.75678 16.6731 5.53795C17.1168 5.2721 17.5408 5.11815 17.9414 5.07655C18.2712 5.04243 18.5853 5.08445 18.8815 5.20303C20.3113 5.77448 20.9243 7.93129 20.9301 7.95293C20.9457 8.00888 20.9851 8.05486 21.0377 8.0792C21.0905 8.10333 21.1513 8.10312 21.2035 8.07816C21.2222 8.06922 23.0922 7.19946 24.3258 7.7553C24.7944 7.96666 25.1171 8.36711 25.285 8.94584C25.7923 10.6968 22.9588 12.3824 20.4925 13.4881C19.1933 14.0706 17.6531 13.5328 16.9841 12.2655ZM16.535 27.6112C16.4555 26.4352 16.1441 20.188 17.869 13.7117C18.0962 13.8394 18.3373 13.9395 18.588 14.0073C18.0644 16.7027 17.2624 22.0735 17.8491 27.487L16.535 27.6112ZM24.4864 7.39667C23.3326 6.87723 21.7945 7.40831 21.2416 7.63381C21.0387 7.03532 20.3687 5.37507 19.0286 4.83857C18.2516 4.52757 17.3912 4.64968 16.4711 5.20095C14.6517 6.2908 14.7089 8.7971 16.6367 12.4488C16.8582 12.8686 17.164 13.217 17.5218 13.486C15.5583 20.7526 16.1514 27.7674 16.1582 27.8432C16.1628 27.8954 16.188 27.9434 16.2283 27.9769C16.2685 28.0102 16.3203 28.0264 16.3723 28.0212L18.085 27.8592L18.0866 27.859C18.1384 27.8536 18.1863 27.8278 18.2189 27.7872C18.2522 27.7464 18.2676 27.6938 18.2616 27.6414C17.6388 22.2108 18.448 16.7868 18.9728 14.0845C19.2173 14.1184 19.4661 14.1249 19.7149 14.0991C20.0319 14.0662 20.3485 13.9834 20.6531 13.8469C24.4475 12.1455 26.1327 10.4599 25.6623 8.83662C25.4607 8.14182 25.0653 7.65732 24.4864 7.39667Z" fill="#441A45"/>
<path d="M25.1034 10.227C23.8174 10.8908 22.4469 11.3907 21.034 11.704C20.5482 11.8117 20.049 11.898 19.5551 11.8394C18.8268 11.753 18.1605 11.3513 17.654 10.8211C17.1472 10.2906 16.7865 9.63762 16.4915 8.96612C16.1622 8.21681 15.9101 7.43421 15.7351 6.63477C15.1421 8.13755 16.0079 10.4146 16.9848 12.2652C17.6538 13.5327 19.194 14.0702 20.4931 13.4878C22.3485 12.6561 24.4111 11.4961 25.1034 10.227Z" fill="#F16B84"/>
<path d="M24.3256 7.75465C23.092 7.1988 21.2221 8.06856 21.2033 8.0775C21.1511 8.10247 21.0904 8.10288 21.0375 8.07855C20.9849 8.05421 20.9456 8.00823 20.93 7.95248C20.9242 7.93063 20.3111 5.77382 18.8813 5.20237C18.5851 5.084 18.271 5.04177 17.9413 5.07589C17.6024 5.11105 17.2458 5.23149 16.876 5.42724C16.8962 5.42246 16.9163 5.41768 16.9365 5.41289C17.339 5.32011 17.7572 5.23066 18.1618 5.3145C18.721 5.43057 19.1634 5.86056 19.495 6.32571C20.0744 7.13826 20.4097 8.09519 20.7376 9.03775C21.6088 8.28844 22.853 7.99658 23.9666 8.28033C24.4444 8.40203 24.8923 8.62898 25.2804 8.9327C25.1117 8.36104 24.7908 7.96434 24.3256 7.75465Z" fill="white"/>
<path d="M5.79004 20.3345C5.81771 20.32 5.84787 20.3096 5.88219 20.3096C9.31608 20.3179 12.771 21.7479 14.3624 22.5059C13.0527 21.0657 10.0542 18.0853 7.85595 18.3131C7.81434 18.3173 7.77315 18.3227 7.73217 18.3294C6.89216 18.4654 6.24895 19.1109 5.82041 20.2482C5.80939 20.2773 5.80044 20.3056 5.79004 20.3345Z" fill="#62BF80"/>
<path d="M6.2821 23.2243C8.04721 24.7004 12.5963 24.217 14.7573 23.1386C13.6373 22.5628 9.73846 20.7117 5.88165 20.7024C5.80364 20.7022 5.7377 20.6556 5.70629 20.5898C5.36284 21.7302 5.55464 22.6162 6.2821 23.2243Z" fill="#39A65F"/>
<path d="M5.70514 20.5902C5.73656 20.656 5.8025 20.7026 5.88051 20.7028C9.73732 20.7121 13.6361 22.5631 14.7562 23.139C12.5952 24.2174 8.04607 24.7008 6.28096 23.2247C5.55349 22.6166 5.36169 21.7306 5.70514 20.5902ZM7.73132 18.3298C7.7723 18.3232 7.81349 18.3177 7.8551 18.3136C10.0533 18.0858 13.0518 21.0662 14.3615 22.5063C12.7701 21.7483 9.31523 20.3183 5.88134 20.31C5.84702 20.31 5.81685 20.3204 5.78919 20.335C5.79959 20.3061 5.80853 20.2778 5.81956 20.2486C6.24809 19.1114 6.89131 18.4659 7.73132 18.3298ZM15.2727 23.3058L15.2752 23.3035L15.2929 23.2869L15.3374 23.2396L15.343 23.2338L15.3553 23.1964L15.3653 23.1716L15.3651 23.1658C15.3682 23.145 15.3663 23.1246 15.3628 23.1042L15.3615 23.0865C15.3544 23.0607 15.3424 23.0366 15.3255 23.0154L15.3247 23.0137C15.1402 22.7859 10.7687 17.4447 7.66891 17.9418C6.67975 18.102 5.93377 18.8314 5.45177 20.1101C4.75696 21.9538 5.38208 22.9854 6.02904 23.5261C7.14448 24.4587 9.21517 24.6811 11.2027 24.4753C12.7893 24.311 14.3231 23.8733 15.2727 23.3058Z" fill="#441A45"/>
<path d="M6.18555 19.482C6.75804 19.0387 7.51837 18.8122 8.25187 18.8267C9.34963 18.8486 10.3902 19.3235 11.323 19.9031C11.7846 20.1899 12.2285 20.5043 12.6758 20.8134C11.2225 19.4918 9.35379 18.1579 7.856 18.3131C7.81439 18.3173 7.7732 18.3227 7.73222 18.3294C7.10419 18.4311 6.586 18.8178 6.18555 19.482Z" fill="white"/>
<path d="M24.605 18.885C24.5788 18.8775 24.5511 18.8742 24.5216 18.8802C21.5876 19.502 18.8899 21.343 17.665 22.276C18.5269 20.8103 20.5568 17.7254 22.4769 17.5266C22.5133 17.5228 22.5495 17.5201 22.5857 17.5185C23.3281 17.4843 23.9936 17.921 24.5636 18.8167C24.5782 18.8396 24.5911 18.8621 24.605 18.885Z" fill="#62BF80"/>
<path d="M24.7024 21.4432C23.4575 23.0213 19.4817 23.4223 17.4414 22.8871C18.2958 22.1943 21.2976 19.914 24.5934 19.2154C24.6599 19.2013 24.7078 19.1499 24.723 19.0879C25.2208 20.0013 25.2154 20.7931 24.7024 21.4432Z" fill="#39A65F"/>
<path d="M24.7022 21.444C23.4573 23.0221 19.4815 23.4231 17.4412 22.8879C18.2956 22.1952 21.2974 19.9148 24.5931 19.2162C24.6597 19.2021 24.7076 19.1507 24.7227 19.0887C25.2206 20.0021 25.2151 20.7939 24.7022 21.444ZM24.5638 18.8172C24.5784 18.8401 24.5913 18.8626 24.6052 18.8855C24.579 18.878 24.5513 18.8746 24.5218 18.8807C21.5878 19.5025 18.8901 21.3435 17.6652 22.2765C18.5271 20.8107 20.557 17.7259 22.4771 17.5271C22.5135 17.5233 22.5497 17.5206 22.5859 17.5189C23.3283 17.4848 23.9938 17.9215 24.5638 18.8172ZM20.7184 23.3942C22.4542 23.2145 24.1848 22.6537 24.9715 21.6566C25.4277 21.0787 25.7774 20.0847 24.8534 18.6329C24.2125 17.6259 23.4442 17.136 22.5699 17.1761C19.8308 17.3059 17.0495 22.6549 16.9326 22.8827L16.9322 22.8844C16.9216 22.9056 16.9155 22.9282 16.9141 22.9515L16.9164 22.9669L16.9253 23.02L16.9261 23.025L16.9392 23.0443L16.9563 23.0741L16.9621 23.0782L17.0087 23.1107L17.0266 23.1217L17.0293 23.1232C17.9428 23.4381 19.3324 23.5378 20.7184 23.3942Z" fill="#441A45"/>
<path d="M24.115 18.226C23.5462 17.9494 22.8556 17.8919 22.2311 18.0357C21.2964 18.251 20.492 18.8432 19.7982 19.5058C19.4552 19.8334 19.1317 20.1819 18.8047 20.5262C19.8107 19.1361 21.1693 17.6612 22.4776 17.5258C22.514 17.5219 22.5502 17.5192 22.5864 17.5175C23.1416 17.4919 23.6538 17.7299 24.115 18.226Z" fill="white"/>
<path d="M19.2887 15.6154C19.2692 15.6098 19.2486 15.6073 19.2267 15.6118C17.0402 16.0751 15.0298 17.4472 14.1172 18.1425C14.7594 17.0501 16.2719 14.7514 17.7029 14.6031C17.73 14.6004 17.757 14.5983 17.7839 14.5971C18.3372 14.5717 18.8331 14.8971 19.2579 15.5644L19.2887 15.6154Z" fill="#62BF80"/>
<path d="M19.3621 17.5209C18.4343 18.6967 15.4716 18.9957 13.9512 18.5969C14.5877 18.0805 16.8248 16.3812 19.2808 15.8607C19.3303 15.8503 19.3661 15.8118 19.3775 15.7656C19.7484 16.4463 19.7445 17.0365 19.3621 17.5209Z" fill="#39A65F"/>
<path d="M19.3621 17.5221C18.4343 18.6978 15.4716 18.9968 13.9511 18.598C14.5877 18.0817 16.8248 16.3823 19.2808 15.8618C19.3303 15.8514 19.3661 15.8129 19.3775 15.7667C19.7484 16.4474 19.7445 17.0376 19.3621 17.5221ZM19.2589 15.5643L19.2897 15.6153C19.2702 15.6097 19.2496 15.6072 19.2277 15.6118C17.0412 16.075 15.0308 17.4472 14.1182 18.1424C14.7604 17.0501 16.2729 14.7514 17.7039 14.603C17.731 14.6003 17.758 14.5983 17.7849 14.597C18.3382 14.5716 18.8341 14.897 19.2589 15.5643ZM16.3934 18.9753C17.6869 18.8414 18.9764 18.4234 19.5626 17.6804C19.9028 17.2498 20.1634 16.509 19.4747 15.427C18.997 14.6767 18.4245 14.3116 17.773 14.3415C15.7318 14.4383 13.6593 18.4243 13.5721 18.594L13.5719 18.5953L13.5586 18.6454L13.5601 18.6568L13.5667 18.6964L13.5673 18.7001L13.5771 18.7145L13.5898 18.7367L13.5942 18.7396L13.6289 18.764L13.6424 18.7721L13.6443 18.7731C14.325 19.008 15.3605 19.0823 16.3934 18.9753Z" fill="#441A45"/>
<path d="M18.9241 15.1251C18.5001 14.9189 17.9855 14.8761 17.5201 14.9832C16.8236 15.1438 16.2241 15.585 15.7072 16.0787C15.4515 16.3231 15.2104 16.5825 14.9668 16.839C15.7163 15.8032 16.729 14.7042 17.7038 14.6031C17.7308 14.6004 17.7579 14.5983 17.7847 14.5971C18.1985 14.578 18.5802 14.7554 18.9241 15.1251Z" fill="white"/>
<path d="M23.7181 35.7829L24.1556 27.3799L9.02148 28.9474L11.2449 37.0824C11.3697 37.5395 11.8026 37.8359 12.274 37.787L22.8548 36.6911C23.3302 36.6418 23.6934 36.2599 23.7181 35.7829Z" fill="#FDBF5E"/>
<path d="M24.1288 24.8456L8.51396 26.4628C7.92982 26.5233 7.50379 27.048 7.56432 27.6319C7.62486 28.216 8.14929 28.6421 8.73343 28.5815L24.3483 26.9643C24.9324 26.9038 25.3585 26.3794 25.2979 25.7952C25.2374 25.2111 24.713 24.785 24.1288 24.8456Z" fill="#FDBF5E"/>
<path d="M12.274 37.7869C11.8026 37.8358 11.3697 37.5393 11.2449 37.0823L9.02154 28.9472L24.1557 27.3797L23.7182 35.7828C23.6934 36.2598 23.3302 36.6417 22.8549 36.691L12.274 37.7869ZM24.3487 26.9647L8.73384 28.5819C8.1497 28.6425 7.62527 28.2164 7.56473 27.6323C7.50419 27.0484 7.93023 26.5237 8.51437 26.4632L24.1292 24.846C24.7134 24.7854 25.2378 25.2115 25.2983 25.7956C25.3589 26.3798 24.9328 26.9042 24.3487 26.9647ZM24.0887 24.4551L8.4738 26.0725C7.67415 26.1553 7.09105 26.8732 7.17385 27.6728C7.25144 28.4217 7.88613 28.9807 8.62338 28.9805L10.8659 37.1861C11.0419 37.8293 11.651 38.2464 12.3146 38.1778L22.8954 37.0819C23.5644 37.0124 24.0756 36.4746 24.1107 35.8029L24.5517 27.3286C25.2661 27.1721 25.7662 26.4994 25.6892 25.7551C25.6062 24.9554 24.8885 24.3723 24.0887 24.4551Z" fill="#441A45"/>
<path d="M23.7872 27.418L9.02148 28.9474L9.43462 30.4591C10.1671 30.4004 10.8977 30.2631 11.6204 30.1219C15.6981 29.3243 19.7548 28.42 23.7872 27.418Z" fill="#F79247"/>
<path d="M25.0796 25.2539C24.8614 24.9729 24.508 24.8062 24.1287 24.8456L8.51387 26.4627C8.13464 26.5021 7.82301 26.7376 7.66699 27.0575L25.0796 25.2539Z" fill="white"/>
<path d="M22.7972 31.6096C22.5212 31.5584 22.268 31.4084 22.0146 31.295C21.4852 31.0581 20.9647 31.0327 20.4118 31.2116C19.7865 31.4136 19.2543 31.8147 18.6438 32.0502C18.3513 32.1629 18.0407 32.2366 17.726 32.2002C17.4274 32.1658 17.1503 32.0454 16.876 31.9304C16.3159 31.6957 15.7595 31.5349 15.1471 31.6364C14.5733 31.7317 14.1109 32.0481 13.6291 32.3508C13.3923 32.4995 13.1381 32.652 12.866 32.7267C12.5704 32.8076 12.2678 32.7735 11.9732 32.7053C11.3899 32.5705 10.8513 32.3843 10.243 32.4714C10.1605 32.4831 10.0793 32.501 9.99902 32.5216L10.0777 32.8095C10.2453 32.7727 10.419 32.7556 10.5956 32.7616C11.144 32.7806 11.6362 33.0246 12.1681 33.1259C12.7271 33.2324 13.237 33.0762 13.715 32.7885C14.2226 32.4831 14.6921 32.1186 15.2977 32.0414C15.9259 31.9618 16.4495 32.2245 17.0172 32.4431C17.5943 32.6651 18.1534 32.6971 18.7392 32.4802C19.3278 32.2624 19.8355 31.8777 20.4186 31.6479C20.7136 31.5314 21.0313 31.4573 21.3494 31.5C21.6294 31.5376 21.8798 31.6789 22.1301 31.8008C22.3795 31.9218 22.6416 32.035 22.9227 32.0479C23.2459 32.0629 23.5384 31.9416 23.8161 31.7877C23.854 31.7666 23.8921 31.7423 23.9301 31.7209L23.9582 31.1783C23.8419 31.2595 23.7229 31.3371 23.5987 31.4086C23.3495 31.552 23.0905 31.6639 22.7972 31.6096Z" fill="white"/>
<path d="M9.6906 31.397C9.9263 31.3115 10.1813 31.2736 10.4416 31.2826C10.9899 31.3013 11.4819 31.5453 12.014 31.6466C12.5728 31.7531 13.0829 31.5971 13.5609 31.3094C14.0685 31.004 14.5378 30.6394 15.1436 30.5624C15.7718 30.4825 16.2954 30.7455 16.8631 30.9639C17.44 31.1859 17.9992 31.2181 18.585 31.0011C19.1735 30.7831 19.6813 30.3985 20.2644 30.1686C20.5596 30.0523 20.8772 29.9783 21.1953 30.0209C21.4751 30.0586 21.7255 30.1998 21.976 30.3215C22.2252 30.4428 22.4875 30.556 22.7684 30.5688C23.0919 30.5836 23.3841 30.4623 23.6621 30.3086C23.7788 30.2439 23.8963 30.1763 24.0132 30.1058L24.0434 29.5254C23.8524 29.6706 23.6554 29.8081 23.4447 29.9294C23.1955 30.0727 22.9363 30.1848 22.6432 30.1305C22.3671 30.0794 22.1137 29.9294 21.8606 29.816C21.3309 29.5789 20.8106 29.5535 20.2577 29.7324C19.6324 29.9346 19.1003 30.3354 18.4897 30.5709C18.197 30.6839 17.8866 30.7573 17.5717 30.7211C17.2734 30.6866 16.9961 30.5661 16.7217 30.4513C16.1619 30.2165 15.6054 30.0559 14.993 30.1574C14.4192 30.2524 13.9566 30.5688 13.475 30.8715C13.2381 31.0205 12.9841 31.173 12.7118 31.2474C12.4164 31.3286 12.1135 31.2942 11.8191 31.2262C11.2358 31.0914 10.6972 30.9052 10.0888 30.9922C9.92546 31.0157 9.7657 31.0581 9.61426 31.1172L9.6906 31.397Z" fill="white"/>
</svg>
