<svg width="44" height="40" viewBox="0 0 44 40" fill="none" xmlns="http://www.w3.org/2000/svg">
<path d="M28.0401 22.1478C27.9116 20.5177 27.4991 18.9294 26.8286 17.453C27.1164 17.4157 27.4082 17.397 27.7034 17.397C31.4297 17.397 34.4613 20.4286 34.4613 24.1547C34.4613 27.881 31.4297 30.9126 27.7034 30.9126C27.1055 30.9126 26.517 30.8343 25.9495 30.6818C27.5281 28.1499 28.2777 25.1554 28.0401 22.1478ZM12.497 28.6033C11.7462 28.3877 11.0474 28.011 10.4303 27.4839C9.30031 26.5195 8.61336 25.1726 8.49647 23.6911C8.37932 22.2099 8.84613 20.7719 9.81104 19.6419C10.6891 18.6131 11.8843 17.9516 13.2092 17.7532C12.3195 19.755 11.8583 21.9229 11.8583 24.1547C11.8583 25.6626 12.0756 27.1633 12.497 28.6033ZM38.101 12.2111C41.2477 9.6504 41.2114 7.13764 40.8357 5.74531C40.22 3.46355 38.8445 2.51378 37.7994 2.11868C37.2412 1.90762 36.632 1.80057 35.9889 1.80057C35.072 1.80057 34.1851 2.01643 33.4206 2.29565C32.7024 1.37467 31.6703 0.441054 30.3007 0.117649C29.9705 0.0396376 29.6327 0 29.2969 0C28.1255 0 26.9995 0.461 25.9502 1.37037C24.8311 2.34059 24.1853 3.65895 24.0828 5.18332C24.0128 6.22675 24.1966 7.37243 24.6316 8.60874C22.929 8.94452 21.2938 9.55977 19.7808 10.4378C19.468 10.2972 19.1509 10.1685 18.8298 10.0516C19.9588 7.55522 19.2317 5.83493 18.5735 4.92959C17.3875 3.29717 15.9802 2.95458 14.9944 2.95458C13.7606 2.95887 12.6992 3.50747 11.8757 4.15428C11.2142 3.80437 10.4308 3.53827 9.57853 3.53827C9.40357 3.53827 9.22862 3.54963 9.05341 3.5726C7.73732 3.74832 6.61738 4.58296 5.89887 5.92329C5.29776 7.04574 5.1829 8.30023 5.56689 9.5522C5.75725 10.173 6.07257 10.7931 6.50984 11.4086C2.20509 14.1574 -0.369784 19.1294 0.0432457 24.3586C0.338375 28.0979 2.07205 31.4983 4.92488 33.9336C7.46516 36.102 10.6957 37.2964 14.0224 37.2964C14.3953 37.2964 14.7737 37.2812 15.1474 37.2519C16.1352 37.1739 17.1075 36.9929 18.0504 36.7122C20.8134 38.8402 24.1966 40 27.7034 40C36.4403 40 43.5487 32.8919 43.5487 24.1547C43.5487 19.5391 41.5186 15.192 38.101 12.2111Z" fill="white"/>
<path d="M19.7477 13.3952L19.6805 13.4444C19.1716 13.8264 18.6904 14.2435 18.2412 14.6929L18.2405 14.6934C15.8166 17.1175 14.3154 20.4642 14.3154 24.1549C14.3154 26.495 14.9203 28.6955 15.9797 30.6114C17.3798 30.2431 18.6129 29.491 19.5682 28.4794C18.8795 27.189 18.4876 25.7172 18.4876 24.1549C18.4876 21.7389 19.4235 19.5379 20.9504 17.8928L20.9638 17.8787C21.0749 17.7598 21.189 17.6439 21.3061 17.5308L21.3273 17.5106C21.4457 17.397 21.5672 17.2867 21.6914 17.1794L21.6985 17.1731C23.3127 15.783 25.4104 14.9398 27.7028 14.9398C32.7844 14.9398 36.9182 19.0739 36.9182 24.1549C36.9182 29.2365 32.7844 33.3703 27.7028 33.3703C25.7709 33.3703 23.9767 32.7718 22.4937 31.7515C21.4637 32.7778 20.2463 33.6203 18.8911 34.2211C21.2478 36.2865 24.3304 37.5428 27.7028 37.5428C35.0848 37.5428 41.0907 31.537 41.0907 24.1549C41.0907 19.0648 38.2345 14.63 34.0411 12.3662C32.1562 13.3223 30.4198 13.8724 30.3996 13.8789L30.3382 13.8883C30.2804 13.8883 30.2241 13.8638 30.1848 13.8188C30.0956 13.7181 28.9954 12.4576 27.9613 10.7741C27.8752 10.7724 27.7896 10.7676 27.7028 10.7676C24.7257 10.7676 21.9734 11.7454 19.7477 13.3952Z" fill="#FDBF5E"/>
<path d="M30.4048 13.4455C31.5205 13.0716 39.5046 10.247 38.4624 6.38508C38.1858 5.35907 37.6705 4.69711 36.931 4.41738C35.1799 3.75542 32.6952 5.37648 32.6704 5.39289C32.6197 5.42647 32.5566 5.43556 32.4978 5.41788C32.4392 5.39996 32.3917 5.35679 32.3682 5.30049C32.3581 5.27651 31.3501 2.88947 29.7335 2.5085C29.5911 2.47493 29.447 2.45801 29.3021 2.45801C28.7343 2.45801 28.1501 2.71553 27.5598 3.22702C26.938 3.76577 26.5929 4.47923 26.5346 5.34719C26.3238 8.47496 29.8037 12.735 30.4048 13.4455Z" fill="#F04A56"/>
<path d="M5.23056 15.7319C3.22146 18.0854 2.24922 21.0801 2.49285 24.1647C2.73648 27.2496 4.16668 30.0552 6.52039 32.0638C8.8736 34.0731 11.8688 35.0451 14.9534 34.8015C18.0383 34.5579 20.8434 33.1277 22.8525 30.7742C24.8613 28.4207 25.8336 25.4255 25.5899 22.3409C25.422 20.2139 24.6745 18.1854 23.4253 16.4623C22.3771 17.0473 21.4448 17.8529 20.7144 18.8052C21.4723 19.9402 21.9287 21.2563 22.0365 22.6214C22.3849 27.0302 19.0814 30.9002 14.6729 31.2483C12.5361 31.417 10.4639 30.7436 8.83422 29.3531C7.20482 27.962 6.21466 26.0201 6.04602 23.8845C5.87762 21.7489 6.55043 19.6754 7.94125 18.046C9.33232 16.4166 11.2743 15.4265 13.4099 15.2578C14.5707 15.1664 15.7075 15.3204 16.7903 15.7168C17.5742 14.7044 18.4919 13.8084 19.524 13.048C18.1834 12.3257 16.7277 11.8854 15.2278 11.7324C14.1178 12.9748 12.9733 13.8849 12.9605 13.895C12.9234 13.9243 12.8787 13.9392 12.8335 13.9392C12.8007 13.9392 12.7681 13.9316 12.738 13.916C12.6456 13.8672 11.4795 13.2474 10.2599 12.2997C8.32475 12.9642 6.59386 14.1346 5.23056 15.7319Z" fill="#FDBF5E"/>
<path d="M20.4542 19.1635C21.1232 20.2107 21.5302 21.4099 21.6284 22.654C21.792 24.727 21.1043 26.6735 19.8607 28.1512C19.2464 26.9507 18.8975 25.5932 18.8975 24.1547C18.8975 22.3026 19.4736 20.5831 20.4542 19.1635ZM25.9983 22.3089C25.8261 20.1259 25.0624 18.0438 23.7892 16.27C24.9692 15.6818 26.2977 15.349 27.7032 15.349C32.5588 15.349 36.5091 19.2993 36.5091 24.1547C36.5091 29.0103 32.5588 32.9606 27.7032 32.9606C25.8829 32.9606 24.1899 32.4054 22.7847 31.4554C25.0137 29.0775 26.2745 25.8066 25.9983 22.3089ZM15.5645 30.7081C15.2631 30.7695 14.9553 30.8154 14.6407 30.8402C12.6145 31.0005 10.6465 30.3617 9.10043 29.0419C7.55434 27.722 6.61468 25.879 6.45462 23.8522C6.29456 21.826 6.93329 19.8583 8.25316 18.3122C9.57279 16.7661 11.4158 15.8264 13.4425 15.6664C14.5041 15.5826 15.5435 15.7181 16.5372 16.0645C14.8844 18.3392 13.9061 21.1342 13.9061 24.1547C13.9061 26.5251 14.5072 28.7573 15.5645 30.7081ZM30.1851 13.8186C30.2245 13.8635 30.2808 13.888 30.3386 13.888L30.4 13.8787C30.4202 13.8721 32.1566 13.322 34.0415 12.3659C38.2349 14.6298 41.091 19.0645 41.091 24.1547C41.091 31.5367 35.0852 37.5425 27.7032 37.5425C24.3308 37.5425 21.2482 36.2863 18.8915 34.2209C20.2467 33.62 21.4641 32.7776 22.4941 31.7513C23.9771 32.7715 25.7713 33.3701 27.7032 33.3701C32.7847 33.3701 36.9186 29.2363 36.9186 24.1547C36.9186 19.0736 32.7847 14.9395 27.7032 14.9395C25.4108 14.9395 23.3131 15.7828 21.6988 17.1728L21.6918 17.1791C21.5676 17.2864 21.4461 17.3967 21.3277 17.5104L21.3065 17.5306C21.1894 17.6437 21.0753 17.7595 20.9642 17.8785L20.9508 17.8926C19.4239 19.5376 18.488 21.7386 18.488 24.1547C18.488 25.7169 18.8798 27.1888 19.5686 28.4791C18.6132 29.4907 17.3802 30.2428 15.98 30.6112C14.9207 28.6952 14.3158 26.4948 14.3158 24.1547C14.3158 20.4639 15.817 17.1173 18.2409 14.6931L18.2416 14.6926C18.6907 14.2432 19.1719 13.8262 19.6809 13.4442L19.7481 13.395C21.9738 11.7451 24.7261 10.7673 27.7032 10.7673C27.79 10.7673 27.8756 10.7721 27.9617 10.7739C28.9958 12.4573 30.096 13.7179 30.1851 13.8186ZM26.5348 5.3477C26.5931 4.47973 26.9382 3.76628 27.56 3.22752C28.1503 2.71603 28.7345 2.45851 29.3023 2.45851C29.4472 2.45851 29.5913 2.47543 29.7337 2.50901C31.3503 2.88997 32.3583 5.27701 32.3684 5.30099C32.3919 5.35729 32.4394 5.40046 32.4979 5.41839C32.5568 5.43606 32.6199 5.42697 32.6706 5.3934C32.6954 5.37699 35.1801 3.75592 36.9312 4.41788C37.6707 4.69761 38.1859 5.35957 38.4626 6.38558C39.5048 10.2475 31.5207 13.0721 30.405 13.446C29.8039 12.7355 26.324 8.47546 26.5348 5.3477ZM12.7382 13.9163C12.7682 13.9319 12.8008 13.9395 12.8336 13.9395C12.8788 13.9395 12.9235 13.9246 12.9606 13.8953C12.9735 13.8852 14.1179 12.9751 15.228 11.7327C16.7278 11.8857 18.1835 12.326 19.5241 13.0483C18.4921 13.8087 17.5744 14.7047 16.7905 15.7171C15.7076 15.3207 14.5708 15.1667 13.41 15.2581C11.2744 15.4268 9.33244 16.4169 7.94137 18.0463C6.55055 19.6757 5.87774 21.7492 6.04613 23.8848C6.21478 26.0204 7.20494 27.9623 8.83434 29.3534C10.464 30.744 12.5362 31.4173 14.673 31.2486C19.0816 30.9005 22.385 27.0305 22.0366 22.6217C21.9288 21.2567 21.4724 19.9406 20.7145 18.8055C21.4449 17.8532 22.3772 17.0476 23.4254 16.4626C24.6746 18.1857 25.4222 20.2142 25.5901 22.3412C25.8337 25.4258 24.8614 28.4211 22.8526 30.7745C20.8435 33.128 18.0384 34.5582 14.9535 34.8018C11.8689 35.0454 8.87372 34.0734 6.52051 32.0641C4.1668 30.0555 2.73659 27.2499 2.49296 24.165C2.24934 21.0804 3.22157 18.0857 5.23067 15.7323C6.59397 14.1349 8.32487 12.9645 10.26 12.3C11.4796 13.2478 12.6458 13.8676 12.7382 13.9163ZM8.06533 7.08389C8.40969 6.44112 8.85125 6.07934 9.37788 6.00865C9.4458 5.99956 9.51396 5.99527 9.58263 5.99527C10.7495 5.99527 11.9528 7.249 11.9654 7.26238C12.0075 7.30682 12.0684 7.33004 12.128 7.32575C12.1891 7.32171 12.2451 7.29066 12.2807 7.24067C12.2936 7.22249 13.6021 5.41713 15.0025 5.41208H15.0081C15.5907 5.41208 16.1214 5.73574 16.5852 6.37422C18.3274 8.77161 13.5839 12.8499 12.8106 13.4891C12.1184 13.1049 8.59955 11.0589 7.91613 8.83068C7.72602 8.21089 7.77626 7.6234 8.06533 7.08389ZM6.25442 32.3759C8.44529 34.2459 11.1726 35.2484 14.0222 35.2482C14.3418 35.2482 14.6635 35.2355 14.9859 35.2103C16.2138 35.1133 17.384 34.8331 18.4726 34.3996C20.9195 36.6062 24.1568 37.952 27.7032 37.952C35.3111 37.952 41.5005 31.7627 41.5005 24.1547C41.5005 19.0067 38.6644 14.5111 34.4742 12.1405C34.6646 12.0385 34.8549 11.9329 35.0443 11.8231C38.0481 10.0819 39.367 8.16443 38.8582 6.27879C38.5452 5.11822 37.9451 4.36309 37.0751 4.03439C35.42 3.40878 33.3084 4.53174 32.6482 4.92533C32.3434 4.28685 31.3561 2.47139 29.8289 2.11062C28.9922 1.91244 28.1382 2.18409 27.2917 2.918C26.5843 3.53123 26.1919 4.33936 26.126 5.32069C26.017 6.94024 26.8042 8.79433 27.7135 10.3578L27.7032 10.3576C24.8069 10.3576 22.1179 11.2566 19.896 12.7873C18.5431 12.0286 17.0732 11.5467 15.5539 11.3551C15.6062 11.2927 15.6587 11.2306 15.7102 11.1672C17.387 9.09551 17.8043 7.35478 16.9164 6.13336C16.3714 5.38304 15.7294 5.00258 15.0086 5.00258H15.001C13.6725 5.00713 12.4945 6.31388 12.0924 6.81375C11.6619 6.41234 10.4905 5.44944 9.32436 5.60269C8.65963 5.6913 8.11456 6.12478 7.70431 6.89025C7.36171 7.52974 7.30112 8.22326 7.52455 8.95111C7.8732 10.0877 8.86387 11.1528 9.88963 12.0034C4.97998 13.8173 1.65277 18.7285 2.08448 24.1976C2.33669 27.3913 3.8179 30.2958 6.25442 32.3759Z" fill="#441A45"/>
<path d="M12.8111 13.4892C13.5844 12.8499 18.3279 8.77164 16.5857 6.37425C16.1219 5.73577 15.5912 5.41211 15.0085 5.41211H15.003C13.6026 5.41716 12.294 7.22252 12.2812 7.2407C12.2456 7.29069 12.1895 7.32174 12.1284 7.32578C12.0688 7.33008 12.008 7.30685 11.9658 7.26241C11.9532 7.24903 10.75 5.9953 9.58309 5.9953C9.51442 5.9953 9.44625 5.99959 9.37834 6.00868C8.8517 6.07937 8.41014 6.44115 8.06578 7.08392C7.77671 7.62344 7.72648 8.21092 7.91658 8.83072C8.6 11.059 12.1188 13.1049 12.8111 13.4892Z" fill="#F3859B"/>
<path d="M31.715 13.4033C30.9359 13.7085 30.4113 13.8751 30.4002 13.8787L30.3388 13.888C30.281 13.888 30.2247 13.8635 30.1853 13.8186C30.1401 13.7673 29.8336 13.4164 29.4082 12.8638C18.8015 11.5706 13.4172 22.2917 17.8939 29.5826C17.9285 29.6389 17.9643 29.6932 17.9997 29.7487C18.5788 29.395 19.107 28.9684 19.5688 28.4791C18.88 27.1888 18.4882 25.7169 18.4882 24.1547C18.4882 21.7386 19.4241 19.5376 20.951 17.8926L20.9644 17.8784C21.0754 17.7595 21.1896 17.6436 21.3067 17.5305L21.3279 17.5103C21.4463 17.3967 21.5677 17.2864 21.692 17.1791L21.699 17.1728C23.3133 15.7827 25.411 14.9395 27.7034 14.9395C32.7849 14.9395 36.9188 19.0736 36.9188 24.1547C36.9188 29.2362 32.7849 33.3701 27.7034 33.3701C25.7715 33.3701 23.9773 32.7715 22.4943 31.7513C22.0298 32.2141 21.5251 32.6372 20.9889 33.0202C26.2699 37.0492 34.1323 36.2729 37.6868 29.6485C41.6689 22.2276 36.382 15.2493 31.715 13.4033Z" fill="#F79247"/>
<path d="M5.9298 27.8549C9.81269 34.1786 18.9102 34.7335 22.5712 27.9104C24.6522 24.0321 23.7216 20.2977 21.7774 17.6536C21.3901 18.0063 21.0321 18.3908 20.7143 18.8053C21.4722 19.9404 21.9286 21.2565 22.0364 22.6216C22.3848 27.0303 19.0814 30.9003 14.6728 31.2485C12.536 31.4171 10.4638 30.7438 8.83414 29.3532C7.20474 27.9622 6.21458 26.0202 6.04593 23.8847C5.87754 21.7491 6.55035 19.6756 7.94117 18.0462C9.33224 16.4168 11.2742 15.4266 13.4098 15.258C14.5706 15.1666 15.7074 15.3206 16.7903 15.717C17.145 15.259 17.5285 14.826 17.9362 14.4173C17.4376 14.1865 16.9432 14.0212 16.4694 13.9318C15.2823 13.7071 14.1664 13.6579 13.13 13.7561C13.0258 13.8429 12.9632 13.8929 12.9604 13.8952C12.9233 13.9245 12.8786 13.9394 12.8334 13.9394C12.8006 13.9394 12.768 13.9318 12.738 13.9161C12.7203 13.9068 12.662 13.8757 12.5719 13.8258C5.719 14.853 2.62153 22.4673 5.9298 27.8549Z" fill="#F79247"/>
<path d="M28.3522 11.3866C28.2225 11.1902 28.0917 10.9855 27.9617 10.7741C27.8756 10.7724 27.79 10.7676 27.7032 10.7676C24.7261 10.7676 21.9738 11.7454 19.7481 13.3952L19.6809 13.4444C19.1719 13.8264 18.6907 14.2435 18.2416 14.6929L18.2409 14.6934C16.8702 16.064 15.7952 17.7303 15.1191 19.5864C16.7612 16.8229 21.0202 11.1877 28.3522 11.3866Z" fill="white"/>
<path d="M41.091 24.155C41.091 19.0648 38.2349 14.63 34.0415 12.3662C33.887 12.4447 33.7338 12.5195 33.582 12.5924C38.6538 15.1011 40.8161 21.2052 40.8901 26.4494C41.0196 25.7031 41.091 24.9374 41.091 24.155Z" fill="white"/>
<path d="M14.5479 12.4522C16.1987 12.5244 17.665 12.8963 18.9528 13.4951C19.1396 13.3419 19.329 13.1917 19.5242 13.048C18.1836 12.3257 16.7279 11.8854 15.228 11.7324C14.9993 11.9887 14.7695 12.2295 14.5479 12.4522Z" fill="white"/>
<path d="M25.4854 21.4566C25.2029 19.654 24.5005 17.9451 23.426 16.4629C23.2829 16.5427 23.1425 16.6275 23.0039 16.7154C24.1269 18.117 24.9491 19.7543 25.4854 21.4566Z" fill="white"/>
<path d="M10.9258 12.7918C10.71 12.6403 10.486 12.4762 10.2603 12.3008C8.32519 12.9653 6.5943 14.1357 5.231 15.733C3.55414 17.6972 2.60286 20.1087 2.47461 22.6457C3.43725 19.1408 5.70563 14.1329 10.9258 12.7918Z" fill="white"/>
<path d="M26.5293 5.72656C26.5987 8.80914 29.8285 12.764 30.4056 13.4461C30.9931 13.2492 33.4862 12.3721 35.5622 11.022C29.3203 12.2179 27.2173 8.12168 26.5293 5.72656Z" fill="#E22334"/>
<path d="M16.1133 9.91797C13.1148 11.8488 10.6367 11.4009 8.99414 10.583C10.3097 12.0513 12.3075 13.2098 12.8109 13.4893C13.2582 13.1195 15.0328 11.5984 16.1133 9.91797Z" fill="#F16B84"/>
<path d="M16.5857 6.37425C16.1219 5.73577 15.5912 5.41211 15.0085 5.41211H15.003C13.6026 5.41716 12.294 7.22252 12.2812 7.2407C12.2456 7.29069 12.1895 7.32174 12.1284 7.32578C12.0688 7.33008 12.008 7.30685 11.9658 7.26241C11.9532 7.24903 10.75 5.9953 9.58309 5.9953C9.51442 5.9953 9.44625 5.99959 9.37834 6.00868C8.8517 6.07937 8.41014 6.44115 8.06578 7.08392C7.77671 7.62344 7.72648 8.21092 7.91658 8.83072C7.93905 8.90443 7.96531 8.9779 7.99384 9.05111C8.16172 8.33664 8.3907 7.37249 8.92138 7.01879C10.5048 5.96324 11.9562 8.27227 11.9562 8.27227C11.9562 8.27227 13.6058 5.56738 15.519 6.29296C16.391 6.62394 16.6866 7.65373 16.751 8.67645C17.0527 7.85216 17.0747 7.04706 16.5857 6.37425Z" fill="white"/>
<path d="M36.9316 4.41738C35.1805 3.75542 32.6957 5.37648 32.671 5.39289C32.6202 5.42647 32.5571 5.43556 32.4983 5.41788C32.4397 5.39996 32.3923 5.35679 32.3688 5.30049C32.3587 5.27651 31.3506 2.88947 29.7341 2.5085C29.5917 2.47493 29.4475 2.45801 29.3026 2.45801C28.7348 2.45801 28.1506 2.71553 27.5604 3.22702C27.1198 3.60874 26.8212 4.07983 26.6621 4.62945C27.2811 3.94123 28.3854 3.0258 29.7038 3.32371C31.7492 3.78546 32.1451 6.75443 32.1451 6.75443C32.1451 6.75443 35.9055 3.85135 37.5551 6.02859C38.0174 6.63905 38.21 7.46738 38.2509 8.33888C38.5471 7.72565 38.6483 7.07178 38.463 6.38508C38.1863 5.35907 37.671 4.69711 36.9316 4.41738Z" fill="white"/>
</svg>
