<svg width="37" height="40" viewBox="0 0 37 40" fill="none" xmlns="http://www.w3.org/2000/svg">
<path d="M34.7125 22.1698C35.6573 21.2808 36.1439 19.9749 36.0058 18.6084C35.8441 17.0128 34.854 15.6754 33.4216 15.1189L26.5667 12.4551L26.7385 11.5688C26.794 11.5593 26.8491 11.5489 26.9033 11.537C27.5256 11.4013 28.0542 11.1578 28.4744 10.813C28.8903 10.4715 29.21 10.0571 29.4244 9.5809C29.5944 9.20298 29.7178 8.81986 29.7907 8.44255L30.0277 7.21692L30.6476 7.33697L31.491 2.97498L21.5206 1.04802L21.4415 1.45749C20.8275 0.669491 19.9418 0.148856 18.971 0.026966C18.1171 -0.0802233 17.2826 0.134769 16.5947 0.625083C15.8919 0.156513 15.0515 -0.032448 14.2007 0.100161C13.0149 0.286364 11.9752 1.06885 11.42 2.19311C11.306 2.4228 11.2138 2.6629 11.1434 2.90974L10.6638 0.631822L3.88913 2.05805L4.80392 6.40565L5.53311 6.25191L5.6498 6.80531L4.9206 6.95905L5.83539 11.3054L6.52722 11.1596L4.89243 11.725C1.96616 12.7369 0 15.6138 0 18.8843V19.4824C0 20.2989 0.266749 21.0793 0.746651 21.7049V25.0722C0.449277 25.4958 0.277773 26.044 0.264911 26.6574C0.252967 27.2439 0.410382 27.8205 0.719088 28.3222L0.746651 28.3666V36.4517C0.746651 38.4084 2.33856 40 4.29492 40H31.1642C33.1209 40 34.7125 38.4084 34.7125 36.4517V31.0313C35.1639 30.4611 35.3063 29.7071 35.3088 29.2759C35.3124 28.6309 35.091 27.9905 34.7125 27.5109V22.1698Z" fill="white"/>
<path fill-rule="evenodd" clip-rule="evenodd" d="M31.1644 38.6215H4.29482C3.09644 38.6215 2.125 37.6498 2.125 36.4514V27.7991C2.23709 27.8346 2.36602 27.8224 2.52436 27.8408C2.69096 27.8597 2.85634 27.8907 3.01773 27.9366C3.38218 28.0404 3.70191 28.2251 4.00296 28.4413V34.8301C4.00296 35.887 4.85955 36.7436 5.91613 36.7436H29.5431C30.5997 36.7436 31.4563 35.8867 31.4563 34.8301V30.0354C31.5809 30.0859 31.7083 30.1312 31.8388 30.1704C32.2173 30.2847 32.6733 30.3974 33.0874 30.3974C33.1535 30.3974 33.2188 30.3946 33.2825 30.3882C33.3002 30.3867 33.3174 30.3839 33.3342 30.3799V36.4514C33.3342 37.6498 32.3628 38.6215 31.1644 38.6215ZM33.3342 28.1424C33.22 28.1152 33.0938 28.1286 32.9661 28.1149C32.7977 28.0974 32.6305 28.0677 32.4672 28.023C32.0924 27.9201 31.7647 27.732 31.4563 27.5109V24.5145C31.7141 24.4006 31.8939 24.1427 31.8939 23.8429C31.8939 23.5434 31.7141 23.2855 31.4563 23.1719V21.813C31.6373 21.8348 31.8158 21.8473 31.9919 21.8473C32.4632 21.8476 32.915 21.7561 33.3342 21.4988V28.1424ZM4.00296 25.9153C3.96529 25.9003 3.92731 25.8859 3.88872 25.8715C3.41985 25.6988 2.93168 25.5922 2.43187 25.5671C2.42023 25.5665 2.40859 25.5662 2.39695 25.5662C2.29436 25.5662 2.20401 25.5892 2.125 25.6296V21.1748C2.47872 21.4847 2.92739 21.6667 3.40117 21.6667C3.59901 21.6667 3.80144 21.6348 4.00296 21.5674V25.9153Z" fill="url(#paint0_linear_50_4886)"/>
<path fill-rule="evenodd" clip-rule="evenodd" d="M29.5431 36.7439H5.91611C4.85952 36.7439 4.00293 35.8873 4.00293 34.8304V28.4416C4.19128 28.5767 4.37227 28.7243 4.55235 28.8722C5.37587 29.5484 6.40091 30.39 8.32143 30.39C10.2423 30.39 11.2673 29.5484 12.0905 28.8725C12.8381 28.2588 13.378 27.8156 14.5929 27.8156C15.8081 27.8156 16.3478 28.2588 17.0953 28.8722C17.9186 29.5484 18.9436 30.39 20.8644 30.39C22.7853 30.39 23.8103 29.5484 24.6341 28.8725C25.3814 28.2588 25.9216 27.8156 27.1368 27.8156C28.3521 27.8156 28.892 28.2588 29.6392 28.8722C29.7232 28.9414 29.8074 29.01 29.8919 29.078C30.3739 29.4648 30.8866 29.8051 31.4563 30.0357V34.8304C31.4563 35.887 30.5997 36.7439 29.5431 36.7439ZM7.91075 34.5909C7.50557 34.5909 7.17726 34.9192 7.17726 35.3244C7.17726 35.7296 7.50557 36.0582 7.91075 36.0582C8.31592 36.0582 8.64423 35.7296 8.64423 35.3244C8.64423 34.9192 8.31592 34.5909 7.91075 34.5909ZM28.3435 33.0275C27.9383 33.0275 27.61 33.3558 27.61 33.761C27.61 34.1658 27.9383 34.4945 28.3435 34.4945C28.7487 34.4945 29.077 34.1658 29.077 33.761C29.077 33.3558 28.7487 33.0275 28.3435 33.0275ZM5.14771 32.1387C4.92078 32.1387 4.73702 32.3225 4.73702 32.5494C4.73702 32.7764 4.92078 32.9601 5.14771 32.9601C5.37465 32.9601 5.5584 32.7764 5.5584 32.5494C5.5584 32.3225 5.37465 32.1387 5.14771 32.1387ZM14.758 29.0367C14.5314 29.0367 14.3473 29.2207 14.3473 29.4477C14.3473 29.6743 14.5314 29.8584 14.758 29.8584C14.9849 29.8584 15.169 29.6743 15.169 29.4477C15.169 29.2207 14.9849 29.0367 14.758 29.0367ZM20.8644 28.1375C19.6495 28.1375 19.1096 27.6941 18.362 27.0806C17.5385 26.4044 16.5138 25.5631 14.5929 25.5631C12.6721 25.5631 11.6474 26.4044 10.8238 27.0806C10.0763 27.6941 9.53665 28.1375 8.32143 28.1375C7.10652 28.1375 6.56659 27.6941 5.81933 27.0806C5.33208 26.6807 4.77469 26.2228 4.00293 25.9156V21.5677C4.01916 21.5622 4.0357 21.5564 4.05224 21.5506L5.17374 21.1423C5.33606 21.0832 5.4996 21.0557 5.65885 21.0557C6.45083 21.0557 7.15031 21.7374 7.16624 22.6531L7.22045 25.7441C7.2327 26.4497 7.80846 27.0157 8.51437 27.0157C9.2108 27.0157 9.78227 26.4644 9.80738 25.768L9.88977 23.4886C9.97154 22.805 10.6474 22.1092 11.2866 22.0801C11.3163 22.0789 11.3457 22.0783 11.3748 22.0783C11.9821 22.0783 12.5628 22.3579 13.1146 22.6393C13.6928 22.9342 14.2919 23.2432 14.932 23.25H14.9531C15.7616 23.25 16.4957 22.7728 17.209 22.3597C17.7743 22.0317 18.4055 21.7294 19.0321 21.7294C19.2027 21.7294 19.3727 21.7518 19.5411 21.802C20.2537 22.0152 20.7692 22.6828 21.4411 23.0154C21.7957 23.1912 22.1724 23.2647 22.5559 23.2647C23.3056 23.2647 24.0816 22.9835 24.7732 22.635C25.8187 22.1086 26.8373 21.4226 27.9864 21.3077C28.1028 21.2961 28.2201 21.2909 28.3377 21.2909C28.9425 21.2909 29.5654 21.4299 30.1825 21.5693C30.6125 21.6663 31.0401 21.7634 31.4563 21.8133V23.1722C31.3659 23.1321 31.2658 23.11 31.1604 23.11C30.7552 23.11 30.4269 23.4383 30.4269 23.8432C30.4269 24.2484 30.7552 24.577 31.1604 24.577C31.2658 24.577 31.3659 24.5546 31.4563 24.5148V27.5112C31.2679 27.3762 31.0866 27.2285 30.9062 27.0806C30.0827 26.4044 29.0577 25.5631 27.1368 25.5631C25.216 25.5631 24.191 26.4044 23.3671 27.0806C22.6199 27.6941 22.0799 28.1375 20.8644 28.1375ZM19.1007 24.0487C18.8738 24.0487 18.69 24.2328 18.69 24.4594C18.69 24.6863 18.8738 24.8704 19.1007 24.8704C19.3276 24.8704 19.5114 24.6863 19.5114 24.4594C19.5114 24.2328 19.3276 24.0487 19.1007 24.0487ZM5.54462 22.9924C5.31799 22.9924 5.13393 23.1765 5.13393 23.4034C5.13393 23.63 5.31799 23.8141 5.54462 23.8141C5.77186 23.8141 5.95561 23.63 5.95561 23.4034C5.95561 23.1765 5.77186 22.9924 5.54462 22.9924ZM27.3166 22.5229C27.0897 22.5229 26.9056 22.7067 26.9056 22.9336C26.9056 23.1606 27.0897 23.3443 27.3166 23.3443C27.5432 23.3443 27.7273 23.1606 27.7273 22.9336C27.7273 22.7067 27.5432 22.5229 27.3166 22.5229Z" fill="url(#paint1_linear_50_4886)"/>
<path fill-rule="evenodd" clip-rule="evenodd" d="M5.14799 32.9601C4.92106 32.9601 4.7373 32.7763 4.7373 32.5494C4.7373 32.3224 4.92106 32.1387 5.14799 32.1387C5.37493 32.1387 5.55868 32.3224 5.55868 32.5494C5.55868 32.7763 5.37493 32.9601 5.14799 32.9601Z" fill="url(#paint2_linear_50_4886)"/>
<path fill-rule="evenodd" clip-rule="evenodd" d="M14.7574 29.8588C14.5307 29.8588 14.3467 29.6747 14.3467 29.4481C14.3467 29.2212 14.5307 29.0371 14.7574 29.0371C14.9843 29.0371 15.1684 29.2212 15.1684 29.4481C15.1684 29.6747 14.9843 29.8588 14.7574 29.8588Z" fill="url(#paint3_linear_50_4886)"/>
<path fill-rule="evenodd" clip-rule="evenodd" d="M27.3163 23.3448C27.0893 23.3448 26.9053 23.1611 26.9053 22.9341C26.9053 22.7072 27.0893 22.5234 27.3163 22.5234C27.5429 22.5234 27.727 22.7072 27.727 22.9341C27.727 23.1611 27.5429 23.3448 27.3163 23.3448Z" fill="url(#paint4_linear_50_4886)"/>
<path fill-rule="evenodd" clip-rule="evenodd" d="M28.3438 34.4943C27.9387 34.4943 27.6104 34.1657 27.6104 33.7608C27.6104 33.3556 27.9387 33.0273 28.3438 33.0273C28.749 33.0273 29.0773 33.3556 29.0773 33.7608C29.0773 34.1657 28.749 34.4943 28.3438 34.4943Z" fill="url(#paint5_linear_50_4886)"/>
<path fill-rule="evenodd" clip-rule="evenodd" d="M31.4561 24.5155V23.1729C31.7139 23.2865 31.8937 23.5443 31.8937 23.8439C31.8937 24.1437 31.7139 24.4015 31.4561 24.5155Z" fill="url(#paint6_linear_50_4886)"/>
<path fill-rule="evenodd" clip-rule="evenodd" d="M31.1602 24.5763C30.7551 24.5763 30.4268 24.2477 30.4268 23.8426C30.4268 23.4377 30.7551 23.1094 31.1602 23.1094C31.2656 23.1094 31.3657 23.1314 31.4561 23.1715V24.5142C31.3657 24.554 31.2656 24.5763 31.1602 24.5763Z" fill="url(#paint7_linear_50_4886)"/>
<path fill-rule="evenodd" clip-rule="evenodd" d="M7.91122 36.0581C7.50604 36.0581 7.17773 35.7295 7.17773 35.3243C7.17773 34.9191 7.50604 34.5908 7.91122 34.5908C8.31639 34.5908 8.6447 34.9191 8.6447 35.3243C8.6447 35.7295 8.31639 36.0581 7.91122 36.0581Z" fill="url(#paint8_linear_50_4886)"/>
<path fill-rule="evenodd" clip-rule="evenodd" d="M19.1011 24.8705C18.8742 24.8705 18.6904 24.6865 18.6904 24.4595C18.6904 24.2329 18.8742 24.0488 19.1011 24.0488C19.3281 24.0488 19.5118 24.2329 19.5118 24.4595C19.5118 24.6865 19.3281 24.8705 19.1011 24.8705Z" fill="url(#paint9_linear_50_4886)"/>
<path fill-rule="evenodd" clip-rule="evenodd" d="M5.54448 23.8139C5.31785 23.8139 5.13379 23.6298 5.13379 23.4032C5.13379 23.1762 5.31785 22.9922 5.54448 22.9922C5.77172 22.9922 5.95547 23.1762 5.95547 23.4032C5.95547 23.6298 5.77172 23.8139 5.54448 23.8139Z" fill="url(#paint10_linear_50_4886)"/>
<path d="M33.3967 30.36C33.3606 30.3744 33.3226 30.3842 33.2825 30.3879C32.8212 30.4335 32.2776 30.3027 31.8388 30.1701C31.1123 29.9511 30.4796 29.5487 29.8919 29.0774C29.8074 29.0094 29.7232 28.9408 29.6392 28.8716C28.892 28.2582 28.3521 27.815 27.1368 27.815C25.9216 27.815 25.3814 28.2582 24.6341 28.8719C23.8103 29.5478 22.7853 30.3894 20.8644 30.3894C18.9436 30.3894 17.9186 29.5478 17.0953 28.8716C16.3478 28.2582 15.8082 27.815 14.5929 27.815C13.378 27.815 12.8381 28.2582 12.0905 28.8719C11.2673 29.5478 10.2423 30.3894 8.32144 30.3894C6.40091 30.3894 5.37588 29.5478 4.55235 28.8716C4.0847 28.4875 3.61031 28.105 3.01771 27.9363C2.85631 27.8903 2.69094 27.8594 2.52433 27.8404C2.24595 27.8083 2.05883 27.8704 1.89437 27.6028C1.72623 27.3284 1.63619 27.0071 1.64293 26.6846C1.65273 26.2072 1.85884 25.5383 2.43184 25.5668C2.93165 25.5919 3.41982 25.6985 3.8887 25.8712C4.72018 26.1775 5.3085 26.6604 5.81933 27.08C6.5666 27.6934 7.10652 28.1369 8.32144 28.1369C9.53666 28.1369 10.0763 27.6934 10.8238 27.08C11.6474 26.4038 12.6721 25.5625 14.5929 25.5625C16.5138 25.5625 17.5385 26.4038 18.362 27.08C19.1096 27.6934 19.6495 28.1369 20.8644 28.1369C22.08 28.1369 22.6199 27.6934 23.3671 27.08C24.191 26.4038 25.216 25.5625 27.1368 25.5625C29.0577 25.5625 30.0827 26.4038 30.9062 27.08C31.3815 27.4702 31.8633 27.857 32.4672 28.0226C32.6304 28.0674 32.7977 28.0971 32.9661 28.1145C33.1566 28.135 33.3437 28.0949 33.4926 28.2196C33.7807 28.4615 33.9326 28.9013 33.9305 29.2673C33.9287 29.6023 33.7495 30.217 33.3967 30.36Z" fill="#DD127B"/>
<path d="M33.0873 29.7852C32.8135 29.7852 32.4632 29.7193 32.0158 29.584C31.4541 29.4149 30.901 29.1019 30.275 28.5997C30.1917 28.5335 30.1099 28.4665 30.0288 28.3991C29.2463 27.7569 28.571 27.2028 27.1368 27.2028C25.702 27.2028 25.027 27.7569 24.2454 28.3988C23.4578 29.0453 22.5656 29.7772 20.8644 29.7772C19.1628 29.7772 18.2707 29.045 17.4836 28.3985C16.7018 27.7569 16.0268 27.2028 14.5929 27.2028C13.1584 27.2028 12.4834 27.7569 11.7018 28.3988C10.9145 29.0453 10.0226 29.7772 8.3214 29.7772C6.61985 29.7772 5.72803 29.045 4.94096 28.3985C4.48311 28.0227 3.91316 27.5547 3.1855 27.3477C3.00083 27.295 2.80146 27.2561 2.59412 27.2322C2.52001 27.2237 2.4508 27.2203 2.38618 27.2172L2.37944 27.2169C2.29461 27.0537 2.25142 26.873 2.2551 26.6978C2.26092 26.4198 2.35647 26.2087 2.40608 26.1738C2.82382 26.2002 3.25288 26.2899 3.67674 26.4464C4.41205 26.7171 4.92963 27.1425 5.43035 27.5535C6.21253 28.1957 6.88751 28.7497 8.3214 28.7497C9.75559 28.7497 10.4303 28.1957 11.2118 27.5541C11.9995 26.9076 12.8913 26.1751 14.5929 26.1751C16.2944 26.1751 17.1866 26.9076 17.973 27.5538C18.7552 28.1957 19.4302 28.7497 20.8644 28.7497C22.2992 28.7497 22.9745 28.1954 23.7557 27.5535C24.5431 26.9073 25.4352 26.1751 27.1368 26.1751C28.8377 26.1751 29.7299 26.9073 30.5166 27.5529C30.9815 27.9348 31.5588 28.4089 32.3049 28.6135C32.4926 28.6649 32.6935 28.7023 32.9021 28.7243C32.9691 28.7314 33.0368 28.7335 33.1036 28.735L33.1443 28.7357C33.2457 28.8569 33.3189 29.0735 33.3179 29.2639C33.317 29.4342 33.231 29.6878 33.1596 29.7834L33.0873 29.7852Z" fill="#E63393"/>
<path d="M32.9219 16.4028L19.5921 11.2228C16.8349 10.1516 13.8266 10.094 11.036 11.0587L5.3424 13.027C2.97995 13.8438 1.37793 16.2105 1.37793 18.8838V19.4819C1.37793 20.9752 2.73862 22.0275 4.05184 21.5501L5.17335 21.1418C6.14081 20.7899 7.14655 21.5525 7.16584 22.6526L7.22005 25.7436C7.2323 26.4492 7.80806 27.0152 8.51398 27.0152C9.2104 27.0152 9.78188 26.4639 9.80699 25.7675L9.88937 23.488C9.97114 22.8045 10.647 22.1087 11.2862 22.0796C11.9257 22.0508 12.5357 22.3439 13.1142 22.6388C13.6924 22.9337 14.2915 23.2427 14.9316 23.2495C15.7483 23.2577 16.4892 22.776 17.2086 22.3592C17.9277 21.9418 18.7536 21.5663 19.5407 21.8015C20.2534 22.0147 20.7688 22.6823 21.4407 23.0149C22.489 23.5343 23.7275 23.1613 24.7728 22.6345C25.8183 22.1081 26.8369 21.4221 27.986 21.3072C28.6993 21.2362 29.445 21.4025 30.1821 21.5687C31.3165 21.8248 32.431 22.0808 33.377 21.4714C35.27 20.2515 34.9971 17.2092 32.9219 16.4028Z" fill="#630131"/>
<path d="M17.0367 18.561C16.0163 18.561 14.9995 18.5218 13.9837 18.4718C13.4293 18.4449 12.875 18.4127 12.3216 18.3729C11.7676 18.3392 11.2148 18.2927 10.662 18.2477C9.55583 18.1613 8.45209 18.0449 7.35018 17.912C6.24889 17.7699 5.14882 17.6134 4.05518 17.3862C3.89318 17.3525 3.78905 17.1938 3.82274 17.0321C3.85152 16.8934 3.97188 16.7972 4.10755 16.7936C4.3838 16.7856 4.65973 16.7822 4.93567 16.7822C5.77358 16.7822 6.60905 16.8144 7.44359 16.8548C8.55193 16.9173 9.65904 16.9966 10.7628 17.1059C11.3153 17.1583 11.8678 17.2101 12.419 17.2741C12.9706 17.332 13.5218 17.3972 14.0725 17.4685C15.1738 17.6094 16.2742 17.7638 17.3699 17.9674C17.5322 17.9974 17.6394 18.1533 17.6091 18.3156C17.5825 18.4587 17.4578 18.5588 17.3176 18.5597C17.2239 18.5603 17.1301 18.561 17.0367 18.561Z" fill="#9C1450"/>
<path d="M25.0712 19.399C24.5211 19.399 23.9739 19.3674 23.4293 19.3117C22.8671 19.2554 22.3072 19.1748 21.7501 19.0664C21.1937 18.9509 20.6384 18.8217 20.0905 18.6156C20.0278 18.592 19.9959 18.5216 20.0195 18.4588C20.0351 18.4168 20.0719 18.389 20.1129 18.3819C20.6899 18.2833 21.2595 18.2619 21.8279 18.2539H21.8635C22.419 18.2539 22.9721 18.2812 23.5231 18.3311C24.0856 18.3813 24.6461 18.457 25.2032 18.5669C25.7599 18.6784 26.3146 18.8128 26.8615 19.0275C26.9243 19.052 26.9553 19.1228 26.9308 19.1855C26.9148 19.2263 26.8793 19.2535 26.8392 19.2609C26.2616 19.3681 25.6913 19.395 25.1235 19.399H25.0712Z" fill="#9C1450"/>
<path fill-rule="evenodd" clip-rule="evenodd" d="M12.3013 35.7958C13.2859 35.7958 14.0889 35.4865 14.0889 35.107C14.0889 34.7276 13.2859 34.418 12.3013 34.418C11.317 34.418 10.5137 34.7276 10.5137 35.107C10.5137 35.4865 11.317 35.7958 12.3013 35.7958Z" fill="#F27385"/>
<path fill-rule="evenodd" clip-rule="evenodd" d="M22.9409 35.7958C23.9255 35.7958 24.7288 35.4865 24.7288 35.107C24.7288 34.7276 23.9255 34.418 22.9409 34.418C21.9563 34.418 21.1533 34.7276 21.1533 35.107C21.1533 35.4865 21.9563 35.7958 22.9409 35.7958Z" fill="#F27385"/>
<path fill-rule="evenodd" clip-rule="evenodd" d="M11.0373 32.5373C11.0373 32.7596 10.8572 32.9397 10.6348 32.9397C10.4128 32.9397 10.2324 32.7596 10.2324 32.5373C10.2324 31.9551 10.4685 31.4277 10.8501 31.0464C11.2317 30.6648 11.7588 30.4287 12.341 30.4287C12.9232 30.4287 13.4506 30.6648 13.8321 31.0464C14.2137 31.4277 14.4499 31.9551 14.4499 32.5373C14.4499 32.7596 14.2695 32.9397 14.0474 32.9397C13.8251 32.9397 13.645 32.7596 13.645 32.5373C13.645 32.1774 13.4989 31.8513 13.2631 31.6151C13.0273 31.3793 12.7011 31.2335 12.341 31.2335C11.9811 31.2335 11.655 31.3793 11.4192 31.6151C11.1833 31.8513 11.0373 32.1774 11.0373 32.5373Z" fill="#630131"/>
<path fill-rule="evenodd" clip-rule="evenodd" d="M19.0923 33.9874C19.0923 33.7653 19.2724 33.585 19.4947 33.585C19.7167 33.585 19.8968 33.7653 19.8968 33.9874C19.8968 34.5699 19.661 35.0969 19.2794 35.4782C18.8978 35.8601 18.3708 36.0959 17.7886 36.0959C17.2064 36.0959 16.679 35.8601 16.2974 35.4782C15.9158 35.0969 15.6797 34.5699 15.6797 33.9874C15.6797 33.7653 15.8601 33.585 16.0821 33.585C16.3044 33.585 16.4845 33.7653 16.4845 33.9874C16.4845 34.3475 16.6306 34.6737 16.8664 34.9095C17.1022 35.1456 17.4284 35.2911 17.7886 35.2911C18.1484 35.2911 18.4746 35.1456 18.7104 34.9095C18.9462 34.6737 19.0923 34.3475 19.0923 33.9874Z" fill="#630131"/>
<path fill-rule="evenodd" clip-rule="evenodd" d="M21.713 32.5373C21.713 32.7596 21.533 32.9397 21.3106 32.9397C21.0886 32.9397 20.9082 32.7596 20.9082 32.5373C20.9082 31.9551 21.1443 31.4277 21.5259 31.0464C21.9075 30.6648 22.4349 30.4287 23.0171 30.4287C23.599 30.4287 24.1263 30.6648 24.5079 31.0464C24.8895 31.4277 25.1256 31.9551 25.1256 32.5373C25.1256 32.7596 24.9456 32.9397 24.7232 32.9397C24.5009 32.9397 24.3208 32.7596 24.3208 32.5373C24.3208 32.1774 24.1747 31.8513 23.9386 31.6151C23.7028 31.3793 23.3769 31.2335 23.0171 31.2335C22.6569 31.2335 22.3311 31.3793 22.0949 31.6151C21.8591 31.8513 21.713 32.1774 21.713 32.5373Z" fill="#630131"/>
<path d="M9.84572 14.2799L8.69727 8.2314L8.99801 8.17383L10.1465 14.2224L9.84572 14.2799Z" fill="#DD127B"/>
<path fill-rule="evenodd" clip-rule="evenodd" d="M6.90024 9.67357L6.55295 8.02378C6.81388 7.96865 6.99335 7.89454 7.09135 7.80113C7.18935 7.70803 7.21783 7.5647 7.17741 7.37207L6.70394 5.12171C6.66259 4.92631 6.57837 4.80534 6.45097 4.75971C6.32357 4.71347 6.12971 4.71806 5.86878 4.77319L5.52148 3.12308L9.59927 2.26465L9.94656 3.91445C9.68563 3.96957 9.50678 4.04338 9.41062 4.13679C9.31384 4.22958 9.28628 4.37414 9.32762 4.56983L9.80109 6.81958C9.84183 7.01252 9.92482 7.13196 10.0507 7.17821C10.1766 7.22476 10.3698 7.22016 10.6307 7.16504L10.978 8.81514L6.90024 9.67357Z" fill="url(#paint11_linear_50_4886)"/>
<path d="M24.8092 14.2798L24.5088 14.2216L25.4658 9.2832L25.7663 9.34139L24.8092 14.2798Z" fill="#DD127B"/>
<path fill-rule="evenodd" clip-rule="evenodd" d="M26.5786 3.42866L26.2586 5.08398C26.0326 5.04049 25.8691 5.04478 25.7677 5.09776C25.6666 5.15074 25.6002 5.25762 25.5692 5.41841L25.1708 7.47981C25.1497 7.58976 25.1411 7.69756 25.1454 7.80322C25.1497 7.90918 25.1729 8.00688 25.2158 8.09691C25.2584 8.18695 25.3239 8.26444 25.4115 8.32936C25.4994 8.39398 25.6176 8.44084 25.7665 8.46963C26.0519 8.52475 26.2745 8.48984 26.4344 8.36489C26.5946 8.23994 26.6993 8.04975 26.7486 7.79372L27.1452 5.7415C27.1807 5.55683 27.1498 5.42239 27.0521 5.33694C26.9544 5.2518 26.8089 5.19055 26.6157 5.15319L26.9357 3.49788L29.8755 4.06598L29.5561 5.72129C29.3567 5.6827 29.1977 5.68209 29.0795 5.71976C28.9613 5.75712 28.8841 5.86768 28.8486 6.05205L28.4373 8.18052C28.3843 8.45401 28.2946 8.73209 28.1675 9.01446C28.0401 9.29713 27.8511 9.54121 27.6 9.74732C27.3486 9.95343 27.0187 10.1007 26.6096 10.1899C26.2004 10.279 25.685 10.2634 25.0633 10.1433C24.6113 10.056 24.2303 9.93996 23.92 9.7951C23.6104 9.65024 23.3553 9.48915 23.155 9.31183C22.955 9.1342 22.8044 8.94708 22.7036 8.75016C22.6028 8.55293 22.5336 8.35631 22.496 8.15908C22.4586 7.96216 22.4448 7.77412 22.4546 7.59557C22.4644 7.41703 22.4834 7.25471 22.5116 7.10924L22.9266 4.963C22.9642 4.7667 22.9336 4.62245 22.8341 4.53118C22.7345 4.43931 22.5538 4.36795 22.292 4.31742L22.612 2.66211L26.5786 3.42866Z" fill="url(#paint12_linear_50_4886)"/>
<path d="M6.37303 14.9651C5.96418 14.9651 5.63281 14.8224 5.63281 14.6463C5.63281 14.4702 5.96418 14.3271 6.37303 14.3271C6.78158 14.3271 7.11325 14.4702 7.11325 14.6463C7.11325 14.8224 6.78158 14.9651 6.37303 14.9651Z" fill="#380018"/>
<path d="M7.01076 14.0205C7.01076 14.3375 6.75381 14.5947 6.43653 14.5947C6.11956 14.5947 5.8623 14.3375 5.8623 14.0205C5.8623 13.7035 6.11956 13.4463 6.43653 13.4463C6.75381 13.4463 7.01076 13.7035 7.01076 14.0205Z" fill="#ECEFD5"/>
<path d="M10.6862 16.2414C10.2777 16.2414 9.94629 16.0984 9.94629 15.9223C9.94629 15.7462 10.2777 15.6035 10.6862 15.6035C11.0951 15.6035 11.4264 15.7462 11.4264 15.9223C11.4264 16.0984 11.0951 16.2414 10.6862 16.2414Z" fill="#380018"/>
<path d="M11.3242 15.2969C11.3242 15.6139 11.067 15.8711 10.75 15.8711C10.4327 15.8711 10.1758 15.6139 10.1758 15.2969C10.1758 14.9796 10.4327 14.7227 10.75 14.7227C11.067 14.7227 11.3242 14.9796 11.3242 15.2969Z" fill="#DD127B"/>
<path d="M20.6142 14.0207C20.2054 14.0207 19.874 13.8777 19.874 13.7016C19.874 13.5255 20.2054 13.3828 20.6142 13.3828C21.0231 13.3828 21.3545 13.5255 21.3545 13.7016C21.3545 13.8777 21.0231 14.0207 20.6142 14.0207Z" fill="#380018"/>
<path d="M21.2523 13.0772C21.2523 13.3941 20.995 13.6514 20.6777 13.6514C20.3608 13.6514 20.1035 13.3941 20.1035 13.0772C20.1035 12.7599 20.3608 12.5029 20.6777 12.5029C20.995 12.5029 21.2523 12.7599 21.2523 13.0772Z" fill="#DD127B"/>
<path d="M12.4469 13.0256C12.0384 13.0256 11.707 12.8826 11.707 12.7065C11.707 12.5304 12.0384 12.3877 12.4469 12.3877C12.8558 12.3877 13.1872 12.5304 13.1872 12.7065C13.1872 12.8826 12.8558 13.0256 12.4469 13.0256Z" fill="#380018"/>
<path d="M13.085 12.082C13.085 12.399 12.8277 12.6563 12.5108 12.6563C12.1935 12.6563 11.9365 12.399 11.9365 12.082C11.9365 11.7648 12.1935 11.5078 12.5108 11.5078C12.8277 11.5078 13.085 11.7648 13.085 12.082Z" fill="#ECEFD5"/>
<path d="M17.6787 16.4202C17.2698 16.4202 16.9385 16.2774 16.9385 16.1013C16.9385 15.9253 17.2698 15.7822 17.6787 15.7822C18.0872 15.7822 18.4186 15.9253 18.4186 16.1013C18.4186 16.2774 18.0872 16.4202 17.6787 16.4202Z" fill="#380018"/>
<path d="M18.3174 15.4756C18.3174 15.7926 18.0601 16.0498 17.7432 16.0498C17.4259 16.0498 17.1689 15.7926 17.1689 15.4756C17.1689 15.1586 17.4259 14.9014 17.7432 14.9014C18.0601 14.9014 18.3174 15.1586 18.3174 15.4756Z" fill="#ECEFD5"/>
<path d="M31.8428 18.9465C31.4339 18.9465 31.1025 18.8038 31.1025 18.6277C31.1025 18.4516 31.4339 18.3086 31.8428 18.3086C32.2513 18.3086 32.583 18.4516 32.583 18.6277C32.583 18.8038 32.2513 18.9465 31.8428 18.9465Z" fill="#380018"/>
<path d="M32.4815 18.002C32.4815 18.3189 32.2245 18.5762 31.9072 18.5762C31.5903 18.5762 31.333 18.3189 31.333 18.002C31.333 17.685 31.5903 17.4277 31.9072 17.4277C32.2245 17.4277 32.4815 17.685 32.4815 18.002Z" fill="#DD127B"/>
<path d="M24.6972 16.803C24.2884 16.803 23.957 16.6603 23.957 16.4842C23.957 16.3081 24.2884 16.165 24.6972 16.165C25.1058 16.165 25.4375 16.3081 25.4375 16.4842C25.4375 16.6603 25.1058 16.803 24.6972 16.803Z" fill="#380018"/>
<path d="M25.335 15.8584C25.335 16.1754 25.078 16.4326 24.7608 16.4326C24.4435 16.4326 24.1865 16.1754 24.1865 15.8584C24.1865 15.5414 24.4435 15.2842 24.7608 15.2842C25.078 15.2842 25.335 15.5414 25.335 15.8584Z" fill="#ECEFD5"/>
<path d="M11.1303 14.4269C11.1165 14.0324 10.5873 13.7148 9.93348 13.7148C9.27962 13.7148 8.75011 14.0324 8.73633 14.4269H11.1303Z" fill="#630131"/>
<path d="M17.893 14.3878C17.8792 13.9934 17.3497 13.6758 16.6959 13.6758C16.042 13.6758 15.5128 13.9934 15.499 14.3878H17.893Z" fill="#630131"/>
<path d="M25.8686 14.5294C25.8548 14.135 25.3253 13.8174 24.6715 13.8174C24.0176 13.8174 23.4884 14.135 23.4746 14.5294H25.8686Z" fill="#630131"/>
<path d="M16.8111 7.51367H16.5049V14.213H16.8111V7.51367Z" fill="#DD127B"/>
<path d="M20.5992 2.68128C19.8743 1.32212 18.1179 0.88295 17.0472 2.05621C17.0472 2.05621 16.7529 2.37839 16.624 2.51958C16.4911 2.38268 16.1863 2.06908 16.1863 2.06908C15.0798 0.929197 13.3378 1.42288 12.6552 2.80348C12.2935 3.53512 12.2607 4.43153 12.526 5.20972C12.8289 6.09847 13.555 6.73243 14.203 7.33881C14.9074 7.99757 16.6408 9.08263 16.7229 9.08967L16.7272 9.08997C16.805 9.08354 18.5074 7.94305 19.1922 7.26194C19.8213 6.63595 20.5275 5.97965 20.8025 5.08232C21.0438 4.29647 20.9835 3.40129 20.5992 2.68128Z" fill="#DD127B"/>
<path d="M17.6666 7.49186C17.1949 7.49186 16.749 7.11823 16.749 6.57646V3.64468C16.749 3.41714 16.8342 3.19755 16.9876 3.02942L17.4987 2.46989C17.7845 2.1569 18.1449 1.99121 18.5415 1.99121C19.1455 1.99121 19.7405 2.37556 20.0578 2.97031C20.3567 3.53014 20.4158 4.25321 20.2161 4.9037C20.0039 5.59553 19.4346 6.15965 18.8836 6.70509L18.7593 6.82851C18.6205 6.96663 18.434 7.12649 18.227 7.29218C18.0549 7.42999 17.8586 7.49217 17.6666 7.49186Z" fill="#E63393"/>
<defs>
<linearGradient id="paint0_linear_50_4886" x1="17.7297" y1="14.9394" x2="17.7297" y2="30.9415" gradientUnits="userSpaceOnUse">
<stop stop-color="#FAAB53"/>
<stop offset="1" stop-color="#F8992C"/>
</linearGradient>
<linearGradient id="paint1_linear_50_4886" x1="17.7297" y1="28.4661" x2="17.7297" y2="43.5769" gradientUnits="userSpaceOnUse">
<stop stop-color="#FAAB53"/>
<stop offset="1" stop-color="#F8992C"/>
</linearGradient>
<linearGradient id="paint2_linear_50_4886" x1="17.7299" y1="28.4661" x2="17.7299" y2="43.5768" gradientUnits="userSpaceOnUse">
<stop stop-color="#F47927"/>
<stop offset="1" stop-color="#DA6826"/>
</linearGradient>
<linearGradient id="paint3_linear_50_4886" x1="17.729" y1="28.4666" x2="17.729" y2="43.5773" gradientUnits="userSpaceOnUse">
<stop stop-color="#F47927"/>
<stop offset="1" stop-color="#DA6826"/>
</linearGradient>
<linearGradient id="paint4_linear_50_4886" x1="17.7293" y1="28.4666" x2="17.7293" y2="43.5773" gradientUnits="userSpaceOnUse">
<stop stop-color="#F47927"/>
<stop offset="1" stop-color="#DA6826"/>
</linearGradient>
<linearGradient id="paint5_linear_50_4886" x1="17.73" y1="28.466" x2="17.73" y2="43.5768" gradientUnits="userSpaceOnUse">
<stop stop-color="#F47927"/>
<stop offset="1" stop-color="#DA6826"/>
</linearGradient>
<linearGradient id="paint6_linear_50_4886" x1="17.7295" y1="14.9404" x2="17.7295" y2="30.9424" gradientUnits="userSpaceOnUse">
<stop stop-color="#F47927"/>
<stop offset="1" stop-color="#DA6826"/>
</linearGradient>
<linearGradient id="paint7_linear_50_4886" x1="17.7295" y1="28.4655" x2="17.7295" y2="43.5763" gradientUnits="userSpaceOnUse">
<stop stop-color="#F47927"/>
<stop offset="1" stop-color="#DA6826"/>
</linearGradient>
<linearGradient id="paint8_linear_50_4886" x1="17.7301" y1="28.466" x2="17.7301" y2="43.5768" gradientUnits="userSpaceOnUse">
<stop stop-color="#F47927"/>
<stop offset="1" stop-color="#DA6826"/>
</linearGradient>
<linearGradient id="paint9_linear_50_4886" x1="17.7301" y1="28.4663" x2="17.7301" y2="43.577" gradientUnits="userSpaceOnUse">
<stop stop-color="#F47927"/>
<stop offset="1" stop-color="#DA6826"/>
</linearGradient>
<linearGradient id="paint10_linear_50_4886" x1="17.7295" y1="28.4659" x2="17.7295" y2="43.5766" gradientUnits="userSpaceOnUse">
<stop stop-color="#F47927"/>
<stop offset="1" stop-color="#DA6826"/>
</linearGradient>
<linearGradient id="paint11_linear_50_4886" x1="5.52155" y1="5.96911" x2="10.9782" y2="5.96911" gradientUnits="userSpaceOnUse">
<stop stop-color="#FAAB53"/>
<stop offset="1" stop-color="#F8992C"/>
</linearGradient>
<linearGradient id="paint12_linear_50_4886" x1="22.292" y1="6.45447" x2="29.8757" y2="6.45447" gradientUnits="userSpaceOnUse">
<stop stop-color="#FAAB53"/>
<stop offset="1" stop-color="#F8992C"/>
</linearGradient>
</defs>
</svg>
